G04 #@! TF.FileFunction,Soldermask,Bot*
%FSLAX46Y46*%
G04 Gerber Fmt 4.6, Leading zero omitted, Abs format (unit mm)*
G04 Created by KiCad (PCBNEW (2015-10-25 BZR 6279)-product) date Monday 26. October 2015 20.42.08*
%MOMM*%
G01*
G04 APERTURE LIST*
%ADD10C,0.100000*%
%ADD11R,0.900000X1.200000*%
%ADD12C,2.500000*%
%ADD13C,1.501140*%
%ADD14R,1.798320X1.767840*%
%ADD15R,1.727200X2.032000*%
%ADD16O,1.727200X2.032000*%
%ADD17R,1.727200X1.727200*%
%ADD18O,1.727200X1.727200*%
%ADD19R,2.032000X2.032000*%
%ADD20O,2.032000X2.032000*%
%ADD21R,0.750000X1.200000*%
%ADD22R,1.200000X0.750000*%
G04 APERTURE END LIST*
D10*
D11*
X152146000Y-89492000D03*
X152146000Y-87292000D03*
D12*
X160940000Y-75180000D03*
X160940000Y-87380000D03*
X148940000Y-75180000D03*
X148940000Y-87380000D03*
X154940000Y-73180000D03*
D13*
X169545000Y-92710000D03*
X169545000Y-95250000D03*
X149860000Y-92710000D03*
X149860000Y-95250000D03*
X187325000Y-92710000D03*
X187325000Y-95250000D03*
X180975000Y-92710000D03*
X180975000Y-95250000D03*
X175260000Y-92710000D03*
X175260000Y-95250000D03*
X163830000Y-92710000D03*
X163830000Y-95250000D03*
X203835000Y-92710000D03*
X203835000Y-95250000D03*
X209550000Y-92710000D03*
X209550000Y-95250000D03*
X156210000Y-95250000D03*
X156210000Y-92710000D03*
D14*
X181610000Y-80010000D03*
X177530760Y-80010000D03*
D12*
X193960000Y-75430000D03*
X193960000Y-87630000D03*
X181960000Y-75430000D03*
X181960000Y-87630000D03*
X187960000Y-73430000D03*
X177450000Y-75180000D03*
X177450000Y-87380000D03*
X165450000Y-75180000D03*
X165450000Y-87380000D03*
X171450000Y-73180000D03*
X210470000Y-75180000D03*
X210470000Y-87380000D03*
X198470000Y-75180000D03*
X198470000Y-87380000D03*
X204470000Y-73180000D03*
D15*
X170180000Y-111760000D03*
D16*
X172720000Y-111760000D03*
X175260000Y-111760000D03*
D15*
X158750000Y-111760000D03*
D16*
X161290000Y-111760000D03*
X163830000Y-111760000D03*
D17*
X207010000Y-113030000D03*
D18*
X207010000Y-110490000D03*
X209550000Y-113030000D03*
X209550000Y-110490000D03*
X212090000Y-113030000D03*
X212090000Y-110490000D03*
D19*
X181610000Y-111760000D03*
D20*
X184150000Y-111760000D03*
D19*
X148590000Y-111760000D03*
D20*
X151130000Y-111760000D03*
D15*
X201929999Y-67310000D03*
D16*
X204469999Y-67310000D03*
X207009999Y-67310000D03*
X209549999Y-67310000D03*
D15*
X184996666Y-67310000D03*
D16*
X187536666Y-67310000D03*
X190076666Y-67310000D03*
X192616666Y-67310000D03*
D15*
X151130000Y-67310000D03*
D16*
X153670000Y-67310000D03*
X156210000Y-67310000D03*
X158750000Y-67310000D03*
D15*
X168063333Y-67310000D03*
D16*
X170603333Y-67310000D03*
X173143333Y-67310000D03*
X175683333Y-67310000D03*
D21*
X170942000Y-85024000D03*
X170942000Y-83124000D03*
X154686000Y-84770000D03*
X154686000Y-82870000D03*
D22*
X201930000Y-112776000D03*
X203830000Y-112776000D03*
X201996000Y-110236000D03*
X203896000Y-110236000D03*
D11*
X168148000Y-82974000D03*
X168148000Y-85174000D03*
X168148000Y-89576000D03*
X168148000Y-87376000D03*
X152146000Y-82720000D03*
X152146000Y-84920000D03*
D21*
X167132000Y-112710000D03*
X167132000Y-110810000D03*
M02*
