G04 #@! TF.FileFunction,Copper,L2,Bot,Signal*
%FSLAX46Y46*%
G04 Gerber Fmt 4.6, Leading zero omitted, Abs format (unit mm)*
G04 Created by KiCad (PCBNEW (2015-10-25 BZR 6279)-product) date Monday 26. October 2015 20.42.08*
%MOMM*%
G01*
G04 APERTURE LIST*
%ADD10C,0.100000*%
%ADD11R,0.900000X1.200000*%
%ADD12C,2.100000*%
%ADD13C,1.501140*%
%ADD14R,1.798320X1.767840*%
%ADD15R,1.727200X2.032000*%
%ADD16O,1.727200X2.032000*%
%ADD17R,1.727200X1.727200*%
%ADD18O,1.727200X1.727200*%
%ADD19R,2.032000X2.032000*%
%ADD20O,2.032000X2.032000*%
%ADD21R,0.750000X1.200000*%
%ADD22R,1.200000X0.750000*%
%ADD23C,0.600000*%
%ADD24C,0.250000*%
%ADD25C,0.120000*%
G04 APERTURE END LIST*
D10*
D11*
X152146000Y-89492000D03*
X152146000Y-87292000D03*
D12*
X160940000Y-75180000D03*
X160940000Y-87380000D03*
X148940000Y-75180000D03*
X148940000Y-87380000D03*
X154940000Y-73180000D03*
D13*
X169545000Y-92710000D03*
X169545000Y-95250000D03*
X149860000Y-92710000D03*
X149860000Y-95250000D03*
X187325000Y-92710000D03*
X187325000Y-95250000D03*
X180975000Y-92710000D03*
X180975000Y-95250000D03*
X175260000Y-92710000D03*
X175260000Y-95250000D03*
X163830000Y-92710000D03*
X163830000Y-95250000D03*
X203835000Y-92710000D03*
X203835000Y-95250000D03*
X209550000Y-92710000D03*
X209550000Y-95250000D03*
X156210000Y-95250000D03*
X156210000Y-92710000D03*
D14*
X181610000Y-80010000D03*
X177530760Y-80010000D03*
D12*
X193960000Y-75430000D03*
X193960000Y-87630000D03*
X181960000Y-75430000D03*
X181960000Y-87630000D03*
X187960000Y-73430000D03*
X177450000Y-75180000D03*
X177450000Y-87380000D03*
X165450000Y-75180000D03*
X165450000Y-87380000D03*
X171450000Y-73180000D03*
X210470000Y-75180000D03*
X210470000Y-87380000D03*
X198470000Y-75180000D03*
X198470000Y-87380000D03*
X204470000Y-73180000D03*
D15*
X170180000Y-111760000D03*
D16*
X172720000Y-111760000D03*
X175260000Y-111760000D03*
D15*
X158750000Y-111760000D03*
D16*
X161290000Y-111760000D03*
X163830000Y-111760000D03*
D17*
X207010000Y-113030000D03*
D18*
X207010000Y-110490000D03*
X209550000Y-113030000D03*
X209550000Y-110490000D03*
X212090000Y-113030000D03*
X212090000Y-110490000D03*
D19*
X181610000Y-111760000D03*
D20*
X184150000Y-111760000D03*
D19*
X148590000Y-111760000D03*
D20*
X151130000Y-111760000D03*
D15*
X201929999Y-67310000D03*
D16*
X204469999Y-67310000D03*
X207009999Y-67310000D03*
X209549999Y-67310000D03*
D15*
X184996666Y-67310000D03*
D16*
X187536666Y-67310000D03*
X190076666Y-67310000D03*
X192616666Y-67310000D03*
D15*
X151130000Y-67310000D03*
D16*
X153670000Y-67310000D03*
X156210000Y-67310000D03*
X158750000Y-67310000D03*
D15*
X168063333Y-67310000D03*
D16*
X170603333Y-67310000D03*
X173143333Y-67310000D03*
X175683333Y-67310000D03*
D21*
X170942000Y-85024000D03*
X170942000Y-83124000D03*
X154686000Y-84770000D03*
X154686000Y-82870000D03*
D22*
X201930000Y-112776000D03*
X203830000Y-112776000D03*
X201996000Y-110236000D03*
X203896000Y-110236000D03*
D11*
X168148000Y-82974000D03*
X168148000Y-85174000D03*
X168148000Y-89576000D03*
X168148000Y-87376000D03*
X152146000Y-82720000D03*
X152146000Y-84920000D03*
D21*
X167132000Y-112710000D03*
X167132000Y-110810000D03*
D23*
X182050571Y-96325571D03*
X189230000Y-102870000D03*
X156845000Y-103505000D03*
X198120000Y-109220000D03*
X180975000Y-97155000D03*
X188595000Y-107950000D03*
X165735000Y-106045000D03*
X166878000Y-96774000D03*
X198120000Y-110744000D03*
X158750000Y-104648000D03*
X173228000Y-104648000D03*
X163068000Y-74930000D03*
X179274419Y-87630000D03*
X177800000Y-95758000D03*
X179578000Y-75438000D03*
X179641954Y-77724000D03*
X174244000Y-75805361D03*
X196596000Y-110490000D03*
X188976000Y-96774000D03*
X185928000Y-96774000D03*
X184869757Y-97832243D03*
X182880000Y-99822000D03*
X199390000Y-90170000D03*
X202946000Y-90170000D03*
X202438000Y-88379991D03*
X196596000Y-78740000D03*
X177800000Y-83566000D03*
X186690000Y-107442000D03*
X177292000Y-108712000D03*
X173228000Y-108712000D03*
X169164000Y-109220000D03*
X164084000Y-108204000D03*
X188976000Y-76200000D03*
X164592000Y-99060000D03*
X150368000Y-103632000D03*
X161544000Y-101600000D03*
X161544000Y-105664000D03*
X176276000Y-99568000D03*
X176276000Y-102108000D03*
X178816000Y-103124000D03*
X184404000Y-104765010D03*
X195580000Y-105156000D03*
X190500000Y-112776000D03*
X184404000Y-90424000D03*
X188468000Y-90424000D03*
X188468000Y-87376000D03*
X184404000Y-87376000D03*
X193040000Y-73152000D03*
X190500000Y-73660000D03*
X189992000Y-78740000D03*
X156972000Y-75184000D03*
X174244000Y-73660000D03*
X184404000Y-74168000D03*
X184404000Y-78740000D03*
X174244000Y-77724000D03*
X168148000Y-81280000D03*
X157480000Y-81280000D03*
X154940000Y-81280000D03*
X174625000Y-105410000D03*
X200914000Y-112776000D03*
X200914000Y-110236000D03*
X198120000Y-106680000D03*
X186612418Y-103495010D03*
X204470000Y-106680000D03*
X189230000Y-99695000D03*
X203962000Y-109220000D03*
X203835000Y-101600000D03*
X186055000Y-109220000D03*
X149225000Y-99060000D03*
X154305000Y-102235000D03*
D24*
X170603333Y-71991665D02*
X169620900Y-72974098D01*
X169620900Y-72974098D02*
X169545000Y-73049998D01*
X169545000Y-91648534D02*
X171642001Y-89551533D01*
X171642001Y-89551533D02*
X171642001Y-75407003D01*
X171642001Y-75407003D02*
X169620900Y-73385902D01*
X169620900Y-73385902D02*
X169620900Y-72974098D01*
X170603333Y-67310000D02*
X170603333Y-71991665D01*
X169545000Y-91648534D02*
X169545000Y-92710000D01*
X182050571Y-96325571D02*
X188595000Y-102870000D01*
X188595000Y-102870000D02*
X189230000Y-102870000D01*
X156845000Y-103505000D02*
X156845000Y-102235000D01*
X156845000Y-102235000D02*
X149860000Y-95250000D01*
X187536666Y-67310000D02*
X187536666Y-71818332D01*
X187536666Y-71818332D02*
X186584999Y-72769999D01*
X186584999Y-72769999D02*
X186584999Y-90908533D01*
X186584999Y-90908533D02*
X187325000Y-91648534D01*
X187325000Y-91648534D02*
X187325000Y-92710000D01*
X180975000Y-92710000D02*
X180975000Y-88615000D01*
X180975000Y-88615000D02*
X181960000Y-87630000D01*
X198120000Y-109220000D02*
X197141412Y-109220000D01*
X197141412Y-109220000D02*
X183171412Y-95250000D01*
X183171412Y-95250000D02*
X182036466Y-95250000D01*
X182036466Y-95250000D02*
X180975000Y-95250000D01*
X175683333Y-67310000D02*
X175683333Y-92286667D01*
X175683333Y-92286667D02*
X175260000Y-92710000D01*
X188595000Y-107950000D02*
X188595000Y-104552590D01*
X188595000Y-104552590D02*
X181197410Y-97155000D01*
X181197410Y-97155000D02*
X180975000Y-97155000D01*
X165735000Y-106045000D02*
X165735000Y-97155000D01*
X165735000Y-97155000D02*
X163830000Y-95250000D01*
X203835000Y-92710000D02*
X200130001Y-89005001D01*
X200130001Y-89005001D02*
X198059999Y-89005001D01*
X198059999Y-89005001D02*
X191503066Y-82448068D01*
X191503066Y-82448068D02*
X191503066Y-68576000D01*
X191503066Y-68576000D02*
X192616666Y-67462400D01*
X192616666Y-67462400D02*
X192616666Y-67310000D01*
X198470000Y-87380000D02*
X204220000Y-87380000D01*
X204220000Y-87380000D02*
X209550000Y-92710000D01*
X167640000Y-109220000D02*
X169164000Y-109220000D01*
X167132000Y-109728000D02*
X167640000Y-109220000D01*
X167132000Y-110810000D02*
X167132000Y-109728000D01*
X173000283Y-108939717D02*
X173228000Y-108712000D01*
X170332400Y-109220000D02*
X172720000Y-109220000D01*
X172720000Y-109220000D02*
X173000283Y-108939717D01*
X167318400Y-110359990D02*
X166980020Y-110359990D01*
X170942000Y-83124000D02*
X168298000Y-83124000D01*
X168298000Y-83124000D02*
X168148000Y-82974000D01*
X168552000Y-83378000D02*
X168148000Y-82974000D01*
X168148000Y-82974000D02*
X168148000Y-81280000D01*
X154686000Y-82870000D02*
X154686000Y-81534000D01*
X154686000Y-81534000D02*
X154940000Y-81280000D01*
X152146000Y-82720000D02*
X154536000Y-82720000D01*
X154536000Y-82720000D02*
X154686000Y-82870000D01*
X198120000Y-110744000D02*
X196850000Y-110744000D01*
X196850000Y-110744000D02*
X196596000Y-110490000D01*
X161544000Y-105664000D02*
X159766000Y-105664000D01*
X159766000Y-105664000D02*
X158750000Y-104648000D01*
X176276000Y-102108000D02*
X175768000Y-102108000D01*
X175768000Y-102108000D02*
X173228000Y-104648000D01*
X156972000Y-75184000D02*
X158351001Y-73804999D01*
X158351001Y-73804999D02*
X161942999Y-73804999D01*
X161942999Y-73804999D02*
X163068000Y-74930000D01*
X177800000Y-83566000D02*
X179274419Y-85040419D01*
X179274419Y-85040419D02*
X179274419Y-87630000D01*
X176276000Y-99568000D02*
X176276000Y-97282000D01*
X176276000Y-97282000D02*
X177800000Y-95758000D01*
X179641954Y-77724000D02*
X179641954Y-75501954D01*
X179641954Y-75501954D02*
X179578000Y-75438000D01*
X174244000Y-77724000D02*
X174244000Y-75805361D01*
X174244000Y-73660000D02*
X174244000Y-75805361D01*
X185928000Y-96774000D02*
X188976000Y-96774000D01*
X178816000Y-103124000D02*
X179578000Y-103124000D01*
X179578000Y-103124000D02*
X182880000Y-99822000D01*
X202438000Y-88379991D02*
X202438000Y-89662000D01*
X202438000Y-89662000D02*
X202946000Y-90170000D01*
X173228000Y-108712000D02*
X177292000Y-108712000D01*
X172720000Y-111760000D02*
X172720000Y-109220000D01*
X169164000Y-109220000D02*
X170332400Y-109220000D01*
X172720000Y-111607600D02*
X172720000Y-111760000D01*
X161544000Y-105664000D02*
X164084000Y-108204000D01*
X189992000Y-78740000D02*
X189992000Y-77216000D01*
X189992000Y-77216000D02*
X188976000Y-76200000D01*
X161544000Y-101600000D02*
X162052000Y-101600000D01*
X162052000Y-101600000D02*
X164592000Y-99060000D01*
X148590000Y-111760000D02*
X148590000Y-105410000D01*
X148590000Y-105410000D02*
X150368000Y-103632000D01*
X161544000Y-105664000D02*
X161544000Y-101600000D01*
X176276000Y-102108000D02*
X176276000Y-99568000D01*
X184404000Y-104765010D02*
X180457010Y-104765010D01*
X180457010Y-104765010D02*
X178816000Y-103124000D01*
X188468000Y-87376000D02*
X188468000Y-90424000D01*
X184404000Y-78740000D02*
X184404000Y-87376000D01*
X189992000Y-78740000D02*
X189992000Y-74168000D01*
X189992000Y-74168000D02*
X190500000Y-73660000D01*
X154940000Y-81280000D02*
X154940000Y-77216000D01*
X154940000Y-77216000D02*
X156972000Y-75184000D01*
X184404000Y-78740000D02*
X184404000Y-74168000D01*
X160940000Y-75180000D02*
X156210000Y-79910000D01*
X156210000Y-79910000D02*
X156210000Y-92710000D01*
X177450000Y-75180000D02*
X177450000Y-79929240D01*
X177450000Y-79929240D02*
X177530760Y-80010000D01*
X171293600Y-105410000D02*
X172133534Y-105410000D01*
X172133534Y-105410000D02*
X174625000Y-105410000D01*
X170027600Y-105410000D02*
X172133534Y-105410000D01*
X163830000Y-111760000D02*
X163830000Y-111607600D01*
X163830000Y-111607600D02*
X170027600Y-105410000D01*
X174625000Y-105410000D02*
X179899429Y-100135571D01*
X179899429Y-100135571D02*
X179899429Y-82854491D01*
X179899429Y-82854491D02*
X181610000Y-81143920D01*
X181610000Y-81143920D02*
X181610000Y-80010000D01*
X181960000Y-75430000D02*
X181960000Y-79660000D01*
X181960000Y-79660000D02*
X181610000Y-80010000D01*
X167132000Y-112710000D02*
X167757000Y-112710000D01*
X167757000Y-112710000D02*
X168148001Y-113101001D01*
X168148001Y-113101001D02*
X169092999Y-113101001D01*
X169056399Y-113101001D02*
X169301616Y-113101001D01*
X169301616Y-113101001D02*
X182808999Y-113101001D01*
X161290000Y-111760000D02*
X161996652Y-111760000D01*
X161996652Y-111760000D02*
X163337662Y-113101010D01*
X163337662Y-113101010D02*
X169092990Y-113101010D01*
X169092990Y-113101010D02*
X169092999Y-113101001D01*
X169092999Y-113101001D02*
X169301616Y-113101001D01*
X182808999Y-113101001D02*
X183134001Y-112775999D01*
X183134001Y-112775999D02*
X184150000Y-111760000D01*
X200914000Y-112776000D02*
X201930000Y-112776000D01*
X201996000Y-110236000D02*
X200914000Y-110236000D01*
X198120000Y-106680000D02*
X201676000Y-110236000D01*
X201676000Y-110236000D02*
X201996000Y-110236000D01*
X152146000Y-89492000D02*
X152146000Y-90424000D01*
X152146000Y-90424000D02*
X149860000Y-92710000D01*
X154686000Y-84770000D02*
X152296000Y-84770000D01*
X152296000Y-84770000D02*
X152146000Y-84920000D01*
X152146000Y-89492000D02*
X152846000Y-89492000D01*
X152846000Y-89492000D02*
X154686000Y-87652000D01*
X154686000Y-87652000D02*
X154686000Y-85620000D01*
X154686000Y-85620000D02*
X154686000Y-84770000D01*
X170942000Y-85024000D02*
X170942000Y-87482000D01*
X170942000Y-87482000D02*
X168848000Y-89576000D01*
X168848000Y-89576000D02*
X168148000Y-89576000D01*
X168148000Y-85174000D02*
X170792000Y-85174000D01*
X170792000Y-85174000D02*
X170942000Y-85024000D01*
X168252000Y-85278000D02*
X168148000Y-85174000D01*
X168148000Y-89576000D02*
X166964000Y-89576000D01*
X166964000Y-89576000D02*
X163830000Y-92710000D01*
X190128599Y-114218601D02*
X203820827Y-114218601D01*
X203820827Y-114218601D02*
X210901399Y-114218601D01*
X203830000Y-112776000D02*
X203830000Y-114209428D01*
X203830000Y-114209428D02*
X203820827Y-114218601D01*
X186612418Y-103495010D02*
X185429999Y-104677429D01*
X210901399Y-114218601D02*
X211226401Y-113893599D01*
X185429999Y-104677429D02*
X185429999Y-109520001D01*
X185429999Y-109520001D02*
X190128599Y-114218601D01*
X211226401Y-113893599D02*
X212090000Y-113030000D01*
X189230000Y-99695000D02*
X197485000Y-99695000D01*
X197485000Y-99695000D02*
X204470000Y-106680000D01*
X207010000Y-110490000D02*
X205788686Y-110490000D01*
X205788686Y-110490000D02*
X204518686Y-109220000D01*
X204518686Y-109220000D02*
X203962000Y-109220000D01*
X207010000Y-110490000D02*
X207010000Y-104775000D01*
X207010000Y-104775000D02*
X203835000Y-101600000D01*
X188513601Y-111678601D02*
X203913759Y-111678601D01*
X203913759Y-111678601D02*
X210901399Y-111678601D01*
X203896000Y-110236000D02*
X203896000Y-111660842D01*
X203896000Y-111660842D02*
X203913759Y-111678601D01*
X186055000Y-109220000D02*
X188513601Y-111678601D01*
X210901399Y-111678601D02*
X211226401Y-111353599D01*
X211226401Y-111353599D02*
X212090000Y-110490000D01*
X148940000Y-87380000D02*
X152058000Y-87380000D01*
X152058000Y-87380000D02*
X152146000Y-87292000D01*
X165450000Y-87380000D02*
X168144000Y-87380000D01*
X168144000Y-87380000D02*
X168148000Y-87376000D01*
X154305000Y-102235000D02*
X152400000Y-102235000D01*
X152400000Y-102235000D02*
X149225000Y-99060000D01*
D25*
G36*
X214770000Y-114770000D02*
X145230000Y-114770000D01*
X145230000Y-112096000D01*
X147006000Y-112096000D01*
X147006000Y-112888982D01*
X147092473Y-113097746D01*
X147252254Y-113257527D01*
X147461018Y-113344000D01*
X148254000Y-113344000D01*
X148396000Y-113202000D01*
X148396000Y-111954000D01*
X147148000Y-111954000D01*
X147006000Y-112096000D01*
X145230000Y-112096000D01*
X145230000Y-110631018D01*
X147006000Y-110631018D01*
X147006000Y-111424000D01*
X147148000Y-111566000D01*
X148396000Y-111566000D01*
X148396000Y-110318000D01*
X148784000Y-110318000D01*
X148784000Y-111566000D01*
X148804000Y-111566000D01*
X148804000Y-111954000D01*
X148784000Y-111954000D01*
X148784000Y-113202000D01*
X148926000Y-113344000D01*
X149718982Y-113344000D01*
X149927746Y-113257527D01*
X150087527Y-113097746D01*
X150174000Y-112888982D01*
X150174000Y-112606850D01*
X150227732Y-112687266D01*
X150641696Y-112963868D01*
X151130000Y-113060998D01*
X151618304Y-112963868D01*
X152032268Y-112687266D01*
X152308870Y-112273302D01*
X152406000Y-111784998D01*
X152406000Y-111735002D01*
X152308870Y-111246698D01*
X152032268Y-110832734D01*
X151899469Y-110744000D01*
X157621307Y-110744000D01*
X157621307Y-112776000D01*
X157639436Y-112872350D01*
X157696379Y-112960842D01*
X157783264Y-113020207D01*
X157886400Y-113041093D01*
X159613600Y-113041093D01*
X159709950Y-113022964D01*
X159798442Y-112966021D01*
X159857807Y-112879136D01*
X159878693Y-112776000D01*
X159878693Y-111582602D01*
X160166400Y-111582602D01*
X160166400Y-111937398D01*
X160251929Y-112367381D01*
X160495495Y-112731903D01*
X160860017Y-112975469D01*
X161290000Y-113060998D01*
X161719983Y-112975469D01*
X162084505Y-112731903D01*
X162220521Y-112528341D01*
X163065426Y-113373246D01*
X163190329Y-113456704D01*
X163337662Y-113486010D01*
X166561296Y-113486010D01*
X166566979Y-113494842D01*
X166653864Y-113554207D01*
X166757000Y-113575093D01*
X167507000Y-113575093D01*
X167603350Y-113556964D01*
X167691842Y-113500021D01*
X167701415Y-113486010D01*
X169092990Y-113486010D01*
X169093035Y-113486001D01*
X182808999Y-113486001D01*
X182956332Y-113456695D01*
X183081235Y-113373237D01*
X183559134Y-112895338D01*
X183661696Y-112963868D01*
X184150000Y-113060998D01*
X184638304Y-112963868D01*
X185052268Y-112687266D01*
X185328870Y-112273302D01*
X185426000Y-111784998D01*
X185426000Y-111735002D01*
X185328870Y-111246698D01*
X185052268Y-110832734D01*
X184638304Y-110556132D01*
X184150000Y-110459002D01*
X183661696Y-110556132D01*
X183247732Y-110832734D01*
X183194000Y-110913150D01*
X183194000Y-110631018D01*
X183107527Y-110422254D01*
X182947746Y-110262473D01*
X182738982Y-110176000D01*
X181946000Y-110176000D01*
X181804000Y-110318000D01*
X181804000Y-111566000D01*
X181824000Y-111566000D01*
X181824000Y-111954000D01*
X181804000Y-111954000D01*
X181804000Y-111974000D01*
X181416000Y-111974000D01*
X181416000Y-111954000D01*
X180168000Y-111954000D01*
X180026000Y-112096000D01*
X180026000Y-112716001D01*
X176065130Y-112716001D01*
X176298071Y-112367381D01*
X176383600Y-111937398D01*
X176383600Y-111582602D01*
X176298071Y-111152619D01*
X176054505Y-110788097D01*
X175819420Y-110631018D01*
X180026000Y-110631018D01*
X180026000Y-111424000D01*
X180168000Y-111566000D01*
X181416000Y-111566000D01*
X181416000Y-110318000D01*
X181274000Y-110176000D01*
X180481018Y-110176000D01*
X180272254Y-110262473D01*
X180112473Y-110422254D01*
X180026000Y-110631018D01*
X175819420Y-110631018D01*
X175689983Y-110544531D01*
X175260000Y-110459002D01*
X174830017Y-110544531D01*
X174465495Y-110788097D01*
X174221929Y-111152619D01*
X174139703Y-111565998D01*
X174006783Y-111565998D01*
X174124684Y-111343001D01*
X173916501Y-110825593D01*
X173526162Y-110427239D01*
X173133497Y-110237017D01*
X172914000Y-110332676D01*
X172914000Y-111566000D01*
X172934000Y-111566000D01*
X172934000Y-111954000D01*
X172914000Y-111954000D01*
X172914000Y-111974000D01*
X172526000Y-111974000D01*
X172526000Y-111954000D01*
X172506000Y-111954000D01*
X172506000Y-111566000D01*
X172526000Y-111566000D01*
X172526000Y-110332676D01*
X172306503Y-110237017D01*
X171913838Y-110427239D01*
X171523499Y-110825593D01*
X171315316Y-111343001D01*
X171433217Y-111565998D01*
X171308693Y-111565998D01*
X171308693Y-110744000D01*
X171290564Y-110647650D01*
X171233621Y-110559158D01*
X171146736Y-110499793D01*
X171043600Y-110478907D01*
X169316400Y-110478907D01*
X169220050Y-110497036D01*
X169131558Y-110553979D01*
X169072193Y-110640864D01*
X169051307Y-110744000D01*
X169051307Y-112716001D01*
X168307473Y-112716001D01*
X168029236Y-112437764D01*
X167904333Y-112354306D01*
X167772093Y-112328002D01*
X167772093Y-112110000D01*
X167753964Y-112013650D01*
X167707655Y-111941684D01*
X167828746Y-111891527D01*
X167988527Y-111731746D01*
X168075000Y-111522982D01*
X168075000Y-111146000D01*
X167933000Y-111004000D01*
X167319500Y-111004000D01*
X167319500Y-111024000D01*
X166944500Y-111024000D01*
X166944500Y-111004000D01*
X166331000Y-111004000D01*
X166189000Y-111146000D01*
X166189000Y-111522982D01*
X166275473Y-111731746D01*
X166435254Y-111891527D01*
X166557111Y-111942002D01*
X166512793Y-112006864D01*
X166491907Y-112110000D01*
X166491907Y-112716010D01*
X164635124Y-112716010D01*
X164868071Y-112367381D01*
X164953600Y-111937398D01*
X164953600Y-111582602D01*
X164868071Y-111152619D01*
X164852603Y-111129469D01*
X165885054Y-110097018D01*
X166189000Y-110097018D01*
X166189000Y-110474000D01*
X166331000Y-110616000D01*
X166944500Y-110616000D01*
X166944500Y-109784000D01*
X167319500Y-109784000D01*
X167319500Y-110616000D01*
X167933000Y-110616000D01*
X168075000Y-110474000D01*
X168075000Y-110097018D01*
X167988527Y-109888254D01*
X167828746Y-109728473D01*
X167619982Y-109642000D01*
X167461500Y-109642000D01*
X167319500Y-109784000D01*
X166944500Y-109784000D01*
X166802500Y-109642000D01*
X166644018Y-109642000D01*
X166435254Y-109728473D01*
X166275473Y-109888254D01*
X166189000Y-110097018D01*
X165885054Y-110097018D01*
X170187072Y-105795000D01*
X174218059Y-105795000D01*
X174307371Y-105884468D01*
X174513120Y-105969903D01*
X174735902Y-105970097D01*
X174941800Y-105885022D01*
X175099468Y-105727629D01*
X175184903Y-105521880D01*
X175185014Y-105394458D01*
X180171665Y-100407807D01*
X180255123Y-100282904D01*
X180284429Y-100135571D01*
X180284429Y-97265902D01*
X180414903Y-97265902D01*
X180499978Y-97471800D01*
X180657371Y-97629468D01*
X180863120Y-97714903D01*
X181085902Y-97715097D01*
X181175864Y-97677926D01*
X186452927Y-102954989D01*
X186295618Y-103019988D01*
X186137950Y-103177381D01*
X186052515Y-103383130D01*
X186052404Y-103510552D01*
X185157763Y-104405193D01*
X185074305Y-104530096D01*
X185044999Y-104677429D01*
X185044999Y-109520001D01*
X185074305Y-109667334D01*
X185157763Y-109792237D01*
X189856363Y-114490837D01*
X189981266Y-114574295D01*
X190128599Y-114603601D01*
X210901399Y-114603601D01*
X211048732Y-114574295D01*
X211173635Y-114490837D01*
X211608686Y-114055786D01*
X211660017Y-114090084D01*
X212090000Y-114175613D01*
X212519983Y-114090084D01*
X212884505Y-113846518D01*
X213128071Y-113481996D01*
X213213600Y-113052013D01*
X213213600Y-113007987D01*
X213128071Y-112578004D01*
X212884505Y-112213482D01*
X212519983Y-111969916D01*
X212090000Y-111884387D01*
X211660017Y-111969916D01*
X211295495Y-112213482D01*
X211051929Y-112578004D01*
X210966400Y-113007987D01*
X210966400Y-113052013D01*
X211051929Y-113481996D01*
X211068593Y-113506935D01*
X210741927Y-113833601D01*
X210353136Y-113833601D01*
X210588071Y-113481996D01*
X210673600Y-113052013D01*
X210673600Y-113007987D01*
X210588071Y-112578004D01*
X210344505Y-112213482D01*
X210120192Y-112063601D01*
X210901399Y-112063601D01*
X211048732Y-112034295D01*
X211173635Y-111950837D01*
X211608686Y-111515786D01*
X211660017Y-111550084D01*
X212090000Y-111635613D01*
X212519983Y-111550084D01*
X212884505Y-111306518D01*
X213128071Y-110941996D01*
X213213600Y-110512013D01*
X213213600Y-110467987D01*
X213128071Y-110038004D01*
X212884505Y-109673482D01*
X212519983Y-109429916D01*
X212090000Y-109344387D01*
X211660017Y-109429916D01*
X211295495Y-109673482D01*
X211051929Y-110038004D01*
X210966400Y-110467987D01*
X210966400Y-110512013D01*
X211051929Y-110941996D01*
X211068593Y-110966935D01*
X210741927Y-111293601D01*
X210353136Y-111293601D01*
X210588071Y-110941996D01*
X210673600Y-110512013D01*
X210673600Y-110467987D01*
X210588071Y-110038004D01*
X210344505Y-109673482D01*
X209979983Y-109429916D01*
X209550000Y-109344387D01*
X209120017Y-109429916D01*
X208755495Y-109673482D01*
X208511929Y-110038004D01*
X208426400Y-110467987D01*
X208426400Y-110512013D01*
X208511929Y-110941996D01*
X208746864Y-111293601D01*
X207813136Y-111293601D01*
X208048071Y-110941996D01*
X208133600Y-110512013D01*
X208133600Y-110467987D01*
X208048071Y-110038004D01*
X207804505Y-109673482D01*
X207439983Y-109429916D01*
X207395000Y-109420968D01*
X207395000Y-104775000D01*
X207365694Y-104627666D01*
X207282236Y-104502764D01*
X204394987Y-101615515D01*
X204395097Y-101489098D01*
X204310022Y-101283200D01*
X204152629Y-101125532D01*
X203946880Y-101040097D01*
X203724098Y-101039903D01*
X203518200Y-101124978D01*
X203360532Y-101282371D01*
X203275097Y-101488120D01*
X203274903Y-101710902D01*
X203359978Y-101916800D01*
X203517371Y-102074468D01*
X203723120Y-102159903D01*
X203850542Y-102160014D01*
X206625000Y-104934472D01*
X206625000Y-109420968D01*
X206580017Y-109429916D01*
X206215495Y-109673482D01*
X205971929Y-110038004D01*
X205958603Y-110105000D01*
X205948158Y-110105000D01*
X204790922Y-108947764D01*
X204666019Y-108864306D01*
X204518686Y-108835000D01*
X204368941Y-108835000D01*
X204279629Y-108745532D01*
X204073880Y-108660097D01*
X203851098Y-108659903D01*
X203645200Y-108744978D01*
X203487532Y-108902371D01*
X203402097Y-109108120D01*
X203401903Y-109330902D01*
X203486978Y-109536800D01*
X203545982Y-109595907D01*
X203296000Y-109595907D01*
X203199650Y-109614036D01*
X203111158Y-109670979D01*
X203051793Y-109757864D01*
X203030907Y-109861000D01*
X203030907Y-110611000D01*
X203049036Y-110707350D01*
X203105979Y-110795842D01*
X203192864Y-110855207D01*
X203296000Y-110876093D01*
X203511000Y-110876093D01*
X203511000Y-111293601D01*
X188673073Y-111293601D01*
X186614987Y-109235515D01*
X186615097Y-109109098D01*
X186530022Y-108903200D01*
X186372629Y-108745532D01*
X186166880Y-108660097D01*
X185944098Y-108659903D01*
X185814999Y-108713245D01*
X185814999Y-104836901D01*
X186596903Y-104054997D01*
X186723320Y-104055107D01*
X186929218Y-103970032D01*
X187086886Y-103812639D01*
X187152518Y-103654580D01*
X188210000Y-104712062D01*
X188210000Y-107543059D01*
X188120532Y-107632371D01*
X188035097Y-107838120D01*
X188034903Y-108060902D01*
X188119978Y-108266800D01*
X188277371Y-108424468D01*
X188483120Y-108509903D01*
X188705902Y-108510097D01*
X188911800Y-108425022D01*
X189069468Y-108267629D01*
X189154903Y-108061880D01*
X189155097Y-107839098D01*
X189070022Y-107633200D01*
X188980000Y-107543021D01*
X188980000Y-104552590D01*
X188970089Y-104502764D01*
X188950694Y-104405256D01*
X188867236Y-104280354D01*
X181469646Y-96882764D01*
X181467974Y-96881647D01*
X181450022Y-96838200D01*
X181292629Y-96680532D01*
X181086880Y-96595097D01*
X180864098Y-96594903D01*
X180658200Y-96679978D01*
X180500532Y-96837371D01*
X180415097Y-97043120D01*
X180414903Y-97265902D01*
X180284429Y-97265902D01*
X180284429Y-95988633D01*
X180401811Y-96106220D01*
X180773103Y-96260394D01*
X181175133Y-96260745D01*
X181532432Y-96113112D01*
X181490668Y-96213691D01*
X181490474Y-96436473D01*
X181575549Y-96642371D01*
X181732942Y-96800039D01*
X181938691Y-96885474D01*
X182066113Y-96885585D01*
X188322764Y-103142236D01*
X188447666Y-103225694D01*
X188595000Y-103255000D01*
X188823059Y-103255000D01*
X188912371Y-103344468D01*
X189118120Y-103429903D01*
X189340902Y-103430097D01*
X189546800Y-103345022D01*
X189704468Y-103187629D01*
X189789903Y-102981880D01*
X189790097Y-102759098D01*
X189705022Y-102553200D01*
X189547629Y-102395532D01*
X189341880Y-102310097D01*
X189119098Y-102309903D01*
X188913200Y-102394978D01*
X188823021Y-102485000D01*
X188754472Y-102485000D01*
X182610558Y-96341086D01*
X182610668Y-96214669D01*
X182525593Y-96008771D01*
X182368200Y-95851103D01*
X182162451Y-95765668D01*
X181939669Y-95765474D01*
X181837688Y-95807611D01*
X181909363Y-95635000D01*
X183011940Y-95635000D01*
X196869176Y-109492236D01*
X196994079Y-109575694D01*
X197141412Y-109605000D01*
X197713059Y-109605000D01*
X197802371Y-109694468D01*
X198008120Y-109779903D01*
X198230902Y-109780097D01*
X198436800Y-109695022D01*
X198594468Y-109537629D01*
X198679903Y-109331880D01*
X198680097Y-109109098D01*
X198595022Y-108903200D01*
X198437629Y-108745532D01*
X198231880Y-108660097D01*
X198009098Y-108659903D01*
X197803200Y-108744978D01*
X197713021Y-108835000D01*
X197300884Y-108835000D01*
X195256786Y-106790902D01*
X197559903Y-106790902D01*
X197644978Y-106996800D01*
X197802371Y-107154468D01*
X198008120Y-107239903D01*
X198135542Y-107240014D01*
X200639166Y-109743638D01*
X200597200Y-109760978D01*
X200439532Y-109918371D01*
X200354097Y-110124120D01*
X200353903Y-110346902D01*
X200438978Y-110552800D01*
X200596371Y-110710468D01*
X200802120Y-110795903D01*
X201024902Y-110796097D01*
X201168076Y-110736939D01*
X201205979Y-110795842D01*
X201292864Y-110855207D01*
X201396000Y-110876093D01*
X202596000Y-110876093D01*
X202692350Y-110857964D01*
X202780842Y-110801021D01*
X202840207Y-110714136D01*
X202861093Y-110611000D01*
X202861093Y-109861000D01*
X202842964Y-109764650D01*
X202786021Y-109676158D01*
X202699136Y-109616793D01*
X202596000Y-109595907D01*
X201580379Y-109595907D01*
X198679987Y-106695515D01*
X198680097Y-106569098D01*
X198595022Y-106363200D01*
X198437629Y-106205532D01*
X198231880Y-106120097D01*
X198009098Y-106119903D01*
X197803200Y-106204978D01*
X197645532Y-106362371D01*
X197560097Y-106568120D01*
X197559903Y-106790902D01*
X195256786Y-106790902D01*
X188271786Y-99805902D01*
X188669903Y-99805902D01*
X188754978Y-100011800D01*
X188912371Y-100169468D01*
X189118120Y-100254903D01*
X189340902Y-100255097D01*
X189546800Y-100170022D01*
X189636979Y-100080000D01*
X197325528Y-100080000D01*
X203910013Y-106664485D01*
X203909903Y-106790902D01*
X203994978Y-106996800D01*
X204152371Y-107154468D01*
X204358120Y-107239903D01*
X204580902Y-107240097D01*
X204786800Y-107155022D01*
X204944468Y-106997629D01*
X205029903Y-106791880D01*
X205030097Y-106569098D01*
X204945022Y-106363200D01*
X204787629Y-106205532D01*
X204581880Y-106120097D01*
X204454458Y-106119986D01*
X197757236Y-99422764D01*
X197632333Y-99339306D01*
X197485000Y-99310000D01*
X189636941Y-99310000D01*
X189547629Y-99220532D01*
X189341880Y-99135097D01*
X189119098Y-99134903D01*
X188913200Y-99219978D01*
X188755532Y-99377371D01*
X188670097Y-99583120D01*
X188669903Y-99805902D01*
X188271786Y-99805902D01*
X183916017Y-95450133D01*
X186314255Y-95450133D01*
X186467781Y-95821694D01*
X186751811Y-96106220D01*
X187123103Y-96260394D01*
X187525133Y-96260745D01*
X187896694Y-96107219D01*
X188181220Y-95823189D01*
X188335394Y-95451897D01*
X188335395Y-95450133D01*
X202824255Y-95450133D01*
X202977781Y-95821694D01*
X203261811Y-96106220D01*
X203633103Y-96260394D01*
X204035133Y-96260745D01*
X204406694Y-96107219D01*
X204691220Y-95823189D01*
X204845394Y-95451897D01*
X204845395Y-95450133D01*
X208539255Y-95450133D01*
X208692781Y-95821694D01*
X208976811Y-96106220D01*
X209348103Y-96260394D01*
X209750133Y-96260745D01*
X210121694Y-96107219D01*
X210406220Y-95823189D01*
X210560394Y-95451897D01*
X210560745Y-95049867D01*
X210407219Y-94678306D01*
X210123189Y-94393780D01*
X209751897Y-94239606D01*
X209349867Y-94239255D01*
X208978306Y-94392781D01*
X208693780Y-94676811D01*
X208539606Y-95048103D01*
X208539255Y-95450133D01*
X204845395Y-95450133D01*
X204845745Y-95049867D01*
X204692219Y-94678306D01*
X204408189Y-94393780D01*
X204036897Y-94239606D01*
X203634867Y-94239255D01*
X203263306Y-94392781D01*
X202978780Y-94676811D01*
X202824606Y-95048103D01*
X202824255Y-95450133D01*
X188335395Y-95450133D01*
X188335745Y-95049867D01*
X188182219Y-94678306D01*
X187898189Y-94393780D01*
X187526897Y-94239606D01*
X187124867Y-94239255D01*
X186753306Y-94392781D01*
X186468780Y-94676811D01*
X186314606Y-95048103D01*
X186314255Y-95450133D01*
X183916017Y-95450133D01*
X183443648Y-94977764D01*
X183318745Y-94894306D01*
X183171412Y-94865000D01*
X181909359Y-94865000D01*
X181832219Y-94678306D01*
X181548189Y-94393780D01*
X181176897Y-94239606D01*
X180774867Y-94239255D01*
X180403306Y-94392781D01*
X180284429Y-94511451D01*
X180284429Y-93448633D01*
X180401811Y-93566220D01*
X180773103Y-93720394D01*
X181175133Y-93720745D01*
X181546694Y-93567219D01*
X181831220Y-93283189D01*
X181985394Y-92911897D01*
X181985745Y-92509867D01*
X181832219Y-92138306D01*
X181548189Y-91853780D01*
X181360000Y-91775637D01*
X181360000Y-88799305D01*
X181698282Y-88939772D01*
X182219432Y-88940226D01*
X182701086Y-88741211D01*
X183069916Y-88373024D01*
X183269772Y-87891718D01*
X183270226Y-87370568D01*
X183071211Y-86888914D01*
X182703024Y-86520084D01*
X182221718Y-86320228D01*
X181700568Y-86319774D01*
X181218914Y-86518789D01*
X180850084Y-86886976D01*
X180650228Y-87368282D01*
X180649774Y-87889432D01*
X180797813Y-88247715D01*
X180702764Y-88342764D01*
X180619306Y-88467667D01*
X180590000Y-88615000D01*
X180590000Y-91775641D01*
X180403306Y-91852781D01*
X180284429Y-91971451D01*
X180284429Y-83013963D01*
X181882236Y-81416156D01*
X181965694Y-81291253D01*
X181991998Y-81159013D01*
X182509160Y-81159013D01*
X182605510Y-81140884D01*
X182694002Y-81083941D01*
X182753367Y-80997056D01*
X182774253Y-80893920D01*
X182774253Y-79126080D01*
X182756124Y-79029730D01*
X182699181Y-78941238D01*
X182612296Y-78881873D01*
X182509160Y-78860987D01*
X182345000Y-78860987D01*
X182345000Y-76688342D01*
X182701086Y-76541211D01*
X183069916Y-76173024D01*
X183269772Y-75691718D01*
X183270226Y-75170568D01*
X183071211Y-74688914D01*
X182703024Y-74320084D01*
X182221718Y-74120228D01*
X181700568Y-74119774D01*
X181218914Y-74318789D01*
X180850084Y-74686976D01*
X180650228Y-75168282D01*
X180649774Y-75689432D01*
X180848789Y-76171086D01*
X181216976Y-76539916D01*
X181575000Y-76688581D01*
X181575000Y-78860987D01*
X180710840Y-78860987D01*
X180614490Y-78879116D01*
X180525998Y-78936059D01*
X180466633Y-79022944D01*
X180445747Y-79126080D01*
X180445747Y-80893920D01*
X180463876Y-80990270D01*
X180520819Y-81078762D01*
X180607704Y-81138127D01*
X180710840Y-81159013D01*
X181050435Y-81159013D01*
X179627193Y-82582255D01*
X179543735Y-82707158D01*
X179514429Y-82854491D01*
X179514429Y-99976099D01*
X174640515Y-104850013D01*
X174514098Y-104849903D01*
X174308200Y-104934978D01*
X174218021Y-105025000D01*
X170027600Y-105025000D01*
X169880267Y-105054306D01*
X169755364Y-105137764D01*
X164313103Y-110580025D01*
X164259983Y-110544531D01*
X163830000Y-110459002D01*
X163400017Y-110544531D01*
X163035495Y-110788097D01*
X162791929Y-111152619D01*
X162706400Y-111582602D01*
X162706400Y-111925276D01*
X162413600Y-111632476D01*
X162413600Y-111582602D01*
X162328071Y-111152619D01*
X162084505Y-110788097D01*
X161719983Y-110544531D01*
X161290000Y-110459002D01*
X160860017Y-110544531D01*
X160495495Y-110788097D01*
X160251929Y-111152619D01*
X160166400Y-111582602D01*
X159878693Y-111582602D01*
X159878693Y-110744000D01*
X159860564Y-110647650D01*
X159803621Y-110559158D01*
X159716736Y-110499793D01*
X159613600Y-110478907D01*
X157886400Y-110478907D01*
X157790050Y-110497036D01*
X157701558Y-110553979D01*
X157642193Y-110640864D01*
X157621307Y-110744000D01*
X151899469Y-110744000D01*
X151618304Y-110556132D01*
X151130000Y-110459002D01*
X150641696Y-110556132D01*
X150227732Y-110832734D01*
X150174000Y-110913150D01*
X150174000Y-110631018D01*
X150087527Y-110422254D01*
X149927746Y-110262473D01*
X149718982Y-110176000D01*
X148926000Y-110176000D01*
X148784000Y-110318000D01*
X148396000Y-110318000D01*
X148254000Y-110176000D01*
X147461018Y-110176000D01*
X147252254Y-110262473D01*
X147092473Y-110422254D01*
X147006000Y-110631018D01*
X145230000Y-110631018D01*
X145230000Y-99170902D01*
X148664903Y-99170902D01*
X148749978Y-99376800D01*
X148907371Y-99534468D01*
X149113120Y-99619903D01*
X149240542Y-99620014D01*
X152127764Y-102507236D01*
X152252666Y-102590694D01*
X152400000Y-102620000D01*
X153898059Y-102620000D01*
X153987371Y-102709468D01*
X154193120Y-102794903D01*
X154415902Y-102795097D01*
X154621800Y-102710022D01*
X154779468Y-102552629D01*
X154864903Y-102346880D01*
X154865097Y-102124098D01*
X154780022Y-101918200D01*
X154622629Y-101760532D01*
X154416880Y-101675097D01*
X154194098Y-101674903D01*
X153988200Y-101759978D01*
X153898021Y-101850000D01*
X152559472Y-101850000D01*
X149784987Y-99075515D01*
X149785097Y-98949098D01*
X149700022Y-98743200D01*
X149542629Y-98585532D01*
X149336880Y-98500097D01*
X149114098Y-98499903D01*
X148908200Y-98584978D01*
X148750532Y-98742371D01*
X148665097Y-98948120D01*
X148664903Y-99170902D01*
X145230000Y-99170902D01*
X145230000Y-95450133D01*
X148849255Y-95450133D01*
X149002781Y-95821694D01*
X149286811Y-96106220D01*
X149658103Y-96260394D01*
X150060133Y-96260745D01*
X150248458Y-96182930D01*
X156460000Y-102394472D01*
X156460000Y-103098059D01*
X156370532Y-103187371D01*
X156285097Y-103393120D01*
X156284903Y-103615902D01*
X156369978Y-103821800D01*
X156527371Y-103979468D01*
X156733120Y-104064903D01*
X156955902Y-104065097D01*
X157161800Y-103980022D01*
X157319468Y-103822629D01*
X157404903Y-103616880D01*
X157405097Y-103394098D01*
X157320022Y-103188200D01*
X157230000Y-103098021D01*
X157230000Y-102235000D01*
X157200694Y-102087667D01*
X157117236Y-101962764D01*
X151380738Y-96226266D01*
X155508092Y-96226266D01*
X155585000Y-96440291D01*
X156088080Y-96588862D01*
X156609721Y-96533605D01*
X156835000Y-96440291D01*
X156911908Y-96226266D01*
X156210000Y-95524357D01*
X155508092Y-96226266D01*
X151380738Y-96226266D01*
X150792928Y-95638456D01*
X150870394Y-95451897D01*
X150870676Y-95128080D01*
X154871138Y-95128080D01*
X154926395Y-95649721D01*
X155019709Y-95875000D01*
X155233734Y-95951908D01*
X155935643Y-95250000D01*
X156484357Y-95250000D01*
X157186266Y-95951908D01*
X157400291Y-95875000D01*
X157525763Y-95450133D01*
X162819255Y-95450133D01*
X162972781Y-95821694D01*
X163256811Y-96106220D01*
X163628103Y-96260394D01*
X164030133Y-96260745D01*
X164218458Y-96182930D01*
X165350000Y-97314472D01*
X165350000Y-105638059D01*
X165260532Y-105727371D01*
X165175097Y-105933120D01*
X165174903Y-106155902D01*
X165259978Y-106361800D01*
X165417371Y-106519468D01*
X165623120Y-106604903D01*
X165845902Y-106605097D01*
X166051800Y-106520022D01*
X166209468Y-106362629D01*
X166294903Y-106156880D01*
X166295097Y-105934098D01*
X166210022Y-105728200D01*
X166120000Y-105638021D01*
X166120000Y-97155000D01*
X166090694Y-97007667D01*
X166007236Y-96882764D01*
X164762928Y-95638456D01*
X164840394Y-95451897D01*
X164840395Y-95450133D01*
X168534255Y-95450133D01*
X168687781Y-95821694D01*
X168971811Y-96106220D01*
X169343103Y-96260394D01*
X169745133Y-96260745D01*
X170116694Y-96107219D01*
X170401220Y-95823189D01*
X170555394Y-95451897D01*
X170555395Y-95450133D01*
X174249255Y-95450133D01*
X174402781Y-95821694D01*
X174686811Y-96106220D01*
X175058103Y-96260394D01*
X175460133Y-96260745D01*
X175831694Y-96107219D01*
X176116220Y-95823189D01*
X176270394Y-95451897D01*
X176270745Y-95049867D01*
X176117219Y-94678306D01*
X175833189Y-94393780D01*
X175461897Y-94239606D01*
X175059867Y-94239255D01*
X174688306Y-94392781D01*
X174403780Y-94676811D01*
X174249606Y-95048103D01*
X174249255Y-95450133D01*
X170555395Y-95450133D01*
X170555745Y-95049867D01*
X170402219Y-94678306D01*
X170118189Y-94393780D01*
X169746897Y-94239606D01*
X169344867Y-94239255D01*
X168973306Y-94392781D01*
X168688780Y-94676811D01*
X168534606Y-95048103D01*
X168534255Y-95450133D01*
X164840395Y-95450133D01*
X164840745Y-95049867D01*
X164687219Y-94678306D01*
X164403189Y-94393780D01*
X164031897Y-94239606D01*
X163629867Y-94239255D01*
X163258306Y-94392781D01*
X162973780Y-94676811D01*
X162819606Y-95048103D01*
X162819255Y-95450133D01*
X157525763Y-95450133D01*
X157548862Y-95371920D01*
X157493605Y-94850279D01*
X157400291Y-94625000D01*
X157186266Y-94548092D01*
X156484357Y-95250000D01*
X155935643Y-95250000D01*
X155233734Y-94548092D01*
X155019709Y-94625000D01*
X154871138Y-95128080D01*
X150870676Y-95128080D01*
X150870745Y-95049867D01*
X150717219Y-94678306D01*
X150433189Y-94393780D01*
X150144087Y-94273734D01*
X155508092Y-94273734D01*
X156210000Y-94975643D01*
X156911908Y-94273734D01*
X156835000Y-94059709D01*
X156331920Y-93911138D01*
X155810279Y-93966395D01*
X155585000Y-94059709D01*
X155508092Y-94273734D01*
X150144087Y-94273734D01*
X150061897Y-94239606D01*
X149659867Y-94239255D01*
X149288306Y-94392781D01*
X149003780Y-94676811D01*
X148849606Y-95048103D01*
X148849255Y-95450133D01*
X145230000Y-95450133D01*
X145230000Y-92910133D01*
X148849255Y-92910133D01*
X149002781Y-93281694D01*
X149286811Y-93566220D01*
X149658103Y-93720394D01*
X150060133Y-93720745D01*
X150431694Y-93567219D01*
X150716220Y-93283189D01*
X150870394Y-92911897D01*
X150870395Y-92910133D01*
X155199255Y-92910133D01*
X155352781Y-93281694D01*
X155636811Y-93566220D01*
X156008103Y-93720394D01*
X156410133Y-93720745D01*
X156781694Y-93567219D01*
X157066220Y-93283189D01*
X157220394Y-92911897D01*
X157220395Y-92910133D01*
X162819255Y-92910133D01*
X162972781Y-93281694D01*
X163256811Y-93566220D01*
X163628103Y-93720394D01*
X164030133Y-93720745D01*
X164401694Y-93567219D01*
X164686220Y-93283189D01*
X164840394Y-92911897D01*
X164840745Y-92509867D01*
X164762930Y-92321542D01*
X167123472Y-89961000D01*
X167432907Y-89961000D01*
X167432907Y-90176000D01*
X167451036Y-90272350D01*
X167507979Y-90360842D01*
X167594864Y-90420207D01*
X167698000Y-90441093D01*
X168598000Y-90441093D01*
X168694350Y-90422964D01*
X168782842Y-90366021D01*
X168842207Y-90279136D01*
X168863093Y-90176000D01*
X168863093Y-89957998D01*
X168995333Y-89931694D01*
X169120236Y-89848236D01*
X171214236Y-87754236D01*
X171257001Y-87690235D01*
X171257001Y-89392061D01*
X169272764Y-91376298D01*
X169189306Y-91501201D01*
X169160000Y-91648534D01*
X169160000Y-91775641D01*
X168973306Y-91852781D01*
X168688780Y-92136811D01*
X168534606Y-92508103D01*
X168534255Y-92910133D01*
X168687781Y-93281694D01*
X168971811Y-93566220D01*
X169343103Y-93720394D01*
X169745133Y-93720745D01*
X170116694Y-93567219D01*
X170401220Y-93283189D01*
X170555394Y-92911897D01*
X170555745Y-92509867D01*
X170402219Y-92138306D01*
X170118189Y-91853780D01*
X169952872Y-91785134D01*
X171914237Y-89823769D01*
X171997695Y-89698867D01*
X172027001Y-89551533D01*
X172027001Y-75407003D01*
X171997695Y-75259670D01*
X171914237Y-75134767D01*
X171269313Y-74489843D01*
X171709432Y-74490226D01*
X172191086Y-74291211D01*
X172559916Y-73923024D01*
X172759772Y-73441718D01*
X172760226Y-72920568D01*
X172561211Y-72438914D01*
X172193024Y-72070084D01*
X171711718Y-71870228D01*
X171190568Y-71869774D01*
X170988333Y-71953336D01*
X170988333Y-68534417D01*
X171033316Y-68525469D01*
X171397838Y-68281903D01*
X171641404Y-67917381D01*
X171723630Y-67504002D01*
X171856550Y-67504002D01*
X171738649Y-67726999D01*
X171946832Y-68244407D01*
X172337171Y-68642761D01*
X172729836Y-68832983D01*
X172949333Y-68737324D01*
X172949333Y-67504000D01*
X172929333Y-67504000D01*
X172929333Y-67116000D01*
X172949333Y-67116000D01*
X172949333Y-65882676D01*
X173337333Y-65882676D01*
X173337333Y-67116000D01*
X173357333Y-67116000D01*
X173357333Y-67504000D01*
X173337333Y-67504000D01*
X173337333Y-68737324D01*
X173556830Y-68832983D01*
X173949495Y-68642761D01*
X174339834Y-68244407D01*
X174548017Y-67726999D01*
X174430116Y-67504002D01*
X174563036Y-67504002D01*
X174645262Y-67917381D01*
X174888828Y-68281903D01*
X175253350Y-68525469D01*
X175298333Y-68534417D01*
X175298333Y-91699463D01*
X175059867Y-91699255D01*
X174688306Y-91852781D01*
X174403780Y-92136811D01*
X174249606Y-92508103D01*
X174249255Y-92910133D01*
X174402781Y-93281694D01*
X174686811Y-93566220D01*
X175058103Y-93720394D01*
X175460133Y-93720745D01*
X175831694Y-93567219D01*
X176116220Y-93283189D01*
X176270394Y-92911897D01*
X176270745Y-92509867D01*
X176117219Y-92138306D01*
X176068333Y-92089335D01*
X176068333Y-87639432D01*
X176139774Y-87639432D01*
X176338789Y-88121086D01*
X176706976Y-88489916D01*
X177188282Y-88689772D01*
X177709432Y-88690226D01*
X178191086Y-88491211D01*
X178559916Y-88123024D01*
X178759772Y-87641718D01*
X178760226Y-87120568D01*
X178561211Y-86638914D01*
X178193024Y-86270084D01*
X177711718Y-86070228D01*
X177190568Y-86069774D01*
X176708914Y-86268789D01*
X176340084Y-86636976D01*
X176140228Y-87118282D01*
X176139774Y-87639432D01*
X176068333Y-87639432D01*
X176068333Y-75439432D01*
X176139774Y-75439432D01*
X176338789Y-75921086D01*
X176706976Y-76289916D01*
X177065000Y-76438581D01*
X177065000Y-78860987D01*
X176631600Y-78860987D01*
X176535250Y-78879116D01*
X176446758Y-78936059D01*
X176387393Y-79022944D01*
X176366507Y-79126080D01*
X176366507Y-80893920D01*
X176384636Y-80990270D01*
X176441579Y-81078762D01*
X176528464Y-81138127D01*
X176631600Y-81159013D01*
X178429920Y-81159013D01*
X178526270Y-81140884D01*
X178614762Y-81083941D01*
X178674127Y-80997056D01*
X178695013Y-80893920D01*
X178695013Y-79126080D01*
X178676884Y-79029730D01*
X178619941Y-78941238D01*
X178533056Y-78881873D01*
X178429920Y-78860987D01*
X177835000Y-78860987D01*
X177835000Y-76438342D01*
X178191086Y-76291211D01*
X178559916Y-75923024D01*
X178759772Y-75441718D01*
X178760226Y-74920568D01*
X178561211Y-74438914D01*
X178193024Y-74070084D01*
X177711718Y-73870228D01*
X177190568Y-73869774D01*
X176708914Y-74068789D01*
X176340084Y-74436976D01*
X176140228Y-74918282D01*
X176139774Y-75439432D01*
X176068333Y-75439432D01*
X176068333Y-68534417D01*
X176113316Y-68525469D01*
X176477838Y-68281903D01*
X176721404Y-67917381D01*
X176775385Y-67646000D01*
X183565066Y-67646000D01*
X183565066Y-68438982D01*
X183651539Y-68647746D01*
X183811320Y-68807527D01*
X184020084Y-68894000D01*
X184660666Y-68894000D01*
X184802666Y-68752000D01*
X184802666Y-67504000D01*
X183707066Y-67504000D01*
X183565066Y-67646000D01*
X176775385Y-67646000D01*
X176806933Y-67487398D01*
X176806933Y-67132602D01*
X176721404Y-66702619D01*
X176477838Y-66338097D01*
X176242753Y-66181018D01*
X183565066Y-66181018D01*
X183565066Y-66974000D01*
X183707066Y-67116000D01*
X184802666Y-67116000D01*
X184802666Y-65868000D01*
X185190666Y-65868000D01*
X185190666Y-67116000D01*
X185210666Y-67116000D01*
X185210666Y-67504000D01*
X185190666Y-67504000D01*
X185190666Y-68752000D01*
X185332666Y-68894000D01*
X185973248Y-68894000D01*
X186182012Y-68807527D01*
X186341793Y-68647746D01*
X186428266Y-68438982D01*
X186428266Y-67646000D01*
X186286268Y-67504002D01*
X186416369Y-67504002D01*
X186498595Y-67917381D01*
X186742161Y-68281903D01*
X187106683Y-68525469D01*
X187151666Y-68534417D01*
X187151666Y-71658860D01*
X186312763Y-72497763D01*
X186229305Y-72622666D01*
X186199999Y-72769999D01*
X186199999Y-90908533D01*
X186229305Y-91055866D01*
X186312763Y-91180769D01*
X186917098Y-91785104D01*
X186753306Y-91852781D01*
X186468780Y-92136811D01*
X186314606Y-92508103D01*
X186314255Y-92910133D01*
X186467781Y-93281694D01*
X186751811Y-93566220D01*
X187123103Y-93720394D01*
X187525133Y-93720745D01*
X187896694Y-93567219D01*
X188181220Y-93283189D01*
X188335394Y-92911897D01*
X188335745Y-92509867D01*
X188182219Y-92138306D01*
X187898189Y-91853780D01*
X187710000Y-91775637D01*
X187710000Y-91648534D01*
X187680694Y-91501201D01*
X187597236Y-91376298D01*
X186969999Y-90749061D01*
X186969999Y-87889432D01*
X192649774Y-87889432D01*
X192848789Y-88371086D01*
X193216976Y-88739916D01*
X193698282Y-88939772D01*
X194219432Y-88940226D01*
X194701086Y-88741211D01*
X195069916Y-88373024D01*
X195269772Y-87891718D01*
X195270226Y-87370568D01*
X195071211Y-86888914D01*
X194703024Y-86520084D01*
X194221718Y-86320228D01*
X193700568Y-86319774D01*
X193218914Y-86518789D01*
X192850084Y-86886976D01*
X192650228Y-87368282D01*
X192649774Y-87889432D01*
X186969999Y-87889432D01*
X186969999Y-74292508D01*
X187216976Y-74539916D01*
X187698282Y-74739772D01*
X188219432Y-74740226D01*
X188701086Y-74541211D01*
X189069916Y-74173024D01*
X189269772Y-73691718D01*
X189270226Y-73170568D01*
X189071211Y-72688914D01*
X188703024Y-72320084D01*
X188221718Y-72120228D01*
X187779627Y-72119843D01*
X187808902Y-72090568D01*
X187892360Y-71965666D01*
X187921666Y-71818332D01*
X187921666Y-68534417D01*
X187966649Y-68525469D01*
X188331171Y-68281903D01*
X188574737Y-67917381D01*
X188656963Y-67504002D01*
X188789883Y-67504002D01*
X188671982Y-67726999D01*
X188880165Y-68244407D01*
X189270504Y-68642761D01*
X189663169Y-68832983D01*
X189882666Y-68737324D01*
X189882666Y-67504000D01*
X189862666Y-67504000D01*
X189862666Y-67116000D01*
X189882666Y-67116000D01*
X189882666Y-65882676D01*
X190270666Y-65882676D01*
X190270666Y-67116000D01*
X190290666Y-67116000D01*
X190290666Y-67504000D01*
X190270666Y-67504000D01*
X190270666Y-68737324D01*
X190490163Y-68832983D01*
X190882828Y-68642761D01*
X191273167Y-68244407D01*
X191481350Y-67726999D01*
X191363449Y-67504002D01*
X191496369Y-67504002D01*
X191578595Y-67917381D01*
X191594063Y-67940531D01*
X191230830Y-68303764D01*
X191147372Y-68428667D01*
X191118066Y-68576000D01*
X191118066Y-82448068D01*
X191147372Y-82595401D01*
X191230830Y-82720304D01*
X197787763Y-89277237D01*
X197912666Y-89360695D01*
X198059999Y-89390001D01*
X199970529Y-89390001D01*
X202902072Y-92321544D01*
X202824606Y-92508103D01*
X202824255Y-92910133D01*
X202977781Y-93281694D01*
X203261811Y-93566220D01*
X203633103Y-93720394D01*
X204035133Y-93720745D01*
X204406694Y-93567219D01*
X204691220Y-93283189D01*
X204845394Y-92911897D01*
X204845745Y-92509867D01*
X204692219Y-92138306D01*
X204408189Y-91853780D01*
X204036897Y-91699606D01*
X203634867Y-91699255D01*
X203446542Y-91777070D01*
X200402237Y-88732765D01*
X200277334Y-88649307D01*
X200130001Y-88620001D01*
X198899390Y-88620001D01*
X199211086Y-88491211D01*
X199579916Y-88123024D01*
X199728581Y-87765000D01*
X204060528Y-87765000D01*
X208617072Y-92321544D01*
X208539606Y-92508103D01*
X208539255Y-92910133D01*
X208692781Y-93281694D01*
X208976811Y-93566220D01*
X209348103Y-93720394D01*
X209750133Y-93720745D01*
X210121694Y-93567219D01*
X210406220Y-93283189D01*
X210560394Y-92911897D01*
X210560745Y-92509867D01*
X210407219Y-92138306D01*
X210123189Y-91853780D01*
X209751897Y-91699606D01*
X209349867Y-91699255D01*
X209161542Y-91777070D01*
X205023904Y-87639432D01*
X209159774Y-87639432D01*
X209358789Y-88121086D01*
X209726976Y-88489916D01*
X210208282Y-88689772D01*
X210729432Y-88690226D01*
X211211086Y-88491211D01*
X211579916Y-88123024D01*
X211779772Y-87641718D01*
X211780226Y-87120568D01*
X211581211Y-86638914D01*
X211213024Y-86270084D01*
X210731718Y-86070228D01*
X210210568Y-86069774D01*
X209728914Y-86268789D01*
X209360084Y-86636976D01*
X209160228Y-87118282D01*
X209159774Y-87639432D01*
X205023904Y-87639432D01*
X204492236Y-87107764D01*
X204367333Y-87024306D01*
X204220000Y-86995000D01*
X199728342Y-86995000D01*
X199581211Y-86638914D01*
X199213024Y-86270084D01*
X198731718Y-86070228D01*
X198210568Y-86069774D01*
X197728914Y-86268789D01*
X197360084Y-86636976D01*
X197160228Y-87118282D01*
X197159843Y-87560373D01*
X191888066Y-82288596D01*
X191888066Y-75689432D01*
X192649774Y-75689432D01*
X192848789Y-76171086D01*
X193216976Y-76539916D01*
X193698282Y-76739772D01*
X194219432Y-76740226D01*
X194701086Y-76541211D01*
X195069916Y-76173024D01*
X195269772Y-75691718D01*
X195269991Y-75439432D01*
X197159774Y-75439432D01*
X197358789Y-75921086D01*
X197726976Y-76289916D01*
X198208282Y-76489772D01*
X198729432Y-76490226D01*
X199211086Y-76291211D01*
X199579916Y-75923024D01*
X199779772Y-75441718D01*
X199779773Y-75439432D01*
X209159774Y-75439432D01*
X209358789Y-75921086D01*
X209726976Y-76289916D01*
X210208282Y-76489772D01*
X210729432Y-76490226D01*
X211211086Y-76291211D01*
X211579916Y-75923024D01*
X211779772Y-75441718D01*
X211780226Y-74920568D01*
X211581211Y-74438914D01*
X211213024Y-74070084D01*
X210731718Y-73870228D01*
X210210568Y-73869774D01*
X209728914Y-74068789D01*
X209360084Y-74436976D01*
X209160228Y-74918282D01*
X209159774Y-75439432D01*
X199779773Y-75439432D01*
X199780226Y-74920568D01*
X199581211Y-74438914D01*
X199213024Y-74070084D01*
X198731718Y-73870228D01*
X198210568Y-73869774D01*
X197728914Y-74068789D01*
X197360084Y-74436976D01*
X197160228Y-74918282D01*
X197159774Y-75439432D01*
X195269991Y-75439432D01*
X195270226Y-75170568D01*
X195071211Y-74688914D01*
X194703024Y-74320084D01*
X194221718Y-74120228D01*
X193700568Y-74119774D01*
X193218914Y-74318789D01*
X192850084Y-74686976D01*
X192650228Y-75168282D01*
X192649774Y-75689432D01*
X191888066Y-75689432D01*
X191888066Y-73439432D01*
X203159774Y-73439432D01*
X203358789Y-73921086D01*
X203726976Y-74289916D01*
X204208282Y-74489772D01*
X204729432Y-74490226D01*
X205211086Y-74291211D01*
X205579916Y-73923024D01*
X205779772Y-73441718D01*
X205780226Y-72920568D01*
X205581211Y-72438914D01*
X205213024Y-72070084D01*
X204731718Y-71870228D01*
X204210568Y-71869774D01*
X203728914Y-72068789D01*
X203360084Y-72436976D01*
X203160228Y-72918282D01*
X203159774Y-73439432D01*
X191888066Y-73439432D01*
X191888066Y-68735472D01*
X192133563Y-68489975D01*
X192186683Y-68525469D01*
X192616666Y-68610998D01*
X193046649Y-68525469D01*
X193411171Y-68281903D01*
X193654737Y-67917381D01*
X193708718Y-67646000D01*
X200498399Y-67646000D01*
X200498399Y-68438982D01*
X200584872Y-68647746D01*
X200744653Y-68807527D01*
X200953417Y-68894000D01*
X201593999Y-68894000D01*
X201735999Y-68752000D01*
X201735999Y-67504000D01*
X200640399Y-67504000D01*
X200498399Y-67646000D01*
X193708718Y-67646000D01*
X193740266Y-67487398D01*
X193740266Y-67132602D01*
X193654737Y-66702619D01*
X193411171Y-66338097D01*
X193176086Y-66181018D01*
X200498399Y-66181018D01*
X200498399Y-66974000D01*
X200640399Y-67116000D01*
X201735999Y-67116000D01*
X201735999Y-65868000D01*
X202123999Y-65868000D01*
X202123999Y-67116000D01*
X202143999Y-67116000D01*
X202143999Y-67504000D01*
X202123999Y-67504000D01*
X202123999Y-68752000D01*
X202265999Y-68894000D01*
X202906581Y-68894000D01*
X203115345Y-68807527D01*
X203275126Y-68647746D01*
X203361599Y-68438982D01*
X203361599Y-67646000D01*
X203219601Y-67504002D01*
X203349702Y-67504002D01*
X203431928Y-67917381D01*
X203675494Y-68281903D01*
X204040016Y-68525469D01*
X204469999Y-68610998D01*
X204899982Y-68525469D01*
X205264504Y-68281903D01*
X205508070Y-67917381D01*
X205590296Y-67504002D01*
X205723216Y-67504002D01*
X205605315Y-67726999D01*
X205813498Y-68244407D01*
X206203837Y-68642761D01*
X206596502Y-68832983D01*
X206815999Y-68737324D01*
X206815999Y-67504000D01*
X206795999Y-67504000D01*
X206795999Y-67116000D01*
X206815999Y-67116000D01*
X206815999Y-65882676D01*
X207203999Y-65882676D01*
X207203999Y-67116000D01*
X207223999Y-67116000D01*
X207223999Y-67504000D01*
X207203999Y-67504000D01*
X207203999Y-68737324D01*
X207423496Y-68832983D01*
X207816161Y-68642761D01*
X208206500Y-68244407D01*
X208414683Y-67726999D01*
X208296782Y-67504002D01*
X208429702Y-67504002D01*
X208511928Y-67917381D01*
X208755494Y-68281903D01*
X209120016Y-68525469D01*
X209549999Y-68610998D01*
X209979982Y-68525469D01*
X210344504Y-68281903D01*
X210588070Y-67917381D01*
X210673599Y-67487398D01*
X210673599Y-67132602D01*
X210588070Y-66702619D01*
X210344504Y-66338097D01*
X209979982Y-66094531D01*
X209549999Y-66009002D01*
X209120016Y-66094531D01*
X208755494Y-66338097D01*
X208511928Y-66702619D01*
X208429702Y-67115998D01*
X208296782Y-67115998D01*
X208414683Y-66893001D01*
X208206500Y-66375593D01*
X207816161Y-65977239D01*
X207423496Y-65787017D01*
X207203999Y-65882676D01*
X206815999Y-65882676D01*
X206596502Y-65787017D01*
X206203837Y-65977239D01*
X205813498Y-66375593D01*
X205605315Y-66893001D01*
X205723216Y-67115998D01*
X205590296Y-67115998D01*
X205508070Y-66702619D01*
X205264504Y-66338097D01*
X204899982Y-66094531D01*
X204469999Y-66009002D01*
X204040016Y-66094531D01*
X203675494Y-66338097D01*
X203431928Y-66702619D01*
X203349702Y-67115998D01*
X203219601Y-67115998D01*
X203361599Y-66974000D01*
X203361599Y-66181018D01*
X203275126Y-65972254D01*
X203115345Y-65812473D01*
X202906581Y-65726000D01*
X202265999Y-65726000D01*
X202123999Y-65868000D01*
X201735999Y-65868000D01*
X201593999Y-65726000D01*
X200953417Y-65726000D01*
X200744653Y-65812473D01*
X200584872Y-65972254D01*
X200498399Y-66181018D01*
X193176086Y-66181018D01*
X193046649Y-66094531D01*
X192616666Y-66009002D01*
X192186683Y-66094531D01*
X191822161Y-66338097D01*
X191578595Y-66702619D01*
X191496369Y-67115998D01*
X191363449Y-67115998D01*
X191481350Y-66893001D01*
X191273167Y-66375593D01*
X190882828Y-65977239D01*
X190490163Y-65787017D01*
X190270666Y-65882676D01*
X189882666Y-65882676D01*
X189663169Y-65787017D01*
X189270504Y-65977239D01*
X188880165Y-66375593D01*
X188671982Y-66893001D01*
X188789883Y-67115998D01*
X188656963Y-67115998D01*
X188574737Y-66702619D01*
X188331171Y-66338097D01*
X187966649Y-66094531D01*
X187536666Y-66009002D01*
X187106683Y-66094531D01*
X186742161Y-66338097D01*
X186498595Y-66702619D01*
X186416369Y-67115998D01*
X186286268Y-67115998D01*
X186428266Y-66974000D01*
X186428266Y-66181018D01*
X186341793Y-65972254D01*
X186182012Y-65812473D01*
X185973248Y-65726000D01*
X185332666Y-65726000D01*
X185190666Y-65868000D01*
X184802666Y-65868000D01*
X184660666Y-65726000D01*
X184020084Y-65726000D01*
X183811320Y-65812473D01*
X183651539Y-65972254D01*
X183565066Y-66181018D01*
X176242753Y-66181018D01*
X176113316Y-66094531D01*
X175683333Y-66009002D01*
X175253350Y-66094531D01*
X174888828Y-66338097D01*
X174645262Y-66702619D01*
X174563036Y-67115998D01*
X174430116Y-67115998D01*
X174548017Y-66893001D01*
X174339834Y-66375593D01*
X173949495Y-65977239D01*
X173556830Y-65787017D01*
X173337333Y-65882676D01*
X172949333Y-65882676D01*
X172729836Y-65787017D01*
X172337171Y-65977239D01*
X171946832Y-66375593D01*
X171738649Y-66893001D01*
X171856550Y-67115998D01*
X171723630Y-67115998D01*
X171641404Y-66702619D01*
X171397838Y-66338097D01*
X171033316Y-66094531D01*
X170603333Y-66009002D01*
X170173350Y-66094531D01*
X169808828Y-66338097D01*
X169565262Y-66702619D01*
X169483036Y-67115998D01*
X169352935Y-67115998D01*
X169494933Y-66974000D01*
X169494933Y-66181018D01*
X169408460Y-65972254D01*
X169248679Y-65812473D01*
X169039915Y-65726000D01*
X168399333Y-65726000D01*
X168257333Y-65868000D01*
X168257333Y-67116000D01*
X168277333Y-67116000D01*
X168277333Y-67504000D01*
X168257333Y-67504000D01*
X168257333Y-68752000D01*
X168399333Y-68894000D01*
X169039915Y-68894000D01*
X169248679Y-68807527D01*
X169408460Y-68647746D01*
X169494933Y-68438982D01*
X169494933Y-67646000D01*
X169352935Y-67504002D01*
X169483036Y-67504002D01*
X169565262Y-67917381D01*
X169808828Y-68281903D01*
X170173350Y-68525469D01*
X170218333Y-68534417D01*
X170218333Y-71832193D01*
X169272764Y-72777762D01*
X169189306Y-72902665D01*
X169160000Y-73049998D01*
X169189306Y-73197331D01*
X169235900Y-73267063D01*
X169235900Y-73385902D01*
X169265206Y-73533235D01*
X169348664Y-73658138D01*
X171257001Y-75566475D01*
X171257001Y-81970499D01*
X171129500Y-82098000D01*
X171129500Y-82930000D01*
X171156000Y-82930000D01*
X171156000Y-83318000D01*
X171129500Y-83318000D01*
X171129500Y-83338000D01*
X170754500Y-83338000D01*
X170754500Y-83318000D01*
X170141000Y-83318000D01*
X169999000Y-83460000D01*
X169999000Y-83836982D01*
X170085473Y-84045746D01*
X170245254Y-84205527D01*
X170367111Y-84256002D01*
X170322793Y-84320864D01*
X170301907Y-84424000D01*
X170301907Y-84789000D01*
X168863093Y-84789000D01*
X168863093Y-84574000D01*
X168844964Y-84477650D01*
X168788021Y-84389158D01*
X168701136Y-84329793D01*
X168598000Y-84308907D01*
X167698000Y-84308907D01*
X167601650Y-84327036D01*
X167513158Y-84383979D01*
X167453793Y-84470864D01*
X167432907Y-84574000D01*
X167432907Y-85774000D01*
X167451036Y-85870350D01*
X167507979Y-85958842D01*
X167594864Y-86018207D01*
X167698000Y-86039093D01*
X168598000Y-86039093D01*
X168694350Y-86020964D01*
X168782842Y-85964021D01*
X168842207Y-85877136D01*
X168863093Y-85774000D01*
X168863093Y-85559000D01*
X170301907Y-85559000D01*
X170301907Y-85624000D01*
X170320036Y-85720350D01*
X170376979Y-85808842D01*
X170463864Y-85868207D01*
X170557000Y-85887068D01*
X170557000Y-87322528D01*
X168863093Y-89016435D01*
X168863093Y-88976000D01*
X168844964Y-88879650D01*
X168788021Y-88791158D01*
X168701136Y-88731793D01*
X168598000Y-88710907D01*
X167698000Y-88710907D01*
X167601650Y-88729036D01*
X167513158Y-88785979D01*
X167453793Y-88872864D01*
X167432907Y-88976000D01*
X167432907Y-89191000D01*
X166964000Y-89191000D01*
X166816666Y-89220306D01*
X166691764Y-89303764D01*
X164218456Y-91777072D01*
X164031897Y-91699606D01*
X163629867Y-91699255D01*
X163258306Y-91852781D01*
X162973780Y-92136811D01*
X162819606Y-92508103D01*
X162819255Y-92910133D01*
X157220395Y-92910133D01*
X157220745Y-92509867D01*
X157067219Y-92138306D01*
X156783189Y-91853780D01*
X156595000Y-91775637D01*
X156595000Y-87639432D01*
X159629774Y-87639432D01*
X159828789Y-88121086D01*
X160196976Y-88489916D01*
X160678282Y-88689772D01*
X161199432Y-88690226D01*
X161681086Y-88491211D01*
X162049916Y-88123024D01*
X162249772Y-87641718D01*
X162249773Y-87639432D01*
X164139774Y-87639432D01*
X164338789Y-88121086D01*
X164706976Y-88489916D01*
X165188282Y-88689772D01*
X165709432Y-88690226D01*
X166191086Y-88491211D01*
X166559916Y-88123024D01*
X166708581Y-87765000D01*
X167432907Y-87765000D01*
X167432907Y-87976000D01*
X167451036Y-88072350D01*
X167507979Y-88160842D01*
X167594864Y-88220207D01*
X167698000Y-88241093D01*
X168598000Y-88241093D01*
X168694350Y-88222964D01*
X168782842Y-88166021D01*
X168842207Y-88079136D01*
X168863093Y-87976000D01*
X168863093Y-86776000D01*
X168844964Y-86679650D01*
X168788021Y-86591158D01*
X168701136Y-86531793D01*
X168598000Y-86510907D01*
X167698000Y-86510907D01*
X167601650Y-86529036D01*
X167513158Y-86585979D01*
X167453793Y-86672864D01*
X167432907Y-86776000D01*
X167432907Y-86995000D01*
X166708342Y-86995000D01*
X166561211Y-86638914D01*
X166193024Y-86270084D01*
X165711718Y-86070228D01*
X165190568Y-86069774D01*
X164708914Y-86268789D01*
X164340084Y-86636976D01*
X164140228Y-87118282D01*
X164139774Y-87639432D01*
X162249773Y-87639432D01*
X162250226Y-87120568D01*
X162051211Y-86638914D01*
X161683024Y-86270084D01*
X161201718Y-86070228D01*
X160680568Y-86069774D01*
X160198914Y-86268789D01*
X159830084Y-86636976D01*
X159630228Y-87118282D01*
X159629774Y-87639432D01*
X156595000Y-87639432D01*
X156595000Y-83310000D01*
X167130000Y-83310000D01*
X167130000Y-83686982D01*
X167216473Y-83895746D01*
X167376254Y-84055527D01*
X167585018Y-84142000D01*
X167812000Y-84142000D01*
X167954000Y-84000000D01*
X167954000Y-83168000D01*
X168342000Y-83168000D01*
X168342000Y-84000000D01*
X168484000Y-84142000D01*
X168710982Y-84142000D01*
X168919746Y-84055527D01*
X169079527Y-83895746D01*
X169166000Y-83686982D01*
X169166000Y-83310000D01*
X169024000Y-83168000D01*
X168342000Y-83168000D01*
X167954000Y-83168000D01*
X167272000Y-83168000D01*
X167130000Y-83310000D01*
X156595000Y-83310000D01*
X156595000Y-82261018D01*
X167130000Y-82261018D01*
X167130000Y-82638000D01*
X167272000Y-82780000D01*
X167954000Y-82780000D01*
X167954000Y-81948000D01*
X168342000Y-81948000D01*
X168342000Y-82780000D01*
X169024000Y-82780000D01*
X169166000Y-82638000D01*
X169166000Y-82411018D01*
X169999000Y-82411018D01*
X169999000Y-82788000D01*
X170141000Y-82930000D01*
X170754500Y-82930000D01*
X170754500Y-82098000D01*
X170612500Y-81956000D01*
X170454018Y-81956000D01*
X170245254Y-82042473D01*
X170085473Y-82202254D01*
X169999000Y-82411018D01*
X169166000Y-82411018D01*
X169166000Y-82261018D01*
X169079527Y-82052254D01*
X168919746Y-81892473D01*
X168710982Y-81806000D01*
X168484000Y-81806000D01*
X168342000Y-81948000D01*
X167954000Y-81948000D01*
X167812000Y-81806000D01*
X167585018Y-81806000D01*
X167376254Y-81892473D01*
X167216473Y-82052254D01*
X167130000Y-82261018D01*
X156595000Y-82261018D01*
X156595000Y-80069472D01*
X160322453Y-76342019D01*
X160678282Y-76489772D01*
X161199432Y-76490226D01*
X161681086Y-76291211D01*
X162049916Y-75923024D01*
X162249772Y-75441718D01*
X162249773Y-75439432D01*
X164139774Y-75439432D01*
X164338789Y-75921086D01*
X164706976Y-76289916D01*
X165188282Y-76489772D01*
X165709432Y-76490226D01*
X166191086Y-76291211D01*
X166559916Y-75923024D01*
X166759772Y-75441718D01*
X166760226Y-74920568D01*
X166561211Y-74438914D01*
X166193024Y-74070084D01*
X165711718Y-73870228D01*
X165190568Y-73869774D01*
X164708914Y-74068789D01*
X164340084Y-74436976D01*
X164140228Y-74918282D01*
X164139774Y-75439432D01*
X162249773Y-75439432D01*
X162250226Y-74920568D01*
X162051211Y-74438914D01*
X161683024Y-74070084D01*
X161201718Y-73870228D01*
X160680568Y-73869774D01*
X160198914Y-74068789D01*
X159830084Y-74436976D01*
X159630228Y-74918282D01*
X159629774Y-75439432D01*
X159777813Y-75797715D01*
X155937764Y-79637764D01*
X155854306Y-79762667D01*
X155825000Y-79910000D01*
X155825000Y-91775641D01*
X155638306Y-91852781D01*
X155353780Y-92136811D01*
X155199606Y-92508103D01*
X155199255Y-92910133D01*
X150870395Y-92910133D01*
X150870745Y-92509867D01*
X150792930Y-92321542D01*
X152418236Y-90696236D01*
X152501694Y-90571334D01*
X152531000Y-90424000D01*
X152531000Y-90357093D01*
X152596000Y-90357093D01*
X152692350Y-90338964D01*
X152780842Y-90282021D01*
X152840207Y-90195136D01*
X152861093Y-90092000D01*
X152861093Y-89873998D01*
X152993333Y-89847694D01*
X153118236Y-89764236D01*
X154958236Y-87924236D01*
X155041694Y-87799333D01*
X155071000Y-87652000D01*
X155071000Y-85633211D01*
X155157350Y-85616964D01*
X155245842Y-85560021D01*
X155305207Y-85473136D01*
X155326093Y-85370000D01*
X155326093Y-84170000D01*
X155307964Y-84073650D01*
X155261655Y-84001684D01*
X155382746Y-83951527D01*
X155542527Y-83791746D01*
X155629000Y-83582982D01*
X155629000Y-83206000D01*
X155487000Y-83064000D01*
X154873500Y-83064000D01*
X154873500Y-83084000D01*
X154498500Y-83084000D01*
X154498500Y-83064000D01*
X153885000Y-83064000D01*
X153743000Y-83206000D01*
X153743000Y-83582982D01*
X153829473Y-83791746D01*
X153989254Y-83951527D01*
X154111111Y-84002002D01*
X154066793Y-84066864D01*
X154045907Y-84170000D01*
X154045907Y-84385000D01*
X152861093Y-84385000D01*
X152861093Y-84320000D01*
X152842964Y-84223650D01*
X152786021Y-84135158D01*
X152699136Y-84075793D01*
X152596000Y-84054907D01*
X151696000Y-84054907D01*
X151599650Y-84073036D01*
X151511158Y-84129979D01*
X151451793Y-84216864D01*
X151430907Y-84320000D01*
X151430907Y-85520000D01*
X151449036Y-85616350D01*
X151505979Y-85704842D01*
X151592864Y-85764207D01*
X151696000Y-85785093D01*
X152596000Y-85785093D01*
X152692350Y-85766964D01*
X152780842Y-85710021D01*
X152840207Y-85623136D01*
X152861093Y-85520000D01*
X152861093Y-85155000D01*
X154045907Y-85155000D01*
X154045907Y-85370000D01*
X154064036Y-85466350D01*
X154120979Y-85554842D01*
X154207864Y-85614207D01*
X154301000Y-85633068D01*
X154301000Y-87492528D01*
X152861093Y-88932435D01*
X152861093Y-88892000D01*
X152842964Y-88795650D01*
X152786021Y-88707158D01*
X152699136Y-88647793D01*
X152596000Y-88626907D01*
X151696000Y-88626907D01*
X151599650Y-88645036D01*
X151511158Y-88701979D01*
X151451793Y-88788864D01*
X151430907Y-88892000D01*
X151430907Y-90092000D01*
X151449036Y-90188350D01*
X151505979Y-90276842D01*
X151592864Y-90336207D01*
X151673077Y-90352451D01*
X150248456Y-91777072D01*
X150061897Y-91699606D01*
X149659867Y-91699255D01*
X149288306Y-91852781D01*
X149003780Y-92136811D01*
X148849606Y-92508103D01*
X148849255Y-92910133D01*
X145230000Y-92910133D01*
X145230000Y-87639432D01*
X147629774Y-87639432D01*
X147828789Y-88121086D01*
X148196976Y-88489916D01*
X148678282Y-88689772D01*
X149199432Y-88690226D01*
X149681086Y-88491211D01*
X150049916Y-88123024D01*
X150198581Y-87765000D01*
X151430907Y-87765000D01*
X151430907Y-87892000D01*
X151449036Y-87988350D01*
X151505979Y-88076842D01*
X151592864Y-88136207D01*
X151696000Y-88157093D01*
X152596000Y-88157093D01*
X152692350Y-88138964D01*
X152780842Y-88082021D01*
X152840207Y-87995136D01*
X152861093Y-87892000D01*
X152861093Y-86692000D01*
X152842964Y-86595650D01*
X152786021Y-86507158D01*
X152699136Y-86447793D01*
X152596000Y-86426907D01*
X151696000Y-86426907D01*
X151599650Y-86445036D01*
X151511158Y-86501979D01*
X151451793Y-86588864D01*
X151430907Y-86692000D01*
X151430907Y-86995000D01*
X150198342Y-86995000D01*
X150051211Y-86638914D01*
X149683024Y-86270084D01*
X149201718Y-86070228D01*
X148680568Y-86069774D01*
X148198914Y-86268789D01*
X147830084Y-86636976D01*
X147630228Y-87118282D01*
X147629774Y-87639432D01*
X145230000Y-87639432D01*
X145230000Y-83056000D01*
X151128000Y-83056000D01*
X151128000Y-83432982D01*
X151214473Y-83641746D01*
X151374254Y-83801527D01*
X151583018Y-83888000D01*
X151810000Y-83888000D01*
X151952000Y-83746000D01*
X151952000Y-82914000D01*
X152340000Y-82914000D01*
X152340000Y-83746000D01*
X152482000Y-83888000D01*
X152708982Y-83888000D01*
X152917746Y-83801527D01*
X153077527Y-83641746D01*
X153164000Y-83432982D01*
X153164000Y-83056000D01*
X153022000Y-82914000D01*
X152340000Y-82914000D01*
X151952000Y-82914000D01*
X151270000Y-82914000D01*
X151128000Y-83056000D01*
X145230000Y-83056000D01*
X145230000Y-82007018D01*
X151128000Y-82007018D01*
X151128000Y-82384000D01*
X151270000Y-82526000D01*
X151952000Y-82526000D01*
X151952000Y-81694000D01*
X152340000Y-81694000D01*
X152340000Y-82526000D01*
X153022000Y-82526000D01*
X153164000Y-82384000D01*
X153164000Y-82157018D01*
X153743000Y-82157018D01*
X153743000Y-82534000D01*
X153885000Y-82676000D01*
X154498500Y-82676000D01*
X154498500Y-81844000D01*
X154873500Y-81844000D01*
X154873500Y-82676000D01*
X155487000Y-82676000D01*
X155629000Y-82534000D01*
X155629000Y-82157018D01*
X155542527Y-81948254D01*
X155382746Y-81788473D01*
X155173982Y-81702000D01*
X155015500Y-81702000D01*
X154873500Y-81844000D01*
X154498500Y-81844000D01*
X154356500Y-81702000D01*
X154198018Y-81702000D01*
X153989254Y-81788473D01*
X153829473Y-81948254D01*
X153743000Y-82157018D01*
X153164000Y-82157018D01*
X153164000Y-82007018D01*
X153077527Y-81798254D01*
X152917746Y-81638473D01*
X152708982Y-81552000D01*
X152482000Y-81552000D01*
X152340000Y-81694000D01*
X151952000Y-81694000D01*
X151810000Y-81552000D01*
X151583018Y-81552000D01*
X151374254Y-81638473D01*
X151214473Y-81798254D01*
X151128000Y-82007018D01*
X145230000Y-82007018D01*
X145230000Y-75439432D01*
X147629774Y-75439432D01*
X147828789Y-75921086D01*
X148196976Y-76289916D01*
X148678282Y-76489772D01*
X149199432Y-76490226D01*
X149681086Y-76291211D01*
X150049916Y-75923024D01*
X150249772Y-75441718D01*
X150250226Y-74920568D01*
X150051211Y-74438914D01*
X149683024Y-74070084D01*
X149201718Y-73870228D01*
X148680568Y-73869774D01*
X148198914Y-74068789D01*
X147830084Y-74436976D01*
X147630228Y-74918282D01*
X147629774Y-75439432D01*
X145230000Y-75439432D01*
X145230000Y-73439432D01*
X153629774Y-73439432D01*
X153828789Y-73921086D01*
X154196976Y-74289916D01*
X154678282Y-74489772D01*
X155199432Y-74490226D01*
X155681086Y-74291211D01*
X156049916Y-73923024D01*
X156249772Y-73441718D01*
X156250226Y-72920568D01*
X156051211Y-72438914D01*
X155683024Y-72070084D01*
X155201718Y-71870228D01*
X154680568Y-71869774D01*
X154198914Y-72068789D01*
X153830084Y-72436976D01*
X153630228Y-72918282D01*
X153629774Y-73439432D01*
X145230000Y-73439432D01*
X145230000Y-67646000D01*
X149698400Y-67646000D01*
X149698400Y-68438982D01*
X149784873Y-68647746D01*
X149944654Y-68807527D01*
X150153418Y-68894000D01*
X150794000Y-68894000D01*
X150936000Y-68752000D01*
X150936000Y-67504000D01*
X149840400Y-67504000D01*
X149698400Y-67646000D01*
X145230000Y-67646000D01*
X145230000Y-66181018D01*
X149698400Y-66181018D01*
X149698400Y-66974000D01*
X149840400Y-67116000D01*
X150936000Y-67116000D01*
X150936000Y-65868000D01*
X151324000Y-65868000D01*
X151324000Y-67116000D01*
X151344000Y-67116000D01*
X151344000Y-67504000D01*
X151324000Y-67504000D01*
X151324000Y-68752000D01*
X151466000Y-68894000D01*
X152106582Y-68894000D01*
X152315346Y-68807527D01*
X152475127Y-68647746D01*
X152561600Y-68438982D01*
X152561600Y-67646000D01*
X152419602Y-67504002D01*
X152549703Y-67504002D01*
X152631929Y-67917381D01*
X152875495Y-68281903D01*
X153240017Y-68525469D01*
X153670000Y-68610998D01*
X154099983Y-68525469D01*
X154464505Y-68281903D01*
X154708071Y-67917381D01*
X154790297Y-67504002D01*
X154923217Y-67504002D01*
X154805316Y-67726999D01*
X155013499Y-68244407D01*
X155403838Y-68642761D01*
X155796503Y-68832983D01*
X156016000Y-68737324D01*
X156016000Y-67504000D01*
X155996000Y-67504000D01*
X155996000Y-67116000D01*
X156016000Y-67116000D01*
X156016000Y-65882676D01*
X156404000Y-65882676D01*
X156404000Y-67116000D01*
X156424000Y-67116000D01*
X156424000Y-67504000D01*
X156404000Y-67504000D01*
X156404000Y-68737324D01*
X156623497Y-68832983D01*
X157016162Y-68642761D01*
X157406501Y-68244407D01*
X157614684Y-67726999D01*
X157496783Y-67504002D01*
X157629703Y-67504002D01*
X157711929Y-67917381D01*
X157955495Y-68281903D01*
X158320017Y-68525469D01*
X158750000Y-68610998D01*
X159179983Y-68525469D01*
X159544505Y-68281903D01*
X159788071Y-67917381D01*
X159842052Y-67646000D01*
X166631733Y-67646000D01*
X166631733Y-68438982D01*
X166718206Y-68647746D01*
X166877987Y-68807527D01*
X167086751Y-68894000D01*
X167727333Y-68894000D01*
X167869333Y-68752000D01*
X167869333Y-67504000D01*
X166773733Y-67504000D01*
X166631733Y-67646000D01*
X159842052Y-67646000D01*
X159873600Y-67487398D01*
X159873600Y-67132602D01*
X159788071Y-66702619D01*
X159544505Y-66338097D01*
X159309420Y-66181018D01*
X166631733Y-66181018D01*
X166631733Y-66974000D01*
X166773733Y-67116000D01*
X167869333Y-67116000D01*
X167869333Y-65868000D01*
X167727333Y-65726000D01*
X167086751Y-65726000D01*
X166877987Y-65812473D01*
X166718206Y-65972254D01*
X166631733Y-66181018D01*
X159309420Y-66181018D01*
X159179983Y-66094531D01*
X158750000Y-66009002D01*
X158320017Y-66094531D01*
X157955495Y-66338097D01*
X157711929Y-66702619D01*
X157629703Y-67115998D01*
X157496783Y-67115998D01*
X157614684Y-66893001D01*
X157406501Y-66375593D01*
X157016162Y-65977239D01*
X156623497Y-65787017D01*
X156404000Y-65882676D01*
X156016000Y-65882676D01*
X155796503Y-65787017D01*
X155403838Y-65977239D01*
X155013499Y-66375593D01*
X154805316Y-66893001D01*
X154923217Y-67115998D01*
X154790297Y-67115998D01*
X154708071Y-66702619D01*
X154464505Y-66338097D01*
X154099983Y-66094531D01*
X153670000Y-66009002D01*
X153240017Y-66094531D01*
X152875495Y-66338097D01*
X152631929Y-66702619D01*
X152549703Y-67115998D01*
X152419602Y-67115998D01*
X152561600Y-66974000D01*
X152561600Y-66181018D01*
X152475127Y-65972254D01*
X152315346Y-65812473D01*
X152106582Y-65726000D01*
X151466000Y-65726000D01*
X151324000Y-65868000D01*
X150936000Y-65868000D01*
X150794000Y-65726000D01*
X150153418Y-65726000D01*
X149944654Y-65812473D01*
X149784873Y-65972254D01*
X149698400Y-66181018D01*
X145230000Y-66181018D01*
X145230000Y-65230000D01*
X214770000Y-65230000D01*
X214770000Y-114770000D01*
X214770000Y-114770000D01*
G37*
X214770000Y-114770000D02*
X145230000Y-114770000D01*
X145230000Y-112096000D01*
X147006000Y-112096000D01*
X147006000Y-112888982D01*
X147092473Y-113097746D01*
X147252254Y-113257527D01*
X147461018Y-113344000D01*
X148254000Y-113344000D01*
X148396000Y-113202000D01*
X148396000Y-111954000D01*
X147148000Y-111954000D01*
X147006000Y-112096000D01*
X145230000Y-112096000D01*
X145230000Y-110631018D01*
X147006000Y-110631018D01*
X147006000Y-111424000D01*
X147148000Y-111566000D01*
X148396000Y-111566000D01*
X148396000Y-110318000D01*
X148784000Y-110318000D01*
X148784000Y-111566000D01*
X148804000Y-111566000D01*
X148804000Y-111954000D01*
X148784000Y-111954000D01*
X148784000Y-113202000D01*
X148926000Y-113344000D01*
X149718982Y-113344000D01*
X149927746Y-113257527D01*
X150087527Y-113097746D01*
X150174000Y-112888982D01*
X150174000Y-112606850D01*
X150227732Y-112687266D01*
X150641696Y-112963868D01*
X151130000Y-113060998D01*
X151618304Y-112963868D01*
X152032268Y-112687266D01*
X152308870Y-112273302D01*
X152406000Y-111784998D01*
X152406000Y-111735002D01*
X152308870Y-111246698D01*
X152032268Y-110832734D01*
X151899469Y-110744000D01*
X157621307Y-110744000D01*
X157621307Y-112776000D01*
X157639436Y-112872350D01*
X157696379Y-112960842D01*
X157783264Y-113020207D01*
X157886400Y-113041093D01*
X159613600Y-113041093D01*
X159709950Y-113022964D01*
X159798442Y-112966021D01*
X159857807Y-112879136D01*
X159878693Y-112776000D01*
X159878693Y-111582602D01*
X160166400Y-111582602D01*
X160166400Y-111937398D01*
X160251929Y-112367381D01*
X160495495Y-112731903D01*
X160860017Y-112975469D01*
X161290000Y-113060998D01*
X161719983Y-112975469D01*
X162084505Y-112731903D01*
X162220521Y-112528341D01*
X163065426Y-113373246D01*
X163190329Y-113456704D01*
X163337662Y-113486010D01*
X166561296Y-113486010D01*
X166566979Y-113494842D01*
X166653864Y-113554207D01*
X166757000Y-113575093D01*
X167507000Y-113575093D01*
X167603350Y-113556964D01*
X167691842Y-113500021D01*
X167701415Y-113486010D01*
X169092990Y-113486010D01*
X169093035Y-113486001D01*
X182808999Y-113486001D01*
X182956332Y-113456695D01*
X183081235Y-113373237D01*
X183559134Y-112895338D01*
X183661696Y-112963868D01*
X184150000Y-113060998D01*
X184638304Y-112963868D01*
X185052268Y-112687266D01*
X185328870Y-112273302D01*
X185426000Y-111784998D01*
X185426000Y-111735002D01*
X185328870Y-111246698D01*
X185052268Y-110832734D01*
X184638304Y-110556132D01*
X184150000Y-110459002D01*
X183661696Y-110556132D01*
X183247732Y-110832734D01*
X183194000Y-110913150D01*
X183194000Y-110631018D01*
X183107527Y-110422254D01*
X182947746Y-110262473D01*
X182738982Y-110176000D01*
X181946000Y-110176000D01*
X181804000Y-110318000D01*
X181804000Y-111566000D01*
X181824000Y-111566000D01*
X181824000Y-111954000D01*
X181804000Y-111954000D01*
X181804000Y-111974000D01*
X181416000Y-111974000D01*
X181416000Y-111954000D01*
X180168000Y-111954000D01*
X180026000Y-112096000D01*
X180026000Y-112716001D01*
X176065130Y-112716001D01*
X176298071Y-112367381D01*
X176383600Y-111937398D01*
X176383600Y-111582602D01*
X176298071Y-111152619D01*
X176054505Y-110788097D01*
X175819420Y-110631018D01*
X180026000Y-110631018D01*
X180026000Y-111424000D01*
X180168000Y-111566000D01*
X181416000Y-111566000D01*
X181416000Y-110318000D01*
X181274000Y-110176000D01*
X180481018Y-110176000D01*
X180272254Y-110262473D01*
X180112473Y-110422254D01*
X180026000Y-110631018D01*
X175819420Y-110631018D01*
X175689983Y-110544531D01*
X175260000Y-110459002D01*
X174830017Y-110544531D01*
X174465495Y-110788097D01*
X174221929Y-111152619D01*
X174139703Y-111565998D01*
X174006783Y-111565998D01*
X174124684Y-111343001D01*
X173916501Y-110825593D01*
X173526162Y-110427239D01*
X173133497Y-110237017D01*
X172914000Y-110332676D01*
X172914000Y-111566000D01*
X172934000Y-111566000D01*
X172934000Y-111954000D01*
X172914000Y-111954000D01*
X172914000Y-111974000D01*
X172526000Y-111974000D01*
X172526000Y-111954000D01*
X172506000Y-111954000D01*
X172506000Y-111566000D01*
X172526000Y-111566000D01*
X172526000Y-110332676D01*
X172306503Y-110237017D01*
X171913838Y-110427239D01*
X171523499Y-110825593D01*
X171315316Y-111343001D01*
X171433217Y-111565998D01*
X171308693Y-111565998D01*
X171308693Y-110744000D01*
X171290564Y-110647650D01*
X171233621Y-110559158D01*
X171146736Y-110499793D01*
X171043600Y-110478907D01*
X169316400Y-110478907D01*
X169220050Y-110497036D01*
X169131558Y-110553979D01*
X169072193Y-110640864D01*
X169051307Y-110744000D01*
X169051307Y-112716001D01*
X168307473Y-112716001D01*
X168029236Y-112437764D01*
X167904333Y-112354306D01*
X167772093Y-112328002D01*
X167772093Y-112110000D01*
X167753964Y-112013650D01*
X167707655Y-111941684D01*
X167828746Y-111891527D01*
X167988527Y-111731746D01*
X168075000Y-111522982D01*
X168075000Y-111146000D01*
X167933000Y-111004000D01*
X167319500Y-111004000D01*
X167319500Y-111024000D01*
X166944500Y-111024000D01*
X166944500Y-111004000D01*
X166331000Y-111004000D01*
X166189000Y-111146000D01*
X166189000Y-111522982D01*
X166275473Y-111731746D01*
X166435254Y-111891527D01*
X166557111Y-111942002D01*
X166512793Y-112006864D01*
X166491907Y-112110000D01*
X166491907Y-112716010D01*
X164635124Y-112716010D01*
X164868071Y-112367381D01*
X164953600Y-111937398D01*
X164953600Y-111582602D01*
X164868071Y-111152619D01*
X164852603Y-111129469D01*
X165885054Y-110097018D01*
X166189000Y-110097018D01*
X166189000Y-110474000D01*
X166331000Y-110616000D01*
X166944500Y-110616000D01*
X166944500Y-109784000D01*
X167319500Y-109784000D01*
X167319500Y-110616000D01*
X167933000Y-110616000D01*
X168075000Y-110474000D01*
X168075000Y-110097018D01*
X167988527Y-109888254D01*
X167828746Y-109728473D01*
X167619982Y-109642000D01*
X167461500Y-109642000D01*
X167319500Y-109784000D01*
X166944500Y-109784000D01*
X166802500Y-109642000D01*
X166644018Y-109642000D01*
X166435254Y-109728473D01*
X166275473Y-109888254D01*
X166189000Y-110097018D01*
X165885054Y-110097018D01*
X170187072Y-105795000D01*
X174218059Y-105795000D01*
X174307371Y-105884468D01*
X174513120Y-105969903D01*
X174735902Y-105970097D01*
X174941800Y-105885022D01*
X175099468Y-105727629D01*
X175184903Y-105521880D01*
X175185014Y-105394458D01*
X180171665Y-100407807D01*
X180255123Y-100282904D01*
X180284429Y-100135571D01*
X180284429Y-97265902D01*
X180414903Y-97265902D01*
X180499978Y-97471800D01*
X180657371Y-97629468D01*
X180863120Y-97714903D01*
X181085902Y-97715097D01*
X181175864Y-97677926D01*
X186452927Y-102954989D01*
X186295618Y-103019988D01*
X186137950Y-103177381D01*
X186052515Y-103383130D01*
X186052404Y-103510552D01*
X185157763Y-104405193D01*
X185074305Y-104530096D01*
X185044999Y-104677429D01*
X185044999Y-109520001D01*
X185074305Y-109667334D01*
X185157763Y-109792237D01*
X189856363Y-114490837D01*
X189981266Y-114574295D01*
X190128599Y-114603601D01*
X210901399Y-114603601D01*
X211048732Y-114574295D01*
X211173635Y-114490837D01*
X211608686Y-114055786D01*
X211660017Y-114090084D01*
X212090000Y-114175613D01*
X212519983Y-114090084D01*
X212884505Y-113846518D01*
X213128071Y-113481996D01*
X213213600Y-113052013D01*
X213213600Y-113007987D01*
X213128071Y-112578004D01*
X212884505Y-112213482D01*
X212519983Y-111969916D01*
X212090000Y-111884387D01*
X211660017Y-111969916D01*
X211295495Y-112213482D01*
X211051929Y-112578004D01*
X210966400Y-113007987D01*
X210966400Y-113052013D01*
X211051929Y-113481996D01*
X211068593Y-113506935D01*
X210741927Y-113833601D01*
X210353136Y-113833601D01*
X210588071Y-113481996D01*
X210673600Y-113052013D01*
X210673600Y-113007987D01*
X210588071Y-112578004D01*
X210344505Y-112213482D01*
X210120192Y-112063601D01*
X210901399Y-112063601D01*
X211048732Y-112034295D01*
X211173635Y-111950837D01*
X211608686Y-111515786D01*
X211660017Y-111550084D01*
X212090000Y-111635613D01*
X212519983Y-111550084D01*
X212884505Y-111306518D01*
X213128071Y-110941996D01*
X213213600Y-110512013D01*
X213213600Y-110467987D01*
X213128071Y-110038004D01*
X212884505Y-109673482D01*
X212519983Y-109429916D01*
X212090000Y-109344387D01*
X211660017Y-109429916D01*
X211295495Y-109673482D01*
X211051929Y-110038004D01*
X210966400Y-110467987D01*
X210966400Y-110512013D01*
X211051929Y-110941996D01*
X211068593Y-110966935D01*
X210741927Y-111293601D01*
X210353136Y-111293601D01*
X210588071Y-110941996D01*
X210673600Y-110512013D01*
X210673600Y-110467987D01*
X210588071Y-110038004D01*
X210344505Y-109673482D01*
X209979983Y-109429916D01*
X209550000Y-109344387D01*
X209120017Y-109429916D01*
X208755495Y-109673482D01*
X208511929Y-110038004D01*
X208426400Y-110467987D01*
X208426400Y-110512013D01*
X208511929Y-110941996D01*
X208746864Y-111293601D01*
X207813136Y-111293601D01*
X208048071Y-110941996D01*
X208133600Y-110512013D01*
X208133600Y-110467987D01*
X208048071Y-110038004D01*
X207804505Y-109673482D01*
X207439983Y-109429916D01*
X207395000Y-109420968D01*
X207395000Y-104775000D01*
X207365694Y-104627666D01*
X207282236Y-104502764D01*
X204394987Y-101615515D01*
X204395097Y-101489098D01*
X204310022Y-101283200D01*
X204152629Y-101125532D01*
X203946880Y-101040097D01*
X203724098Y-101039903D01*
X203518200Y-101124978D01*
X203360532Y-101282371D01*
X203275097Y-101488120D01*
X203274903Y-101710902D01*
X203359978Y-101916800D01*
X203517371Y-102074468D01*
X203723120Y-102159903D01*
X203850542Y-102160014D01*
X206625000Y-104934472D01*
X206625000Y-109420968D01*
X206580017Y-109429916D01*
X206215495Y-109673482D01*
X205971929Y-110038004D01*
X205958603Y-110105000D01*
X205948158Y-110105000D01*
X204790922Y-108947764D01*
X204666019Y-108864306D01*
X204518686Y-108835000D01*
X204368941Y-108835000D01*
X204279629Y-108745532D01*
X204073880Y-108660097D01*
X203851098Y-108659903D01*
X203645200Y-108744978D01*
X203487532Y-108902371D01*
X203402097Y-109108120D01*
X203401903Y-109330902D01*
X203486978Y-109536800D01*
X203545982Y-109595907D01*
X203296000Y-109595907D01*
X203199650Y-109614036D01*
X203111158Y-109670979D01*
X203051793Y-109757864D01*
X203030907Y-109861000D01*
X203030907Y-110611000D01*
X203049036Y-110707350D01*
X203105979Y-110795842D01*
X203192864Y-110855207D01*
X203296000Y-110876093D01*
X203511000Y-110876093D01*
X203511000Y-111293601D01*
X188673073Y-111293601D01*
X186614987Y-109235515D01*
X186615097Y-109109098D01*
X186530022Y-108903200D01*
X186372629Y-108745532D01*
X186166880Y-108660097D01*
X185944098Y-108659903D01*
X185814999Y-108713245D01*
X185814999Y-104836901D01*
X186596903Y-104054997D01*
X186723320Y-104055107D01*
X186929218Y-103970032D01*
X187086886Y-103812639D01*
X187152518Y-103654580D01*
X188210000Y-104712062D01*
X188210000Y-107543059D01*
X188120532Y-107632371D01*
X188035097Y-107838120D01*
X188034903Y-108060902D01*
X188119978Y-108266800D01*
X188277371Y-108424468D01*
X188483120Y-108509903D01*
X188705902Y-108510097D01*
X188911800Y-108425022D01*
X189069468Y-108267629D01*
X189154903Y-108061880D01*
X189155097Y-107839098D01*
X189070022Y-107633200D01*
X188980000Y-107543021D01*
X188980000Y-104552590D01*
X188970089Y-104502764D01*
X188950694Y-104405256D01*
X188867236Y-104280354D01*
X181469646Y-96882764D01*
X181467974Y-96881647D01*
X181450022Y-96838200D01*
X181292629Y-96680532D01*
X181086880Y-96595097D01*
X180864098Y-96594903D01*
X180658200Y-96679978D01*
X180500532Y-96837371D01*
X180415097Y-97043120D01*
X180414903Y-97265902D01*
X180284429Y-97265902D01*
X180284429Y-95988633D01*
X180401811Y-96106220D01*
X180773103Y-96260394D01*
X181175133Y-96260745D01*
X181532432Y-96113112D01*
X181490668Y-96213691D01*
X181490474Y-96436473D01*
X181575549Y-96642371D01*
X181732942Y-96800039D01*
X181938691Y-96885474D01*
X182066113Y-96885585D01*
X188322764Y-103142236D01*
X188447666Y-103225694D01*
X188595000Y-103255000D01*
X188823059Y-103255000D01*
X188912371Y-103344468D01*
X189118120Y-103429903D01*
X189340902Y-103430097D01*
X189546800Y-103345022D01*
X189704468Y-103187629D01*
X189789903Y-102981880D01*
X189790097Y-102759098D01*
X189705022Y-102553200D01*
X189547629Y-102395532D01*
X189341880Y-102310097D01*
X189119098Y-102309903D01*
X188913200Y-102394978D01*
X188823021Y-102485000D01*
X188754472Y-102485000D01*
X182610558Y-96341086D01*
X182610668Y-96214669D01*
X182525593Y-96008771D01*
X182368200Y-95851103D01*
X182162451Y-95765668D01*
X181939669Y-95765474D01*
X181837688Y-95807611D01*
X181909363Y-95635000D01*
X183011940Y-95635000D01*
X196869176Y-109492236D01*
X196994079Y-109575694D01*
X197141412Y-109605000D01*
X197713059Y-109605000D01*
X197802371Y-109694468D01*
X198008120Y-109779903D01*
X198230902Y-109780097D01*
X198436800Y-109695022D01*
X198594468Y-109537629D01*
X198679903Y-109331880D01*
X198680097Y-109109098D01*
X198595022Y-108903200D01*
X198437629Y-108745532D01*
X198231880Y-108660097D01*
X198009098Y-108659903D01*
X197803200Y-108744978D01*
X197713021Y-108835000D01*
X197300884Y-108835000D01*
X195256786Y-106790902D01*
X197559903Y-106790902D01*
X197644978Y-106996800D01*
X197802371Y-107154468D01*
X198008120Y-107239903D01*
X198135542Y-107240014D01*
X200639166Y-109743638D01*
X200597200Y-109760978D01*
X200439532Y-109918371D01*
X200354097Y-110124120D01*
X200353903Y-110346902D01*
X200438978Y-110552800D01*
X200596371Y-110710468D01*
X200802120Y-110795903D01*
X201024902Y-110796097D01*
X201168076Y-110736939D01*
X201205979Y-110795842D01*
X201292864Y-110855207D01*
X201396000Y-110876093D01*
X202596000Y-110876093D01*
X202692350Y-110857964D01*
X202780842Y-110801021D01*
X202840207Y-110714136D01*
X202861093Y-110611000D01*
X202861093Y-109861000D01*
X202842964Y-109764650D01*
X202786021Y-109676158D01*
X202699136Y-109616793D01*
X202596000Y-109595907D01*
X201580379Y-109595907D01*
X198679987Y-106695515D01*
X198680097Y-106569098D01*
X198595022Y-106363200D01*
X198437629Y-106205532D01*
X198231880Y-106120097D01*
X198009098Y-106119903D01*
X197803200Y-106204978D01*
X197645532Y-106362371D01*
X197560097Y-106568120D01*
X197559903Y-106790902D01*
X195256786Y-106790902D01*
X188271786Y-99805902D01*
X188669903Y-99805902D01*
X188754978Y-100011800D01*
X188912371Y-100169468D01*
X189118120Y-100254903D01*
X189340902Y-100255097D01*
X189546800Y-100170022D01*
X189636979Y-100080000D01*
X197325528Y-100080000D01*
X203910013Y-106664485D01*
X203909903Y-106790902D01*
X203994978Y-106996800D01*
X204152371Y-107154468D01*
X204358120Y-107239903D01*
X204580902Y-107240097D01*
X204786800Y-107155022D01*
X204944468Y-106997629D01*
X205029903Y-106791880D01*
X205030097Y-106569098D01*
X204945022Y-106363200D01*
X204787629Y-106205532D01*
X204581880Y-106120097D01*
X204454458Y-106119986D01*
X197757236Y-99422764D01*
X197632333Y-99339306D01*
X197485000Y-99310000D01*
X189636941Y-99310000D01*
X189547629Y-99220532D01*
X189341880Y-99135097D01*
X189119098Y-99134903D01*
X188913200Y-99219978D01*
X188755532Y-99377371D01*
X188670097Y-99583120D01*
X188669903Y-99805902D01*
X188271786Y-99805902D01*
X183916017Y-95450133D01*
X186314255Y-95450133D01*
X186467781Y-95821694D01*
X186751811Y-96106220D01*
X187123103Y-96260394D01*
X187525133Y-96260745D01*
X187896694Y-96107219D01*
X188181220Y-95823189D01*
X188335394Y-95451897D01*
X188335395Y-95450133D01*
X202824255Y-95450133D01*
X202977781Y-95821694D01*
X203261811Y-96106220D01*
X203633103Y-96260394D01*
X204035133Y-96260745D01*
X204406694Y-96107219D01*
X204691220Y-95823189D01*
X204845394Y-95451897D01*
X204845395Y-95450133D01*
X208539255Y-95450133D01*
X208692781Y-95821694D01*
X208976811Y-96106220D01*
X209348103Y-96260394D01*
X209750133Y-96260745D01*
X210121694Y-96107219D01*
X210406220Y-95823189D01*
X210560394Y-95451897D01*
X210560745Y-95049867D01*
X210407219Y-94678306D01*
X210123189Y-94393780D01*
X209751897Y-94239606D01*
X209349867Y-94239255D01*
X208978306Y-94392781D01*
X208693780Y-94676811D01*
X208539606Y-95048103D01*
X208539255Y-95450133D01*
X204845395Y-95450133D01*
X204845745Y-95049867D01*
X204692219Y-94678306D01*
X204408189Y-94393780D01*
X204036897Y-94239606D01*
X203634867Y-94239255D01*
X203263306Y-94392781D01*
X202978780Y-94676811D01*
X202824606Y-95048103D01*
X202824255Y-95450133D01*
X188335395Y-95450133D01*
X188335745Y-95049867D01*
X188182219Y-94678306D01*
X187898189Y-94393780D01*
X187526897Y-94239606D01*
X187124867Y-94239255D01*
X186753306Y-94392781D01*
X186468780Y-94676811D01*
X186314606Y-95048103D01*
X186314255Y-95450133D01*
X183916017Y-95450133D01*
X183443648Y-94977764D01*
X183318745Y-94894306D01*
X183171412Y-94865000D01*
X181909359Y-94865000D01*
X181832219Y-94678306D01*
X181548189Y-94393780D01*
X181176897Y-94239606D01*
X180774867Y-94239255D01*
X180403306Y-94392781D01*
X180284429Y-94511451D01*
X180284429Y-93448633D01*
X180401811Y-93566220D01*
X180773103Y-93720394D01*
X181175133Y-93720745D01*
X181546694Y-93567219D01*
X181831220Y-93283189D01*
X181985394Y-92911897D01*
X181985745Y-92509867D01*
X181832219Y-92138306D01*
X181548189Y-91853780D01*
X181360000Y-91775637D01*
X181360000Y-88799305D01*
X181698282Y-88939772D01*
X182219432Y-88940226D01*
X182701086Y-88741211D01*
X183069916Y-88373024D01*
X183269772Y-87891718D01*
X183270226Y-87370568D01*
X183071211Y-86888914D01*
X182703024Y-86520084D01*
X182221718Y-86320228D01*
X181700568Y-86319774D01*
X181218914Y-86518789D01*
X180850084Y-86886976D01*
X180650228Y-87368282D01*
X180649774Y-87889432D01*
X180797813Y-88247715D01*
X180702764Y-88342764D01*
X180619306Y-88467667D01*
X180590000Y-88615000D01*
X180590000Y-91775641D01*
X180403306Y-91852781D01*
X180284429Y-91971451D01*
X180284429Y-83013963D01*
X181882236Y-81416156D01*
X181965694Y-81291253D01*
X181991998Y-81159013D01*
X182509160Y-81159013D01*
X182605510Y-81140884D01*
X182694002Y-81083941D01*
X182753367Y-80997056D01*
X182774253Y-80893920D01*
X182774253Y-79126080D01*
X182756124Y-79029730D01*
X182699181Y-78941238D01*
X182612296Y-78881873D01*
X182509160Y-78860987D01*
X182345000Y-78860987D01*
X182345000Y-76688342D01*
X182701086Y-76541211D01*
X183069916Y-76173024D01*
X183269772Y-75691718D01*
X183270226Y-75170568D01*
X183071211Y-74688914D01*
X182703024Y-74320084D01*
X182221718Y-74120228D01*
X181700568Y-74119774D01*
X181218914Y-74318789D01*
X180850084Y-74686976D01*
X180650228Y-75168282D01*
X180649774Y-75689432D01*
X180848789Y-76171086D01*
X181216976Y-76539916D01*
X181575000Y-76688581D01*
X181575000Y-78860987D01*
X180710840Y-78860987D01*
X180614490Y-78879116D01*
X180525998Y-78936059D01*
X180466633Y-79022944D01*
X180445747Y-79126080D01*
X180445747Y-80893920D01*
X180463876Y-80990270D01*
X180520819Y-81078762D01*
X180607704Y-81138127D01*
X180710840Y-81159013D01*
X181050435Y-81159013D01*
X179627193Y-82582255D01*
X179543735Y-82707158D01*
X179514429Y-82854491D01*
X179514429Y-99976099D01*
X174640515Y-104850013D01*
X174514098Y-104849903D01*
X174308200Y-104934978D01*
X174218021Y-105025000D01*
X170027600Y-105025000D01*
X169880267Y-105054306D01*
X169755364Y-105137764D01*
X164313103Y-110580025D01*
X164259983Y-110544531D01*
X163830000Y-110459002D01*
X163400017Y-110544531D01*
X163035495Y-110788097D01*
X162791929Y-111152619D01*
X162706400Y-111582602D01*
X162706400Y-111925276D01*
X162413600Y-111632476D01*
X162413600Y-111582602D01*
X162328071Y-111152619D01*
X162084505Y-110788097D01*
X161719983Y-110544531D01*
X161290000Y-110459002D01*
X160860017Y-110544531D01*
X160495495Y-110788097D01*
X160251929Y-111152619D01*
X160166400Y-111582602D01*
X159878693Y-111582602D01*
X159878693Y-110744000D01*
X159860564Y-110647650D01*
X159803621Y-110559158D01*
X159716736Y-110499793D01*
X159613600Y-110478907D01*
X157886400Y-110478907D01*
X157790050Y-110497036D01*
X157701558Y-110553979D01*
X157642193Y-110640864D01*
X157621307Y-110744000D01*
X151899469Y-110744000D01*
X151618304Y-110556132D01*
X151130000Y-110459002D01*
X150641696Y-110556132D01*
X150227732Y-110832734D01*
X150174000Y-110913150D01*
X150174000Y-110631018D01*
X150087527Y-110422254D01*
X149927746Y-110262473D01*
X149718982Y-110176000D01*
X148926000Y-110176000D01*
X148784000Y-110318000D01*
X148396000Y-110318000D01*
X148254000Y-110176000D01*
X147461018Y-110176000D01*
X147252254Y-110262473D01*
X147092473Y-110422254D01*
X147006000Y-110631018D01*
X145230000Y-110631018D01*
X145230000Y-99170902D01*
X148664903Y-99170902D01*
X148749978Y-99376800D01*
X148907371Y-99534468D01*
X149113120Y-99619903D01*
X149240542Y-99620014D01*
X152127764Y-102507236D01*
X152252666Y-102590694D01*
X152400000Y-102620000D01*
X153898059Y-102620000D01*
X153987371Y-102709468D01*
X154193120Y-102794903D01*
X154415902Y-102795097D01*
X154621800Y-102710022D01*
X154779468Y-102552629D01*
X154864903Y-102346880D01*
X154865097Y-102124098D01*
X154780022Y-101918200D01*
X154622629Y-101760532D01*
X154416880Y-101675097D01*
X154194098Y-101674903D01*
X153988200Y-101759978D01*
X153898021Y-101850000D01*
X152559472Y-101850000D01*
X149784987Y-99075515D01*
X149785097Y-98949098D01*
X149700022Y-98743200D01*
X149542629Y-98585532D01*
X149336880Y-98500097D01*
X149114098Y-98499903D01*
X148908200Y-98584978D01*
X148750532Y-98742371D01*
X148665097Y-98948120D01*
X148664903Y-99170902D01*
X145230000Y-99170902D01*
X145230000Y-95450133D01*
X148849255Y-95450133D01*
X149002781Y-95821694D01*
X149286811Y-96106220D01*
X149658103Y-96260394D01*
X150060133Y-96260745D01*
X150248458Y-96182930D01*
X156460000Y-102394472D01*
X156460000Y-103098059D01*
X156370532Y-103187371D01*
X156285097Y-103393120D01*
X156284903Y-103615902D01*
X156369978Y-103821800D01*
X156527371Y-103979468D01*
X156733120Y-104064903D01*
X156955902Y-104065097D01*
X157161800Y-103980022D01*
X157319468Y-103822629D01*
X157404903Y-103616880D01*
X157405097Y-103394098D01*
X157320022Y-103188200D01*
X157230000Y-103098021D01*
X157230000Y-102235000D01*
X157200694Y-102087667D01*
X157117236Y-101962764D01*
X151380738Y-96226266D01*
X155508092Y-96226266D01*
X155585000Y-96440291D01*
X156088080Y-96588862D01*
X156609721Y-96533605D01*
X156835000Y-96440291D01*
X156911908Y-96226266D01*
X156210000Y-95524357D01*
X155508092Y-96226266D01*
X151380738Y-96226266D01*
X150792928Y-95638456D01*
X150870394Y-95451897D01*
X150870676Y-95128080D01*
X154871138Y-95128080D01*
X154926395Y-95649721D01*
X155019709Y-95875000D01*
X155233734Y-95951908D01*
X155935643Y-95250000D01*
X156484357Y-95250000D01*
X157186266Y-95951908D01*
X157400291Y-95875000D01*
X157525763Y-95450133D01*
X162819255Y-95450133D01*
X162972781Y-95821694D01*
X163256811Y-96106220D01*
X163628103Y-96260394D01*
X164030133Y-96260745D01*
X164218458Y-96182930D01*
X165350000Y-97314472D01*
X165350000Y-105638059D01*
X165260532Y-105727371D01*
X165175097Y-105933120D01*
X165174903Y-106155902D01*
X165259978Y-106361800D01*
X165417371Y-106519468D01*
X165623120Y-106604903D01*
X165845902Y-106605097D01*
X166051800Y-106520022D01*
X166209468Y-106362629D01*
X166294903Y-106156880D01*
X166295097Y-105934098D01*
X166210022Y-105728200D01*
X166120000Y-105638021D01*
X166120000Y-97155000D01*
X166090694Y-97007667D01*
X166007236Y-96882764D01*
X164762928Y-95638456D01*
X164840394Y-95451897D01*
X164840395Y-95450133D01*
X168534255Y-95450133D01*
X168687781Y-95821694D01*
X168971811Y-96106220D01*
X169343103Y-96260394D01*
X169745133Y-96260745D01*
X170116694Y-96107219D01*
X170401220Y-95823189D01*
X170555394Y-95451897D01*
X170555395Y-95450133D01*
X174249255Y-95450133D01*
X174402781Y-95821694D01*
X174686811Y-96106220D01*
X175058103Y-96260394D01*
X175460133Y-96260745D01*
X175831694Y-96107219D01*
X176116220Y-95823189D01*
X176270394Y-95451897D01*
X176270745Y-95049867D01*
X176117219Y-94678306D01*
X175833189Y-94393780D01*
X175461897Y-94239606D01*
X175059867Y-94239255D01*
X174688306Y-94392781D01*
X174403780Y-94676811D01*
X174249606Y-95048103D01*
X174249255Y-95450133D01*
X170555395Y-95450133D01*
X170555745Y-95049867D01*
X170402219Y-94678306D01*
X170118189Y-94393780D01*
X169746897Y-94239606D01*
X169344867Y-94239255D01*
X168973306Y-94392781D01*
X168688780Y-94676811D01*
X168534606Y-95048103D01*
X168534255Y-95450133D01*
X164840395Y-95450133D01*
X164840745Y-95049867D01*
X164687219Y-94678306D01*
X164403189Y-94393780D01*
X164031897Y-94239606D01*
X163629867Y-94239255D01*
X163258306Y-94392781D01*
X162973780Y-94676811D01*
X162819606Y-95048103D01*
X162819255Y-95450133D01*
X157525763Y-95450133D01*
X157548862Y-95371920D01*
X157493605Y-94850279D01*
X157400291Y-94625000D01*
X157186266Y-94548092D01*
X156484357Y-95250000D01*
X155935643Y-95250000D01*
X155233734Y-94548092D01*
X155019709Y-94625000D01*
X154871138Y-95128080D01*
X150870676Y-95128080D01*
X150870745Y-95049867D01*
X150717219Y-94678306D01*
X150433189Y-94393780D01*
X150144087Y-94273734D01*
X155508092Y-94273734D01*
X156210000Y-94975643D01*
X156911908Y-94273734D01*
X156835000Y-94059709D01*
X156331920Y-93911138D01*
X155810279Y-93966395D01*
X155585000Y-94059709D01*
X155508092Y-94273734D01*
X150144087Y-94273734D01*
X150061897Y-94239606D01*
X149659867Y-94239255D01*
X149288306Y-94392781D01*
X149003780Y-94676811D01*
X148849606Y-95048103D01*
X148849255Y-95450133D01*
X145230000Y-95450133D01*
X145230000Y-92910133D01*
X148849255Y-92910133D01*
X149002781Y-93281694D01*
X149286811Y-93566220D01*
X149658103Y-93720394D01*
X150060133Y-93720745D01*
X150431694Y-93567219D01*
X150716220Y-93283189D01*
X150870394Y-92911897D01*
X150870395Y-92910133D01*
X155199255Y-92910133D01*
X155352781Y-93281694D01*
X155636811Y-93566220D01*
X156008103Y-93720394D01*
X156410133Y-93720745D01*
X156781694Y-93567219D01*
X157066220Y-93283189D01*
X157220394Y-92911897D01*
X157220395Y-92910133D01*
X162819255Y-92910133D01*
X162972781Y-93281694D01*
X163256811Y-93566220D01*
X163628103Y-93720394D01*
X164030133Y-93720745D01*
X164401694Y-93567219D01*
X164686220Y-93283189D01*
X164840394Y-92911897D01*
X164840745Y-92509867D01*
X164762930Y-92321542D01*
X167123472Y-89961000D01*
X167432907Y-89961000D01*
X167432907Y-90176000D01*
X167451036Y-90272350D01*
X167507979Y-90360842D01*
X167594864Y-90420207D01*
X167698000Y-90441093D01*
X168598000Y-90441093D01*
X168694350Y-90422964D01*
X168782842Y-90366021D01*
X168842207Y-90279136D01*
X168863093Y-90176000D01*
X168863093Y-89957998D01*
X168995333Y-89931694D01*
X169120236Y-89848236D01*
X171214236Y-87754236D01*
X171257001Y-87690235D01*
X171257001Y-89392061D01*
X169272764Y-91376298D01*
X169189306Y-91501201D01*
X169160000Y-91648534D01*
X169160000Y-91775641D01*
X168973306Y-91852781D01*
X168688780Y-92136811D01*
X168534606Y-92508103D01*
X168534255Y-92910133D01*
X168687781Y-93281694D01*
X168971811Y-93566220D01*
X169343103Y-93720394D01*
X169745133Y-93720745D01*
X170116694Y-93567219D01*
X170401220Y-93283189D01*
X170555394Y-92911897D01*
X170555745Y-92509867D01*
X170402219Y-92138306D01*
X170118189Y-91853780D01*
X169952872Y-91785134D01*
X171914237Y-89823769D01*
X171997695Y-89698867D01*
X172027001Y-89551533D01*
X172027001Y-75407003D01*
X171997695Y-75259670D01*
X171914237Y-75134767D01*
X171269313Y-74489843D01*
X171709432Y-74490226D01*
X172191086Y-74291211D01*
X172559916Y-73923024D01*
X172759772Y-73441718D01*
X172760226Y-72920568D01*
X172561211Y-72438914D01*
X172193024Y-72070084D01*
X171711718Y-71870228D01*
X171190568Y-71869774D01*
X170988333Y-71953336D01*
X170988333Y-68534417D01*
X171033316Y-68525469D01*
X171397838Y-68281903D01*
X171641404Y-67917381D01*
X171723630Y-67504002D01*
X171856550Y-67504002D01*
X171738649Y-67726999D01*
X171946832Y-68244407D01*
X172337171Y-68642761D01*
X172729836Y-68832983D01*
X172949333Y-68737324D01*
X172949333Y-67504000D01*
X172929333Y-67504000D01*
X172929333Y-67116000D01*
X172949333Y-67116000D01*
X172949333Y-65882676D01*
X173337333Y-65882676D01*
X173337333Y-67116000D01*
X173357333Y-67116000D01*
X173357333Y-67504000D01*
X173337333Y-67504000D01*
X173337333Y-68737324D01*
X173556830Y-68832983D01*
X173949495Y-68642761D01*
X174339834Y-68244407D01*
X174548017Y-67726999D01*
X174430116Y-67504002D01*
X174563036Y-67504002D01*
X174645262Y-67917381D01*
X174888828Y-68281903D01*
X175253350Y-68525469D01*
X175298333Y-68534417D01*
X175298333Y-91699463D01*
X175059867Y-91699255D01*
X174688306Y-91852781D01*
X174403780Y-92136811D01*
X174249606Y-92508103D01*
X174249255Y-92910133D01*
X174402781Y-93281694D01*
X174686811Y-93566220D01*
X175058103Y-93720394D01*
X175460133Y-93720745D01*
X175831694Y-93567219D01*
X176116220Y-93283189D01*
X176270394Y-92911897D01*
X176270745Y-92509867D01*
X176117219Y-92138306D01*
X176068333Y-92089335D01*
X176068333Y-87639432D01*
X176139774Y-87639432D01*
X176338789Y-88121086D01*
X176706976Y-88489916D01*
X177188282Y-88689772D01*
X177709432Y-88690226D01*
X178191086Y-88491211D01*
X178559916Y-88123024D01*
X178759772Y-87641718D01*
X178760226Y-87120568D01*
X178561211Y-86638914D01*
X178193024Y-86270084D01*
X177711718Y-86070228D01*
X177190568Y-86069774D01*
X176708914Y-86268789D01*
X176340084Y-86636976D01*
X176140228Y-87118282D01*
X176139774Y-87639432D01*
X176068333Y-87639432D01*
X176068333Y-75439432D01*
X176139774Y-75439432D01*
X176338789Y-75921086D01*
X176706976Y-76289916D01*
X177065000Y-76438581D01*
X177065000Y-78860987D01*
X176631600Y-78860987D01*
X176535250Y-78879116D01*
X176446758Y-78936059D01*
X176387393Y-79022944D01*
X176366507Y-79126080D01*
X176366507Y-80893920D01*
X176384636Y-80990270D01*
X176441579Y-81078762D01*
X176528464Y-81138127D01*
X176631600Y-81159013D01*
X178429920Y-81159013D01*
X178526270Y-81140884D01*
X178614762Y-81083941D01*
X178674127Y-80997056D01*
X178695013Y-80893920D01*
X178695013Y-79126080D01*
X178676884Y-79029730D01*
X178619941Y-78941238D01*
X178533056Y-78881873D01*
X178429920Y-78860987D01*
X177835000Y-78860987D01*
X177835000Y-76438342D01*
X178191086Y-76291211D01*
X178559916Y-75923024D01*
X178759772Y-75441718D01*
X178760226Y-74920568D01*
X178561211Y-74438914D01*
X178193024Y-74070084D01*
X177711718Y-73870228D01*
X177190568Y-73869774D01*
X176708914Y-74068789D01*
X176340084Y-74436976D01*
X176140228Y-74918282D01*
X176139774Y-75439432D01*
X176068333Y-75439432D01*
X176068333Y-68534417D01*
X176113316Y-68525469D01*
X176477838Y-68281903D01*
X176721404Y-67917381D01*
X176775385Y-67646000D01*
X183565066Y-67646000D01*
X183565066Y-68438982D01*
X183651539Y-68647746D01*
X183811320Y-68807527D01*
X184020084Y-68894000D01*
X184660666Y-68894000D01*
X184802666Y-68752000D01*
X184802666Y-67504000D01*
X183707066Y-67504000D01*
X183565066Y-67646000D01*
X176775385Y-67646000D01*
X176806933Y-67487398D01*
X176806933Y-67132602D01*
X176721404Y-66702619D01*
X176477838Y-66338097D01*
X176242753Y-66181018D01*
X183565066Y-66181018D01*
X183565066Y-66974000D01*
X183707066Y-67116000D01*
X184802666Y-67116000D01*
X184802666Y-65868000D01*
X185190666Y-65868000D01*
X185190666Y-67116000D01*
X185210666Y-67116000D01*
X185210666Y-67504000D01*
X185190666Y-67504000D01*
X185190666Y-68752000D01*
X185332666Y-68894000D01*
X185973248Y-68894000D01*
X186182012Y-68807527D01*
X186341793Y-68647746D01*
X186428266Y-68438982D01*
X186428266Y-67646000D01*
X186286268Y-67504002D01*
X186416369Y-67504002D01*
X186498595Y-67917381D01*
X186742161Y-68281903D01*
X187106683Y-68525469D01*
X187151666Y-68534417D01*
X187151666Y-71658860D01*
X186312763Y-72497763D01*
X186229305Y-72622666D01*
X186199999Y-72769999D01*
X186199999Y-90908533D01*
X186229305Y-91055866D01*
X186312763Y-91180769D01*
X186917098Y-91785104D01*
X186753306Y-91852781D01*
X186468780Y-92136811D01*
X186314606Y-92508103D01*
X186314255Y-92910133D01*
X186467781Y-93281694D01*
X186751811Y-93566220D01*
X187123103Y-93720394D01*
X187525133Y-93720745D01*
X187896694Y-93567219D01*
X188181220Y-93283189D01*
X188335394Y-92911897D01*
X188335745Y-92509867D01*
X188182219Y-92138306D01*
X187898189Y-91853780D01*
X187710000Y-91775637D01*
X187710000Y-91648534D01*
X187680694Y-91501201D01*
X187597236Y-91376298D01*
X186969999Y-90749061D01*
X186969999Y-87889432D01*
X192649774Y-87889432D01*
X192848789Y-88371086D01*
X193216976Y-88739916D01*
X193698282Y-88939772D01*
X194219432Y-88940226D01*
X194701086Y-88741211D01*
X195069916Y-88373024D01*
X195269772Y-87891718D01*
X195270226Y-87370568D01*
X195071211Y-86888914D01*
X194703024Y-86520084D01*
X194221718Y-86320228D01*
X193700568Y-86319774D01*
X193218914Y-86518789D01*
X192850084Y-86886976D01*
X192650228Y-87368282D01*
X192649774Y-87889432D01*
X186969999Y-87889432D01*
X186969999Y-74292508D01*
X187216976Y-74539916D01*
X187698282Y-74739772D01*
X188219432Y-74740226D01*
X188701086Y-74541211D01*
X189069916Y-74173024D01*
X189269772Y-73691718D01*
X189270226Y-73170568D01*
X189071211Y-72688914D01*
X188703024Y-72320084D01*
X188221718Y-72120228D01*
X187779627Y-72119843D01*
X187808902Y-72090568D01*
X187892360Y-71965666D01*
X187921666Y-71818332D01*
X187921666Y-68534417D01*
X187966649Y-68525469D01*
X188331171Y-68281903D01*
X188574737Y-67917381D01*
X188656963Y-67504002D01*
X188789883Y-67504002D01*
X188671982Y-67726999D01*
X188880165Y-68244407D01*
X189270504Y-68642761D01*
X189663169Y-68832983D01*
X189882666Y-68737324D01*
X189882666Y-67504000D01*
X189862666Y-67504000D01*
X189862666Y-67116000D01*
X189882666Y-67116000D01*
X189882666Y-65882676D01*
X190270666Y-65882676D01*
X190270666Y-67116000D01*
X190290666Y-67116000D01*
X190290666Y-67504000D01*
X190270666Y-67504000D01*
X190270666Y-68737324D01*
X190490163Y-68832983D01*
X190882828Y-68642761D01*
X191273167Y-68244407D01*
X191481350Y-67726999D01*
X191363449Y-67504002D01*
X191496369Y-67504002D01*
X191578595Y-67917381D01*
X191594063Y-67940531D01*
X191230830Y-68303764D01*
X191147372Y-68428667D01*
X191118066Y-68576000D01*
X191118066Y-82448068D01*
X191147372Y-82595401D01*
X191230830Y-82720304D01*
X197787763Y-89277237D01*
X197912666Y-89360695D01*
X198059999Y-89390001D01*
X199970529Y-89390001D01*
X202902072Y-92321544D01*
X202824606Y-92508103D01*
X202824255Y-92910133D01*
X202977781Y-93281694D01*
X203261811Y-93566220D01*
X203633103Y-93720394D01*
X204035133Y-93720745D01*
X204406694Y-93567219D01*
X204691220Y-93283189D01*
X204845394Y-92911897D01*
X204845745Y-92509867D01*
X204692219Y-92138306D01*
X204408189Y-91853780D01*
X204036897Y-91699606D01*
X203634867Y-91699255D01*
X203446542Y-91777070D01*
X200402237Y-88732765D01*
X200277334Y-88649307D01*
X200130001Y-88620001D01*
X198899390Y-88620001D01*
X199211086Y-88491211D01*
X199579916Y-88123024D01*
X199728581Y-87765000D01*
X204060528Y-87765000D01*
X208617072Y-92321544D01*
X208539606Y-92508103D01*
X208539255Y-92910133D01*
X208692781Y-93281694D01*
X208976811Y-93566220D01*
X209348103Y-93720394D01*
X209750133Y-93720745D01*
X210121694Y-93567219D01*
X210406220Y-93283189D01*
X210560394Y-92911897D01*
X210560745Y-92509867D01*
X210407219Y-92138306D01*
X210123189Y-91853780D01*
X209751897Y-91699606D01*
X209349867Y-91699255D01*
X209161542Y-91777070D01*
X205023904Y-87639432D01*
X209159774Y-87639432D01*
X209358789Y-88121086D01*
X209726976Y-88489916D01*
X210208282Y-88689772D01*
X210729432Y-88690226D01*
X211211086Y-88491211D01*
X211579916Y-88123024D01*
X211779772Y-87641718D01*
X211780226Y-87120568D01*
X211581211Y-86638914D01*
X211213024Y-86270084D01*
X210731718Y-86070228D01*
X210210568Y-86069774D01*
X209728914Y-86268789D01*
X209360084Y-86636976D01*
X209160228Y-87118282D01*
X209159774Y-87639432D01*
X205023904Y-87639432D01*
X204492236Y-87107764D01*
X204367333Y-87024306D01*
X204220000Y-86995000D01*
X199728342Y-86995000D01*
X199581211Y-86638914D01*
X199213024Y-86270084D01*
X198731718Y-86070228D01*
X198210568Y-86069774D01*
X197728914Y-86268789D01*
X197360084Y-86636976D01*
X197160228Y-87118282D01*
X197159843Y-87560373D01*
X191888066Y-82288596D01*
X191888066Y-75689432D01*
X192649774Y-75689432D01*
X192848789Y-76171086D01*
X193216976Y-76539916D01*
X193698282Y-76739772D01*
X194219432Y-76740226D01*
X194701086Y-76541211D01*
X195069916Y-76173024D01*
X195269772Y-75691718D01*
X195269991Y-75439432D01*
X197159774Y-75439432D01*
X197358789Y-75921086D01*
X197726976Y-76289916D01*
X198208282Y-76489772D01*
X198729432Y-76490226D01*
X199211086Y-76291211D01*
X199579916Y-75923024D01*
X199779772Y-75441718D01*
X199779773Y-75439432D01*
X209159774Y-75439432D01*
X209358789Y-75921086D01*
X209726976Y-76289916D01*
X210208282Y-76489772D01*
X210729432Y-76490226D01*
X211211086Y-76291211D01*
X211579916Y-75923024D01*
X211779772Y-75441718D01*
X211780226Y-74920568D01*
X211581211Y-74438914D01*
X211213024Y-74070084D01*
X210731718Y-73870228D01*
X210210568Y-73869774D01*
X209728914Y-74068789D01*
X209360084Y-74436976D01*
X209160228Y-74918282D01*
X209159774Y-75439432D01*
X199779773Y-75439432D01*
X199780226Y-74920568D01*
X199581211Y-74438914D01*
X199213024Y-74070084D01*
X198731718Y-73870228D01*
X198210568Y-73869774D01*
X197728914Y-74068789D01*
X197360084Y-74436976D01*
X197160228Y-74918282D01*
X197159774Y-75439432D01*
X195269991Y-75439432D01*
X195270226Y-75170568D01*
X195071211Y-74688914D01*
X194703024Y-74320084D01*
X194221718Y-74120228D01*
X193700568Y-74119774D01*
X193218914Y-74318789D01*
X192850084Y-74686976D01*
X192650228Y-75168282D01*
X192649774Y-75689432D01*
X191888066Y-75689432D01*
X191888066Y-73439432D01*
X203159774Y-73439432D01*
X203358789Y-73921086D01*
X203726976Y-74289916D01*
X204208282Y-74489772D01*
X204729432Y-74490226D01*
X205211086Y-74291211D01*
X205579916Y-73923024D01*
X205779772Y-73441718D01*
X205780226Y-72920568D01*
X205581211Y-72438914D01*
X205213024Y-72070084D01*
X204731718Y-71870228D01*
X204210568Y-71869774D01*
X203728914Y-72068789D01*
X203360084Y-72436976D01*
X203160228Y-72918282D01*
X203159774Y-73439432D01*
X191888066Y-73439432D01*
X191888066Y-68735472D01*
X192133563Y-68489975D01*
X192186683Y-68525469D01*
X192616666Y-68610998D01*
X193046649Y-68525469D01*
X193411171Y-68281903D01*
X193654737Y-67917381D01*
X193708718Y-67646000D01*
X200498399Y-67646000D01*
X200498399Y-68438982D01*
X200584872Y-68647746D01*
X200744653Y-68807527D01*
X200953417Y-68894000D01*
X201593999Y-68894000D01*
X201735999Y-68752000D01*
X201735999Y-67504000D01*
X200640399Y-67504000D01*
X200498399Y-67646000D01*
X193708718Y-67646000D01*
X193740266Y-67487398D01*
X193740266Y-67132602D01*
X193654737Y-66702619D01*
X193411171Y-66338097D01*
X193176086Y-66181018D01*
X200498399Y-66181018D01*
X200498399Y-66974000D01*
X200640399Y-67116000D01*
X201735999Y-67116000D01*
X201735999Y-65868000D01*
X202123999Y-65868000D01*
X202123999Y-67116000D01*
X202143999Y-67116000D01*
X202143999Y-67504000D01*
X202123999Y-67504000D01*
X202123999Y-68752000D01*
X202265999Y-68894000D01*
X202906581Y-68894000D01*
X203115345Y-68807527D01*
X203275126Y-68647746D01*
X203361599Y-68438982D01*
X203361599Y-67646000D01*
X203219601Y-67504002D01*
X203349702Y-67504002D01*
X203431928Y-67917381D01*
X203675494Y-68281903D01*
X204040016Y-68525469D01*
X204469999Y-68610998D01*
X204899982Y-68525469D01*
X205264504Y-68281903D01*
X205508070Y-67917381D01*
X205590296Y-67504002D01*
X205723216Y-67504002D01*
X205605315Y-67726999D01*
X205813498Y-68244407D01*
X206203837Y-68642761D01*
X206596502Y-68832983D01*
X206815999Y-68737324D01*
X206815999Y-67504000D01*
X206795999Y-67504000D01*
X206795999Y-67116000D01*
X206815999Y-67116000D01*
X206815999Y-65882676D01*
X207203999Y-65882676D01*
X207203999Y-67116000D01*
X207223999Y-67116000D01*
X207223999Y-67504000D01*
X207203999Y-67504000D01*
X207203999Y-68737324D01*
X207423496Y-68832983D01*
X207816161Y-68642761D01*
X208206500Y-68244407D01*
X208414683Y-67726999D01*
X208296782Y-67504002D01*
X208429702Y-67504002D01*
X208511928Y-67917381D01*
X208755494Y-68281903D01*
X209120016Y-68525469D01*
X209549999Y-68610998D01*
X209979982Y-68525469D01*
X210344504Y-68281903D01*
X210588070Y-67917381D01*
X210673599Y-67487398D01*
X210673599Y-67132602D01*
X210588070Y-66702619D01*
X210344504Y-66338097D01*
X209979982Y-66094531D01*
X209549999Y-66009002D01*
X209120016Y-66094531D01*
X208755494Y-66338097D01*
X208511928Y-66702619D01*
X208429702Y-67115998D01*
X208296782Y-67115998D01*
X208414683Y-66893001D01*
X208206500Y-66375593D01*
X207816161Y-65977239D01*
X207423496Y-65787017D01*
X207203999Y-65882676D01*
X206815999Y-65882676D01*
X206596502Y-65787017D01*
X206203837Y-65977239D01*
X205813498Y-66375593D01*
X205605315Y-66893001D01*
X205723216Y-67115998D01*
X205590296Y-67115998D01*
X205508070Y-66702619D01*
X205264504Y-66338097D01*
X204899982Y-66094531D01*
X204469999Y-66009002D01*
X204040016Y-66094531D01*
X203675494Y-66338097D01*
X203431928Y-66702619D01*
X203349702Y-67115998D01*
X203219601Y-67115998D01*
X203361599Y-66974000D01*
X203361599Y-66181018D01*
X203275126Y-65972254D01*
X203115345Y-65812473D01*
X202906581Y-65726000D01*
X202265999Y-65726000D01*
X202123999Y-65868000D01*
X201735999Y-65868000D01*
X201593999Y-65726000D01*
X200953417Y-65726000D01*
X200744653Y-65812473D01*
X200584872Y-65972254D01*
X200498399Y-66181018D01*
X193176086Y-66181018D01*
X193046649Y-66094531D01*
X192616666Y-66009002D01*
X192186683Y-66094531D01*
X191822161Y-66338097D01*
X191578595Y-66702619D01*
X191496369Y-67115998D01*
X191363449Y-67115998D01*
X191481350Y-66893001D01*
X191273167Y-66375593D01*
X190882828Y-65977239D01*
X190490163Y-65787017D01*
X190270666Y-65882676D01*
X189882666Y-65882676D01*
X189663169Y-65787017D01*
X189270504Y-65977239D01*
X188880165Y-66375593D01*
X188671982Y-66893001D01*
X188789883Y-67115998D01*
X188656963Y-67115998D01*
X188574737Y-66702619D01*
X188331171Y-66338097D01*
X187966649Y-66094531D01*
X187536666Y-66009002D01*
X187106683Y-66094531D01*
X186742161Y-66338097D01*
X186498595Y-66702619D01*
X186416369Y-67115998D01*
X186286268Y-67115998D01*
X186428266Y-66974000D01*
X186428266Y-66181018D01*
X186341793Y-65972254D01*
X186182012Y-65812473D01*
X185973248Y-65726000D01*
X185332666Y-65726000D01*
X185190666Y-65868000D01*
X184802666Y-65868000D01*
X184660666Y-65726000D01*
X184020084Y-65726000D01*
X183811320Y-65812473D01*
X183651539Y-65972254D01*
X183565066Y-66181018D01*
X176242753Y-66181018D01*
X176113316Y-66094531D01*
X175683333Y-66009002D01*
X175253350Y-66094531D01*
X174888828Y-66338097D01*
X174645262Y-66702619D01*
X174563036Y-67115998D01*
X174430116Y-67115998D01*
X174548017Y-66893001D01*
X174339834Y-66375593D01*
X173949495Y-65977239D01*
X173556830Y-65787017D01*
X173337333Y-65882676D01*
X172949333Y-65882676D01*
X172729836Y-65787017D01*
X172337171Y-65977239D01*
X171946832Y-66375593D01*
X171738649Y-66893001D01*
X171856550Y-67115998D01*
X171723630Y-67115998D01*
X171641404Y-66702619D01*
X171397838Y-66338097D01*
X171033316Y-66094531D01*
X170603333Y-66009002D01*
X170173350Y-66094531D01*
X169808828Y-66338097D01*
X169565262Y-66702619D01*
X169483036Y-67115998D01*
X169352935Y-67115998D01*
X169494933Y-66974000D01*
X169494933Y-66181018D01*
X169408460Y-65972254D01*
X169248679Y-65812473D01*
X169039915Y-65726000D01*
X168399333Y-65726000D01*
X168257333Y-65868000D01*
X168257333Y-67116000D01*
X168277333Y-67116000D01*
X168277333Y-67504000D01*
X168257333Y-67504000D01*
X168257333Y-68752000D01*
X168399333Y-68894000D01*
X169039915Y-68894000D01*
X169248679Y-68807527D01*
X169408460Y-68647746D01*
X169494933Y-68438982D01*
X169494933Y-67646000D01*
X169352935Y-67504002D01*
X169483036Y-67504002D01*
X169565262Y-67917381D01*
X169808828Y-68281903D01*
X170173350Y-68525469D01*
X170218333Y-68534417D01*
X170218333Y-71832193D01*
X169272764Y-72777762D01*
X169189306Y-72902665D01*
X169160000Y-73049998D01*
X169189306Y-73197331D01*
X169235900Y-73267063D01*
X169235900Y-73385902D01*
X169265206Y-73533235D01*
X169348664Y-73658138D01*
X171257001Y-75566475D01*
X171257001Y-81970499D01*
X171129500Y-82098000D01*
X171129500Y-82930000D01*
X171156000Y-82930000D01*
X171156000Y-83318000D01*
X171129500Y-83318000D01*
X171129500Y-83338000D01*
X170754500Y-83338000D01*
X170754500Y-83318000D01*
X170141000Y-83318000D01*
X169999000Y-83460000D01*
X169999000Y-83836982D01*
X170085473Y-84045746D01*
X170245254Y-84205527D01*
X170367111Y-84256002D01*
X170322793Y-84320864D01*
X170301907Y-84424000D01*
X170301907Y-84789000D01*
X168863093Y-84789000D01*
X168863093Y-84574000D01*
X168844964Y-84477650D01*
X168788021Y-84389158D01*
X168701136Y-84329793D01*
X168598000Y-84308907D01*
X167698000Y-84308907D01*
X167601650Y-84327036D01*
X167513158Y-84383979D01*
X167453793Y-84470864D01*
X167432907Y-84574000D01*
X167432907Y-85774000D01*
X167451036Y-85870350D01*
X167507979Y-85958842D01*
X167594864Y-86018207D01*
X167698000Y-86039093D01*
X168598000Y-86039093D01*
X168694350Y-86020964D01*
X168782842Y-85964021D01*
X168842207Y-85877136D01*
X168863093Y-85774000D01*
X168863093Y-85559000D01*
X170301907Y-85559000D01*
X170301907Y-85624000D01*
X170320036Y-85720350D01*
X170376979Y-85808842D01*
X170463864Y-85868207D01*
X170557000Y-85887068D01*
X170557000Y-87322528D01*
X168863093Y-89016435D01*
X168863093Y-88976000D01*
X168844964Y-88879650D01*
X168788021Y-88791158D01*
X168701136Y-88731793D01*
X168598000Y-88710907D01*
X167698000Y-88710907D01*
X167601650Y-88729036D01*
X167513158Y-88785979D01*
X167453793Y-88872864D01*
X167432907Y-88976000D01*
X167432907Y-89191000D01*
X166964000Y-89191000D01*
X166816666Y-89220306D01*
X166691764Y-89303764D01*
X164218456Y-91777072D01*
X164031897Y-91699606D01*
X163629867Y-91699255D01*
X163258306Y-91852781D01*
X162973780Y-92136811D01*
X162819606Y-92508103D01*
X162819255Y-92910133D01*
X157220395Y-92910133D01*
X157220745Y-92509867D01*
X157067219Y-92138306D01*
X156783189Y-91853780D01*
X156595000Y-91775637D01*
X156595000Y-87639432D01*
X159629774Y-87639432D01*
X159828789Y-88121086D01*
X160196976Y-88489916D01*
X160678282Y-88689772D01*
X161199432Y-88690226D01*
X161681086Y-88491211D01*
X162049916Y-88123024D01*
X162249772Y-87641718D01*
X162249773Y-87639432D01*
X164139774Y-87639432D01*
X164338789Y-88121086D01*
X164706976Y-88489916D01*
X165188282Y-88689772D01*
X165709432Y-88690226D01*
X166191086Y-88491211D01*
X166559916Y-88123024D01*
X166708581Y-87765000D01*
X167432907Y-87765000D01*
X167432907Y-87976000D01*
X167451036Y-88072350D01*
X167507979Y-88160842D01*
X167594864Y-88220207D01*
X167698000Y-88241093D01*
X168598000Y-88241093D01*
X168694350Y-88222964D01*
X168782842Y-88166021D01*
X168842207Y-88079136D01*
X168863093Y-87976000D01*
X168863093Y-86776000D01*
X168844964Y-86679650D01*
X168788021Y-86591158D01*
X168701136Y-86531793D01*
X168598000Y-86510907D01*
X167698000Y-86510907D01*
X167601650Y-86529036D01*
X167513158Y-86585979D01*
X167453793Y-86672864D01*
X167432907Y-86776000D01*
X167432907Y-86995000D01*
X166708342Y-86995000D01*
X166561211Y-86638914D01*
X166193024Y-86270084D01*
X165711718Y-86070228D01*
X165190568Y-86069774D01*
X164708914Y-86268789D01*
X164340084Y-86636976D01*
X164140228Y-87118282D01*
X164139774Y-87639432D01*
X162249773Y-87639432D01*
X162250226Y-87120568D01*
X162051211Y-86638914D01*
X161683024Y-86270084D01*
X161201718Y-86070228D01*
X160680568Y-86069774D01*
X160198914Y-86268789D01*
X159830084Y-86636976D01*
X159630228Y-87118282D01*
X159629774Y-87639432D01*
X156595000Y-87639432D01*
X156595000Y-83310000D01*
X167130000Y-83310000D01*
X167130000Y-83686982D01*
X167216473Y-83895746D01*
X167376254Y-84055527D01*
X167585018Y-84142000D01*
X167812000Y-84142000D01*
X167954000Y-84000000D01*
X167954000Y-83168000D01*
X168342000Y-83168000D01*
X168342000Y-84000000D01*
X168484000Y-84142000D01*
X168710982Y-84142000D01*
X168919746Y-84055527D01*
X169079527Y-83895746D01*
X169166000Y-83686982D01*
X169166000Y-83310000D01*
X169024000Y-83168000D01*
X168342000Y-83168000D01*
X167954000Y-83168000D01*
X167272000Y-83168000D01*
X167130000Y-83310000D01*
X156595000Y-83310000D01*
X156595000Y-82261018D01*
X167130000Y-82261018D01*
X167130000Y-82638000D01*
X167272000Y-82780000D01*
X167954000Y-82780000D01*
X167954000Y-81948000D01*
X168342000Y-81948000D01*
X168342000Y-82780000D01*
X169024000Y-82780000D01*
X169166000Y-82638000D01*
X169166000Y-82411018D01*
X169999000Y-82411018D01*
X169999000Y-82788000D01*
X170141000Y-82930000D01*
X170754500Y-82930000D01*
X170754500Y-82098000D01*
X170612500Y-81956000D01*
X170454018Y-81956000D01*
X170245254Y-82042473D01*
X170085473Y-82202254D01*
X169999000Y-82411018D01*
X169166000Y-82411018D01*
X169166000Y-82261018D01*
X169079527Y-82052254D01*
X168919746Y-81892473D01*
X168710982Y-81806000D01*
X168484000Y-81806000D01*
X168342000Y-81948000D01*
X167954000Y-81948000D01*
X167812000Y-81806000D01*
X167585018Y-81806000D01*
X167376254Y-81892473D01*
X167216473Y-82052254D01*
X167130000Y-82261018D01*
X156595000Y-82261018D01*
X156595000Y-80069472D01*
X160322453Y-76342019D01*
X160678282Y-76489772D01*
X161199432Y-76490226D01*
X161681086Y-76291211D01*
X162049916Y-75923024D01*
X162249772Y-75441718D01*
X162249773Y-75439432D01*
X164139774Y-75439432D01*
X164338789Y-75921086D01*
X164706976Y-76289916D01*
X165188282Y-76489772D01*
X165709432Y-76490226D01*
X166191086Y-76291211D01*
X166559916Y-75923024D01*
X166759772Y-75441718D01*
X166760226Y-74920568D01*
X166561211Y-74438914D01*
X166193024Y-74070084D01*
X165711718Y-73870228D01*
X165190568Y-73869774D01*
X164708914Y-74068789D01*
X164340084Y-74436976D01*
X164140228Y-74918282D01*
X164139774Y-75439432D01*
X162249773Y-75439432D01*
X162250226Y-74920568D01*
X162051211Y-74438914D01*
X161683024Y-74070084D01*
X161201718Y-73870228D01*
X160680568Y-73869774D01*
X160198914Y-74068789D01*
X159830084Y-74436976D01*
X159630228Y-74918282D01*
X159629774Y-75439432D01*
X159777813Y-75797715D01*
X155937764Y-79637764D01*
X155854306Y-79762667D01*
X155825000Y-79910000D01*
X155825000Y-91775641D01*
X155638306Y-91852781D01*
X155353780Y-92136811D01*
X155199606Y-92508103D01*
X155199255Y-92910133D01*
X150870395Y-92910133D01*
X150870745Y-92509867D01*
X150792930Y-92321542D01*
X152418236Y-90696236D01*
X152501694Y-90571334D01*
X152531000Y-90424000D01*
X152531000Y-90357093D01*
X152596000Y-90357093D01*
X152692350Y-90338964D01*
X152780842Y-90282021D01*
X152840207Y-90195136D01*
X152861093Y-90092000D01*
X152861093Y-89873998D01*
X152993333Y-89847694D01*
X153118236Y-89764236D01*
X154958236Y-87924236D01*
X155041694Y-87799333D01*
X155071000Y-87652000D01*
X155071000Y-85633211D01*
X155157350Y-85616964D01*
X155245842Y-85560021D01*
X155305207Y-85473136D01*
X155326093Y-85370000D01*
X155326093Y-84170000D01*
X155307964Y-84073650D01*
X155261655Y-84001684D01*
X155382746Y-83951527D01*
X155542527Y-83791746D01*
X155629000Y-83582982D01*
X155629000Y-83206000D01*
X155487000Y-83064000D01*
X154873500Y-83064000D01*
X154873500Y-83084000D01*
X154498500Y-83084000D01*
X154498500Y-83064000D01*
X153885000Y-83064000D01*
X153743000Y-83206000D01*
X153743000Y-83582982D01*
X153829473Y-83791746D01*
X153989254Y-83951527D01*
X154111111Y-84002002D01*
X154066793Y-84066864D01*
X154045907Y-84170000D01*
X154045907Y-84385000D01*
X152861093Y-84385000D01*
X152861093Y-84320000D01*
X152842964Y-84223650D01*
X152786021Y-84135158D01*
X152699136Y-84075793D01*
X152596000Y-84054907D01*
X151696000Y-84054907D01*
X151599650Y-84073036D01*
X151511158Y-84129979D01*
X151451793Y-84216864D01*
X151430907Y-84320000D01*
X151430907Y-85520000D01*
X151449036Y-85616350D01*
X151505979Y-85704842D01*
X151592864Y-85764207D01*
X151696000Y-85785093D01*
X152596000Y-85785093D01*
X152692350Y-85766964D01*
X152780842Y-85710021D01*
X152840207Y-85623136D01*
X152861093Y-85520000D01*
X152861093Y-85155000D01*
X154045907Y-85155000D01*
X154045907Y-85370000D01*
X154064036Y-85466350D01*
X154120979Y-85554842D01*
X154207864Y-85614207D01*
X154301000Y-85633068D01*
X154301000Y-87492528D01*
X152861093Y-88932435D01*
X152861093Y-88892000D01*
X152842964Y-88795650D01*
X152786021Y-88707158D01*
X152699136Y-88647793D01*
X152596000Y-88626907D01*
X151696000Y-88626907D01*
X151599650Y-88645036D01*
X151511158Y-88701979D01*
X151451793Y-88788864D01*
X151430907Y-88892000D01*
X151430907Y-90092000D01*
X151449036Y-90188350D01*
X151505979Y-90276842D01*
X151592864Y-90336207D01*
X151673077Y-90352451D01*
X150248456Y-91777072D01*
X150061897Y-91699606D01*
X149659867Y-91699255D01*
X149288306Y-91852781D01*
X149003780Y-92136811D01*
X148849606Y-92508103D01*
X148849255Y-92910133D01*
X145230000Y-92910133D01*
X145230000Y-87639432D01*
X147629774Y-87639432D01*
X147828789Y-88121086D01*
X148196976Y-88489916D01*
X148678282Y-88689772D01*
X149199432Y-88690226D01*
X149681086Y-88491211D01*
X150049916Y-88123024D01*
X150198581Y-87765000D01*
X151430907Y-87765000D01*
X151430907Y-87892000D01*
X151449036Y-87988350D01*
X151505979Y-88076842D01*
X151592864Y-88136207D01*
X151696000Y-88157093D01*
X152596000Y-88157093D01*
X152692350Y-88138964D01*
X152780842Y-88082021D01*
X152840207Y-87995136D01*
X152861093Y-87892000D01*
X152861093Y-86692000D01*
X152842964Y-86595650D01*
X152786021Y-86507158D01*
X152699136Y-86447793D01*
X152596000Y-86426907D01*
X151696000Y-86426907D01*
X151599650Y-86445036D01*
X151511158Y-86501979D01*
X151451793Y-86588864D01*
X151430907Y-86692000D01*
X151430907Y-86995000D01*
X150198342Y-86995000D01*
X150051211Y-86638914D01*
X149683024Y-86270084D01*
X149201718Y-86070228D01*
X148680568Y-86069774D01*
X148198914Y-86268789D01*
X147830084Y-86636976D01*
X147630228Y-87118282D01*
X147629774Y-87639432D01*
X145230000Y-87639432D01*
X145230000Y-83056000D01*
X151128000Y-83056000D01*
X151128000Y-83432982D01*
X151214473Y-83641746D01*
X151374254Y-83801527D01*
X151583018Y-83888000D01*
X151810000Y-83888000D01*
X151952000Y-83746000D01*
X151952000Y-82914000D01*
X152340000Y-82914000D01*
X152340000Y-83746000D01*
X152482000Y-83888000D01*
X152708982Y-83888000D01*
X152917746Y-83801527D01*
X153077527Y-83641746D01*
X153164000Y-83432982D01*
X153164000Y-83056000D01*
X153022000Y-82914000D01*
X152340000Y-82914000D01*
X151952000Y-82914000D01*
X151270000Y-82914000D01*
X151128000Y-83056000D01*
X145230000Y-83056000D01*
X145230000Y-82007018D01*
X151128000Y-82007018D01*
X151128000Y-82384000D01*
X151270000Y-82526000D01*
X151952000Y-82526000D01*
X151952000Y-81694000D01*
X152340000Y-81694000D01*
X152340000Y-82526000D01*
X153022000Y-82526000D01*
X153164000Y-82384000D01*
X153164000Y-82157018D01*
X153743000Y-82157018D01*
X153743000Y-82534000D01*
X153885000Y-82676000D01*
X154498500Y-82676000D01*
X154498500Y-81844000D01*
X154873500Y-81844000D01*
X154873500Y-82676000D01*
X155487000Y-82676000D01*
X155629000Y-82534000D01*
X155629000Y-82157018D01*
X155542527Y-81948254D01*
X155382746Y-81788473D01*
X155173982Y-81702000D01*
X155015500Y-81702000D01*
X154873500Y-81844000D01*
X154498500Y-81844000D01*
X154356500Y-81702000D01*
X154198018Y-81702000D01*
X153989254Y-81788473D01*
X153829473Y-81948254D01*
X153743000Y-82157018D01*
X153164000Y-82157018D01*
X153164000Y-82007018D01*
X153077527Y-81798254D01*
X152917746Y-81638473D01*
X152708982Y-81552000D01*
X152482000Y-81552000D01*
X152340000Y-81694000D01*
X151952000Y-81694000D01*
X151810000Y-81552000D01*
X151583018Y-81552000D01*
X151374254Y-81638473D01*
X151214473Y-81798254D01*
X151128000Y-82007018D01*
X145230000Y-82007018D01*
X145230000Y-75439432D01*
X147629774Y-75439432D01*
X147828789Y-75921086D01*
X148196976Y-76289916D01*
X148678282Y-76489772D01*
X149199432Y-76490226D01*
X149681086Y-76291211D01*
X150049916Y-75923024D01*
X150249772Y-75441718D01*
X150250226Y-74920568D01*
X150051211Y-74438914D01*
X149683024Y-74070084D01*
X149201718Y-73870228D01*
X148680568Y-73869774D01*
X148198914Y-74068789D01*
X147830084Y-74436976D01*
X147630228Y-74918282D01*
X147629774Y-75439432D01*
X145230000Y-75439432D01*
X145230000Y-73439432D01*
X153629774Y-73439432D01*
X153828789Y-73921086D01*
X154196976Y-74289916D01*
X154678282Y-74489772D01*
X155199432Y-74490226D01*
X155681086Y-74291211D01*
X156049916Y-73923024D01*
X156249772Y-73441718D01*
X156250226Y-72920568D01*
X156051211Y-72438914D01*
X155683024Y-72070084D01*
X155201718Y-71870228D01*
X154680568Y-71869774D01*
X154198914Y-72068789D01*
X153830084Y-72436976D01*
X153630228Y-72918282D01*
X153629774Y-73439432D01*
X145230000Y-73439432D01*
X145230000Y-67646000D01*
X149698400Y-67646000D01*
X149698400Y-68438982D01*
X149784873Y-68647746D01*
X149944654Y-68807527D01*
X150153418Y-68894000D01*
X150794000Y-68894000D01*
X150936000Y-68752000D01*
X150936000Y-67504000D01*
X149840400Y-67504000D01*
X149698400Y-67646000D01*
X145230000Y-67646000D01*
X145230000Y-66181018D01*
X149698400Y-66181018D01*
X149698400Y-66974000D01*
X149840400Y-67116000D01*
X150936000Y-67116000D01*
X150936000Y-65868000D01*
X151324000Y-65868000D01*
X151324000Y-67116000D01*
X151344000Y-67116000D01*
X151344000Y-67504000D01*
X151324000Y-67504000D01*
X151324000Y-68752000D01*
X151466000Y-68894000D01*
X152106582Y-68894000D01*
X152315346Y-68807527D01*
X152475127Y-68647746D01*
X152561600Y-68438982D01*
X152561600Y-67646000D01*
X152419602Y-67504002D01*
X152549703Y-67504002D01*
X152631929Y-67917381D01*
X152875495Y-68281903D01*
X153240017Y-68525469D01*
X153670000Y-68610998D01*
X154099983Y-68525469D01*
X154464505Y-68281903D01*
X154708071Y-67917381D01*
X154790297Y-67504002D01*
X154923217Y-67504002D01*
X154805316Y-67726999D01*
X155013499Y-68244407D01*
X155403838Y-68642761D01*
X155796503Y-68832983D01*
X156016000Y-68737324D01*
X156016000Y-67504000D01*
X155996000Y-67504000D01*
X155996000Y-67116000D01*
X156016000Y-67116000D01*
X156016000Y-65882676D01*
X156404000Y-65882676D01*
X156404000Y-67116000D01*
X156424000Y-67116000D01*
X156424000Y-67504000D01*
X156404000Y-67504000D01*
X156404000Y-68737324D01*
X156623497Y-68832983D01*
X157016162Y-68642761D01*
X157406501Y-68244407D01*
X157614684Y-67726999D01*
X157496783Y-67504002D01*
X157629703Y-67504002D01*
X157711929Y-67917381D01*
X157955495Y-68281903D01*
X158320017Y-68525469D01*
X158750000Y-68610998D01*
X159179983Y-68525469D01*
X159544505Y-68281903D01*
X159788071Y-67917381D01*
X159842052Y-67646000D01*
X166631733Y-67646000D01*
X166631733Y-68438982D01*
X166718206Y-68647746D01*
X166877987Y-68807527D01*
X167086751Y-68894000D01*
X167727333Y-68894000D01*
X167869333Y-68752000D01*
X167869333Y-67504000D01*
X166773733Y-67504000D01*
X166631733Y-67646000D01*
X159842052Y-67646000D01*
X159873600Y-67487398D01*
X159873600Y-67132602D01*
X159788071Y-66702619D01*
X159544505Y-66338097D01*
X159309420Y-66181018D01*
X166631733Y-66181018D01*
X166631733Y-66974000D01*
X166773733Y-67116000D01*
X167869333Y-67116000D01*
X167869333Y-65868000D01*
X167727333Y-65726000D01*
X167086751Y-65726000D01*
X166877987Y-65812473D01*
X166718206Y-65972254D01*
X166631733Y-66181018D01*
X159309420Y-66181018D01*
X159179983Y-66094531D01*
X158750000Y-66009002D01*
X158320017Y-66094531D01*
X157955495Y-66338097D01*
X157711929Y-66702619D01*
X157629703Y-67115998D01*
X157496783Y-67115998D01*
X157614684Y-66893001D01*
X157406501Y-66375593D01*
X157016162Y-65977239D01*
X156623497Y-65787017D01*
X156404000Y-65882676D01*
X156016000Y-65882676D01*
X155796503Y-65787017D01*
X155403838Y-65977239D01*
X155013499Y-66375593D01*
X154805316Y-66893001D01*
X154923217Y-67115998D01*
X154790297Y-67115998D01*
X154708071Y-66702619D01*
X154464505Y-66338097D01*
X154099983Y-66094531D01*
X153670000Y-66009002D01*
X153240017Y-66094531D01*
X152875495Y-66338097D01*
X152631929Y-66702619D01*
X152549703Y-67115998D01*
X152419602Y-67115998D01*
X152561600Y-66974000D01*
X152561600Y-66181018D01*
X152475127Y-65972254D01*
X152315346Y-65812473D01*
X152106582Y-65726000D01*
X151466000Y-65726000D01*
X151324000Y-65868000D01*
X150936000Y-65868000D01*
X150794000Y-65726000D01*
X150153418Y-65726000D01*
X149944654Y-65812473D01*
X149784873Y-65972254D01*
X149698400Y-66181018D01*
X145230000Y-66181018D01*
X145230000Y-65230000D01*
X214770000Y-65230000D01*
X214770000Y-114770000D01*
G36*
X205881307Y-112166400D02*
X205881307Y-113833601D01*
X204215000Y-113833601D01*
X204215000Y-113416093D01*
X204430000Y-113416093D01*
X204526350Y-113397964D01*
X204614842Y-113341021D01*
X204674207Y-113254136D01*
X204695093Y-113151000D01*
X204695093Y-112401000D01*
X204676964Y-112304650D01*
X204620021Y-112216158D01*
X204533136Y-112156793D01*
X204430000Y-112135907D01*
X203230000Y-112135907D01*
X203133650Y-112154036D01*
X203045158Y-112210979D01*
X202985793Y-112297864D01*
X202964907Y-112401000D01*
X202964907Y-113151000D01*
X202983036Y-113247350D01*
X203039979Y-113335842D01*
X203126864Y-113395207D01*
X203230000Y-113416093D01*
X203445000Y-113416093D01*
X203445000Y-113833601D01*
X190288071Y-113833601D01*
X189341372Y-112886902D01*
X200353903Y-112886902D01*
X200438978Y-113092800D01*
X200596371Y-113250468D01*
X200802120Y-113335903D01*
X201024902Y-113336097D01*
X201115938Y-113298482D01*
X201139979Y-113335842D01*
X201226864Y-113395207D01*
X201330000Y-113416093D01*
X202530000Y-113416093D01*
X202626350Y-113397964D01*
X202714842Y-113341021D01*
X202774207Y-113254136D01*
X202795093Y-113151000D01*
X202795093Y-112401000D01*
X202776964Y-112304650D01*
X202720021Y-112216158D01*
X202633136Y-112156793D01*
X202530000Y-112135907D01*
X201330000Y-112135907D01*
X201233650Y-112154036D01*
X201145158Y-112210979D01*
X201116072Y-112253548D01*
X201025880Y-112216097D01*
X200803098Y-112215903D01*
X200597200Y-112300978D01*
X200439532Y-112458371D01*
X200354097Y-112664120D01*
X200353903Y-112886902D01*
X189341372Y-112886902D01*
X188518071Y-112063601D01*
X205902125Y-112063601D01*
X205881307Y-112166400D01*
X205881307Y-112166400D01*
G37*
X205881307Y-112166400D02*
X205881307Y-113833601D01*
X204215000Y-113833601D01*
X204215000Y-113416093D01*
X204430000Y-113416093D01*
X204526350Y-113397964D01*
X204614842Y-113341021D01*
X204674207Y-113254136D01*
X204695093Y-113151000D01*
X204695093Y-112401000D01*
X204676964Y-112304650D01*
X204620021Y-112216158D01*
X204533136Y-112156793D01*
X204430000Y-112135907D01*
X203230000Y-112135907D01*
X203133650Y-112154036D01*
X203045158Y-112210979D01*
X202985793Y-112297864D01*
X202964907Y-112401000D01*
X202964907Y-113151000D01*
X202983036Y-113247350D01*
X203039979Y-113335842D01*
X203126864Y-113395207D01*
X203230000Y-113416093D01*
X203445000Y-113416093D01*
X203445000Y-113833601D01*
X190288071Y-113833601D01*
X189341372Y-112886902D01*
X200353903Y-112886902D01*
X200438978Y-113092800D01*
X200596371Y-113250468D01*
X200802120Y-113335903D01*
X201024902Y-113336097D01*
X201115938Y-113298482D01*
X201139979Y-113335842D01*
X201226864Y-113395207D01*
X201330000Y-113416093D01*
X202530000Y-113416093D01*
X202626350Y-113397964D01*
X202714842Y-113341021D01*
X202774207Y-113254136D01*
X202795093Y-113151000D01*
X202795093Y-112401000D01*
X202776964Y-112304650D01*
X202720021Y-112216158D01*
X202633136Y-112156793D01*
X202530000Y-112135907D01*
X201330000Y-112135907D01*
X201233650Y-112154036D01*
X201145158Y-112210979D01*
X201116072Y-112253548D01*
X201025880Y-112216097D01*
X200803098Y-112215903D01*
X200597200Y-112300978D01*
X200439532Y-112458371D01*
X200354097Y-112664120D01*
X200353903Y-112886902D01*
X189341372Y-112886902D01*
X188518071Y-112063601D01*
X205902125Y-112063601D01*
X205881307Y-112166400D01*
M02*
