M48
;DRILL file {KiCad (2015-10-25 BZR 6279)-product} date Monday 26. October 2015 20.42.12
;FORMAT={-:-/ absolute / metric / decimal}
FMAT,2
METRIC,TZ
T1C0.400
T2C0.800
T3C1.016
T4C1.300
%
G90
G05
M71
T1
X149.225Y-99.06
X150.368Y-103.632
X154.305Y-102.235
X154.94Y-81.28
X156.845Y-103.505
X156.972Y-75.184
X157.48Y-81.28
X158.75Y-104.648
X161.544Y-101.6
X161.544Y-105.664
X163.068Y-74.93
X164.084Y-108.204
X164.592Y-99.06
X165.735Y-106.045
X166.878Y-96.774
X168.148Y-81.28
X169.164Y-109.22
X173.228Y-104.648
X173.228Y-108.712
X174.244Y-73.66
X174.244Y-75.805
X174.244Y-77.724
X174.625Y-105.41
X176.276Y-99.568
X176.276Y-102.108
X177.292Y-108.712
X177.8Y-83.566
X177.8Y-95.758
X178.816Y-103.124
X179.274Y-87.63
X179.578Y-75.438
X179.642Y-77.724
X180.975Y-97.155
X182.051Y-96.326
X182.88Y-99.822
X184.404Y-74.168
X184.404Y-78.74
X184.404Y-87.376
X184.404Y-90.424
X184.404Y-104.765
X184.87Y-97.832
X185.928Y-96.774
X186.055Y-109.22
X186.612Y-103.495
X186.69Y-107.442
X188.468Y-87.376
X188.468Y-90.424
X188.595Y-107.95
X188.976Y-76.2
X188.976Y-96.774
X189.23Y-99.695
X189.23Y-102.87
X189.992Y-78.74
X190.5Y-73.66
X190.5Y-112.776
X193.04Y-73.152
X195.58Y-105.156
X196.596Y-78.74
X196.596Y-110.49
X198.12Y-106.68
X198.12Y-109.22
X198.12Y-110.744
X199.39Y-90.17
X200.914Y-110.236
X200.914Y-112.776
X202.438Y-88.38
X202.946Y-90.17
X203.835Y-101.6
X203.962Y-109.22
X204.47Y-106.68
T2
X149.86Y-92.71
X149.86Y-95.25
X156.21Y-92.71
X156.21Y-95.25
X163.83Y-92.71
X163.83Y-95.25
X169.545Y-92.71
X169.545Y-95.25
X175.26Y-92.71
X175.26Y-95.25
X180.975Y-92.71
X180.975Y-95.25
X187.325Y-92.71
X187.325Y-95.25
X203.835Y-92.71
X203.835Y-95.25
X209.55Y-92.71
X209.55Y-95.25
T3
X148.59Y-111.76
X151.13Y-67.31
X151.13Y-111.76
X153.67Y-67.31
X156.21Y-67.31
X158.75Y-67.31
X158.75Y-111.76
X161.29Y-111.76
X163.83Y-111.76
X168.063Y-67.31
X170.18Y-111.76
X170.603Y-67.31
X172.72Y-111.76
X173.143Y-67.31
X175.26Y-111.76
X175.683Y-67.31
X181.61Y-111.76
X184.15Y-111.76
X184.997Y-67.31
X187.537Y-67.31
X190.077Y-67.31
X192.617Y-67.31
X201.93Y-67.31
X204.47Y-67.31
X207.01Y-67.31
X207.01Y-110.49
X207.01Y-113.03
X209.55Y-67.31
X209.55Y-110.49
X209.55Y-113.03
X212.09Y-110.49
X212.09Y-113.03
T4
X148.94Y-75.18
X148.94Y-87.38
X154.94Y-73.18
X160.94Y-75.18
X160.94Y-87.38
X165.45Y-75.18
X165.45Y-87.38
X171.45Y-73.18
X177.45Y-75.18
X177.45Y-87.38
X181.96Y-75.43
X181.96Y-87.63
X187.96Y-73.43
X193.96Y-75.43
X193.96Y-87.63
X198.47Y-75.18
X198.47Y-87.38
X204.47Y-73.18
X210.47Y-75.18
X210.47Y-87.38
T0
M30
