G04 #@! TF.FileFunction,Soldermask,Top*
%FSLAX46Y46*%
G04 Gerber Fmt 4.6, Leading zero omitted, Abs format (unit mm)*
G04 Created by KiCad (PCBNEW (2015-10-25 BZR 6279)-product) date Monday 26. October 2015 20.42.08*
%MOMM*%
G01*
G04 APERTURE LIST*
%ADD10C,0.100000*%
%ADD11C,2.500000*%
%ADD12C,1.501140*%
%ADD13R,1.200000X0.750000*%
%ADD14R,0.750000X1.200000*%
%ADD15R,1.727200X2.032000*%
%ADD16O,1.727200X2.032000*%
%ADD17R,1.727200X1.727200*%
%ADD18O,1.727200X1.727200*%
%ADD19R,2.032000X2.032000*%
%ADD20O,2.032000X2.032000*%
%ADD21R,0.900000X1.200000*%
%ADD22R,1.200000X0.900000*%
%ADD23R,1.500000X0.600000*%
%ADD24R,0.600000X1.550000*%
G04 APERTURE END LIST*
D10*
D11*
X160940000Y-75180000D03*
X160940000Y-87380000D03*
X148940000Y-75180000D03*
X148940000Y-87380000D03*
X154940000Y-73180000D03*
D12*
X169545000Y-92710000D03*
X169545000Y-95250000D03*
X149860000Y-92710000D03*
X149860000Y-95250000D03*
X187325000Y-92710000D03*
X187325000Y-95250000D03*
X180975000Y-92710000D03*
X180975000Y-95250000D03*
D13*
X195580000Y-111760000D03*
X197480000Y-111760000D03*
D12*
X175260000Y-92710000D03*
X175260000Y-95250000D03*
X163830000Y-92710000D03*
X163830000Y-95250000D03*
X203835000Y-92710000D03*
X203835000Y-95250000D03*
X209550000Y-92710000D03*
X209550000Y-95250000D03*
X156210000Y-95250000D03*
X156210000Y-92710000D03*
D13*
X194630000Y-99695000D03*
X196530000Y-99695000D03*
D14*
X157480000Y-106934000D03*
X157480000Y-105034000D03*
X157480000Y-100015000D03*
X157480000Y-101915000D03*
D11*
X193960000Y-75430000D03*
X193960000Y-87630000D03*
X181960000Y-75430000D03*
X181960000Y-87630000D03*
X187960000Y-73430000D03*
X177450000Y-75180000D03*
X177450000Y-87380000D03*
X165450000Y-75180000D03*
X165450000Y-87380000D03*
X171450000Y-73180000D03*
X210470000Y-75180000D03*
X210470000Y-87380000D03*
X198470000Y-75180000D03*
X198470000Y-87380000D03*
X204470000Y-73180000D03*
D15*
X170180000Y-111760000D03*
D16*
X172720000Y-111760000D03*
X175260000Y-111760000D03*
D15*
X158750000Y-111760000D03*
D16*
X161290000Y-111760000D03*
X163830000Y-111760000D03*
D17*
X207010000Y-113030000D03*
D18*
X207010000Y-110490000D03*
X209550000Y-113030000D03*
X209550000Y-110490000D03*
X212090000Y-113030000D03*
X212090000Y-110490000D03*
D19*
X181610000Y-111760000D03*
D20*
X184150000Y-111760000D03*
D19*
X148590000Y-111760000D03*
D20*
X151130000Y-111760000D03*
D15*
X201929999Y-67310000D03*
D16*
X204469999Y-67310000D03*
X207009999Y-67310000D03*
X209549999Y-67310000D03*
D15*
X184996666Y-67310000D03*
D16*
X187536666Y-67310000D03*
X190076666Y-67310000D03*
X192616666Y-67310000D03*
D15*
X151130000Y-67310000D03*
D16*
X153670000Y-67310000D03*
X156210000Y-67310000D03*
X158750000Y-67310000D03*
D15*
X168063333Y-67310000D03*
D16*
X170603333Y-67310000D03*
X173143333Y-67310000D03*
X175683333Y-67310000D03*
D21*
X170180000Y-107145000D03*
X170180000Y-104945000D03*
X175895000Y-107145000D03*
X175895000Y-104945000D03*
D22*
X187030000Y-101600000D03*
X189230000Y-101600000D03*
D21*
X187325000Y-97325000D03*
X187325000Y-99525000D03*
D22*
X152230000Y-97790000D03*
X150030000Y-97790000D03*
D21*
X213360000Y-104480000D03*
X213360000Y-106680000D03*
X205740000Y-104480000D03*
X205740000Y-106680000D03*
D22*
X195285000Y-113665000D03*
X197485000Y-113665000D03*
X186860000Y-109220000D03*
X189060000Y-109220000D03*
D21*
X203835000Y-98425000D03*
X203835000Y-100625000D03*
D22*
X163490000Y-97790000D03*
X161290000Y-97790000D03*
D21*
X210820000Y-104140000D03*
X210820000Y-106340000D03*
X208280000Y-104140000D03*
X208280000Y-106340000D03*
D22*
X194650000Y-97790000D03*
X196850000Y-97790000D03*
D21*
X160020000Y-92880000D03*
X160020000Y-95080000D03*
X155575000Y-106975000D03*
X155575000Y-104775000D03*
X155575000Y-102235000D03*
X155575000Y-100035000D03*
D23*
X191610000Y-101600000D03*
X191610000Y-102870000D03*
X191610000Y-104140000D03*
X191610000Y-105410000D03*
X191610000Y-106680000D03*
X191610000Y-107950000D03*
X191610000Y-109220000D03*
X197010000Y-109220000D03*
X197010000Y-107950000D03*
X197010000Y-106680000D03*
X197010000Y-105410000D03*
X197010000Y-104140000D03*
X197010000Y-102870000D03*
X197010000Y-101600000D03*
D24*
X151765000Y-100170000D03*
X150495000Y-100170000D03*
X149225000Y-100170000D03*
X147955000Y-100170000D03*
X147955000Y-105570000D03*
X149225000Y-105570000D03*
X150495000Y-105570000D03*
X151765000Y-105570000D03*
D13*
X203830000Y-112776000D03*
X201930000Y-112776000D03*
X203896000Y-110236000D03*
X201996000Y-110236000D03*
D14*
X199644000Y-112710000D03*
X199644000Y-110810000D03*
M02*
