G04 #@! TF.FileFunction,Legend,Top*
%FSLAX46Y46*%
G04 Gerber Fmt 4.6, Leading zero omitted, Abs format (unit mm)*
G04 Created by KiCad (PCBNEW (2015-10-25 BZR 6279)-product) date Monday 26. October 2015 20.42.08*
%MOMM*%
G01*
G04 APERTURE LIST*
%ADD10C,0.100000*%
%ADD11C,0.300000*%
%ADD12C,0.127000*%
%ADD13C,0.150000*%
%ADD14C,0.050000*%
G04 APERTURE END LIST*
D10*
D11*
X200866572Y-107866571D02*
X200866572Y-106366571D01*
X201366572Y-107438000D01*
X201866572Y-106366571D01*
X201866572Y-107866571D01*
X202580858Y-107866571D02*
X202580858Y-106366571D01*
X203152287Y-106366571D02*
X204152287Y-107866571D01*
X204152287Y-106366571D02*
X203152287Y-107866571D01*
X157286000Y-109827143D02*
X157500286Y-109898571D01*
X157857429Y-109898571D01*
X158000286Y-109827143D01*
X158071715Y-109755714D01*
X158143143Y-109612857D01*
X158143143Y-109470000D01*
X158071715Y-109327143D01*
X158000286Y-109255714D01*
X157857429Y-109184286D01*
X157571715Y-109112857D01*
X157428857Y-109041429D01*
X157357429Y-108970000D01*
X157286000Y-108827143D01*
X157286000Y-108684286D01*
X157357429Y-108541429D01*
X157428857Y-108470000D01*
X157571715Y-108398571D01*
X157928857Y-108398571D01*
X158143143Y-108470000D01*
X158643143Y-108398571D02*
X159000286Y-109898571D01*
X159286000Y-108827143D01*
X159571714Y-109898571D01*
X159928857Y-108398571D01*
X160500286Y-109898571D02*
X160500286Y-108398571D01*
X161000286Y-108398571D02*
X161857429Y-108398571D01*
X161428858Y-109898571D02*
X161428858Y-108398571D01*
X163214572Y-109755714D02*
X163143143Y-109827143D01*
X162928857Y-109898571D01*
X162786000Y-109898571D01*
X162571715Y-109827143D01*
X162428857Y-109684286D01*
X162357429Y-109541429D01*
X162286000Y-109255714D01*
X162286000Y-109041429D01*
X162357429Y-108755714D01*
X162428857Y-108612857D01*
X162571715Y-108470000D01*
X162786000Y-108398571D01*
X162928857Y-108398571D01*
X163143143Y-108470000D01*
X163214572Y-108541429D01*
X163857429Y-109898571D02*
X163857429Y-108398571D01*
X163857429Y-109112857D02*
X164714572Y-109112857D01*
X164714572Y-109898571D02*
X164714572Y-108398571D01*
X170533429Y-109898571D02*
X169819143Y-109898571D01*
X169819143Y-108398571D01*
X171033429Y-109112857D02*
X171533429Y-109112857D01*
X171747715Y-109898571D02*
X171033429Y-109898571D01*
X171033429Y-108398571D01*
X171747715Y-108398571D01*
X172390572Y-109898571D02*
X172390572Y-108398571D01*
X172747715Y-108398571D01*
X172962000Y-108470000D01*
X173104858Y-108612857D01*
X173176286Y-108755714D01*
X173247715Y-109041429D01*
X173247715Y-109255714D01*
X173176286Y-109541429D01*
X173104858Y-109684286D01*
X172962000Y-109827143D01*
X172747715Y-109898571D01*
X172390572Y-109898571D01*
X173819143Y-109827143D02*
X174033429Y-109898571D01*
X174390572Y-109898571D01*
X174533429Y-109827143D01*
X174604858Y-109755714D01*
X174676286Y-109612857D01*
X174676286Y-109470000D01*
X174604858Y-109327143D01*
X174533429Y-109255714D01*
X174390572Y-109184286D01*
X174104858Y-109112857D01*
X173962000Y-109041429D01*
X173890572Y-108970000D01*
X173819143Y-108827143D01*
X173819143Y-108684286D01*
X173890572Y-108541429D01*
X173962000Y-108470000D01*
X174104858Y-108398571D01*
X174462000Y-108398571D01*
X174676286Y-108470000D01*
X182594287Y-107890571D02*
X181880001Y-107890571D01*
X181808572Y-108604857D01*
X181880001Y-108533429D01*
X182022858Y-108462000D01*
X182380001Y-108462000D01*
X182522858Y-108533429D01*
X182594287Y-108604857D01*
X182665715Y-108747714D01*
X182665715Y-109104857D01*
X182594287Y-109247714D01*
X182522858Y-109319143D01*
X182380001Y-109390571D01*
X182022858Y-109390571D01*
X181880001Y-109319143D01*
X181808572Y-109247714D01*
X183094286Y-107890571D02*
X183594286Y-109390571D01*
X184094286Y-107890571D01*
X186372572Y-111867143D02*
X187515429Y-111867143D01*
X186944000Y-112438571D02*
X186944000Y-111295714D01*
X178244572Y-111867143D02*
X179387429Y-111867143D01*
X148931429Y-109898571D02*
X149217144Y-109898571D01*
X149360001Y-109827143D01*
X149431429Y-109755714D01*
X149574287Y-109541429D01*
X149645715Y-109255714D01*
X149645715Y-108684286D01*
X149574287Y-108541429D01*
X149502858Y-108470000D01*
X149360001Y-108398571D01*
X149074287Y-108398571D01*
X148931429Y-108470000D01*
X148860001Y-108541429D01*
X148788572Y-108684286D01*
X148788572Y-109041429D01*
X148860001Y-109184286D01*
X148931429Y-109255714D01*
X149074287Y-109327143D01*
X149360001Y-109327143D01*
X149502858Y-109255714D01*
X149574287Y-109184286D01*
X149645715Y-109041429D01*
X150074286Y-108398571D02*
X150574286Y-109898571D01*
X151074286Y-108398571D01*
X153352572Y-111867143D02*
X154495429Y-111867143D01*
X153924000Y-112438571D02*
X153924000Y-111295714D01*
X145224572Y-111867143D02*
X146367429Y-111867143D01*
X170041429Y-100427714D02*
X169970000Y-100499143D01*
X169755714Y-100570571D01*
X169612857Y-100570571D01*
X169398572Y-100499143D01*
X169255714Y-100356286D01*
X169184286Y-100213429D01*
X169112857Y-99927714D01*
X169112857Y-99713429D01*
X169184286Y-99427714D01*
X169255714Y-99284857D01*
X169398572Y-99142000D01*
X169612857Y-99070571D01*
X169755714Y-99070571D01*
X169970000Y-99142000D01*
X170041429Y-99213429D01*
X170970000Y-99070571D02*
X171255714Y-99070571D01*
X171398572Y-99142000D01*
X171541429Y-99284857D01*
X171612857Y-99570571D01*
X171612857Y-100070571D01*
X171541429Y-100356286D01*
X171398572Y-100499143D01*
X171255714Y-100570571D01*
X170970000Y-100570571D01*
X170827143Y-100499143D01*
X170684286Y-100356286D01*
X170612857Y-100070571D01*
X170612857Y-99570571D01*
X170684286Y-99284857D01*
X170827143Y-99142000D01*
X170970000Y-99070571D01*
X172184286Y-100499143D02*
X172398572Y-100570571D01*
X172755715Y-100570571D01*
X172898572Y-100499143D01*
X172970001Y-100427714D01*
X173041429Y-100284857D01*
X173041429Y-100142000D01*
X172970001Y-99999143D01*
X172898572Y-99927714D01*
X172755715Y-99856286D01*
X172470001Y-99784857D01*
X172327143Y-99713429D01*
X172255715Y-99642000D01*
X172184286Y-99499143D01*
X172184286Y-99356286D01*
X172255715Y-99213429D01*
X172327143Y-99142000D01*
X172470001Y-99070571D01*
X172827143Y-99070571D01*
X173041429Y-99142000D01*
X173684286Y-100570571D02*
X173684286Y-99070571D01*
X174184286Y-100142000D01*
X174684286Y-99070571D01*
X174684286Y-100570571D01*
X175684286Y-99070571D02*
X175970000Y-99070571D01*
X176112858Y-99142000D01*
X176255715Y-99284857D01*
X176327143Y-99570571D01*
X176327143Y-100070571D01*
X176255715Y-100356286D01*
X176112858Y-100499143D01*
X175970000Y-100570571D01*
X175684286Y-100570571D01*
X175541429Y-100499143D01*
X175398572Y-100356286D01*
X175327143Y-100070571D01*
X175327143Y-99570571D01*
X175398572Y-99284857D01*
X175541429Y-99142000D01*
X175684286Y-99070571D01*
X168791429Y-102970571D02*
X168791429Y-101470571D01*
X169291429Y-102542000D01*
X169791429Y-101470571D01*
X169791429Y-102970571D01*
X170505715Y-102970571D02*
X170505715Y-101470571D01*
X171077144Y-101470571D02*
X172077144Y-102970571D01*
X172077144Y-101470571D02*
X171077144Y-102970571D01*
X174577143Y-102970571D02*
X173720000Y-102970571D01*
X174148572Y-102970571D02*
X174148572Y-101470571D01*
X174005715Y-101684857D01*
X173862857Y-101827714D01*
X173720000Y-101899143D01*
X175220000Y-102827714D02*
X175291428Y-102899143D01*
X175220000Y-102970571D01*
X175148571Y-102899143D01*
X175220000Y-102827714D01*
X175220000Y-102970571D01*
X176220000Y-101470571D02*
X176362857Y-101470571D01*
X176505714Y-101542000D01*
X176577143Y-101613429D01*
X176648572Y-101756286D01*
X176720000Y-102042000D01*
X176720000Y-102399143D01*
X176648572Y-102684857D01*
X176577143Y-102827714D01*
X176505714Y-102899143D01*
X176362857Y-102970571D01*
X176220000Y-102970571D01*
X176077143Y-102899143D01*
X176005714Y-102827714D01*
X175934286Y-102684857D01*
X175862857Y-102399143D01*
X175862857Y-102042000D01*
X175934286Y-101756286D01*
X176005714Y-101613429D01*
X176077143Y-101542000D01*
X176220000Y-101470571D01*
X210796000Y-70925429D02*
X210510286Y-70925429D01*
X210367428Y-70854000D01*
X210224571Y-70711143D01*
X210153143Y-70425429D01*
X210153143Y-69925429D01*
X210224571Y-69639714D01*
X210367428Y-69496857D01*
X210510286Y-69425429D01*
X210796000Y-69425429D01*
X210938857Y-69496857D01*
X211081714Y-69639714D01*
X211153143Y-69925429D01*
X211153143Y-70425429D01*
X211081714Y-70711143D01*
X210938857Y-70854000D01*
X210796000Y-70925429D01*
X209510285Y-70925429D02*
X209510285Y-69711143D01*
X209438857Y-69568286D01*
X209367428Y-69496857D01*
X209224571Y-69425429D01*
X208938857Y-69425429D01*
X208795999Y-69496857D01*
X208724571Y-69568286D01*
X208653142Y-69711143D01*
X208653142Y-70925429D01*
X208153142Y-70925429D02*
X207295999Y-70925429D01*
X207724570Y-69425429D02*
X207724570Y-70925429D01*
X193313428Y-69425429D02*
X193813428Y-70139714D01*
X194170571Y-69425429D02*
X194170571Y-70925429D01*
X193599143Y-70925429D01*
X193456285Y-70854000D01*
X193384857Y-70782571D01*
X193313428Y-70639714D01*
X193313428Y-70425429D01*
X193384857Y-70282571D01*
X193456285Y-70211143D01*
X193599143Y-70139714D01*
X194170571Y-70139714D01*
X192670571Y-70211143D02*
X192170571Y-70211143D01*
X191956285Y-69425429D02*
X192670571Y-69425429D01*
X192670571Y-70925429D01*
X191956285Y-70925429D01*
X190456285Y-69568286D02*
X190527714Y-69496857D01*
X190742000Y-69425429D01*
X190884857Y-69425429D01*
X191099142Y-69496857D01*
X191242000Y-69639714D01*
X191313428Y-69782571D01*
X191384857Y-70068286D01*
X191384857Y-70282571D01*
X191313428Y-70568286D01*
X191242000Y-70711143D01*
X191099142Y-70854000D01*
X190884857Y-70925429D01*
X190742000Y-70925429D01*
X190527714Y-70854000D01*
X190456285Y-70782571D01*
X189813428Y-70211143D02*
X189313428Y-70211143D01*
X189099142Y-69425429D02*
X189813428Y-69425429D01*
X189813428Y-70925429D01*
X189099142Y-70925429D01*
X188456285Y-69425429D02*
X188456285Y-70925429D01*
X187956285Y-70925429D02*
X187456285Y-69425429D01*
X186956285Y-70925429D01*
X186456285Y-70211143D02*
X185956285Y-70211143D01*
X185741999Y-69425429D02*
X186456285Y-69425429D01*
X186456285Y-70925429D01*
X185741999Y-70925429D01*
X177394857Y-69496857D02*
X177180571Y-69425429D01*
X176823428Y-69425429D01*
X176680571Y-69496857D01*
X176609142Y-69568286D01*
X176537714Y-69711143D01*
X176537714Y-69854000D01*
X176609142Y-69996857D01*
X176680571Y-70068286D01*
X176823428Y-70139714D01*
X177109142Y-70211143D01*
X177252000Y-70282571D01*
X177323428Y-70354000D01*
X177394857Y-70496857D01*
X177394857Y-70639714D01*
X177323428Y-70782571D01*
X177252000Y-70854000D01*
X177109142Y-70925429D01*
X176752000Y-70925429D01*
X176537714Y-70854000D01*
X175894857Y-70211143D02*
X175394857Y-70211143D01*
X175180571Y-69425429D02*
X175894857Y-69425429D01*
X175894857Y-70925429D01*
X175180571Y-70925429D01*
X174537714Y-69425429D02*
X174537714Y-70925429D01*
X173680571Y-69425429D01*
X173680571Y-70925429D01*
X172966285Y-69425429D02*
X172966285Y-70925429D01*
X172609142Y-70925429D01*
X172394857Y-70854000D01*
X172251999Y-70711143D01*
X172180571Y-70568286D01*
X172109142Y-70282571D01*
X172109142Y-70068286D01*
X172180571Y-69782571D01*
X172251999Y-69639714D01*
X172394857Y-69496857D01*
X172609142Y-69425429D01*
X172966285Y-69425429D01*
X160297714Y-69425429D02*
X160297714Y-70925429D01*
X159583428Y-69425429D02*
X159583428Y-70925429D01*
X158726285Y-69425429D01*
X158726285Y-70925429D01*
D12*
X147190000Y-71780000D02*
X147190000Y-90780000D01*
X147190000Y-90780000D02*
X162690000Y-90780000D01*
X162690000Y-90780000D02*
X162690000Y-71780000D01*
X162690000Y-71780000D02*
X147190000Y-71780000D01*
D13*
X167995600Y-95097600D02*
X167995600Y-94132400D01*
X167513000Y-94589600D02*
X168478200Y-94589600D01*
X172085000Y-93980000D02*
G75*
G03X172085000Y-93980000I-2540000J0D01*
G01*
X148310600Y-95097600D02*
X148310600Y-94132400D01*
X147828000Y-94589600D02*
X148793200Y-94589600D01*
X152400000Y-93980000D02*
G75*
G03X152400000Y-93980000I-2540000J0D01*
G01*
X185775600Y-95097600D02*
X185775600Y-94132400D01*
X185293000Y-94589600D02*
X186258200Y-94589600D01*
X189865000Y-93980000D02*
G75*
G03X189865000Y-93980000I-2540000J0D01*
G01*
X179425600Y-95097600D02*
X179425600Y-94132400D01*
X178943000Y-94589600D02*
X179908200Y-94589600D01*
X183515000Y-93980000D02*
G75*
G03X183515000Y-93980000I-2540000J0D01*
G01*
X196180000Y-111160000D02*
X196880000Y-111160000D01*
X196880000Y-112360000D02*
X196180000Y-112360000D01*
X173710600Y-95097600D02*
X173710600Y-94132400D01*
X173228000Y-94589600D02*
X174193200Y-94589600D01*
X177800000Y-93980000D02*
G75*
G03X177800000Y-93980000I-2540000J0D01*
G01*
X162280600Y-95097600D02*
X162280600Y-94132400D01*
X161798000Y-94589600D02*
X162763200Y-94589600D01*
X166370000Y-93980000D02*
G75*
G03X166370000Y-93980000I-2540000J0D01*
G01*
X202285600Y-95097600D02*
X202285600Y-94132400D01*
X201803000Y-94589600D02*
X202768200Y-94589600D01*
X206375000Y-93980000D02*
G75*
G03X206375000Y-93980000I-2540000J0D01*
G01*
X208000600Y-95097600D02*
X208000600Y-94132400D01*
X207518000Y-94589600D02*
X208483200Y-94589600D01*
X212090000Y-93980000D02*
G75*
G03X212090000Y-93980000I-2540000J0D01*
G01*
X157759400Y-92862400D02*
X157759400Y-93827600D01*
X158242000Y-93370400D02*
X157276800Y-93370400D01*
X158750000Y-93980000D02*
G75*
G03X158750000Y-93980000I-2540000J0D01*
G01*
X195230000Y-99095000D02*
X195930000Y-99095000D01*
X195930000Y-100295000D02*
X195230000Y-100295000D01*
X156880000Y-106334000D02*
X156880000Y-105634000D01*
X158080000Y-105634000D02*
X158080000Y-106334000D01*
X158080000Y-100615000D02*
X158080000Y-101315000D01*
X156880000Y-101315000D02*
X156880000Y-100615000D01*
D12*
X180210000Y-72030000D02*
X180210000Y-91030000D01*
X180210000Y-91030000D02*
X195710000Y-91030000D01*
X195710000Y-91030000D02*
X195710000Y-72030000D01*
X195710000Y-72030000D02*
X180210000Y-72030000D01*
X163700000Y-71780000D02*
X163700000Y-90780000D01*
X163700000Y-90780000D02*
X179200000Y-90780000D01*
X179200000Y-90780000D02*
X179200000Y-71780000D01*
X179200000Y-71780000D02*
X163700000Y-71780000D01*
X196720000Y-71780000D02*
X196720000Y-90780000D01*
X196720000Y-90780000D02*
X212220000Y-90780000D01*
X212220000Y-90780000D02*
X212220000Y-71780000D01*
X212220000Y-71780000D02*
X196720000Y-71780000D01*
D13*
X171450000Y-113030000D02*
X176530000Y-113030000D01*
X176530000Y-113030000D02*
X176530000Y-110490000D01*
X176530000Y-110490000D02*
X171450000Y-110490000D01*
X168630000Y-110210000D02*
X170180000Y-110210000D01*
X171450000Y-110490000D02*
X171450000Y-113030000D01*
X170180000Y-113310000D02*
X168630000Y-113310000D01*
X168630000Y-113310000D02*
X168630000Y-110210000D01*
X160020000Y-113030000D02*
X165100000Y-113030000D01*
X165100000Y-113030000D02*
X165100000Y-110490000D01*
X165100000Y-110490000D02*
X160020000Y-110490000D01*
X157200000Y-110210000D02*
X158750000Y-110210000D01*
X160020000Y-110490000D02*
X160020000Y-113030000D01*
X158750000Y-113310000D02*
X157200000Y-113310000D01*
X157200000Y-113310000D02*
X157200000Y-110210000D01*
X208280000Y-114300000D02*
X213360000Y-114300000D01*
X205460000Y-114580000D02*
X205460000Y-113030000D01*
X205740000Y-111760000D02*
X208280000Y-111760000D01*
X208280000Y-111760000D02*
X208280000Y-114300000D01*
X213360000Y-114300000D02*
X213360000Y-109220000D01*
X213360000Y-109220000D02*
X208280000Y-109220000D01*
X205460000Y-114580000D02*
X207010000Y-114580000D01*
X205740000Y-109220000D02*
X205740000Y-111760000D01*
X208280000Y-109220000D02*
X205740000Y-109220000D01*
X182880000Y-110490000D02*
X185420000Y-110490000D01*
X180060000Y-110210000D02*
X181610000Y-110210000D01*
X182880000Y-110490000D02*
X182880000Y-113030000D01*
X181610000Y-113310000D02*
X180060000Y-113310000D01*
X180060000Y-113310000D02*
X180060000Y-110210000D01*
X182880000Y-113030000D02*
X185420000Y-113030000D01*
X185420000Y-113030000D02*
X185420000Y-110490000D01*
X149860000Y-110490000D02*
X152400000Y-110490000D01*
X147040000Y-110210000D02*
X148590000Y-110210000D01*
X149860000Y-110490000D02*
X149860000Y-113030000D01*
X148590000Y-113310000D02*
X147040000Y-113310000D01*
X147040000Y-113310000D02*
X147040000Y-110210000D01*
X149860000Y-113030000D02*
X152400000Y-113030000D01*
X152400000Y-113030000D02*
X152400000Y-110490000D01*
X203199999Y-68580000D02*
X210819999Y-68580000D01*
X203199999Y-66040000D02*
X210819999Y-66040000D01*
X200379999Y-65760000D02*
X201929999Y-65760000D01*
X210819999Y-68580000D02*
X210819999Y-66040000D01*
X203199999Y-66040000D02*
X203199999Y-68580000D01*
X201929999Y-68860000D02*
X200379999Y-68860000D01*
X200379999Y-68860000D02*
X200379999Y-65760000D01*
X186266666Y-68580000D02*
X193886666Y-68580000D01*
X186266666Y-66040000D02*
X193886666Y-66040000D01*
X183446666Y-65760000D02*
X184996666Y-65760000D01*
X193886666Y-68580000D02*
X193886666Y-66040000D01*
X186266666Y-66040000D02*
X186266666Y-68580000D01*
X184996666Y-68860000D02*
X183446666Y-68860000D01*
X183446666Y-68860000D02*
X183446666Y-65760000D01*
X152400000Y-68580000D02*
X160020000Y-68580000D01*
X152400000Y-66040000D02*
X160020000Y-66040000D01*
X149580000Y-65760000D02*
X151130000Y-65760000D01*
X160020000Y-68580000D02*
X160020000Y-66040000D01*
X152400000Y-66040000D02*
X152400000Y-68580000D01*
X151130000Y-68860000D02*
X149580000Y-68860000D01*
X149580000Y-68860000D02*
X149580000Y-65760000D01*
X169333333Y-68580000D02*
X176953333Y-68580000D01*
X169333333Y-66040000D02*
X176953333Y-66040000D01*
X166513333Y-65760000D02*
X168063333Y-65760000D01*
X176953333Y-68580000D02*
X176953333Y-66040000D01*
X169333333Y-66040000D02*
X169333333Y-68580000D01*
X168063333Y-68860000D02*
X166513333Y-68860000D01*
X166513333Y-68860000D02*
X166513333Y-65760000D01*
X170855000Y-105545000D02*
X170855000Y-106545000D01*
X169505000Y-106545000D02*
X169505000Y-105545000D01*
X176570000Y-105545000D02*
X176570000Y-106545000D01*
X175220000Y-106545000D02*
X175220000Y-105545000D01*
X188630000Y-102275000D02*
X187630000Y-102275000D01*
X187630000Y-100925000D02*
X188630000Y-100925000D01*
X186650000Y-98925000D02*
X186650000Y-97925000D01*
X188000000Y-97925000D02*
X188000000Y-98925000D01*
X150630000Y-97115000D02*
X151630000Y-97115000D01*
X151630000Y-98465000D02*
X150630000Y-98465000D01*
X212685000Y-106080000D02*
X212685000Y-105080000D01*
X214035000Y-105080000D02*
X214035000Y-106080000D01*
X205065000Y-106080000D02*
X205065000Y-105080000D01*
X206415000Y-105080000D02*
X206415000Y-106080000D01*
X196885000Y-114340000D02*
X195885000Y-114340000D01*
X195885000Y-112990000D02*
X196885000Y-112990000D01*
X188460000Y-109895000D02*
X187460000Y-109895000D01*
X187460000Y-108545000D02*
X188460000Y-108545000D01*
X203160000Y-100025000D02*
X203160000Y-99025000D01*
X204510000Y-99025000D02*
X204510000Y-100025000D01*
X161890000Y-97115000D02*
X162890000Y-97115000D01*
X162890000Y-98465000D02*
X161890000Y-98465000D01*
X210145000Y-105740000D02*
X210145000Y-104740000D01*
X211495000Y-104740000D02*
X211495000Y-105740000D01*
X207605000Y-105740000D02*
X207605000Y-104740000D01*
X208955000Y-104740000D02*
X208955000Y-105740000D01*
X196250000Y-98465000D02*
X195250000Y-98465000D01*
X195250000Y-97115000D02*
X196250000Y-97115000D01*
X159345000Y-94480000D02*
X159345000Y-93480000D01*
X160695000Y-93480000D02*
X160695000Y-94480000D01*
X156250000Y-105375000D02*
X156250000Y-106375000D01*
X154900000Y-106375000D02*
X154900000Y-105375000D01*
X156250000Y-100635000D02*
X156250000Y-101635000D01*
X154900000Y-101635000D02*
X154900000Y-100635000D01*
X192235000Y-100960000D02*
X192235000Y-101075000D01*
X196385000Y-100960000D02*
X196385000Y-101075000D01*
X196385000Y-109860000D02*
X196385000Y-109745000D01*
X192235000Y-109860000D02*
X192235000Y-109745000D01*
X192235000Y-100960000D02*
X196385000Y-100960000D01*
X192235000Y-109860000D02*
X196385000Y-109860000D01*
X192235000Y-101075000D02*
X190860000Y-101075000D01*
X152435000Y-100795000D02*
X152290000Y-100795000D01*
X152435000Y-104945000D02*
X152290000Y-104945000D01*
X147285000Y-104945000D02*
X147430000Y-104945000D01*
X147285000Y-100795000D02*
X147430000Y-100795000D01*
X152435000Y-100795000D02*
X152435000Y-104945000D01*
X147285000Y-100795000D02*
X147285000Y-104945000D01*
X152290000Y-100795000D02*
X152290000Y-99395000D01*
X203230000Y-113376000D02*
X202530000Y-113376000D01*
X202530000Y-112176000D02*
X203230000Y-112176000D01*
X203296000Y-110836000D02*
X202596000Y-110836000D01*
X202596000Y-109636000D02*
X203296000Y-109636000D01*
X199044000Y-112110000D02*
X199044000Y-111410000D01*
X200244000Y-111410000D02*
X200244000Y-112110000D01*
D14*
X155693334Y-71436667D02*
X155693334Y-70736667D01*
X156093334Y-71436667D02*
X155793334Y-71036667D01*
X156093334Y-70736667D02*
X155693334Y-71136667D01*
X156760000Y-71436667D02*
X156360000Y-71436667D01*
X156560000Y-71436667D02*
X156560000Y-70736667D01*
X156493334Y-70836667D01*
X156426667Y-70903333D01*
X156360000Y-70936667D01*
D13*
X172045334Y-92051143D02*
X171997715Y-92098762D01*
X171854858Y-92146381D01*
X171759620Y-92146381D01*
X171616762Y-92098762D01*
X171521524Y-92003524D01*
X171473905Y-91908286D01*
X171426286Y-91717810D01*
X171426286Y-91574952D01*
X171473905Y-91384476D01*
X171521524Y-91289238D01*
X171616762Y-91194000D01*
X171759620Y-91146381D01*
X171854858Y-91146381D01*
X171997715Y-91194000D01*
X172045334Y-91241619D01*
X172997715Y-92146381D02*
X172426286Y-92146381D01*
X172712000Y-92146381D02*
X172712000Y-91146381D01*
X172616762Y-91289238D01*
X172521524Y-91384476D01*
X172426286Y-91432095D01*
X146518334Y-92432143D02*
X146470715Y-92479762D01*
X146327858Y-92527381D01*
X146232620Y-92527381D01*
X146089762Y-92479762D01*
X145994524Y-92384524D01*
X145946905Y-92289286D01*
X145899286Y-92098810D01*
X145899286Y-91955952D01*
X145946905Y-91765476D01*
X145994524Y-91670238D01*
X146089762Y-91575000D01*
X146232620Y-91527381D01*
X146327858Y-91527381D01*
X146470715Y-91575000D01*
X146518334Y-91622619D01*
X146899286Y-91622619D02*
X146946905Y-91575000D01*
X147042143Y-91527381D01*
X147280239Y-91527381D01*
X147375477Y-91575000D01*
X147423096Y-91622619D01*
X147470715Y-91717857D01*
X147470715Y-91813095D01*
X147423096Y-91955952D01*
X146851667Y-92527381D01*
X147470715Y-92527381D01*
X190841334Y-94337143D02*
X190793715Y-94384762D01*
X190650858Y-94432381D01*
X190555620Y-94432381D01*
X190412762Y-94384762D01*
X190317524Y-94289524D01*
X190269905Y-94194286D01*
X190222286Y-94003810D01*
X190222286Y-93860952D01*
X190269905Y-93670476D01*
X190317524Y-93575238D01*
X190412762Y-93480000D01*
X190555620Y-93432381D01*
X190650858Y-93432381D01*
X190793715Y-93480000D01*
X190841334Y-93527619D01*
X191174667Y-93432381D02*
X191793715Y-93432381D01*
X191460381Y-93813333D01*
X191603239Y-93813333D01*
X191698477Y-93860952D01*
X191746096Y-93908571D01*
X191793715Y-94003810D01*
X191793715Y-94241905D01*
X191746096Y-94337143D01*
X191698477Y-94384762D01*
X191603239Y-94432381D01*
X191317524Y-94432381D01*
X191222286Y-94384762D01*
X191174667Y-94337143D01*
X180935334Y-97893143D02*
X180887715Y-97940762D01*
X180744858Y-97988381D01*
X180649620Y-97988381D01*
X180506762Y-97940762D01*
X180411524Y-97845524D01*
X180363905Y-97750286D01*
X180316286Y-97559810D01*
X180316286Y-97416952D01*
X180363905Y-97226476D01*
X180411524Y-97131238D01*
X180506762Y-97036000D01*
X180649620Y-96988381D01*
X180744858Y-96988381D01*
X180887715Y-97036000D01*
X180935334Y-97083619D01*
X181792477Y-97321714D02*
X181792477Y-97988381D01*
X181554381Y-96940762D02*
X181316286Y-97655048D01*
X181935334Y-97655048D01*
X193127334Y-112117143D02*
X193079715Y-112164762D01*
X192936858Y-112212381D01*
X192841620Y-112212381D01*
X192698762Y-112164762D01*
X192603524Y-112069524D01*
X192555905Y-111974286D01*
X192508286Y-111783810D01*
X192508286Y-111640952D01*
X192555905Y-111450476D01*
X192603524Y-111355238D01*
X192698762Y-111260000D01*
X192841620Y-111212381D01*
X192936858Y-111212381D01*
X193079715Y-111260000D01*
X193127334Y-111307619D01*
X194032096Y-111212381D02*
X193555905Y-111212381D01*
X193508286Y-111688571D01*
X193555905Y-111640952D01*
X193651143Y-111593333D01*
X193889239Y-111593333D01*
X193984477Y-111640952D01*
X194032096Y-111688571D01*
X194079715Y-111783810D01*
X194079715Y-112021905D01*
X194032096Y-112117143D01*
X193984477Y-112164762D01*
X193889239Y-112212381D01*
X193651143Y-112212381D01*
X193555905Y-112164762D01*
X193508286Y-112117143D01*
X175093334Y-98147143D02*
X175045715Y-98194762D01*
X174902858Y-98242381D01*
X174807620Y-98242381D01*
X174664762Y-98194762D01*
X174569524Y-98099524D01*
X174521905Y-98004286D01*
X174474286Y-97813810D01*
X174474286Y-97670952D01*
X174521905Y-97480476D01*
X174569524Y-97385238D01*
X174664762Y-97290000D01*
X174807620Y-97242381D01*
X174902858Y-97242381D01*
X175045715Y-97290000D01*
X175093334Y-97337619D01*
X175950477Y-97242381D02*
X175760000Y-97242381D01*
X175664762Y-97290000D01*
X175617143Y-97337619D01*
X175521905Y-97480476D01*
X175474286Y-97670952D01*
X175474286Y-98051905D01*
X175521905Y-98147143D01*
X175569524Y-98194762D01*
X175664762Y-98242381D01*
X175855239Y-98242381D01*
X175950477Y-98194762D01*
X175998096Y-98147143D01*
X176045715Y-98051905D01*
X176045715Y-97813810D01*
X175998096Y-97718571D01*
X175950477Y-97670952D01*
X175855239Y-97623333D01*
X175664762Y-97623333D01*
X175569524Y-97670952D01*
X175521905Y-97718571D01*
X175474286Y-97813810D01*
X165695334Y-97639143D02*
X165647715Y-97686762D01*
X165504858Y-97734381D01*
X165409620Y-97734381D01*
X165266762Y-97686762D01*
X165171524Y-97591524D01*
X165123905Y-97496286D01*
X165076286Y-97305810D01*
X165076286Y-97162952D01*
X165123905Y-96972476D01*
X165171524Y-96877238D01*
X165266762Y-96782000D01*
X165409620Y-96734381D01*
X165504858Y-96734381D01*
X165647715Y-96782000D01*
X165695334Y-96829619D01*
X166028667Y-96734381D02*
X166695334Y-96734381D01*
X166266762Y-97734381D01*
X199731334Y-94337143D02*
X199683715Y-94384762D01*
X199540858Y-94432381D01*
X199445620Y-94432381D01*
X199302762Y-94384762D01*
X199207524Y-94289524D01*
X199159905Y-94194286D01*
X199112286Y-94003810D01*
X199112286Y-93860952D01*
X199159905Y-93670476D01*
X199207524Y-93575238D01*
X199302762Y-93480000D01*
X199445620Y-93432381D01*
X199540858Y-93432381D01*
X199683715Y-93480000D01*
X199731334Y-93527619D01*
X200302762Y-93860952D02*
X200207524Y-93813333D01*
X200159905Y-93765714D01*
X200112286Y-93670476D01*
X200112286Y-93622857D01*
X200159905Y-93527619D01*
X200207524Y-93480000D01*
X200302762Y-93432381D01*
X200493239Y-93432381D01*
X200588477Y-93480000D01*
X200636096Y-93527619D01*
X200683715Y-93622857D01*
X200683715Y-93670476D01*
X200636096Y-93765714D01*
X200588477Y-93813333D01*
X200493239Y-93860952D01*
X200302762Y-93860952D01*
X200207524Y-93908571D01*
X200159905Y-93956190D01*
X200112286Y-94051429D01*
X200112286Y-94241905D01*
X200159905Y-94337143D01*
X200207524Y-94384762D01*
X200302762Y-94432381D01*
X200493239Y-94432381D01*
X200588477Y-94384762D01*
X200636096Y-94337143D01*
X200683715Y-94241905D01*
X200683715Y-94051429D01*
X200636096Y-93956190D01*
X200588477Y-93908571D01*
X200493239Y-93860952D01*
X213193334Y-94337143D02*
X213145715Y-94384762D01*
X213002858Y-94432381D01*
X212907620Y-94432381D01*
X212764762Y-94384762D01*
X212669524Y-94289524D01*
X212621905Y-94194286D01*
X212574286Y-94003810D01*
X212574286Y-93860952D01*
X212621905Y-93670476D01*
X212669524Y-93575238D01*
X212764762Y-93480000D01*
X212907620Y-93432381D01*
X213002858Y-93432381D01*
X213145715Y-93480000D01*
X213193334Y-93527619D01*
X213669524Y-94432381D02*
X213860000Y-94432381D01*
X213955239Y-94384762D01*
X214002858Y-94337143D01*
X214098096Y-94194286D01*
X214145715Y-94003810D01*
X214145715Y-93622857D01*
X214098096Y-93527619D01*
X214050477Y-93480000D01*
X213955239Y-93432381D01*
X213764762Y-93432381D01*
X213669524Y-93480000D01*
X213621905Y-93527619D01*
X213574286Y-93622857D01*
X213574286Y-93860952D01*
X213621905Y-93956190D01*
X213669524Y-94003810D01*
X213764762Y-94051429D01*
X213955239Y-94051429D01*
X214050477Y-94003810D01*
X214098096Y-93956190D01*
X214145715Y-93860952D01*
X152392143Y-91797143D02*
X152344524Y-91844762D01*
X152201667Y-91892381D01*
X152106429Y-91892381D01*
X151963571Y-91844762D01*
X151868333Y-91749524D01*
X151820714Y-91654286D01*
X151773095Y-91463810D01*
X151773095Y-91320952D01*
X151820714Y-91130476D01*
X151868333Y-91035238D01*
X151963571Y-90940000D01*
X152106429Y-90892381D01*
X152201667Y-90892381D01*
X152344524Y-90940000D01*
X152392143Y-90987619D01*
X153344524Y-91892381D02*
X152773095Y-91892381D01*
X153058809Y-91892381D02*
X153058809Y-90892381D01*
X152963571Y-91035238D01*
X152868333Y-91130476D01*
X152773095Y-91178095D01*
X153963571Y-90892381D02*
X154058810Y-90892381D01*
X154154048Y-90940000D01*
X154201667Y-90987619D01*
X154249286Y-91082857D01*
X154296905Y-91273333D01*
X154296905Y-91511429D01*
X154249286Y-91701905D01*
X154201667Y-91797143D01*
X154154048Y-91844762D01*
X154058810Y-91892381D01*
X153963571Y-91892381D01*
X153868333Y-91844762D01*
X153820714Y-91797143D01*
X153773095Y-91701905D01*
X153725476Y-91511429D01*
X153725476Y-91273333D01*
X153773095Y-91082857D01*
X153820714Y-90987619D01*
X153868333Y-90940000D01*
X153963571Y-90892381D01*
X198747143Y-100052143D02*
X198699524Y-100099762D01*
X198556667Y-100147381D01*
X198461429Y-100147381D01*
X198318571Y-100099762D01*
X198223333Y-100004524D01*
X198175714Y-99909286D01*
X198128095Y-99718810D01*
X198128095Y-99575952D01*
X198175714Y-99385476D01*
X198223333Y-99290238D01*
X198318571Y-99195000D01*
X198461429Y-99147381D01*
X198556667Y-99147381D01*
X198699524Y-99195000D01*
X198747143Y-99242619D01*
X199699524Y-100147381D02*
X199128095Y-100147381D01*
X199413809Y-100147381D02*
X199413809Y-99147381D01*
X199318571Y-99290238D01*
X199223333Y-99385476D01*
X199128095Y-99433095D01*
X200651905Y-100147381D02*
X200080476Y-100147381D01*
X200366190Y-100147381D02*
X200366190Y-99147381D01*
X200270952Y-99290238D01*
X200175714Y-99385476D01*
X200080476Y-99433095D01*
X159615143Y-107322857D02*
X159662762Y-107370476D01*
X159710381Y-107513333D01*
X159710381Y-107608571D01*
X159662762Y-107751429D01*
X159567524Y-107846667D01*
X159472286Y-107894286D01*
X159281810Y-107941905D01*
X159138952Y-107941905D01*
X158948476Y-107894286D01*
X158853238Y-107846667D01*
X158758000Y-107751429D01*
X158710381Y-107608571D01*
X158710381Y-107513333D01*
X158758000Y-107370476D01*
X158805619Y-107322857D01*
X159710381Y-106370476D02*
X159710381Y-106941905D01*
X159710381Y-106656191D02*
X158710381Y-106656191D01*
X158853238Y-106751429D01*
X158948476Y-106846667D01*
X158996095Y-106941905D01*
X158805619Y-105989524D02*
X158758000Y-105941905D01*
X158710381Y-105846667D01*
X158710381Y-105608571D01*
X158758000Y-105513333D01*
X158805619Y-105465714D01*
X158900857Y-105418095D01*
X158996095Y-105418095D01*
X159138952Y-105465714D01*
X159710381Y-106037143D01*
X159710381Y-105418095D01*
X159742143Y-101607857D02*
X159789762Y-101655476D01*
X159837381Y-101798333D01*
X159837381Y-101893571D01*
X159789762Y-102036429D01*
X159694524Y-102131667D01*
X159599286Y-102179286D01*
X159408810Y-102226905D01*
X159265952Y-102226905D01*
X159075476Y-102179286D01*
X158980238Y-102131667D01*
X158885000Y-102036429D01*
X158837381Y-101893571D01*
X158837381Y-101798333D01*
X158885000Y-101655476D01*
X158932619Y-101607857D01*
X159837381Y-100655476D02*
X159837381Y-101226905D01*
X159837381Y-100941191D02*
X158837381Y-100941191D01*
X158980238Y-101036429D01*
X159075476Y-101131667D01*
X159123095Y-101226905D01*
X158837381Y-100322143D02*
X158837381Y-99703095D01*
X159218333Y-100036429D01*
X159218333Y-99893571D01*
X159265952Y-99798333D01*
X159313571Y-99750714D01*
X159408810Y-99703095D01*
X159646905Y-99703095D01*
X159742143Y-99750714D01*
X159789762Y-99798333D01*
X159837381Y-99893571D01*
X159837381Y-100179286D01*
X159789762Y-100274524D01*
X159742143Y-100322143D01*
D14*
X188713334Y-71436667D02*
X188713334Y-70736667D01*
X189113334Y-71436667D02*
X188813334Y-71036667D01*
X189113334Y-70736667D02*
X188713334Y-71136667D01*
X189380000Y-70803333D02*
X189413334Y-70770000D01*
X189480000Y-70736667D01*
X189646667Y-70736667D01*
X189713334Y-70770000D01*
X189746667Y-70803333D01*
X189780000Y-70870000D01*
X189780000Y-70936667D01*
X189746667Y-71036667D01*
X189346667Y-71436667D01*
X189780000Y-71436667D01*
X172838334Y-71436667D02*
X172838334Y-70736667D01*
X173238334Y-71436667D02*
X172938334Y-71036667D01*
X173238334Y-70736667D02*
X172838334Y-71136667D01*
X173471667Y-70736667D02*
X173905000Y-70736667D01*
X173671667Y-71003333D01*
X173771667Y-71003333D01*
X173838334Y-71036667D01*
X173871667Y-71070000D01*
X173905000Y-71136667D01*
X173905000Y-71303333D01*
X173871667Y-71370000D01*
X173838334Y-71403333D01*
X173771667Y-71436667D01*
X173571667Y-71436667D01*
X173505000Y-71403333D01*
X173471667Y-71370000D01*
X205858334Y-71436667D02*
X205858334Y-70736667D01*
X206258334Y-71436667D02*
X205958334Y-71036667D01*
X206258334Y-70736667D02*
X205858334Y-71136667D01*
X206858334Y-70970000D02*
X206858334Y-71436667D01*
X206691667Y-70703333D02*
X206525000Y-71203333D01*
X206958334Y-71203333D01*
D13*
X166901905Y-109672381D02*
X166901905Y-108672381D01*
X167282858Y-108672381D01*
X167378096Y-108720000D01*
X167425715Y-108767619D01*
X167473334Y-108862857D01*
X167473334Y-109005714D01*
X167425715Y-109100952D01*
X167378096Y-109148571D01*
X167282858Y-109196190D01*
X166901905Y-109196190D01*
X168425715Y-109672381D02*
X167854286Y-109672381D01*
X168140000Y-109672381D02*
X168140000Y-108672381D01*
X168044762Y-108815238D01*
X167949524Y-108910476D01*
X167854286Y-108958095D01*
X155471905Y-109672381D02*
X155471905Y-108672381D01*
X155852858Y-108672381D01*
X155948096Y-108720000D01*
X155995715Y-108767619D01*
X156043334Y-108862857D01*
X156043334Y-109005714D01*
X155995715Y-109100952D01*
X155948096Y-109148571D01*
X155852858Y-109196190D01*
X155471905Y-109196190D01*
X156424286Y-108767619D02*
X156471905Y-108720000D01*
X156567143Y-108672381D01*
X156805239Y-108672381D01*
X156900477Y-108720000D01*
X156948096Y-108767619D01*
X156995715Y-108862857D01*
X156995715Y-108958095D01*
X156948096Y-109100952D01*
X156376667Y-109672381D01*
X156995715Y-109672381D01*
X213129905Y-108656381D02*
X213129905Y-107656381D01*
X213510858Y-107656381D01*
X213606096Y-107704000D01*
X213653715Y-107751619D01*
X213701334Y-107846857D01*
X213701334Y-107989714D01*
X213653715Y-108084952D01*
X213606096Y-108132571D01*
X213510858Y-108180190D01*
X213129905Y-108180190D01*
X214034667Y-107656381D02*
X214653715Y-107656381D01*
X214320381Y-108037333D01*
X214463239Y-108037333D01*
X214558477Y-108084952D01*
X214606096Y-108132571D01*
X214653715Y-108227810D01*
X214653715Y-108465905D01*
X214606096Y-108561143D01*
X214558477Y-108608762D01*
X214463239Y-108656381D01*
X214177524Y-108656381D01*
X214082286Y-108608762D01*
X214034667Y-108561143D01*
X178331905Y-109672381D02*
X178331905Y-108672381D01*
X178712858Y-108672381D01*
X178808096Y-108720000D01*
X178855715Y-108767619D01*
X178903334Y-108862857D01*
X178903334Y-109005714D01*
X178855715Y-109100952D01*
X178808096Y-109148571D01*
X178712858Y-109196190D01*
X178331905Y-109196190D01*
X179760477Y-109005714D02*
X179760477Y-109672381D01*
X179522381Y-108624762D02*
X179284286Y-109339048D01*
X179903334Y-109339048D01*
X145311905Y-109672381D02*
X145311905Y-108672381D01*
X145692858Y-108672381D01*
X145788096Y-108720000D01*
X145835715Y-108767619D01*
X145883334Y-108862857D01*
X145883334Y-109005714D01*
X145835715Y-109100952D01*
X145788096Y-109148571D01*
X145692858Y-109196190D01*
X145311905Y-109196190D01*
X146788096Y-108672381D02*
X146311905Y-108672381D01*
X146264286Y-109148571D01*
X146311905Y-109100952D01*
X146407143Y-109053333D01*
X146645239Y-109053333D01*
X146740477Y-109100952D01*
X146788096Y-109148571D01*
X146835715Y-109243810D01*
X146835715Y-109481905D01*
X146788096Y-109577143D01*
X146740477Y-109624762D01*
X146645239Y-109672381D01*
X146407143Y-109672381D01*
X146311905Y-109624762D01*
X146264286Y-109577143D01*
X197282380Y-68048095D02*
X196282380Y-68048095D01*
X196282380Y-67667142D01*
X196329999Y-67571904D01*
X196377618Y-67524285D01*
X196472856Y-67476666D01*
X196615713Y-67476666D01*
X196710951Y-67524285D01*
X196758570Y-67571904D01*
X196806189Y-67667142D01*
X196806189Y-68048095D01*
X196282380Y-66619523D02*
X196282380Y-66810000D01*
X196329999Y-66905238D01*
X196377618Y-66952857D01*
X196520475Y-67048095D01*
X196710951Y-67095714D01*
X197091904Y-67095714D01*
X197187142Y-67048095D01*
X197234761Y-67000476D01*
X197282380Y-66905238D01*
X197282380Y-66714761D01*
X197234761Y-66619523D01*
X197187142Y-66571904D01*
X197091904Y-66524285D01*
X196853809Y-66524285D01*
X196758570Y-66571904D01*
X196710951Y-66619523D01*
X196663332Y-66714761D01*
X196663332Y-66905238D01*
X196710951Y-67000476D01*
X196758570Y-67048095D01*
X196853809Y-67095714D01*
X180349047Y-68048095D02*
X179349047Y-68048095D01*
X179349047Y-67667142D01*
X179396666Y-67571904D01*
X179444285Y-67524285D01*
X179539523Y-67476666D01*
X179682380Y-67476666D01*
X179777618Y-67524285D01*
X179825237Y-67571904D01*
X179872856Y-67667142D01*
X179872856Y-68048095D01*
X179349047Y-67143333D02*
X179349047Y-66476666D01*
X180349047Y-66905238D01*
X148788381Y-67794095D02*
X147788381Y-67794095D01*
X147788381Y-67413142D01*
X147836000Y-67317904D01*
X147883619Y-67270285D01*
X147978857Y-67222666D01*
X148121714Y-67222666D01*
X148216952Y-67270285D01*
X148264571Y-67317904D01*
X148312190Y-67413142D01*
X148312190Y-67794095D01*
X148216952Y-66651238D02*
X148169333Y-66746476D01*
X148121714Y-66794095D01*
X148026476Y-66841714D01*
X147978857Y-66841714D01*
X147883619Y-66794095D01*
X147836000Y-66746476D01*
X147788381Y-66651238D01*
X147788381Y-66460761D01*
X147836000Y-66365523D01*
X147883619Y-66317904D01*
X147978857Y-66270285D01*
X148026476Y-66270285D01*
X148121714Y-66317904D01*
X148169333Y-66365523D01*
X148216952Y-66460761D01*
X148216952Y-66651238D01*
X148264571Y-66746476D01*
X148312190Y-66794095D01*
X148407429Y-66841714D01*
X148597905Y-66841714D01*
X148693143Y-66794095D01*
X148740762Y-66746476D01*
X148788381Y-66651238D01*
X148788381Y-66460761D01*
X148740762Y-66365523D01*
X148693143Y-66317904D01*
X148597905Y-66270285D01*
X148407429Y-66270285D01*
X148312190Y-66317904D01*
X148264571Y-66365523D01*
X148216952Y-66460761D01*
X163415714Y-68048095D02*
X162415714Y-68048095D01*
X162415714Y-67667142D01*
X162463333Y-67571904D01*
X162510952Y-67524285D01*
X162606190Y-67476666D01*
X162749047Y-67476666D01*
X162844285Y-67524285D01*
X162891904Y-67571904D01*
X162939523Y-67667142D01*
X162939523Y-68048095D01*
X163415714Y-67000476D02*
X163415714Y-66810000D01*
X163368095Y-66714761D01*
X163320476Y-66667142D01*
X163177619Y-66571904D01*
X162987143Y-66524285D01*
X162606190Y-66524285D01*
X162510952Y-66571904D01*
X162463333Y-66619523D01*
X162415714Y-66714761D01*
X162415714Y-66905238D01*
X162463333Y-67000476D01*
X162510952Y-67048095D01*
X162606190Y-67095714D01*
X162844285Y-67095714D01*
X162939523Y-67048095D01*
X162987143Y-67000476D01*
X163034762Y-66905238D01*
X163034762Y-66714761D01*
X162987143Y-66619523D01*
X162939523Y-66571904D01*
X162844285Y-66524285D01*
X168732381Y-106211666D02*
X168256190Y-106545000D01*
X168732381Y-106783095D02*
X167732381Y-106783095D01*
X167732381Y-106402142D01*
X167780000Y-106306904D01*
X167827619Y-106259285D01*
X167922857Y-106211666D01*
X168065714Y-106211666D01*
X168160952Y-106259285D01*
X168208571Y-106306904D01*
X168256190Y-106402142D01*
X168256190Y-106783095D01*
X168732381Y-105259285D02*
X168732381Y-105830714D01*
X168732381Y-105545000D02*
X167732381Y-105545000D01*
X167875238Y-105640238D01*
X167970476Y-105735476D01*
X168018095Y-105830714D01*
X174447381Y-106211666D02*
X173971190Y-106545000D01*
X174447381Y-106783095D02*
X173447381Y-106783095D01*
X173447381Y-106402142D01*
X173495000Y-106306904D01*
X173542619Y-106259285D01*
X173637857Y-106211666D01*
X173780714Y-106211666D01*
X173875952Y-106259285D01*
X173923571Y-106306904D01*
X173971190Y-106402142D01*
X173971190Y-106783095D01*
X173542619Y-105830714D02*
X173495000Y-105783095D01*
X173447381Y-105687857D01*
X173447381Y-105449761D01*
X173495000Y-105354523D01*
X173542619Y-105306904D01*
X173637857Y-105259285D01*
X173733095Y-105259285D01*
X173875952Y-105306904D01*
X174447381Y-105878333D01*
X174447381Y-105259285D01*
X184618334Y-102052381D02*
X184285000Y-101576190D01*
X184046905Y-102052381D02*
X184046905Y-101052381D01*
X184427858Y-101052381D01*
X184523096Y-101100000D01*
X184570715Y-101147619D01*
X184618334Y-101242857D01*
X184618334Y-101385714D01*
X184570715Y-101480952D01*
X184523096Y-101528571D01*
X184427858Y-101576190D01*
X184046905Y-101576190D01*
X184951667Y-101052381D02*
X185570715Y-101052381D01*
X185237381Y-101433333D01*
X185380239Y-101433333D01*
X185475477Y-101480952D01*
X185523096Y-101528571D01*
X185570715Y-101623810D01*
X185570715Y-101861905D01*
X185523096Y-101957143D01*
X185475477Y-102004762D01*
X185380239Y-102052381D01*
X185094524Y-102052381D01*
X184999286Y-102004762D01*
X184951667Y-101957143D01*
X189677381Y-98591666D02*
X189201190Y-98925000D01*
X189677381Y-99163095D02*
X188677381Y-99163095D01*
X188677381Y-98782142D01*
X188725000Y-98686904D01*
X188772619Y-98639285D01*
X188867857Y-98591666D01*
X189010714Y-98591666D01*
X189105952Y-98639285D01*
X189153571Y-98686904D01*
X189201190Y-98782142D01*
X189201190Y-99163095D01*
X189010714Y-97734523D02*
X189677381Y-97734523D01*
X188629762Y-97972619D02*
X189344048Y-98210714D01*
X189344048Y-97591666D01*
X147661334Y-98496381D02*
X147328000Y-98020190D01*
X147089905Y-98496381D02*
X147089905Y-97496381D01*
X147470858Y-97496381D01*
X147566096Y-97544000D01*
X147613715Y-97591619D01*
X147661334Y-97686857D01*
X147661334Y-97829714D01*
X147613715Y-97924952D01*
X147566096Y-97972571D01*
X147470858Y-98020190D01*
X147089905Y-98020190D01*
X148566096Y-97496381D02*
X148089905Y-97496381D01*
X148042286Y-97972571D01*
X148089905Y-97924952D01*
X148185143Y-97877333D01*
X148423239Y-97877333D01*
X148518477Y-97924952D01*
X148566096Y-97972571D01*
X148613715Y-98067810D01*
X148613715Y-98305905D01*
X148566096Y-98401143D01*
X148518477Y-98448762D01*
X148423239Y-98496381D01*
X148185143Y-98496381D01*
X148089905Y-98448762D01*
X148042286Y-98401143D01*
X213812381Y-102274666D02*
X213336190Y-102608000D01*
X213812381Y-102846095D02*
X212812381Y-102846095D01*
X212812381Y-102465142D01*
X212860000Y-102369904D01*
X212907619Y-102322285D01*
X213002857Y-102274666D01*
X213145714Y-102274666D01*
X213240952Y-102322285D01*
X213288571Y-102369904D01*
X213336190Y-102465142D01*
X213336190Y-102846095D01*
X212812381Y-101417523D02*
X212812381Y-101608000D01*
X212860000Y-101703238D01*
X212907619Y-101750857D01*
X213050476Y-101846095D01*
X213240952Y-101893714D01*
X213621905Y-101893714D01*
X213717143Y-101846095D01*
X213764762Y-101798476D01*
X213812381Y-101703238D01*
X213812381Y-101512761D01*
X213764762Y-101417523D01*
X213717143Y-101369904D01*
X213621905Y-101322285D01*
X213383810Y-101322285D01*
X213288571Y-101369904D01*
X213240952Y-101417523D01*
X213193333Y-101512761D01*
X213193333Y-101703238D01*
X213240952Y-101798476D01*
X213288571Y-101846095D01*
X213383810Y-101893714D01*
X206192381Y-102274666D02*
X205716190Y-102608000D01*
X206192381Y-102846095D02*
X205192381Y-102846095D01*
X205192381Y-102465142D01*
X205240000Y-102369904D01*
X205287619Y-102322285D01*
X205382857Y-102274666D01*
X205525714Y-102274666D01*
X205620952Y-102322285D01*
X205668571Y-102369904D01*
X205716190Y-102465142D01*
X205716190Y-102846095D01*
X205192381Y-101941333D02*
X205192381Y-101274666D01*
X206192381Y-101703238D01*
X193127334Y-113990381D02*
X192794000Y-113514190D01*
X192555905Y-113990381D02*
X192555905Y-112990381D01*
X192936858Y-112990381D01*
X193032096Y-113038000D01*
X193079715Y-113085619D01*
X193127334Y-113180857D01*
X193127334Y-113323714D01*
X193079715Y-113418952D01*
X193032096Y-113466571D01*
X192936858Y-113514190D01*
X192555905Y-113514190D01*
X193698762Y-113418952D02*
X193603524Y-113371333D01*
X193555905Y-113323714D01*
X193508286Y-113228476D01*
X193508286Y-113180857D01*
X193555905Y-113085619D01*
X193603524Y-113038000D01*
X193698762Y-112990381D01*
X193889239Y-112990381D01*
X193984477Y-113038000D01*
X194032096Y-113085619D01*
X194079715Y-113180857D01*
X194079715Y-113228476D01*
X194032096Y-113323714D01*
X193984477Y-113371333D01*
X193889239Y-113418952D01*
X193698762Y-113418952D01*
X193603524Y-113466571D01*
X193555905Y-113514190D01*
X193508286Y-113609429D01*
X193508286Y-113799905D01*
X193555905Y-113895143D01*
X193603524Y-113942762D01*
X193698762Y-113990381D01*
X193889239Y-113990381D01*
X193984477Y-113942762D01*
X194032096Y-113895143D01*
X194079715Y-113799905D01*
X194079715Y-113609429D01*
X194032096Y-113514190D01*
X193984477Y-113466571D01*
X193889239Y-113418952D01*
X187793334Y-107772381D02*
X187460000Y-107296190D01*
X187221905Y-107772381D02*
X187221905Y-106772381D01*
X187602858Y-106772381D01*
X187698096Y-106820000D01*
X187745715Y-106867619D01*
X187793334Y-106962857D01*
X187793334Y-107105714D01*
X187745715Y-107200952D01*
X187698096Y-107248571D01*
X187602858Y-107296190D01*
X187221905Y-107296190D01*
X188269524Y-107772381D02*
X188460000Y-107772381D01*
X188555239Y-107724762D01*
X188602858Y-107677143D01*
X188698096Y-107534286D01*
X188745715Y-107343810D01*
X188745715Y-106962857D01*
X188698096Y-106867619D01*
X188650477Y-106820000D01*
X188555239Y-106772381D01*
X188364762Y-106772381D01*
X188269524Y-106820000D01*
X188221905Y-106867619D01*
X188174286Y-106962857D01*
X188174286Y-107200952D01*
X188221905Y-107296190D01*
X188269524Y-107343810D01*
X188364762Y-107391429D01*
X188555239Y-107391429D01*
X188650477Y-107343810D01*
X188698096Y-107296190D01*
X188745715Y-107200952D01*
X202636381Y-100167857D02*
X202160190Y-100501191D01*
X202636381Y-100739286D02*
X201636381Y-100739286D01*
X201636381Y-100358333D01*
X201684000Y-100263095D01*
X201731619Y-100215476D01*
X201826857Y-100167857D01*
X201969714Y-100167857D01*
X202064952Y-100215476D01*
X202112571Y-100263095D01*
X202160190Y-100358333D01*
X202160190Y-100739286D01*
X202636381Y-99215476D02*
X202636381Y-99786905D01*
X202636381Y-99501191D02*
X201636381Y-99501191D01*
X201779238Y-99596429D01*
X201874476Y-99691667D01*
X201922095Y-99786905D01*
X201636381Y-98596429D02*
X201636381Y-98501190D01*
X201684000Y-98405952D01*
X201731619Y-98358333D01*
X201826857Y-98310714D01*
X202017333Y-98263095D01*
X202255429Y-98263095D01*
X202445905Y-98310714D01*
X202541143Y-98358333D01*
X202588762Y-98405952D01*
X202636381Y-98501190D01*
X202636381Y-98596429D01*
X202588762Y-98691667D01*
X202541143Y-98739286D01*
X202445905Y-98786905D01*
X202255429Y-98834524D01*
X202017333Y-98834524D01*
X201826857Y-98786905D01*
X201731619Y-98739286D01*
X201684000Y-98691667D01*
X201636381Y-98596429D01*
X162171143Y-100274381D02*
X161837809Y-99798190D01*
X161599714Y-100274381D02*
X161599714Y-99274381D01*
X161980667Y-99274381D01*
X162075905Y-99322000D01*
X162123524Y-99369619D01*
X162171143Y-99464857D01*
X162171143Y-99607714D01*
X162123524Y-99702952D01*
X162075905Y-99750571D01*
X161980667Y-99798190D01*
X161599714Y-99798190D01*
X163123524Y-100274381D02*
X162552095Y-100274381D01*
X162837809Y-100274381D02*
X162837809Y-99274381D01*
X162742571Y-99417238D01*
X162647333Y-99512476D01*
X162552095Y-99560095D01*
X164075905Y-100274381D02*
X163504476Y-100274381D01*
X163790190Y-100274381D02*
X163790190Y-99274381D01*
X163694952Y-99417238D01*
X163599714Y-99512476D01*
X163504476Y-99560095D01*
X211272381Y-102242857D02*
X210796190Y-102576191D01*
X211272381Y-102814286D02*
X210272381Y-102814286D01*
X210272381Y-102433333D01*
X210320000Y-102338095D01*
X210367619Y-102290476D01*
X210462857Y-102242857D01*
X210605714Y-102242857D01*
X210700952Y-102290476D01*
X210748571Y-102338095D01*
X210796190Y-102433333D01*
X210796190Y-102814286D01*
X211272381Y-101290476D02*
X211272381Y-101861905D01*
X211272381Y-101576191D02*
X210272381Y-101576191D01*
X210415238Y-101671429D01*
X210510476Y-101766667D01*
X210558095Y-101861905D01*
X210367619Y-100909524D02*
X210320000Y-100861905D01*
X210272381Y-100766667D01*
X210272381Y-100528571D01*
X210320000Y-100433333D01*
X210367619Y-100385714D01*
X210462857Y-100338095D01*
X210558095Y-100338095D01*
X210700952Y-100385714D01*
X211272381Y-100957143D01*
X211272381Y-100338095D01*
X208732381Y-102242857D02*
X208256190Y-102576191D01*
X208732381Y-102814286D02*
X207732381Y-102814286D01*
X207732381Y-102433333D01*
X207780000Y-102338095D01*
X207827619Y-102290476D01*
X207922857Y-102242857D01*
X208065714Y-102242857D01*
X208160952Y-102290476D01*
X208208571Y-102338095D01*
X208256190Y-102433333D01*
X208256190Y-102814286D01*
X208732381Y-101290476D02*
X208732381Y-101861905D01*
X208732381Y-101576191D02*
X207732381Y-101576191D01*
X207875238Y-101671429D01*
X207970476Y-101766667D01*
X208018095Y-101861905D01*
X207732381Y-100957143D02*
X207732381Y-100338095D01*
X208113333Y-100671429D01*
X208113333Y-100528571D01*
X208160952Y-100433333D01*
X208208571Y-100385714D01*
X208303810Y-100338095D01*
X208541905Y-100338095D01*
X208637143Y-100385714D01*
X208684762Y-100433333D01*
X208732381Y-100528571D01*
X208732381Y-100814286D01*
X208684762Y-100909524D01*
X208637143Y-100957143D01*
X198747143Y-98242381D02*
X198413809Y-97766190D01*
X198175714Y-98242381D02*
X198175714Y-97242381D01*
X198556667Y-97242381D01*
X198651905Y-97290000D01*
X198699524Y-97337619D01*
X198747143Y-97432857D01*
X198747143Y-97575714D01*
X198699524Y-97670952D01*
X198651905Y-97718571D01*
X198556667Y-97766190D01*
X198175714Y-97766190D01*
X199699524Y-98242381D02*
X199128095Y-98242381D01*
X199413809Y-98242381D02*
X199413809Y-97242381D01*
X199318571Y-97385238D01*
X199223333Y-97480476D01*
X199128095Y-97528095D01*
X200556667Y-97575714D02*
X200556667Y-98242381D01*
X200318571Y-97194762D02*
X200080476Y-97909048D01*
X200699524Y-97909048D01*
X158107143Y-97607381D02*
X157773809Y-97131190D01*
X157535714Y-97607381D02*
X157535714Y-96607381D01*
X157916667Y-96607381D01*
X158011905Y-96655000D01*
X158059524Y-96702619D01*
X158107143Y-96797857D01*
X158107143Y-96940714D01*
X158059524Y-97035952D01*
X158011905Y-97083571D01*
X157916667Y-97131190D01*
X157535714Y-97131190D01*
X159059524Y-97607381D02*
X158488095Y-97607381D01*
X158773809Y-97607381D02*
X158773809Y-96607381D01*
X158678571Y-96750238D01*
X158583333Y-96845476D01*
X158488095Y-96893095D01*
X159964286Y-96607381D02*
X159488095Y-96607381D01*
X159440476Y-97083571D01*
X159488095Y-97035952D01*
X159583333Y-96988333D01*
X159821429Y-96988333D01*
X159916667Y-97035952D01*
X159964286Y-97083571D01*
X160011905Y-97178810D01*
X160011905Y-97416905D01*
X159964286Y-97512143D01*
X159916667Y-97559762D01*
X159821429Y-97607381D01*
X159583333Y-97607381D01*
X159488095Y-97559762D01*
X159440476Y-97512143D01*
X154127381Y-106814857D02*
X153651190Y-107148191D01*
X154127381Y-107386286D02*
X153127381Y-107386286D01*
X153127381Y-107005333D01*
X153175000Y-106910095D01*
X153222619Y-106862476D01*
X153317857Y-106814857D01*
X153460714Y-106814857D01*
X153555952Y-106862476D01*
X153603571Y-106910095D01*
X153651190Y-107005333D01*
X153651190Y-107386286D01*
X154127381Y-105862476D02*
X154127381Y-106433905D01*
X154127381Y-106148191D02*
X153127381Y-106148191D01*
X153270238Y-106243429D01*
X153365476Y-106338667D01*
X153413095Y-106433905D01*
X153127381Y-105005333D02*
X153127381Y-105195810D01*
X153175000Y-105291048D01*
X153222619Y-105338667D01*
X153365476Y-105433905D01*
X153555952Y-105481524D01*
X153936905Y-105481524D01*
X154032143Y-105433905D01*
X154079762Y-105386286D01*
X154127381Y-105291048D01*
X154127381Y-105100571D01*
X154079762Y-105005333D01*
X154032143Y-104957714D01*
X153936905Y-104910095D01*
X153698810Y-104910095D01*
X153603571Y-104957714D01*
X153555952Y-105005333D01*
X153508333Y-105100571D01*
X153508333Y-105291048D01*
X153555952Y-105386286D01*
X153603571Y-105433905D01*
X153698810Y-105481524D01*
X154127381Y-101607857D02*
X153651190Y-101941191D01*
X154127381Y-102179286D02*
X153127381Y-102179286D01*
X153127381Y-101798333D01*
X153175000Y-101703095D01*
X153222619Y-101655476D01*
X153317857Y-101607857D01*
X153460714Y-101607857D01*
X153555952Y-101655476D01*
X153603571Y-101703095D01*
X153651190Y-101798333D01*
X153651190Y-102179286D01*
X154127381Y-100655476D02*
X154127381Y-101226905D01*
X154127381Y-100941191D02*
X153127381Y-100941191D01*
X153270238Y-101036429D01*
X153365476Y-101131667D01*
X153413095Y-101226905D01*
X153127381Y-100322143D02*
X153127381Y-99655476D01*
X154127381Y-100084048D01*
X191643095Y-99147381D02*
X191643095Y-99956905D01*
X191690714Y-100052143D01*
X191738333Y-100099762D01*
X191833571Y-100147381D01*
X192024048Y-100147381D01*
X192119286Y-100099762D01*
X192166905Y-100052143D01*
X192214524Y-99956905D01*
X192214524Y-99147381D01*
X192643095Y-99242619D02*
X192690714Y-99195000D01*
X192785952Y-99147381D01*
X193024048Y-99147381D01*
X193119286Y-99195000D01*
X193166905Y-99242619D01*
X193214524Y-99337857D01*
X193214524Y-99433095D01*
X193166905Y-99575952D01*
X192595476Y-100147381D01*
X193214524Y-100147381D01*
X145756381Y-103631905D02*
X146565905Y-103631905D01*
X146661143Y-103584286D01*
X146708762Y-103536667D01*
X146756381Y-103441429D01*
X146756381Y-103250952D01*
X146708762Y-103155714D01*
X146661143Y-103108095D01*
X146565905Y-103060476D01*
X145756381Y-103060476D01*
X146089714Y-102155714D02*
X146756381Y-102155714D01*
X145708762Y-102393810D02*
X146423048Y-102631905D01*
X146423048Y-102012857D01*
X202237143Y-114657143D02*
X202189524Y-114704762D01*
X202046667Y-114752381D01*
X201951429Y-114752381D01*
X201808571Y-114704762D01*
X201713333Y-114609524D01*
X201665714Y-114514286D01*
X201618095Y-114323810D01*
X201618095Y-114180952D01*
X201665714Y-113990476D01*
X201713333Y-113895238D01*
X201808571Y-113800000D01*
X201951429Y-113752381D01*
X202046667Y-113752381D01*
X202189524Y-113800000D01*
X202237143Y-113847619D01*
X203189524Y-114752381D02*
X202618095Y-114752381D01*
X202903809Y-114752381D02*
X202903809Y-113752381D01*
X202808571Y-113895238D01*
X202713333Y-113990476D01*
X202618095Y-114038095D01*
X203522857Y-113752381D02*
X204189524Y-113752381D01*
X203760952Y-114752381D01*
X202303143Y-109069143D02*
X202255524Y-109116762D01*
X202112667Y-109164381D01*
X202017429Y-109164381D01*
X201874571Y-109116762D01*
X201779333Y-109021524D01*
X201731714Y-108926286D01*
X201684095Y-108735810D01*
X201684095Y-108592952D01*
X201731714Y-108402476D01*
X201779333Y-108307238D01*
X201874571Y-108212000D01*
X202017429Y-108164381D01*
X202112667Y-108164381D01*
X202255524Y-108212000D01*
X202303143Y-108259619D01*
X203255524Y-109164381D02*
X202684095Y-109164381D01*
X202969809Y-109164381D02*
X202969809Y-108164381D01*
X202874571Y-108307238D01*
X202779333Y-108402476D01*
X202684095Y-108450095D01*
X203826952Y-108592952D02*
X203731714Y-108545333D01*
X203684095Y-108497714D01*
X203636476Y-108402476D01*
X203636476Y-108354857D01*
X203684095Y-108259619D01*
X203731714Y-108212000D01*
X203826952Y-108164381D01*
X204017429Y-108164381D01*
X204112667Y-108212000D01*
X204160286Y-108259619D01*
X204207905Y-108354857D01*
X204207905Y-108402476D01*
X204160286Y-108497714D01*
X204112667Y-108545333D01*
X204017429Y-108592952D01*
X203826952Y-108592952D01*
X203731714Y-108640571D01*
X203684095Y-108688190D01*
X203636476Y-108783429D01*
X203636476Y-108973905D01*
X203684095Y-109069143D01*
X203731714Y-109116762D01*
X203826952Y-109164381D01*
X204017429Y-109164381D01*
X204112667Y-109116762D01*
X204160286Y-109069143D01*
X204207905Y-108973905D01*
X204207905Y-108783429D01*
X204160286Y-108688190D01*
X204112667Y-108640571D01*
X204017429Y-108592952D01*
X200001143Y-109100857D02*
X200048762Y-109148476D01*
X200096381Y-109291333D01*
X200096381Y-109386571D01*
X200048762Y-109529429D01*
X199953524Y-109624667D01*
X199858286Y-109672286D01*
X199667810Y-109719905D01*
X199524952Y-109719905D01*
X199334476Y-109672286D01*
X199239238Y-109624667D01*
X199144000Y-109529429D01*
X199096381Y-109386571D01*
X199096381Y-109291333D01*
X199144000Y-109148476D01*
X199191619Y-109100857D01*
X199191619Y-108719905D02*
X199144000Y-108672286D01*
X199096381Y-108577048D01*
X199096381Y-108338952D01*
X199144000Y-108243714D01*
X199191619Y-108196095D01*
X199286857Y-108148476D01*
X199382095Y-108148476D01*
X199524952Y-108196095D01*
X200096381Y-108767524D01*
X200096381Y-108148476D01*
X199096381Y-107529429D02*
X199096381Y-107434190D01*
X199144000Y-107338952D01*
X199191619Y-107291333D01*
X199286857Y-107243714D01*
X199477333Y-107196095D01*
X199715429Y-107196095D01*
X199905905Y-107243714D01*
X200001143Y-107291333D01*
X200048762Y-107338952D01*
X200096381Y-107434190D01*
X200096381Y-107529429D01*
X200048762Y-107624667D01*
X200001143Y-107672286D01*
X199905905Y-107719905D01*
X199715429Y-107767524D01*
X199477333Y-107767524D01*
X199286857Y-107719905D01*
X199191619Y-107672286D01*
X199144000Y-107624667D01*
X199096381Y-107529429D01*
M02*
