G04 #@! TF.FileFunction,Copper,L1,Top,Signal*
%FSLAX46Y46*%
G04 Gerber Fmt 4.6, Leading zero omitted, Abs format (unit mm)*
G04 Created by KiCad (PCBNEW (2015-10-25 BZR 6279)-product) date Monday 26. October 2015 20.42.08*
%MOMM*%
G01*
G04 APERTURE LIST*
%ADD10C,0.100000*%
%ADD11C,2.100000*%
%ADD12C,1.501140*%
%ADD13R,1.200000X0.750000*%
%ADD14R,0.750000X1.200000*%
%ADD15R,1.727200X2.032000*%
%ADD16O,1.727200X2.032000*%
%ADD17R,1.727200X1.727200*%
%ADD18O,1.727200X1.727200*%
%ADD19R,2.032000X2.032000*%
%ADD20O,2.032000X2.032000*%
%ADD21R,0.900000X1.200000*%
%ADD22R,1.200000X0.900000*%
%ADD23R,1.500000X0.600000*%
%ADD24R,0.600000X1.550000*%
%ADD25C,0.600000*%
%ADD26C,0.250000*%
%ADD27C,0.120000*%
G04 APERTURE END LIST*
D10*
D11*
X160940000Y-75180000D03*
X160940000Y-87380000D03*
X148940000Y-75180000D03*
X148940000Y-87380000D03*
X154940000Y-73180000D03*
D12*
X169545000Y-92710000D03*
X169545000Y-95250000D03*
X149860000Y-92710000D03*
X149860000Y-95250000D03*
X187325000Y-92710000D03*
X187325000Y-95250000D03*
X180975000Y-92710000D03*
X180975000Y-95250000D03*
D13*
X195580000Y-111760000D03*
X197480000Y-111760000D03*
D12*
X175260000Y-92710000D03*
X175260000Y-95250000D03*
X163830000Y-92710000D03*
X163830000Y-95250000D03*
X203835000Y-92710000D03*
X203835000Y-95250000D03*
X209550000Y-92710000D03*
X209550000Y-95250000D03*
X156210000Y-95250000D03*
X156210000Y-92710000D03*
D13*
X194630000Y-99695000D03*
X196530000Y-99695000D03*
D14*
X157480000Y-106934000D03*
X157480000Y-105034000D03*
X157480000Y-100015000D03*
X157480000Y-101915000D03*
D11*
X193960000Y-75430000D03*
X193960000Y-87630000D03*
X181960000Y-75430000D03*
X181960000Y-87630000D03*
X187960000Y-73430000D03*
X177450000Y-75180000D03*
X177450000Y-87380000D03*
X165450000Y-75180000D03*
X165450000Y-87380000D03*
X171450000Y-73180000D03*
X210470000Y-75180000D03*
X210470000Y-87380000D03*
X198470000Y-75180000D03*
X198470000Y-87380000D03*
X204470000Y-73180000D03*
D15*
X170180000Y-111760000D03*
D16*
X172720000Y-111760000D03*
X175260000Y-111760000D03*
D15*
X158750000Y-111760000D03*
D16*
X161290000Y-111760000D03*
X163830000Y-111760000D03*
D17*
X207010000Y-113030000D03*
D18*
X207010000Y-110490000D03*
X209550000Y-113030000D03*
X209550000Y-110490000D03*
X212090000Y-113030000D03*
X212090000Y-110490000D03*
D19*
X181610000Y-111760000D03*
D20*
X184150000Y-111760000D03*
D19*
X148590000Y-111760000D03*
D20*
X151130000Y-111760000D03*
D15*
X201929999Y-67310000D03*
D16*
X204469999Y-67310000D03*
X207009999Y-67310000D03*
X209549999Y-67310000D03*
D15*
X184996666Y-67310000D03*
D16*
X187536666Y-67310000D03*
X190076666Y-67310000D03*
X192616666Y-67310000D03*
D15*
X151130000Y-67310000D03*
D16*
X153670000Y-67310000D03*
X156210000Y-67310000D03*
X158750000Y-67310000D03*
D15*
X168063333Y-67310000D03*
D16*
X170603333Y-67310000D03*
X173143333Y-67310000D03*
X175683333Y-67310000D03*
D21*
X170180000Y-107145000D03*
X170180000Y-104945000D03*
X175895000Y-107145000D03*
X175895000Y-104945000D03*
D22*
X187030000Y-101600000D03*
X189230000Y-101600000D03*
D21*
X187325000Y-97325000D03*
X187325000Y-99525000D03*
D22*
X152230000Y-97790000D03*
X150030000Y-97790000D03*
D21*
X213360000Y-104480000D03*
X213360000Y-106680000D03*
X205740000Y-104480000D03*
X205740000Y-106680000D03*
D22*
X195285000Y-113665000D03*
X197485000Y-113665000D03*
X186860000Y-109220000D03*
X189060000Y-109220000D03*
D21*
X203835000Y-98425000D03*
X203835000Y-100625000D03*
D22*
X163490000Y-97790000D03*
X161290000Y-97790000D03*
D21*
X210820000Y-104140000D03*
X210820000Y-106340000D03*
X208280000Y-104140000D03*
X208280000Y-106340000D03*
D22*
X194650000Y-97790000D03*
X196850000Y-97790000D03*
D21*
X160020000Y-92880000D03*
X160020000Y-95080000D03*
X155575000Y-106975000D03*
X155575000Y-104775000D03*
X155575000Y-102235000D03*
X155575000Y-100035000D03*
D23*
X191610000Y-101600000D03*
X191610000Y-102870000D03*
X191610000Y-104140000D03*
X191610000Y-105410000D03*
X191610000Y-106680000D03*
X191610000Y-107950000D03*
X191610000Y-109220000D03*
X197010000Y-109220000D03*
X197010000Y-107950000D03*
X197010000Y-106680000D03*
X197010000Y-105410000D03*
X197010000Y-104140000D03*
X197010000Y-102870000D03*
X197010000Y-101600000D03*
D24*
X151765000Y-100170000D03*
X150495000Y-100170000D03*
X149225000Y-100170000D03*
X147955000Y-100170000D03*
X147955000Y-105570000D03*
X149225000Y-105570000D03*
X150495000Y-105570000D03*
X151765000Y-105570000D03*
D13*
X203830000Y-112776000D03*
X201930000Y-112776000D03*
X203896000Y-110236000D03*
X201996000Y-110236000D03*
D14*
X199644000Y-112710000D03*
X199644000Y-110810000D03*
D25*
X182050571Y-96325571D03*
X189230000Y-102870000D03*
X156845000Y-103505000D03*
X198120000Y-109220000D03*
X180975000Y-97155000D03*
X188595000Y-107950000D03*
X165735000Y-106045000D03*
X166878000Y-96774000D03*
X198120000Y-110744000D03*
X158750000Y-104648000D03*
X173228000Y-104648000D03*
X163068000Y-74930000D03*
X179274419Y-87630000D03*
X177800000Y-95758000D03*
X179578000Y-75438000D03*
X179641954Y-77724000D03*
X174244000Y-75805361D03*
X196596000Y-110490000D03*
X188976000Y-96774000D03*
X185928000Y-96774000D03*
X184869757Y-97832243D03*
X182880000Y-99822000D03*
X199390000Y-90170000D03*
X202946000Y-90170000D03*
X202438000Y-88379991D03*
X196596000Y-78740000D03*
X177800000Y-83566000D03*
X186690000Y-107442000D03*
X177292000Y-108712000D03*
X173228000Y-108712000D03*
X169164000Y-109220000D03*
X164084000Y-108204000D03*
X188976000Y-76200000D03*
X164592000Y-99060000D03*
X150368000Y-103632000D03*
X161544000Y-101600000D03*
X161544000Y-105664000D03*
X176276000Y-99568000D03*
X176276000Y-102108000D03*
X178816000Y-103124000D03*
X184404000Y-104765010D03*
X195580000Y-105156000D03*
X190500000Y-112776000D03*
X184404000Y-90424000D03*
X188468000Y-90424000D03*
X188468000Y-87376000D03*
X184404000Y-87376000D03*
X193040000Y-73152000D03*
X190500000Y-73660000D03*
X189992000Y-78740000D03*
X156972000Y-75184000D03*
X174244000Y-73660000D03*
X184404000Y-74168000D03*
X184404000Y-78740000D03*
X174244000Y-77724000D03*
X168148000Y-81280000D03*
X157480000Y-81280000D03*
X154940000Y-81280000D03*
X174625000Y-105410000D03*
X200914000Y-112776000D03*
X200914000Y-110236000D03*
X198120000Y-106680000D03*
X186612418Y-103495010D03*
X204470000Y-106680000D03*
X189230000Y-99695000D03*
X203962000Y-109220000D03*
X203835000Y-101600000D03*
X186055000Y-109220000D03*
X149225000Y-99060000D03*
X154305000Y-102235000D03*
D26*
X189230000Y-102870000D02*
X189230000Y-101600000D01*
X169545000Y-95250000D02*
X170620571Y-94174429D01*
X170620571Y-94174429D02*
X178307583Y-94174429D01*
X178307583Y-94174429D02*
X180458725Y-96325571D01*
X180458725Y-96325571D02*
X182050571Y-96325571D01*
X191610000Y-101600000D02*
X189230000Y-101600000D01*
X191610000Y-102870000D02*
X191610000Y-101600000D01*
X191610000Y-104140000D02*
X177361412Y-104140000D01*
X177361412Y-104140000D02*
X176726412Y-103505000D01*
X176726412Y-103505000D02*
X156845000Y-103505000D01*
X149860000Y-95250000D02*
X152230000Y-97620000D01*
X152230000Y-97620000D02*
X152230000Y-97790000D01*
X187325000Y-95250000D02*
X187325000Y-97325000D01*
X197010000Y-109220000D02*
X198120000Y-109220000D01*
X197480000Y-111760000D02*
X197480000Y-109690000D01*
X197480000Y-109690000D02*
X197010000Y-109220000D01*
X197485000Y-113665000D02*
X197485000Y-111765000D01*
X197485000Y-111765000D02*
X197480000Y-111760000D01*
X195285000Y-113665000D02*
X195285000Y-112055000D01*
X195285000Y-112055000D02*
X195580000Y-111760000D01*
X197010000Y-107950000D02*
X196560000Y-107950000D01*
X196560000Y-107950000D02*
X195580000Y-108930000D01*
X195580000Y-108930000D02*
X195580000Y-111135000D01*
X195580000Y-111135000D02*
X195580000Y-111760000D01*
X205740000Y-104480000D02*
X205040000Y-104480000D01*
X205040000Y-104480000D02*
X201570000Y-107950000D01*
X201570000Y-107950000D02*
X198010000Y-107950000D01*
X198010000Y-107950000D02*
X197010000Y-107950000D01*
X205740000Y-104480000D02*
X206440000Y-104480000D01*
X206440000Y-104480000D02*
X207290000Y-105330000D01*
X207290000Y-105330000D02*
X211810000Y-105330000D01*
X211810000Y-105330000D02*
X212660000Y-104480000D01*
X212660000Y-104480000D02*
X213360000Y-104480000D01*
X180975000Y-97155000D02*
X177165000Y-97155000D01*
X177165000Y-97155000D02*
X175260000Y-95250000D01*
X189060000Y-109220000D02*
X189060000Y-108415000D01*
X189060000Y-108415000D02*
X188595000Y-107950000D01*
X191610000Y-107950000D02*
X191610000Y-109220000D01*
X191610000Y-109220000D02*
X189060000Y-109220000D01*
X191610000Y-106680000D02*
X190610000Y-106680000D01*
X190610000Y-106680000D02*
X189975000Y-106045000D01*
X189975000Y-106045000D02*
X165735000Y-106045000D01*
X163830000Y-95250000D02*
X163830000Y-97450000D01*
X163830000Y-97450000D02*
X163490000Y-97790000D01*
X203835000Y-95250000D02*
X203835000Y-98425000D01*
X196850000Y-97790000D02*
X196850000Y-97090000D01*
X208799431Y-94499431D02*
X209550000Y-95250000D01*
X196850000Y-97090000D02*
X199765571Y-94174429D01*
X199765571Y-94174429D02*
X208474429Y-94174429D01*
X208474429Y-94174429D02*
X208799431Y-94499431D01*
X196530000Y-99695000D02*
X196530000Y-98110000D01*
X196530000Y-98110000D02*
X196850000Y-97790000D01*
X197010000Y-101600000D02*
X197010000Y-100175000D01*
X197010000Y-100175000D02*
X196530000Y-99695000D01*
X164592000Y-99060000D02*
X166878000Y-96774000D01*
X185525860Y-108606140D02*
X186690000Y-107442000D01*
X177292000Y-108712000D02*
X185420000Y-108712000D01*
X185420000Y-108712000D02*
X185525860Y-108606140D01*
X199644000Y-110810000D02*
X198186000Y-110810000D01*
X198186000Y-110810000D02*
X198120000Y-110744000D01*
X158750000Y-104648000D02*
X157866000Y-104648000D01*
X157866000Y-104648000D02*
X157480000Y-105034000D01*
X179641954Y-77724000D02*
X183388000Y-77724000D01*
X174244000Y-77724000D02*
X179641954Y-77724000D01*
X190500000Y-112776000D02*
X192164001Y-114440001D01*
X192164001Y-114440001D02*
X196145001Y-114440001D01*
X196145001Y-114440001D02*
X196505001Y-114080001D01*
X196505001Y-114080001D02*
X196505001Y-110580999D01*
X196505001Y-110580999D02*
X196596000Y-110490000D01*
X184869757Y-97832243D02*
X185928000Y-96774000D01*
X182880000Y-99822000D02*
X184869757Y-97832243D01*
X202946000Y-90170000D02*
X199390000Y-90170000D01*
X196596000Y-78740000D02*
X196596000Y-82537991D01*
X196596000Y-82537991D02*
X202438000Y-88379991D01*
X189992000Y-78740000D02*
X196596000Y-78740000D01*
X168148000Y-81280000D02*
X175514000Y-81280000D01*
X175514000Y-81280000D02*
X177800000Y-83566000D01*
X164084000Y-108204000D02*
X168148000Y-108204000D01*
X168148000Y-108204000D02*
X169164000Y-109220000D01*
X155448000Y-112597398D02*
X155448000Y-111760000D01*
X155448000Y-111760000D02*
X161544000Y-105664000D01*
X155410028Y-113665000D02*
X149229000Y-113665000D01*
X173491676Y-113665000D02*
X155410028Y-113665000D01*
X155410028Y-113665000D02*
X155410028Y-112635370D01*
X155410028Y-112635370D02*
X155448000Y-112597398D01*
X178816000Y-103124000D02*
X177800000Y-102108000D01*
X177800000Y-102108000D02*
X176276000Y-102108000D01*
X195580000Y-105156000D02*
X195208999Y-104784999D01*
X195208999Y-104784999D02*
X184423989Y-104784999D01*
X184423989Y-104784999D02*
X184404000Y-104765010D01*
X197010000Y-105410000D02*
X195834000Y-105410000D01*
X195834000Y-105410000D02*
X195580000Y-105156000D01*
X189862110Y-112602892D02*
X188800002Y-113665000D01*
X192685001Y-109780001D02*
X189862110Y-112602892D01*
X189862110Y-112602892D02*
X190326892Y-112602892D01*
X190326892Y-112602892D02*
X190500000Y-112776000D01*
X188800002Y-113665000D02*
X188351461Y-113665000D01*
X188351461Y-113665000D02*
X173491676Y-113665000D01*
X181610000Y-111760000D02*
X181610000Y-113026000D01*
X181610000Y-113026000D02*
X182249000Y-113665000D01*
X182249000Y-113665000D02*
X188351461Y-113665000D01*
X188468000Y-90424000D02*
X184404000Y-90424000D01*
X184404000Y-87376000D02*
X188468000Y-87376000D01*
X190500000Y-73660000D02*
X191008000Y-73152000D01*
X191008000Y-73152000D02*
X193040000Y-73152000D01*
X184404000Y-78740000D02*
X189992000Y-78740000D01*
X183388000Y-77724000D02*
X184404000Y-78740000D01*
X168148000Y-81280000D02*
X170688000Y-81280000D01*
X170688000Y-81280000D02*
X174244000Y-77724000D01*
X157480000Y-81280000D02*
X168148000Y-81280000D01*
X154940000Y-81280000D02*
X157480000Y-81280000D01*
X147329999Y-81387970D02*
X147329999Y-72376001D01*
X147329999Y-109233999D02*
X147329999Y-81387970D01*
X147329999Y-81387970D02*
X154832030Y-81387970D01*
X154832030Y-81387970D02*
X154940000Y-81280000D01*
X189984501Y-65968990D02*
X201849946Y-65968990D01*
X201849946Y-65968990D02*
X205821389Y-65968990D01*
X201929999Y-67310000D02*
X201929999Y-66044000D01*
X201929999Y-66044000D02*
X201854989Y-65968990D01*
X201854989Y-65968990D02*
X201849946Y-65968990D01*
X185121034Y-65968990D02*
X189984501Y-65968990D01*
X190076666Y-66044000D02*
X190001656Y-65968990D01*
X190076666Y-67310000D02*
X190076666Y-66044000D01*
X190001656Y-65968990D02*
X189984501Y-65968990D01*
X173099799Y-65968990D02*
X185121034Y-65968990D01*
X184996666Y-67310000D02*
X184996666Y-66044000D01*
X184996666Y-66044000D02*
X185071676Y-65968990D01*
X185071676Y-65968990D02*
X185121034Y-65968990D01*
X167967240Y-65968990D02*
X173099799Y-65968990D01*
X173143333Y-67310000D02*
X173143333Y-66044000D01*
X173099799Y-66000466D02*
X173099799Y-65968990D01*
X173143333Y-66044000D02*
X173099799Y-66000466D01*
X156225880Y-65968990D02*
X167967240Y-65968990D01*
X168063333Y-67310000D02*
X168063333Y-66044000D01*
X168063333Y-66044000D02*
X167988323Y-65968990D01*
X167988323Y-65968990D02*
X167967240Y-65968990D01*
X151205010Y-65968990D02*
X156225880Y-65968990D01*
X156210000Y-67310000D02*
X156210000Y-66044000D01*
X156210000Y-66044000D02*
X156225880Y-66028120D01*
X156225880Y-66028120D02*
X156225880Y-65968990D01*
X151130000Y-67310000D02*
X151130000Y-66044000D01*
X151130000Y-66044000D02*
X151205010Y-65968990D01*
X205821389Y-65968990D02*
X207009999Y-67157600D01*
X207009999Y-67157600D02*
X207009999Y-67310000D01*
X148590000Y-111760000D02*
X148590000Y-110494000D01*
X148590000Y-110494000D02*
X147329999Y-109233999D01*
X147329999Y-72376001D02*
X151130000Y-68576000D01*
X151130000Y-68576000D02*
X151130000Y-67310000D01*
X172720000Y-113665000D02*
X173491676Y-113665000D01*
X172720000Y-111760000D02*
X172720000Y-113665000D01*
X181610000Y-111760000D02*
X181610000Y-113450337D01*
X181610000Y-113665000D02*
X181610000Y-113450337D01*
X149229000Y-113665000D02*
X148590000Y-113026000D01*
X148590000Y-113026000D02*
X148590000Y-111760000D01*
X197010000Y-105410000D02*
X196560000Y-105410000D01*
X196560000Y-105410000D02*
X192685001Y-109284999D01*
X192685001Y-109284999D02*
X192685001Y-109780001D01*
X157480000Y-100015000D02*
X155595000Y-100015000D01*
X155595000Y-100015000D02*
X155575000Y-100035000D01*
X156210000Y-95250000D02*
X159850000Y-95250000D01*
X159850000Y-95250000D02*
X160020000Y-95080000D01*
X147955000Y-100170000D02*
X147955000Y-101195000D01*
X147955000Y-101195000D02*
X147329999Y-101820001D01*
X147329999Y-101820001D02*
X147329999Y-109233999D01*
X156210000Y-95250000D02*
X155134429Y-94174429D01*
X155134429Y-94174429D02*
X149343725Y-94174429D01*
X149343725Y-94174429D02*
X147955000Y-95563154D01*
X147955000Y-95563154D02*
X147955000Y-99145000D01*
X147955000Y-99145000D02*
X147955000Y-100170000D01*
X155575000Y-100035000D02*
X155575000Y-95885000D01*
X155575000Y-95885000D02*
X156210000Y-95250000D01*
X177450000Y-75180000D02*
X167485002Y-75180000D01*
X167485002Y-75180000D02*
X166110001Y-73804999D01*
X166110001Y-73804999D02*
X162315001Y-73804999D01*
X162315001Y-73804999D02*
X161989999Y-74130001D01*
X161989999Y-74130001D02*
X160940000Y-75180000D01*
X193960000Y-75430000D02*
X183995002Y-75430000D01*
X183995002Y-75430000D02*
X182620001Y-74054999D01*
X182620001Y-74054999D02*
X178575001Y-74054999D01*
X178575001Y-74054999D02*
X178499999Y-74130001D01*
X178499999Y-74130001D02*
X177450000Y-75180000D01*
X210470000Y-75180000D02*
X200505002Y-75180000D01*
X200505002Y-75180000D02*
X199130001Y-73804999D01*
X199130001Y-73804999D02*
X195585001Y-73804999D01*
X195585001Y-73804999D02*
X195009999Y-74380001D01*
X195009999Y-74380001D02*
X193960000Y-75430000D01*
X156210000Y-92710000D02*
X159850000Y-92710000D01*
X159850000Y-92710000D02*
X160020000Y-92880000D01*
X194630000Y-99695000D02*
X194630000Y-100940000D01*
X194630000Y-100940000D02*
X196560000Y-102870000D01*
X196560000Y-102870000D02*
X197010000Y-102870000D01*
X194650000Y-97790000D02*
X194650000Y-99675000D01*
X194650000Y-99675000D02*
X194630000Y-99695000D01*
X208280000Y-104140000D02*
X207580000Y-104140000D01*
X207580000Y-104140000D02*
X206310000Y-102870000D01*
X206310000Y-102870000D02*
X198010000Y-102870000D01*
X198010000Y-102870000D02*
X197010000Y-102870000D01*
X208280000Y-104140000D02*
X210820000Y-104140000D01*
X176605001Y-104019999D02*
X161031791Y-104019999D01*
X157480000Y-106934000D02*
X158105000Y-106934000D01*
X158105000Y-106934000D02*
X161019001Y-104019999D01*
X161019001Y-104019999D02*
X161031791Y-104019999D01*
X155575000Y-106975000D02*
X157439000Y-106975000D01*
X157439000Y-106975000D02*
X157480000Y-106934000D01*
X191610000Y-105410000D02*
X177995002Y-105410000D01*
X177995002Y-105410000D02*
X176605001Y-104019999D01*
X151765000Y-105570000D02*
X151765000Y-111125000D01*
X151765000Y-111125000D02*
X151130000Y-111760000D01*
X155575000Y-106975000D02*
X152695000Y-106975000D01*
X152695000Y-106975000D02*
X151765000Y-106045000D01*
X151765000Y-106045000D02*
X151765000Y-105570000D01*
X165450000Y-75180000D02*
X163965076Y-75180000D01*
X163965076Y-75180000D02*
X162590075Y-76555001D01*
X162590075Y-76555001D02*
X150315001Y-76555001D01*
X149989999Y-76229999D02*
X148940000Y-75180000D01*
X150315001Y-76555001D02*
X149989999Y-76229999D01*
X165450000Y-75180000D02*
X166825001Y-76555001D01*
X166825001Y-76555001D02*
X180834999Y-76555001D01*
X180834999Y-76555001D02*
X180910001Y-76479999D01*
X180910001Y-76479999D02*
X181960000Y-75430000D01*
X181960000Y-75430000D02*
X184000000Y-77470000D01*
X184000000Y-77470000D02*
X196180000Y-77470000D01*
X196180000Y-77470000D02*
X197420001Y-76229999D01*
X197420001Y-76229999D02*
X198470000Y-75180000D01*
X174625000Y-105410000D02*
X175430000Y-105410000D01*
X175430000Y-105410000D02*
X175895000Y-104945000D01*
X160940000Y-87380000D02*
X162315001Y-86004999D01*
X162315001Y-86004999D02*
X192334999Y-86004999D01*
X192334999Y-86004999D02*
X192910001Y-86580001D01*
X192910001Y-86580001D02*
X193960000Y-87630000D01*
X153670000Y-67310000D02*
X153670000Y-71910000D01*
X153670000Y-71910000D02*
X154940000Y-73180000D01*
X187960000Y-73430000D02*
X192738999Y-68651001D01*
X192738999Y-68651001D02*
X203281398Y-68651001D01*
X203281398Y-68651001D02*
X204469999Y-67462400D01*
X204469999Y-67462400D02*
X204469999Y-67310000D01*
X177450000Y-87380000D02*
X179075001Y-89005001D01*
X179075001Y-89005001D02*
X208844999Y-89005001D01*
X208844999Y-89005001D02*
X209420001Y-88429999D01*
X209420001Y-88429999D02*
X210470000Y-87380000D01*
X158750000Y-67310000D02*
X165580000Y-67310000D01*
X165580000Y-67310000D02*
X171450000Y-73180000D01*
X209549999Y-67310000D02*
X209549999Y-67462400D01*
X209549999Y-67462400D02*
X204470000Y-72542399D01*
X204470000Y-72542399D02*
X204470000Y-73180000D01*
X170180000Y-107145000D02*
X170180000Y-111760000D01*
X175895000Y-107145000D02*
X175895000Y-111125000D01*
X175895000Y-111125000D02*
X175260000Y-111760000D01*
X158750000Y-111760000D02*
X158750000Y-111607600D01*
X158750000Y-111607600D02*
X165412600Y-104945000D01*
X165412600Y-104945000D02*
X169480000Y-104945000D01*
X169480000Y-104945000D02*
X170180000Y-104945000D01*
X161290000Y-111607600D02*
X161290000Y-111760000D01*
X199644000Y-112710000D02*
X200848000Y-112710000D01*
X200848000Y-112710000D02*
X200914000Y-112776000D01*
X209550000Y-113030000D02*
X208280000Y-114300000D01*
X208280000Y-114300000D02*
X203679000Y-114300000D01*
X203679000Y-114300000D02*
X202155000Y-112776000D01*
X202155000Y-112776000D02*
X201930000Y-112776000D01*
X201930000Y-112776000D02*
X201930000Y-110302000D01*
X201930000Y-110302000D02*
X201996000Y-110236000D01*
X200914000Y-110236000D02*
X200914000Y-112776000D01*
X198120000Y-106680000D02*
X197010000Y-106680000D01*
X209550000Y-110490000D02*
X209550000Y-113030000D01*
X197010000Y-104140000D02*
X196560000Y-104140000D01*
X161440000Y-97790000D02*
X161290000Y-97790000D01*
X196560000Y-104140000D02*
X193244999Y-100824999D01*
X193244999Y-100824999D02*
X164474999Y-100824999D01*
X164474999Y-100824999D02*
X161440000Y-97790000D01*
X161290000Y-97790000D02*
X161140000Y-97790000D01*
X161140000Y-97790000D02*
X157969999Y-100960001D01*
X157969999Y-100960001D02*
X153105001Y-100960001D01*
X153105001Y-100960001D02*
X152315000Y-100170000D01*
X152315000Y-100170000D02*
X151765000Y-100170000D01*
X150495000Y-100170000D02*
X150495000Y-98255000D01*
X150495000Y-98255000D02*
X150030000Y-97790000D01*
X150495000Y-101600000D02*
X147955000Y-104140000D01*
X147955000Y-104140000D02*
X147955000Y-105570000D01*
X150495000Y-100170000D02*
X151765000Y-100170000D01*
X150495000Y-101600000D02*
X150495000Y-100170000D01*
X197010000Y-104140000D02*
X197460000Y-104140000D01*
X197460000Y-104140000D02*
X198085001Y-104765001D01*
X198085001Y-104765001D02*
X198085001Y-106054999D01*
X198085001Y-106054999D02*
X197460000Y-106680000D01*
X197460000Y-106680000D02*
X197010000Y-106680000D01*
X149225000Y-105570000D02*
X150495000Y-105570000D01*
X187030000Y-101600000D02*
X187030000Y-103077428D01*
X187030000Y-103077428D02*
X186612418Y-103495010D01*
X212090000Y-113030000D02*
X213360000Y-111760000D01*
X213360000Y-111760000D02*
X213360000Y-106680000D01*
X203830000Y-112776000D02*
X206756000Y-112776000D01*
X206756000Y-112776000D02*
X207010000Y-113030000D01*
X204470000Y-106680000D02*
X205740000Y-106680000D01*
X187325000Y-99525000D02*
X189060000Y-99525000D01*
X189060000Y-99525000D02*
X189230000Y-99695000D01*
X207010000Y-113030000D02*
X205896400Y-113030000D01*
X205896400Y-113030000D02*
X205740000Y-112873600D01*
X205740000Y-112873600D02*
X205740000Y-107530000D01*
X205740000Y-107530000D02*
X205740000Y-106680000D01*
X203962000Y-109220000D02*
X203962000Y-110170000D01*
X203962000Y-110170000D02*
X203896000Y-110236000D01*
X203835000Y-101600000D02*
X203835000Y-100625000D01*
X207010000Y-110490000D02*
X207010000Y-106910000D01*
X207010000Y-106910000D02*
X207580000Y-106340000D01*
X207580000Y-106340000D02*
X208280000Y-106340000D01*
X186860000Y-109220000D02*
X186055000Y-109220000D01*
X212090000Y-110490000D02*
X212090000Y-106910000D01*
X212090000Y-106910000D02*
X211520000Y-106340000D01*
X211520000Y-106340000D02*
X210820000Y-106340000D01*
X155575000Y-102235000D02*
X157160000Y-102235000D01*
X157160000Y-102235000D02*
X157480000Y-101915000D01*
X149225000Y-99060000D02*
X149225000Y-100170000D01*
X155575000Y-102235000D02*
X154305000Y-102235000D01*
X155575000Y-102235000D02*
X155575000Y-104775000D01*
D27*
G36*
X214770000Y-114770000D02*
X145230000Y-114770000D01*
X145230000Y-112096000D01*
X147006000Y-112096000D01*
X147006000Y-112888982D01*
X147092473Y-113097746D01*
X147252254Y-113257527D01*
X147461018Y-113344000D01*
X148254000Y-113344000D01*
X148396000Y-113202000D01*
X148396000Y-111954000D01*
X147148000Y-111954000D01*
X147006000Y-112096000D01*
X145230000Y-112096000D01*
X145230000Y-110631018D01*
X147006000Y-110631018D01*
X147006000Y-111424000D01*
X147148000Y-111566000D01*
X148396000Y-111566000D01*
X148396000Y-110318000D01*
X148254000Y-110176000D01*
X147461018Y-110176000D01*
X147252254Y-110262473D01*
X147092473Y-110422254D01*
X147006000Y-110631018D01*
X145230000Y-110631018D01*
X145230000Y-104795000D01*
X147389907Y-104795000D01*
X147389907Y-106345000D01*
X147408036Y-106441350D01*
X147464979Y-106529842D01*
X147551864Y-106589207D01*
X147655000Y-106610093D01*
X148255000Y-106610093D01*
X148351350Y-106591964D01*
X148439842Y-106535021D01*
X148499207Y-106448136D01*
X148520093Y-106345000D01*
X148520093Y-104795000D01*
X148659907Y-104795000D01*
X148659907Y-106345000D01*
X148678036Y-106441350D01*
X148734979Y-106529842D01*
X148821864Y-106589207D01*
X148925000Y-106610093D01*
X149525000Y-106610093D01*
X149621350Y-106591964D01*
X149709842Y-106535021D01*
X149769207Y-106448136D01*
X149790093Y-106345000D01*
X149790093Y-105955000D01*
X149929907Y-105955000D01*
X149929907Y-106345000D01*
X149948036Y-106441350D01*
X150004979Y-106529842D01*
X150091864Y-106589207D01*
X150195000Y-106610093D01*
X150795000Y-106610093D01*
X150891350Y-106591964D01*
X150979842Y-106535021D01*
X151039207Y-106448136D01*
X151060093Y-106345000D01*
X151060093Y-104795000D01*
X151041964Y-104698650D01*
X150985021Y-104610158D01*
X150898136Y-104550793D01*
X150795000Y-104529907D01*
X150195000Y-104529907D01*
X150098650Y-104548036D01*
X150010158Y-104604979D01*
X149950793Y-104691864D01*
X149929907Y-104795000D01*
X149929907Y-105185000D01*
X149790093Y-105185000D01*
X149790093Y-104795000D01*
X149771964Y-104698650D01*
X149715021Y-104610158D01*
X149628136Y-104550793D01*
X149525000Y-104529907D01*
X148925000Y-104529907D01*
X148828650Y-104548036D01*
X148740158Y-104604979D01*
X148680793Y-104691864D01*
X148659907Y-104795000D01*
X148520093Y-104795000D01*
X148501964Y-104698650D01*
X148445021Y-104610158D01*
X148358136Y-104550793D01*
X148340000Y-104547120D01*
X148340000Y-104299472D01*
X150767236Y-101872236D01*
X150837107Y-101767667D01*
X150850694Y-101747333D01*
X150880000Y-101600000D01*
X150880000Y-101194100D01*
X150891350Y-101191964D01*
X150979842Y-101135021D01*
X151039207Y-101048136D01*
X151060093Y-100945000D01*
X151060093Y-100555000D01*
X151199907Y-100555000D01*
X151199907Y-100945000D01*
X151218036Y-101041350D01*
X151274979Y-101129842D01*
X151361864Y-101189207D01*
X151465000Y-101210093D01*
X152065000Y-101210093D01*
X152161350Y-101191964D01*
X152249842Y-101135021D01*
X152309207Y-101048136D01*
X152330093Y-100945000D01*
X152330093Y-100729565D01*
X152832765Y-101232237D01*
X152957667Y-101315695D01*
X153105001Y-101345001D01*
X156839907Y-101345001D01*
X156839907Y-101850000D01*
X156290093Y-101850000D01*
X156290093Y-101635000D01*
X156271964Y-101538650D01*
X156215021Y-101450158D01*
X156128136Y-101390793D01*
X156025000Y-101369907D01*
X155125000Y-101369907D01*
X155028650Y-101388036D01*
X154940158Y-101444979D01*
X154880793Y-101531864D01*
X154859907Y-101635000D01*
X154859907Y-101850000D01*
X154711941Y-101850000D01*
X154622629Y-101760532D01*
X154416880Y-101675097D01*
X154194098Y-101674903D01*
X153988200Y-101759978D01*
X153830532Y-101917371D01*
X153745097Y-102123120D01*
X153744903Y-102345902D01*
X153829978Y-102551800D01*
X153987371Y-102709468D01*
X154193120Y-102794903D01*
X154415902Y-102795097D01*
X154621800Y-102710022D01*
X154711979Y-102620000D01*
X154859907Y-102620000D01*
X154859907Y-102835000D01*
X154878036Y-102931350D01*
X154934979Y-103019842D01*
X155021864Y-103079207D01*
X155125000Y-103100093D01*
X155190000Y-103100093D01*
X155190000Y-103909907D01*
X155125000Y-103909907D01*
X155028650Y-103928036D01*
X154940158Y-103984979D01*
X154880793Y-104071864D01*
X154859907Y-104175000D01*
X154859907Y-105375000D01*
X154878036Y-105471350D01*
X154934979Y-105559842D01*
X155021864Y-105619207D01*
X155125000Y-105640093D01*
X156025000Y-105640093D01*
X156121350Y-105621964D01*
X156209842Y-105565021D01*
X156269207Y-105478136D01*
X156290093Y-105375000D01*
X156290093Y-104175000D01*
X156271964Y-104078650D01*
X156215021Y-103990158D01*
X156128136Y-103930793D01*
X156025000Y-103909907D01*
X155960000Y-103909907D01*
X155960000Y-103100093D01*
X156025000Y-103100093D01*
X156121350Y-103081964D01*
X156209842Y-103025021D01*
X156269207Y-102938136D01*
X156290093Y-102835000D01*
X156290093Y-102620000D01*
X156863602Y-102620000D01*
X156914979Y-102699842D01*
X157001864Y-102759207D01*
X157105000Y-102780093D01*
X157855000Y-102780093D01*
X157951350Y-102761964D01*
X158039842Y-102705021D01*
X158099207Y-102618136D01*
X158120093Y-102515000D01*
X158120093Y-101315000D01*
X158119901Y-101313979D01*
X158242235Y-101232237D01*
X160969379Y-98505093D01*
X161610621Y-98505093D01*
X164202763Y-101097235D01*
X164327666Y-101180693D01*
X164474999Y-101209999D01*
X186164907Y-101209999D01*
X186164907Y-102050000D01*
X186183036Y-102146350D01*
X186239979Y-102234842D01*
X186326864Y-102294207D01*
X186430000Y-102315093D01*
X186645000Y-102315093D01*
X186645000Y-102917956D01*
X186627933Y-102935023D01*
X186501516Y-102934913D01*
X186295618Y-103019988D01*
X186137950Y-103177381D01*
X186052515Y-103383130D01*
X186052321Y-103605912D01*
X186113923Y-103755000D01*
X177520884Y-103755000D01*
X176998648Y-103232764D01*
X176873745Y-103149306D01*
X176726412Y-103120000D01*
X157251941Y-103120000D01*
X157162629Y-103030532D01*
X156956880Y-102945097D01*
X156734098Y-102944903D01*
X156528200Y-103029978D01*
X156370532Y-103187371D01*
X156285097Y-103393120D01*
X156284903Y-103615902D01*
X156369978Y-103821800D01*
X156527371Y-103979468D01*
X156689102Y-104046625D01*
X156623473Y-104112254D01*
X156537000Y-104321018D01*
X156537000Y-104698000D01*
X156679000Y-104840000D01*
X157292500Y-104840000D01*
X157292500Y-104820000D01*
X157667500Y-104820000D01*
X157667500Y-104840000D01*
X158281000Y-104840000D01*
X158423000Y-104698000D01*
X158423000Y-104321018D01*
X158336527Y-104112254D01*
X158176746Y-103952473D01*
X158025923Y-103890000D01*
X160604528Y-103890000D01*
X158120093Y-106374435D01*
X158120093Y-106334000D01*
X158101964Y-106237650D01*
X158055655Y-106165684D01*
X158176746Y-106115527D01*
X158336527Y-105955746D01*
X158423000Y-105746982D01*
X158423000Y-105370000D01*
X158281000Y-105228000D01*
X157667500Y-105228000D01*
X157667500Y-105248000D01*
X157292500Y-105248000D01*
X157292500Y-105228000D01*
X156679000Y-105228000D01*
X156537000Y-105370000D01*
X156537000Y-105746982D01*
X156623473Y-105955746D01*
X156783254Y-106115527D01*
X156905111Y-106166002D01*
X156860793Y-106230864D01*
X156839907Y-106334000D01*
X156839907Y-106590000D01*
X156290093Y-106590000D01*
X156290093Y-106375000D01*
X156271964Y-106278650D01*
X156215021Y-106190158D01*
X156128136Y-106130793D01*
X156025000Y-106109907D01*
X155125000Y-106109907D01*
X155028650Y-106128036D01*
X154940158Y-106184979D01*
X154880793Y-106271864D01*
X154859907Y-106375000D01*
X154859907Y-106590000D01*
X152854472Y-106590000D01*
X152330093Y-106065621D01*
X152330093Y-104795000D01*
X152311964Y-104698650D01*
X152255021Y-104610158D01*
X152168136Y-104550793D01*
X152065000Y-104529907D01*
X151465000Y-104529907D01*
X151368650Y-104548036D01*
X151280158Y-104604979D01*
X151220793Y-104691864D01*
X151199907Y-104795000D01*
X151199907Y-106345000D01*
X151218036Y-106441350D01*
X151274979Y-106529842D01*
X151361864Y-106589207D01*
X151380000Y-106592880D01*
X151380000Y-110508730D01*
X151130000Y-110459002D01*
X150641696Y-110556132D01*
X150227732Y-110832734D01*
X150174000Y-110913150D01*
X150174000Y-110631018D01*
X150087527Y-110422254D01*
X149927746Y-110262473D01*
X149718982Y-110176000D01*
X148926000Y-110176000D01*
X148784000Y-110318000D01*
X148784000Y-111566000D01*
X148804000Y-111566000D01*
X148804000Y-111954000D01*
X148784000Y-111954000D01*
X148784000Y-113202000D01*
X148926000Y-113344000D01*
X149718982Y-113344000D01*
X149927746Y-113257527D01*
X150087527Y-113097746D01*
X150174000Y-112888982D01*
X150174000Y-112606850D01*
X150227732Y-112687266D01*
X150641696Y-112963868D01*
X151130000Y-113060998D01*
X151618304Y-112963868D01*
X152032268Y-112687266D01*
X152308870Y-112273302D01*
X152406000Y-111784998D01*
X152406000Y-111735002D01*
X152308870Y-111246698D01*
X152150000Y-111008932D01*
X152150000Y-106974472D01*
X152422764Y-107247236D01*
X152547667Y-107330694D01*
X152695000Y-107360000D01*
X154859907Y-107360000D01*
X154859907Y-107575000D01*
X154878036Y-107671350D01*
X154934979Y-107759842D01*
X155021864Y-107819207D01*
X155125000Y-107840093D01*
X156025000Y-107840093D01*
X156121350Y-107821964D01*
X156209842Y-107765021D01*
X156269207Y-107678136D01*
X156290093Y-107575000D01*
X156290093Y-107360000D01*
X156839907Y-107360000D01*
X156839907Y-107534000D01*
X156858036Y-107630350D01*
X156914979Y-107718842D01*
X157001864Y-107778207D01*
X157105000Y-107799093D01*
X157855000Y-107799093D01*
X157951350Y-107780964D01*
X158039842Y-107724021D01*
X158099207Y-107637136D01*
X158120093Y-107534000D01*
X158120093Y-107315998D01*
X158252333Y-107289694D01*
X158377236Y-107206236D01*
X161178473Y-104404999D01*
X169464907Y-104404999D01*
X169464907Y-104560000D01*
X165412600Y-104560000D01*
X165265266Y-104589306D01*
X165140364Y-104672764D01*
X159334221Y-110478907D01*
X157886400Y-110478907D01*
X157790050Y-110497036D01*
X157701558Y-110553979D01*
X157642193Y-110640864D01*
X157621307Y-110744000D01*
X157621307Y-112776000D01*
X157639436Y-112872350D01*
X157696379Y-112960842D01*
X157783264Y-113020207D01*
X157886400Y-113041093D01*
X159613600Y-113041093D01*
X159709950Y-113022964D01*
X159798442Y-112966021D01*
X159857807Y-112879136D01*
X159878693Y-112776000D01*
X159878693Y-111582602D01*
X160166400Y-111582602D01*
X160166400Y-111937398D01*
X160251929Y-112367381D01*
X160495495Y-112731903D01*
X160860017Y-112975469D01*
X161290000Y-113060998D01*
X161719983Y-112975469D01*
X162084505Y-112731903D01*
X162328071Y-112367381D01*
X162413600Y-111937398D01*
X162413600Y-111582602D01*
X162706400Y-111582602D01*
X162706400Y-111937398D01*
X162791929Y-112367381D01*
X163035495Y-112731903D01*
X163400017Y-112975469D01*
X163830000Y-113060998D01*
X164259983Y-112975469D01*
X164624505Y-112731903D01*
X164868071Y-112367381D01*
X164953600Y-111937398D01*
X164953600Y-111582602D01*
X164868071Y-111152619D01*
X164624505Y-110788097D01*
X164259983Y-110544531D01*
X163830000Y-110459002D01*
X163400017Y-110544531D01*
X163035495Y-110788097D01*
X162791929Y-111152619D01*
X162706400Y-111582602D01*
X162413600Y-111582602D01*
X162328071Y-111152619D01*
X162084505Y-110788097D01*
X161719983Y-110544531D01*
X161290000Y-110459002D01*
X160860017Y-110544531D01*
X160495495Y-110788097D01*
X160251929Y-111152619D01*
X160166400Y-111582602D01*
X159878693Y-111582602D01*
X159878693Y-111023379D01*
X165572072Y-105330000D01*
X169464907Y-105330000D01*
X169464907Y-105545000D01*
X169483036Y-105641350D01*
X169495037Y-105660000D01*
X166141941Y-105660000D01*
X166052629Y-105570532D01*
X165846880Y-105485097D01*
X165624098Y-105484903D01*
X165418200Y-105569978D01*
X165260532Y-105727371D01*
X165175097Y-105933120D01*
X165174903Y-106155902D01*
X165259978Y-106361800D01*
X165417371Y-106519468D01*
X165623120Y-106604903D01*
X165845902Y-106605097D01*
X166051800Y-106520022D01*
X166141979Y-106430000D01*
X169493899Y-106430000D01*
X169485793Y-106441864D01*
X169464907Y-106545000D01*
X169464907Y-107745000D01*
X169483036Y-107841350D01*
X169539979Y-107929842D01*
X169626864Y-107989207D01*
X169730000Y-108010093D01*
X169795000Y-108010093D01*
X169795000Y-110478907D01*
X169316400Y-110478907D01*
X169220050Y-110497036D01*
X169131558Y-110553979D01*
X169072193Y-110640864D01*
X169051307Y-110744000D01*
X169051307Y-112776000D01*
X169069436Y-112872350D01*
X169126379Y-112960842D01*
X169213264Y-113020207D01*
X169316400Y-113041093D01*
X171043600Y-113041093D01*
X171139950Y-113022964D01*
X171228442Y-112966021D01*
X171287807Y-112879136D01*
X171308693Y-112776000D01*
X171308693Y-111954002D01*
X171433217Y-111954002D01*
X171315316Y-112176999D01*
X171523499Y-112694407D01*
X171913838Y-113092761D01*
X172306503Y-113282983D01*
X172526000Y-113187324D01*
X172526000Y-111954000D01*
X172506000Y-111954000D01*
X172506000Y-111566000D01*
X172526000Y-111566000D01*
X172526000Y-110332676D01*
X172306503Y-110237017D01*
X171913838Y-110427239D01*
X171523499Y-110825593D01*
X171315316Y-111343001D01*
X171433217Y-111565998D01*
X171308693Y-111565998D01*
X171308693Y-110744000D01*
X171290564Y-110647650D01*
X171233621Y-110559158D01*
X171146736Y-110499793D01*
X171043600Y-110478907D01*
X170565000Y-110478907D01*
X170565000Y-108010093D01*
X170630000Y-108010093D01*
X170726350Y-107991964D01*
X170814842Y-107935021D01*
X170874207Y-107848136D01*
X170895093Y-107745000D01*
X170895093Y-106545000D01*
X170876964Y-106448650D01*
X170864963Y-106430000D01*
X175208899Y-106430000D01*
X175200793Y-106441864D01*
X175179907Y-106545000D01*
X175179907Y-107745000D01*
X175198036Y-107841350D01*
X175254979Y-107929842D01*
X175341864Y-107989207D01*
X175445000Y-108010093D01*
X175510000Y-108010093D01*
X175510000Y-110508730D01*
X175260000Y-110459002D01*
X174830017Y-110544531D01*
X174465495Y-110788097D01*
X174221929Y-111152619D01*
X174139703Y-111565998D01*
X174006783Y-111565998D01*
X174124684Y-111343001D01*
X173916501Y-110825593D01*
X173526162Y-110427239D01*
X173133497Y-110237017D01*
X172914000Y-110332676D01*
X172914000Y-111566000D01*
X172934000Y-111566000D01*
X172934000Y-111954000D01*
X172914000Y-111954000D01*
X172914000Y-113187324D01*
X173133497Y-113282983D01*
X173526162Y-113092761D01*
X173916501Y-112694407D01*
X174124684Y-112176999D01*
X174006783Y-111954002D01*
X174139703Y-111954002D01*
X174221929Y-112367381D01*
X174465495Y-112731903D01*
X174830017Y-112975469D01*
X175260000Y-113060998D01*
X175689983Y-112975469D01*
X176054505Y-112731903D01*
X176298071Y-112367381D01*
X176352052Y-112096000D01*
X180026000Y-112096000D01*
X180026000Y-112888982D01*
X180112473Y-113097746D01*
X180272254Y-113257527D01*
X180481018Y-113344000D01*
X181274000Y-113344000D01*
X181416000Y-113202000D01*
X181416000Y-111954000D01*
X180168000Y-111954000D01*
X180026000Y-112096000D01*
X176352052Y-112096000D01*
X176383600Y-111937398D01*
X176383600Y-111582602D01*
X176298071Y-111152619D01*
X176279912Y-111125442D01*
X176280000Y-111125000D01*
X176280000Y-110631018D01*
X180026000Y-110631018D01*
X180026000Y-111424000D01*
X180168000Y-111566000D01*
X181416000Y-111566000D01*
X181416000Y-110318000D01*
X181804000Y-110318000D01*
X181804000Y-111566000D01*
X181824000Y-111566000D01*
X181824000Y-111954000D01*
X181804000Y-111954000D01*
X181804000Y-113202000D01*
X181946000Y-113344000D01*
X182738982Y-113344000D01*
X182947746Y-113257527D01*
X183107527Y-113097746D01*
X183194000Y-112888982D01*
X183194000Y-112606850D01*
X183247732Y-112687266D01*
X183661696Y-112963868D01*
X184150000Y-113060998D01*
X184638304Y-112963868D01*
X185052268Y-112687266D01*
X185328870Y-112273302D01*
X185426000Y-111784998D01*
X185426000Y-111735002D01*
X185328870Y-111246698D01*
X185052268Y-110832734D01*
X184638304Y-110556132D01*
X184150000Y-110459002D01*
X183661696Y-110556132D01*
X183247732Y-110832734D01*
X183194000Y-110913150D01*
X183194000Y-110631018D01*
X183107527Y-110422254D01*
X182947746Y-110262473D01*
X182738982Y-110176000D01*
X181946000Y-110176000D01*
X181804000Y-110318000D01*
X181416000Y-110318000D01*
X181274000Y-110176000D01*
X180481018Y-110176000D01*
X180272254Y-110262473D01*
X180112473Y-110422254D01*
X180026000Y-110631018D01*
X176280000Y-110631018D01*
X176280000Y-109330902D01*
X185494903Y-109330902D01*
X185579978Y-109536800D01*
X185737371Y-109694468D01*
X185943120Y-109779903D01*
X186021801Y-109779972D01*
X186069979Y-109854842D01*
X186156864Y-109914207D01*
X186260000Y-109935093D01*
X187460000Y-109935093D01*
X187556350Y-109916964D01*
X187644842Y-109860021D01*
X187704207Y-109773136D01*
X187725093Y-109670000D01*
X187725093Y-108770000D01*
X187706964Y-108673650D01*
X187650021Y-108585158D01*
X187563136Y-108525793D01*
X187460000Y-108504907D01*
X186260000Y-108504907D01*
X186163650Y-108523036D01*
X186075158Y-108579979D01*
X186020504Y-108659970D01*
X185944098Y-108659903D01*
X185738200Y-108744978D01*
X185580532Y-108902371D01*
X185495097Y-109108120D01*
X185494903Y-109330902D01*
X176280000Y-109330902D01*
X176280000Y-108060902D01*
X188034903Y-108060902D01*
X188119978Y-108266800D01*
X188277371Y-108424468D01*
X188471088Y-108504907D01*
X188460000Y-108504907D01*
X188363650Y-108523036D01*
X188275158Y-108579979D01*
X188215793Y-108666864D01*
X188194907Y-108770000D01*
X188194907Y-109670000D01*
X188213036Y-109766350D01*
X188269979Y-109854842D01*
X188356864Y-109914207D01*
X188460000Y-109935093D01*
X189660000Y-109935093D01*
X189756350Y-109916964D01*
X189844842Y-109860021D01*
X189904207Y-109773136D01*
X189925093Y-109670000D01*
X189925093Y-109605000D01*
X190610900Y-109605000D01*
X190613036Y-109616350D01*
X190669979Y-109704842D01*
X190756864Y-109764207D01*
X190860000Y-109785093D01*
X192360000Y-109785093D01*
X192456350Y-109766964D01*
X192544842Y-109710021D01*
X192604207Y-109623136D01*
X192625093Y-109520000D01*
X192625093Y-108920000D01*
X192606964Y-108823650D01*
X192550021Y-108735158D01*
X192463136Y-108675793D01*
X192360000Y-108654907D01*
X191995000Y-108654907D01*
X191995000Y-108515093D01*
X192360000Y-108515093D01*
X192456350Y-108496964D01*
X192544842Y-108440021D01*
X192604207Y-108353136D01*
X192625093Y-108250000D01*
X192625093Y-107650000D01*
X192606964Y-107553650D01*
X192550021Y-107465158D01*
X192463136Y-107405793D01*
X192360000Y-107384907D01*
X190860000Y-107384907D01*
X190763650Y-107403036D01*
X190675158Y-107459979D01*
X190615793Y-107546864D01*
X190594907Y-107650000D01*
X190594907Y-108250000D01*
X190613036Y-108346350D01*
X190669979Y-108434842D01*
X190756864Y-108494207D01*
X190860000Y-108515093D01*
X191225000Y-108515093D01*
X191225000Y-108654907D01*
X190860000Y-108654907D01*
X190763650Y-108673036D01*
X190675158Y-108729979D01*
X190615793Y-108816864D01*
X190612120Y-108835000D01*
X189925093Y-108835000D01*
X189925093Y-108770000D01*
X189906964Y-108673650D01*
X189850021Y-108585158D01*
X189763136Y-108525793D01*
X189660000Y-108504907D01*
X189445000Y-108504907D01*
X189445000Y-108415000D01*
X189415694Y-108267667D01*
X189415694Y-108267666D01*
X189332236Y-108142764D01*
X189154987Y-107965515D01*
X189155097Y-107839098D01*
X189070022Y-107633200D01*
X188912629Y-107475532D01*
X188706880Y-107390097D01*
X188484098Y-107389903D01*
X188278200Y-107474978D01*
X188120532Y-107632371D01*
X188035097Y-107838120D01*
X188034903Y-108060902D01*
X176280000Y-108060902D01*
X176280000Y-108010093D01*
X176345000Y-108010093D01*
X176441350Y-107991964D01*
X176529842Y-107935021D01*
X176589207Y-107848136D01*
X176610093Y-107745000D01*
X176610093Y-106545000D01*
X176591964Y-106448650D01*
X176579963Y-106430000D01*
X189815528Y-106430000D01*
X190337764Y-106952236D01*
X190462667Y-107035694D01*
X190610000Y-107065000D01*
X190610900Y-107065000D01*
X190613036Y-107076350D01*
X190669979Y-107164842D01*
X190756864Y-107224207D01*
X190860000Y-107245093D01*
X192360000Y-107245093D01*
X192456350Y-107226964D01*
X192544842Y-107170021D01*
X192604207Y-107083136D01*
X192625093Y-106980000D01*
X192625093Y-106380000D01*
X192606964Y-106283650D01*
X192550021Y-106195158D01*
X192463136Y-106135793D01*
X192360000Y-106114907D01*
X190860000Y-106114907D01*
X190763650Y-106133036D01*
X190675158Y-106189979D01*
X190670812Y-106196340D01*
X190269472Y-105795000D01*
X190610900Y-105795000D01*
X190613036Y-105806350D01*
X190669979Y-105894842D01*
X190756864Y-105954207D01*
X190860000Y-105975093D01*
X192360000Y-105975093D01*
X192456350Y-105956964D01*
X192544842Y-105900021D01*
X192604207Y-105813136D01*
X192625093Y-105710000D01*
X192625093Y-105110000D01*
X192606964Y-105013650D01*
X192550021Y-104925158D01*
X192463136Y-104865793D01*
X192360000Y-104844907D01*
X190860000Y-104844907D01*
X190763650Y-104863036D01*
X190675158Y-104919979D01*
X190615793Y-105006864D01*
X190612120Y-105025000D01*
X178154474Y-105025000D01*
X177654474Y-104525000D01*
X190610900Y-104525000D01*
X190613036Y-104536350D01*
X190669979Y-104624842D01*
X190756864Y-104684207D01*
X190860000Y-104705093D01*
X192360000Y-104705093D01*
X192456350Y-104686964D01*
X192544842Y-104630021D01*
X192604207Y-104543136D01*
X192625093Y-104440000D01*
X192625093Y-103840000D01*
X192606964Y-103743650D01*
X192550021Y-103655158D01*
X192463136Y-103595793D01*
X192360000Y-103574907D01*
X190860000Y-103574907D01*
X190763650Y-103593036D01*
X190675158Y-103649979D01*
X190615793Y-103736864D01*
X190612120Y-103755000D01*
X187110820Y-103755000D01*
X187172321Y-103606890D01*
X187172432Y-103479468D01*
X187302236Y-103349664D01*
X187385694Y-103224762D01*
X187415000Y-103077428D01*
X187415000Y-102315093D01*
X187630000Y-102315093D01*
X187726350Y-102296964D01*
X187814842Y-102240021D01*
X187874207Y-102153136D01*
X187895093Y-102050000D01*
X187895093Y-101209999D01*
X188364907Y-101209999D01*
X188364907Y-102050000D01*
X188383036Y-102146350D01*
X188439979Y-102234842D01*
X188526864Y-102294207D01*
X188630000Y-102315093D01*
X188845000Y-102315093D01*
X188845000Y-102463059D01*
X188755532Y-102552371D01*
X188670097Y-102758120D01*
X188669903Y-102980902D01*
X188754978Y-103186800D01*
X188912371Y-103344468D01*
X189118120Y-103429903D01*
X189340902Y-103430097D01*
X189546800Y-103345022D01*
X189704468Y-103187629D01*
X189789903Y-102981880D01*
X189790097Y-102759098D01*
X189705022Y-102553200D01*
X189615000Y-102463021D01*
X189615000Y-102315093D01*
X189830000Y-102315093D01*
X189926350Y-102296964D01*
X190014842Y-102240021D01*
X190074207Y-102153136D01*
X190095093Y-102050000D01*
X190095093Y-101985000D01*
X190610900Y-101985000D01*
X190613036Y-101996350D01*
X190669979Y-102084842D01*
X190756864Y-102144207D01*
X190860000Y-102165093D01*
X191225000Y-102165093D01*
X191225000Y-102304907D01*
X190860000Y-102304907D01*
X190763650Y-102323036D01*
X190675158Y-102379979D01*
X190615793Y-102466864D01*
X190594907Y-102570000D01*
X190594907Y-103170000D01*
X190613036Y-103266350D01*
X190669979Y-103354842D01*
X190756864Y-103414207D01*
X190860000Y-103435093D01*
X192360000Y-103435093D01*
X192456350Y-103416964D01*
X192544842Y-103360021D01*
X192604207Y-103273136D01*
X192625093Y-103170000D01*
X192625093Y-102570000D01*
X192606964Y-102473650D01*
X192550021Y-102385158D01*
X192463136Y-102325793D01*
X192360000Y-102304907D01*
X191995000Y-102304907D01*
X191995000Y-102165093D01*
X192360000Y-102165093D01*
X192456350Y-102146964D01*
X192544842Y-102090021D01*
X192604207Y-102003136D01*
X192625093Y-101900000D01*
X192625093Y-101300000D01*
X192608159Y-101209999D01*
X193085527Y-101209999D01*
X195994907Y-104119379D01*
X195994907Y-104440000D01*
X196013036Y-104536350D01*
X196044103Y-104584629D01*
X195938254Y-104628473D01*
X195778473Y-104788254D01*
X195692000Y-104997018D01*
X195692000Y-105118000D01*
X195834000Y-105260000D01*
X196816000Y-105260000D01*
X196816000Y-105196000D01*
X197204000Y-105196000D01*
X197204000Y-105260000D01*
X197224000Y-105260000D01*
X197224000Y-105560000D01*
X197204000Y-105560000D01*
X197204000Y-105624000D01*
X196816000Y-105624000D01*
X196816000Y-105560000D01*
X195834000Y-105560000D01*
X195692000Y-105702000D01*
X195692000Y-105822982D01*
X195778473Y-106031746D01*
X195938254Y-106191527D01*
X196044134Y-106235384D01*
X196015793Y-106276864D01*
X195994907Y-106380000D01*
X195994907Y-106980000D01*
X196013036Y-107076350D01*
X196069979Y-107164842D01*
X196156864Y-107224207D01*
X196260000Y-107245093D01*
X197760000Y-107245093D01*
X197856350Y-107226964D01*
X197903654Y-107196525D01*
X198008120Y-107239903D01*
X198230902Y-107240097D01*
X198436800Y-107155022D01*
X198594468Y-106997629D01*
X198679903Y-106791880D01*
X198680097Y-106569098D01*
X198595022Y-106363200D01*
X198438185Y-106206089D01*
X198440695Y-106202332D01*
X198470001Y-106054999D01*
X198470001Y-104765001D01*
X198440695Y-104617668D01*
X198357237Y-104492765D01*
X198025093Y-104160621D01*
X198025093Y-103840000D01*
X198006964Y-103743650D01*
X197950021Y-103655158D01*
X197863136Y-103595793D01*
X197760000Y-103574907D01*
X196539379Y-103574907D01*
X196399565Y-103435093D01*
X197760000Y-103435093D01*
X197856350Y-103416964D01*
X197944842Y-103360021D01*
X198004207Y-103273136D01*
X198007880Y-103255000D01*
X206150528Y-103255000D01*
X207307764Y-104412236D01*
X207432666Y-104495694D01*
X207564907Y-104521998D01*
X207564907Y-104740000D01*
X207583036Y-104836350D01*
X207639979Y-104924842D01*
X207669482Y-104945000D01*
X207449472Y-104945000D01*
X206712236Y-104207764D01*
X206587333Y-104124306D01*
X206455093Y-104098002D01*
X206455093Y-103880000D01*
X206436964Y-103783650D01*
X206380021Y-103695158D01*
X206293136Y-103635793D01*
X206190000Y-103614907D01*
X205290000Y-103614907D01*
X205193650Y-103633036D01*
X205105158Y-103689979D01*
X205045793Y-103776864D01*
X205024907Y-103880000D01*
X205024907Y-104098002D01*
X204892666Y-104124306D01*
X204767764Y-104207764D01*
X201410528Y-107565000D01*
X198009100Y-107565000D01*
X198006964Y-107553650D01*
X197950021Y-107465158D01*
X197863136Y-107405793D01*
X197760000Y-107384907D01*
X196260000Y-107384907D01*
X196163650Y-107403036D01*
X196075158Y-107459979D01*
X196015793Y-107546864D01*
X195994907Y-107650000D01*
X195994907Y-107970621D01*
X195307764Y-108657764D01*
X195224306Y-108782667D01*
X195195000Y-108930000D01*
X195195000Y-111119907D01*
X194980000Y-111119907D01*
X194883650Y-111138036D01*
X194795158Y-111194979D01*
X194735793Y-111281864D01*
X194714907Y-111385000D01*
X194714907Y-112135000D01*
X194733036Y-112231350D01*
X194789979Y-112319842D01*
X194876864Y-112379207D01*
X194900000Y-112383892D01*
X194900000Y-112949907D01*
X194685000Y-112949907D01*
X194588650Y-112968036D01*
X194500158Y-113024979D01*
X194440793Y-113111864D01*
X194419907Y-113215000D01*
X194419907Y-114115000D01*
X194438036Y-114211350D01*
X194494979Y-114299842D01*
X194581864Y-114359207D01*
X194685000Y-114380093D01*
X195885000Y-114380093D01*
X195981350Y-114361964D01*
X196069842Y-114305021D01*
X196129207Y-114218136D01*
X196150093Y-114115000D01*
X196150093Y-113215000D01*
X196131964Y-113118650D01*
X196075021Y-113030158D01*
X195988136Y-112970793D01*
X195885000Y-112949907D01*
X195670000Y-112949907D01*
X195670000Y-112400093D01*
X196180000Y-112400093D01*
X196276350Y-112381964D01*
X196364842Y-112325021D01*
X196424207Y-112238136D01*
X196445093Y-112135000D01*
X196445093Y-111385000D01*
X196426964Y-111288650D01*
X196370021Y-111200158D01*
X196283136Y-111140793D01*
X196180000Y-111119907D01*
X195965000Y-111119907D01*
X195965000Y-109089472D01*
X195994907Y-109059565D01*
X195994907Y-109520000D01*
X196013036Y-109616350D01*
X196069979Y-109704842D01*
X196156864Y-109764207D01*
X196260000Y-109785093D01*
X197030621Y-109785093D01*
X197095000Y-109849472D01*
X197095000Y-111119907D01*
X196880000Y-111119907D01*
X196783650Y-111138036D01*
X196695158Y-111194979D01*
X196635793Y-111281864D01*
X196614907Y-111385000D01*
X196614907Y-112135000D01*
X196633036Y-112231350D01*
X196689979Y-112319842D01*
X196776864Y-112379207D01*
X196880000Y-112400093D01*
X197100000Y-112400093D01*
X197100000Y-112949907D01*
X196885000Y-112949907D01*
X196788650Y-112968036D01*
X196700158Y-113024979D01*
X196640793Y-113111864D01*
X196619907Y-113215000D01*
X196619907Y-114115000D01*
X196638036Y-114211350D01*
X196694979Y-114299842D01*
X196781864Y-114359207D01*
X196885000Y-114380093D01*
X198085000Y-114380093D01*
X198181350Y-114361964D01*
X198269842Y-114305021D01*
X198329207Y-114218136D01*
X198350093Y-114115000D01*
X198350093Y-113215000D01*
X198331964Y-113118650D01*
X198275021Y-113030158D01*
X198188136Y-112970793D01*
X198085000Y-112949907D01*
X197870000Y-112949907D01*
X197870000Y-112400093D01*
X198080000Y-112400093D01*
X198176350Y-112381964D01*
X198264842Y-112325021D01*
X198324207Y-112238136D01*
X198345093Y-112135000D01*
X198345093Y-111385000D01*
X198326964Y-111288650D01*
X198270021Y-111200158D01*
X198183136Y-111140793D01*
X198080000Y-111119907D01*
X197865000Y-111119907D01*
X197865000Y-110097018D01*
X198701000Y-110097018D01*
X198701000Y-110474000D01*
X198843000Y-110616000D01*
X199456500Y-110616000D01*
X199456500Y-109784000D01*
X199314500Y-109642000D01*
X199156018Y-109642000D01*
X198947254Y-109728473D01*
X198787473Y-109888254D01*
X198701000Y-110097018D01*
X197865000Y-110097018D01*
X197865000Y-109761398D01*
X197903654Y-109736525D01*
X198008120Y-109779903D01*
X198230902Y-109780097D01*
X198436800Y-109695022D01*
X198594468Y-109537629D01*
X198679903Y-109331880D01*
X198680097Y-109109098D01*
X198595022Y-108903200D01*
X198437629Y-108745532D01*
X198231880Y-108660097D01*
X198009098Y-108659903D01*
X197903649Y-108703474D01*
X197863136Y-108675793D01*
X197760000Y-108654907D01*
X196399565Y-108654907D01*
X196539379Y-108515093D01*
X197760000Y-108515093D01*
X197856350Y-108496964D01*
X197944842Y-108440021D01*
X198004207Y-108353136D01*
X198007880Y-108335000D01*
X201570000Y-108335000D01*
X201717333Y-108305694D01*
X201842236Y-108222236D01*
X205024907Y-105039565D01*
X205024907Y-105080000D01*
X205043036Y-105176350D01*
X205099979Y-105264842D01*
X205186864Y-105324207D01*
X205290000Y-105345093D01*
X206190000Y-105345093D01*
X206286350Y-105326964D01*
X206374842Y-105270021D01*
X206434207Y-105183136D01*
X206455093Y-105080000D01*
X206455093Y-105039565D01*
X207017764Y-105602236D01*
X207142667Y-105685694D01*
X207290000Y-105715000D01*
X207569970Y-105715000D01*
X207564907Y-105740000D01*
X207564907Y-105958002D01*
X207432667Y-105984306D01*
X207307764Y-106067764D01*
X206737764Y-106637764D01*
X206654306Y-106762667D01*
X206625000Y-106910000D01*
X206625000Y-109420968D01*
X206580017Y-109429916D01*
X206215495Y-109673482D01*
X206125000Y-109808917D01*
X206125000Y-107545093D01*
X206190000Y-107545093D01*
X206286350Y-107526964D01*
X206374842Y-107470021D01*
X206434207Y-107383136D01*
X206455093Y-107280000D01*
X206455093Y-106080000D01*
X206436964Y-105983650D01*
X206380021Y-105895158D01*
X206293136Y-105835793D01*
X206190000Y-105814907D01*
X205290000Y-105814907D01*
X205193650Y-105833036D01*
X205105158Y-105889979D01*
X205045793Y-105976864D01*
X205024907Y-106080000D01*
X205024907Y-106295000D01*
X204876941Y-106295000D01*
X204787629Y-106205532D01*
X204581880Y-106120097D01*
X204359098Y-106119903D01*
X204153200Y-106204978D01*
X203995532Y-106362371D01*
X203910097Y-106568120D01*
X203909903Y-106790902D01*
X203994978Y-106996800D01*
X204152371Y-107154468D01*
X204358120Y-107239903D01*
X204580902Y-107240097D01*
X204786800Y-107155022D01*
X204876979Y-107065000D01*
X205024907Y-107065000D01*
X205024907Y-107280000D01*
X205043036Y-107376350D01*
X205099979Y-107464842D01*
X205186864Y-107524207D01*
X205290000Y-107545093D01*
X205355000Y-107545093D01*
X205355000Y-112391000D01*
X204693211Y-112391000D01*
X204676964Y-112304650D01*
X204620021Y-112216158D01*
X204533136Y-112156793D01*
X204430000Y-112135907D01*
X203230000Y-112135907D01*
X203133650Y-112154036D01*
X203045158Y-112210979D01*
X202985793Y-112297864D01*
X202964907Y-112401000D01*
X202964907Y-113041435D01*
X202795093Y-112871621D01*
X202795093Y-112401000D01*
X202776964Y-112304650D01*
X202720021Y-112216158D01*
X202633136Y-112156793D01*
X202530000Y-112135907D01*
X202315000Y-112135907D01*
X202315000Y-110876093D01*
X202596000Y-110876093D01*
X202692350Y-110857964D01*
X202780842Y-110801021D01*
X202840207Y-110714136D01*
X202861093Y-110611000D01*
X202861093Y-109861000D01*
X203030907Y-109861000D01*
X203030907Y-110611000D01*
X203049036Y-110707350D01*
X203105979Y-110795842D01*
X203192864Y-110855207D01*
X203296000Y-110876093D01*
X204496000Y-110876093D01*
X204592350Y-110857964D01*
X204680842Y-110801021D01*
X204740207Y-110714136D01*
X204761093Y-110611000D01*
X204761093Y-109861000D01*
X204742964Y-109764650D01*
X204686021Y-109676158D01*
X204599136Y-109616793D01*
X204496000Y-109595907D01*
X204378088Y-109595907D01*
X204436468Y-109537629D01*
X204521903Y-109331880D01*
X204522097Y-109109098D01*
X204437022Y-108903200D01*
X204279629Y-108745532D01*
X204073880Y-108660097D01*
X203851098Y-108659903D01*
X203645200Y-108744978D01*
X203487532Y-108902371D01*
X203402097Y-109108120D01*
X203401903Y-109330902D01*
X203486978Y-109536800D01*
X203545982Y-109595907D01*
X203296000Y-109595907D01*
X203199650Y-109614036D01*
X203111158Y-109670979D01*
X203051793Y-109757864D01*
X203030907Y-109861000D01*
X202861093Y-109861000D01*
X202842964Y-109764650D01*
X202786021Y-109676158D01*
X202699136Y-109616793D01*
X202596000Y-109595907D01*
X201396000Y-109595907D01*
X201299650Y-109614036D01*
X201211158Y-109670979D01*
X201167485Y-109734897D01*
X201025880Y-109676097D01*
X200803098Y-109675903D01*
X200597200Y-109760978D01*
X200485128Y-109872855D01*
X200340746Y-109728473D01*
X200131982Y-109642000D01*
X199973500Y-109642000D01*
X199831500Y-109784000D01*
X199831500Y-110616000D01*
X199858000Y-110616000D01*
X199858000Y-111004000D01*
X199831500Y-111004000D01*
X199831500Y-111024000D01*
X199456500Y-111024000D01*
X199456500Y-111004000D01*
X198843000Y-111004000D01*
X198701000Y-111146000D01*
X198701000Y-111522982D01*
X198787473Y-111731746D01*
X198947254Y-111891527D01*
X199069111Y-111942002D01*
X199024793Y-112006864D01*
X199003907Y-112110000D01*
X199003907Y-113310000D01*
X199022036Y-113406350D01*
X199078979Y-113494842D01*
X199165864Y-113554207D01*
X199269000Y-113575093D01*
X200019000Y-113575093D01*
X200115350Y-113556964D01*
X200203842Y-113500021D01*
X200263207Y-113413136D01*
X200284093Y-113310000D01*
X200284093Y-113095000D01*
X200441174Y-113095000D01*
X200596371Y-113250468D01*
X200802120Y-113335903D01*
X201024902Y-113336097D01*
X201115938Y-113298482D01*
X201139979Y-113335842D01*
X201226864Y-113395207D01*
X201330000Y-113416093D01*
X202250621Y-113416093D01*
X203406764Y-114572236D01*
X203531667Y-114655694D01*
X203679000Y-114685000D01*
X208280000Y-114685000D01*
X208427333Y-114655694D01*
X208552236Y-114572236D01*
X209068686Y-114055786D01*
X209120017Y-114090084D01*
X209550000Y-114175613D01*
X209979983Y-114090084D01*
X210344505Y-113846518D01*
X210588071Y-113481996D01*
X210673600Y-113052013D01*
X210673600Y-113007987D01*
X210588071Y-112578004D01*
X210344505Y-112213482D01*
X209979983Y-111969916D01*
X209935000Y-111960968D01*
X209935000Y-111559032D01*
X209979983Y-111550084D01*
X210344505Y-111306518D01*
X210588071Y-110941996D01*
X210673600Y-110512013D01*
X210673600Y-110467987D01*
X210588071Y-110038004D01*
X210344505Y-109673482D01*
X209979983Y-109429916D01*
X209550000Y-109344387D01*
X209120017Y-109429916D01*
X208755495Y-109673482D01*
X208511929Y-110038004D01*
X208426400Y-110467987D01*
X208426400Y-110512013D01*
X208511929Y-110941996D01*
X208755495Y-111306518D01*
X209120017Y-111550084D01*
X209165000Y-111559032D01*
X209165000Y-111960968D01*
X209120017Y-111969916D01*
X208755495Y-112213482D01*
X208511929Y-112578004D01*
X208426400Y-113007987D01*
X208426400Y-113052013D01*
X208511929Y-113481996D01*
X208528593Y-113506935D01*
X208137872Y-113897656D01*
X208138693Y-113893600D01*
X208138693Y-112166400D01*
X208120564Y-112070050D01*
X208063621Y-111981558D01*
X207976736Y-111922193D01*
X207873600Y-111901307D01*
X206146400Y-111901307D01*
X206125000Y-111905334D01*
X206125000Y-111171083D01*
X206215495Y-111306518D01*
X206580017Y-111550084D01*
X207010000Y-111635613D01*
X207439983Y-111550084D01*
X207804505Y-111306518D01*
X208048071Y-110941996D01*
X208133600Y-110512013D01*
X208133600Y-110467987D01*
X208048071Y-110038004D01*
X207804505Y-109673482D01*
X207439983Y-109429916D01*
X207395000Y-109420968D01*
X207395000Y-107069472D01*
X207564907Y-106899565D01*
X207564907Y-106940000D01*
X207583036Y-107036350D01*
X207639979Y-107124842D01*
X207726864Y-107184207D01*
X207830000Y-107205093D01*
X208730000Y-107205093D01*
X208826350Y-107186964D01*
X208914842Y-107130021D01*
X208974207Y-107043136D01*
X208995093Y-106940000D01*
X208995093Y-105740000D01*
X208990389Y-105715000D01*
X210109970Y-105715000D01*
X210104907Y-105740000D01*
X210104907Y-106940000D01*
X210123036Y-107036350D01*
X210179979Y-107124842D01*
X210266864Y-107184207D01*
X210370000Y-107205093D01*
X211270000Y-107205093D01*
X211366350Y-107186964D01*
X211454842Y-107130021D01*
X211514207Y-107043136D01*
X211535093Y-106940000D01*
X211535093Y-106899565D01*
X211705000Y-107069472D01*
X211705000Y-109420968D01*
X211660017Y-109429916D01*
X211295495Y-109673482D01*
X211051929Y-110038004D01*
X210966400Y-110467987D01*
X210966400Y-110512013D01*
X211051929Y-110941996D01*
X211295495Y-111306518D01*
X211660017Y-111550084D01*
X212090000Y-111635613D01*
X212519983Y-111550084D01*
X212884505Y-111306518D01*
X212975000Y-111171083D01*
X212975000Y-111600528D01*
X212571314Y-112004214D01*
X212519983Y-111969916D01*
X212090000Y-111884387D01*
X211660017Y-111969916D01*
X211295495Y-112213482D01*
X211051929Y-112578004D01*
X210966400Y-113007987D01*
X210966400Y-113052013D01*
X211051929Y-113481996D01*
X211295495Y-113846518D01*
X211660017Y-114090084D01*
X212090000Y-114175613D01*
X212519983Y-114090084D01*
X212884505Y-113846518D01*
X213128071Y-113481996D01*
X213213600Y-113052013D01*
X213213600Y-113007987D01*
X213128071Y-112578004D01*
X213111407Y-112553065D01*
X213632236Y-112032236D01*
X213715694Y-111907334D01*
X213745000Y-111760000D01*
X213745000Y-107545093D01*
X213810000Y-107545093D01*
X213906350Y-107526964D01*
X213994842Y-107470021D01*
X214054207Y-107383136D01*
X214075093Y-107280000D01*
X214075093Y-106080000D01*
X214056964Y-105983650D01*
X214000021Y-105895158D01*
X213913136Y-105835793D01*
X213810000Y-105814907D01*
X212910000Y-105814907D01*
X212813650Y-105833036D01*
X212725158Y-105889979D01*
X212665793Y-105976864D01*
X212644907Y-106080000D01*
X212644907Y-107280000D01*
X212663036Y-107376350D01*
X212719979Y-107464842D01*
X212806864Y-107524207D01*
X212910000Y-107545093D01*
X212975000Y-107545093D01*
X212975000Y-109808917D01*
X212884505Y-109673482D01*
X212519983Y-109429916D01*
X212475000Y-109420968D01*
X212475000Y-106910000D01*
X212445694Y-106762667D01*
X212362236Y-106637764D01*
X211792236Y-106067764D01*
X211667333Y-105984306D01*
X211535093Y-105958002D01*
X211535093Y-105740000D01*
X211530389Y-105715000D01*
X211810000Y-105715000D01*
X211957333Y-105685694D01*
X212082236Y-105602236D01*
X212644907Y-105039565D01*
X212644907Y-105080000D01*
X212663036Y-105176350D01*
X212719979Y-105264842D01*
X212806864Y-105324207D01*
X212910000Y-105345093D01*
X213810000Y-105345093D01*
X213906350Y-105326964D01*
X213994842Y-105270021D01*
X214054207Y-105183136D01*
X214075093Y-105080000D01*
X214075093Y-103880000D01*
X214056964Y-103783650D01*
X214000021Y-103695158D01*
X213913136Y-103635793D01*
X213810000Y-103614907D01*
X212910000Y-103614907D01*
X212813650Y-103633036D01*
X212725158Y-103689979D01*
X212665793Y-103776864D01*
X212644907Y-103880000D01*
X212644907Y-104098002D01*
X212512667Y-104124306D01*
X212387764Y-104207764D01*
X211650528Y-104945000D01*
X211431564Y-104945000D01*
X211454842Y-104930021D01*
X211514207Y-104843136D01*
X211535093Y-104740000D01*
X211535093Y-103540000D01*
X211516964Y-103443650D01*
X211460021Y-103355158D01*
X211373136Y-103295793D01*
X211270000Y-103274907D01*
X210370000Y-103274907D01*
X210273650Y-103293036D01*
X210185158Y-103349979D01*
X210125793Y-103436864D01*
X210104907Y-103540000D01*
X210104907Y-103755000D01*
X208995093Y-103755000D01*
X208995093Y-103540000D01*
X208976964Y-103443650D01*
X208920021Y-103355158D01*
X208833136Y-103295793D01*
X208730000Y-103274907D01*
X207830000Y-103274907D01*
X207733650Y-103293036D01*
X207645158Y-103349979D01*
X207585793Y-103436864D01*
X207564907Y-103540000D01*
X207564907Y-103580435D01*
X206582236Y-102597764D01*
X206457333Y-102514306D01*
X206310000Y-102485000D01*
X198009100Y-102485000D01*
X198006964Y-102473650D01*
X197950021Y-102385158D01*
X197863136Y-102325793D01*
X197760000Y-102304907D01*
X196539379Y-102304907D01*
X196399565Y-102165093D01*
X197760000Y-102165093D01*
X197856350Y-102146964D01*
X197944842Y-102090021D01*
X198004207Y-102003136D01*
X198025093Y-101900000D01*
X198025093Y-101300000D01*
X198006964Y-101203650D01*
X197950021Y-101115158D01*
X197863136Y-101055793D01*
X197760000Y-101034907D01*
X197395000Y-101034907D01*
X197395000Y-100175000D01*
X197384510Y-100122261D01*
X197395093Y-100070000D01*
X197395093Y-100025000D01*
X203119907Y-100025000D01*
X203119907Y-101225000D01*
X203138036Y-101321350D01*
X203194979Y-101409842D01*
X203281864Y-101469207D01*
X203282866Y-101469410D01*
X203275097Y-101488120D01*
X203274903Y-101710902D01*
X203359978Y-101916800D01*
X203517371Y-102074468D01*
X203723120Y-102159903D01*
X203945902Y-102160097D01*
X204151800Y-102075022D01*
X204309468Y-101917629D01*
X204394903Y-101711880D01*
X204395097Y-101489098D01*
X204386617Y-101468575D01*
X204469842Y-101415021D01*
X204529207Y-101328136D01*
X204550093Y-101225000D01*
X204550093Y-100025000D01*
X204531964Y-99928650D01*
X204475021Y-99840158D01*
X204388136Y-99780793D01*
X204285000Y-99759907D01*
X203385000Y-99759907D01*
X203288650Y-99778036D01*
X203200158Y-99834979D01*
X203140793Y-99921864D01*
X203119907Y-100025000D01*
X197395093Y-100025000D01*
X197395093Y-99320000D01*
X197376964Y-99223650D01*
X197320021Y-99135158D01*
X197233136Y-99075793D01*
X197130000Y-99054907D01*
X196915000Y-99054907D01*
X196915000Y-98505093D01*
X197450000Y-98505093D01*
X197546350Y-98486964D01*
X197634842Y-98430021D01*
X197694207Y-98343136D01*
X197715093Y-98240000D01*
X197715093Y-97340000D01*
X197696964Y-97243650D01*
X197640021Y-97155158D01*
X197553136Y-97095793D01*
X197450000Y-97074907D01*
X197409565Y-97074907D01*
X199925043Y-94559429D01*
X203096367Y-94559429D01*
X202978780Y-94676811D01*
X202824606Y-95048103D01*
X202824255Y-95450133D01*
X202977781Y-95821694D01*
X203261811Y-96106220D01*
X203450000Y-96184363D01*
X203450000Y-97559907D01*
X203385000Y-97559907D01*
X203288650Y-97578036D01*
X203200158Y-97634979D01*
X203140793Y-97721864D01*
X203119907Y-97825000D01*
X203119907Y-99025000D01*
X203138036Y-99121350D01*
X203194979Y-99209842D01*
X203281864Y-99269207D01*
X203385000Y-99290093D01*
X204285000Y-99290093D01*
X204381350Y-99271964D01*
X204469842Y-99215021D01*
X204529207Y-99128136D01*
X204550093Y-99025000D01*
X204550093Y-97825000D01*
X204531964Y-97728650D01*
X204475021Y-97640158D01*
X204388136Y-97580793D01*
X204285000Y-97559907D01*
X204220000Y-97559907D01*
X204220000Y-96184359D01*
X204406694Y-96107219D01*
X204691220Y-95823189D01*
X204845394Y-95451897D01*
X204845745Y-95049867D01*
X204692219Y-94678306D01*
X204573549Y-94559429D01*
X208314957Y-94559429D01*
X208617072Y-94861544D01*
X208539606Y-95048103D01*
X208539255Y-95450133D01*
X208692781Y-95821694D01*
X208976811Y-96106220D01*
X209348103Y-96260394D01*
X209750133Y-96260745D01*
X210121694Y-96107219D01*
X210406220Y-95823189D01*
X210560394Y-95451897D01*
X210560745Y-95049867D01*
X210407219Y-94678306D01*
X210123189Y-94393780D01*
X209751897Y-94239606D01*
X209349867Y-94239255D01*
X209161542Y-94317070D01*
X208746665Y-93902193D01*
X208621762Y-93818735D01*
X208474429Y-93789429D01*
X199765571Y-93789429D01*
X199618237Y-93818735D01*
X199493335Y-93902193D01*
X196577764Y-96817764D01*
X196494306Y-96942667D01*
X196468002Y-97074907D01*
X196250000Y-97074907D01*
X196153650Y-97093036D01*
X196065158Y-97149979D01*
X196005793Y-97236864D01*
X195984907Y-97340000D01*
X195984907Y-98240000D01*
X196003036Y-98336350D01*
X196059979Y-98424842D01*
X196145000Y-98482933D01*
X196145000Y-99054907D01*
X195930000Y-99054907D01*
X195833650Y-99073036D01*
X195745158Y-99129979D01*
X195685793Y-99216864D01*
X195664907Y-99320000D01*
X195664907Y-100070000D01*
X195683036Y-100166350D01*
X195739979Y-100254842D01*
X195826864Y-100314207D01*
X195930000Y-100335093D01*
X196625000Y-100335093D01*
X196625000Y-101034907D01*
X196260000Y-101034907D01*
X196163650Y-101053036D01*
X196075158Y-101109979D01*
X196015793Y-101196864D01*
X195994907Y-101300000D01*
X195994907Y-101760435D01*
X195015000Y-100780528D01*
X195015000Y-100335093D01*
X195230000Y-100335093D01*
X195326350Y-100316964D01*
X195414842Y-100260021D01*
X195474207Y-100173136D01*
X195495093Y-100070000D01*
X195495093Y-99320000D01*
X195476964Y-99223650D01*
X195420021Y-99135158D01*
X195333136Y-99075793D01*
X195230000Y-99054907D01*
X195035000Y-99054907D01*
X195035000Y-98505093D01*
X195250000Y-98505093D01*
X195346350Y-98486964D01*
X195434842Y-98430021D01*
X195494207Y-98343136D01*
X195515093Y-98240000D01*
X195515093Y-97340000D01*
X195496964Y-97243650D01*
X195440021Y-97155158D01*
X195353136Y-97095793D01*
X195250000Y-97074907D01*
X194050000Y-97074907D01*
X193953650Y-97093036D01*
X193865158Y-97149979D01*
X193805793Y-97236864D01*
X193784907Y-97340000D01*
X193784907Y-98240000D01*
X193803036Y-98336350D01*
X193859979Y-98424842D01*
X193946864Y-98484207D01*
X194050000Y-98505093D01*
X194265000Y-98505093D01*
X194265000Y-99054907D01*
X194030000Y-99054907D01*
X193933650Y-99073036D01*
X193845158Y-99129979D01*
X193785793Y-99216864D01*
X193764907Y-99320000D01*
X193764907Y-100070000D01*
X193783036Y-100166350D01*
X193839979Y-100254842D01*
X193926864Y-100314207D01*
X194030000Y-100335093D01*
X194245000Y-100335093D01*
X194245000Y-100940000D01*
X194274306Y-101087333D01*
X194357764Y-101212236D01*
X195994907Y-102849379D01*
X195994907Y-103030435D01*
X193517235Y-100552763D01*
X193392332Y-100469305D01*
X193244999Y-100439999D01*
X164634471Y-100439999D01*
X163119472Y-98925000D01*
X186609907Y-98925000D01*
X186609907Y-100125000D01*
X186628036Y-100221350D01*
X186684979Y-100309842D01*
X186771864Y-100369207D01*
X186875000Y-100390093D01*
X187775000Y-100390093D01*
X187871350Y-100371964D01*
X187959842Y-100315021D01*
X188019207Y-100228136D01*
X188040093Y-100125000D01*
X188040093Y-99910000D01*
X188712915Y-99910000D01*
X188754978Y-100011800D01*
X188912371Y-100169468D01*
X189118120Y-100254903D01*
X189340902Y-100255097D01*
X189546800Y-100170022D01*
X189704468Y-100012629D01*
X189789903Y-99806880D01*
X189790097Y-99584098D01*
X189705022Y-99378200D01*
X189547629Y-99220532D01*
X189341880Y-99135097D01*
X189119098Y-99134903D01*
X189091566Y-99146279D01*
X189060000Y-99140000D01*
X188040093Y-99140000D01*
X188040093Y-98925000D01*
X188021964Y-98828650D01*
X187965021Y-98740158D01*
X187878136Y-98680793D01*
X187775000Y-98659907D01*
X186875000Y-98659907D01*
X186778650Y-98678036D01*
X186690158Y-98734979D01*
X186630793Y-98821864D01*
X186609907Y-98925000D01*
X163119472Y-98925000D01*
X162155093Y-97960621D01*
X162155093Y-97340000D01*
X162624907Y-97340000D01*
X162624907Y-98240000D01*
X162643036Y-98336350D01*
X162699979Y-98424842D01*
X162786864Y-98484207D01*
X162890000Y-98505093D01*
X164090000Y-98505093D01*
X164186350Y-98486964D01*
X164274842Y-98430021D01*
X164334207Y-98343136D01*
X164355093Y-98240000D01*
X164355093Y-97340000D01*
X164336964Y-97243650D01*
X164280021Y-97155158D01*
X164215000Y-97110732D01*
X164215000Y-96184359D01*
X164401694Y-96107219D01*
X164686220Y-95823189D01*
X164840394Y-95451897D01*
X164840395Y-95450133D01*
X168534255Y-95450133D01*
X168687781Y-95821694D01*
X168971811Y-96106220D01*
X169343103Y-96260394D01*
X169745133Y-96260745D01*
X170116694Y-96107219D01*
X170401220Y-95823189D01*
X170555394Y-95451897D01*
X170555745Y-95049867D01*
X170477930Y-94861542D01*
X170780043Y-94559429D01*
X174521367Y-94559429D01*
X174403780Y-94676811D01*
X174249606Y-95048103D01*
X174249255Y-95450133D01*
X174402781Y-95821694D01*
X174686811Y-96106220D01*
X175058103Y-96260394D01*
X175460133Y-96260745D01*
X175648458Y-96182930D01*
X176892764Y-97427236D01*
X177017667Y-97510694D01*
X177165000Y-97540000D01*
X180568059Y-97540000D01*
X180657371Y-97629468D01*
X180863120Y-97714903D01*
X181085902Y-97715097D01*
X181291800Y-97630022D01*
X181449468Y-97472629D01*
X181534903Y-97266880D01*
X181535097Y-97044098D01*
X181450022Y-96838200D01*
X181322616Y-96710571D01*
X181643630Y-96710571D01*
X181732942Y-96800039D01*
X181938691Y-96885474D01*
X182161473Y-96885668D01*
X182367371Y-96800593D01*
X182525039Y-96643200D01*
X182610474Y-96437451D01*
X182610668Y-96214669D01*
X182525593Y-96008771D01*
X182368200Y-95851103D01*
X182162451Y-95765668D01*
X181939669Y-95765474D01*
X181837688Y-95807611D01*
X181985394Y-95451897D01*
X181985395Y-95450133D01*
X186314255Y-95450133D01*
X186467781Y-95821694D01*
X186751811Y-96106220D01*
X186940000Y-96184363D01*
X186940000Y-96459907D01*
X186875000Y-96459907D01*
X186778650Y-96478036D01*
X186690158Y-96534979D01*
X186630793Y-96621864D01*
X186609907Y-96725000D01*
X186609907Y-97925000D01*
X186628036Y-98021350D01*
X186684979Y-98109842D01*
X186771864Y-98169207D01*
X186875000Y-98190093D01*
X187775000Y-98190093D01*
X187871350Y-98171964D01*
X187959842Y-98115021D01*
X188019207Y-98028136D01*
X188040093Y-97925000D01*
X188040093Y-96725000D01*
X188021964Y-96628650D01*
X187965021Y-96540158D01*
X187878136Y-96480793D01*
X187775000Y-96459907D01*
X187710000Y-96459907D01*
X187710000Y-96184359D01*
X187896694Y-96107219D01*
X188181220Y-95823189D01*
X188335394Y-95451897D01*
X188335745Y-95049867D01*
X188182219Y-94678306D01*
X187898189Y-94393780D01*
X187526897Y-94239606D01*
X187124867Y-94239255D01*
X186753306Y-94392781D01*
X186468780Y-94676811D01*
X186314606Y-95048103D01*
X186314255Y-95450133D01*
X181985395Y-95450133D01*
X181985745Y-95049867D01*
X181832219Y-94678306D01*
X181548189Y-94393780D01*
X181176897Y-94239606D01*
X180774867Y-94239255D01*
X180403306Y-94392781D01*
X180118780Y-94676811D01*
X179964606Y-95048103D01*
X179964398Y-95286772D01*
X178579819Y-93902193D01*
X178454916Y-93818735D01*
X178307583Y-93789429D01*
X170620571Y-93789429D01*
X170473237Y-93818735D01*
X170348335Y-93902193D01*
X169933456Y-94317072D01*
X169746897Y-94239606D01*
X169344867Y-94239255D01*
X168973306Y-94392781D01*
X168688780Y-94676811D01*
X168534606Y-95048103D01*
X168534255Y-95450133D01*
X164840395Y-95450133D01*
X164840745Y-95049867D01*
X164687219Y-94678306D01*
X164403189Y-94393780D01*
X164031897Y-94239606D01*
X163629867Y-94239255D01*
X163258306Y-94392781D01*
X162973780Y-94676811D01*
X162819606Y-95048103D01*
X162819255Y-95450133D01*
X162972781Y-95821694D01*
X163256811Y-96106220D01*
X163445000Y-96184363D01*
X163445000Y-97074907D01*
X162890000Y-97074907D01*
X162793650Y-97093036D01*
X162705158Y-97149979D01*
X162645793Y-97236864D01*
X162624907Y-97340000D01*
X162155093Y-97340000D01*
X162136964Y-97243650D01*
X162080021Y-97155158D01*
X161993136Y-97095793D01*
X161890000Y-97074907D01*
X160690000Y-97074907D01*
X160593650Y-97093036D01*
X160505158Y-97149979D01*
X160445793Y-97236864D01*
X160424907Y-97340000D01*
X160424907Y-97960621D01*
X158423000Y-99962528D01*
X158423000Y-99820998D01*
X158281002Y-99820998D01*
X158423000Y-99679000D01*
X158423000Y-99302018D01*
X158336527Y-99093254D01*
X158176746Y-98933473D01*
X157967982Y-98847000D01*
X157809500Y-98847000D01*
X157667500Y-98989000D01*
X157667500Y-99821000D01*
X157694000Y-99821000D01*
X157694000Y-100209000D01*
X157667500Y-100209000D01*
X157667500Y-100229000D01*
X157292500Y-100229000D01*
X157292500Y-100209000D01*
X156679000Y-100209000D01*
X156555000Y-100333000D01*
X156451000Y-100229000D01*
X155769000Y-100229000D01*
X155769000Y-100249000D01*
X155381000Y-100249000D01*
X155381000Y-100229000D01*
X154699000Y-100229000D01*
X154557000Y-100371000D01*
X154557000Y-100575001D01*
X153264473Y-100575001D01*
X152587236Y-99897764D01*
X152462333Y-99814306D01*
X152330093Y-99788002D01*
X152330093Y-99395000D01*
X152316361Y-99322018D01*
X154557000Y-99322018D01*
X154557000Y-99699000D01*
X154699000Y-99841000D01*
X155381000Y-99841000D01*
X155381000Y-99009000D01*
X155769000Y-99009000D01*
X155769000Y-99841000D01*
X156451000Y-99841000D01*
X156575000Y-99717000D01*
X156679000Y-99821000D01*
X157292500Y-99821000D01*
X157292500Y-98989000D01*
X157150500Y-98847000D01*
X156992018Y-98847000D01*
X156783254Y-98933473D01*
X156623473Y-99093254D01*
X156560858Y-99244420D01*
X156506527Y-99113254D01*
X156346746Y-98953473D01*
X156137982Y-98867000D01*
X155911000Y-98867000D01*
X155769000Y-99009000D01*
X155381000Y-99009000D01*
X155239000Y-98867000D01*
X155012018Y-98867000D01*
X154803254Y-98953473D01*
X154643473Y-99113254D01*
X154557000Y-99322018D01*
X152316361Y-99322018D01*
X152311964Y-99298650D01*
X152255021Y-99210158D01*
X152168136Y-99150793D01*
X152065000Y-99129907D01*
X151465000Y-99129907D01*
X151368650Y-99148036D01*
X151280158Y-99204979D01*
X151220793Y-99291864D01*
X151199907Y-99395000D01*
X151199907Y-99785000D01*
X151060093Y-99785000D01*
X151060093Y-99395000D01*
X151041964Y-99298650D01*
X150985021Y-99210158D01*
X150898136Y-99150793D01*
X150880000Y-99147120D01*
X150880000Y-98314530D01*
X150895093Y-98240000D01*
X150895093Y-97340000D01*
X150876964Y-97243650D01*
X150820021Y-97155158D01*
X150733136Y-97095793D01*
X150630000Y-97074907D01*
X149430000Y-97074907D01*
X149333650Y-97093036D01*
X149245158Y-97149979D01*
X149185793Y-97236864D01*
X149164907Y-97340000D01*
X149164907Y-98240000D01*
X149183036Y-98336350D01*
X149239979Y-98424842D01*
X149326864Y-98484207D01*
X149430000Y-98505093D01*
X150110000Y-98505093D01*
X150110000Y-99145900D01*
X150098650Y-99148036D01*
X150010158Y-99204979D01*
X149950793Y-99291864D01*
X149929907Y-99395000D01*
X149929907Y-100945000D01*
X149948036Y-101041350D01*
X150004979Y-101129842D01*
X150091864Y-101189207D01*
X150110000Y-101192880D01*
X150110000Y-101440528D01*
X147682764Y-103867764D01*
X147599306Y-103992667D01*
X147570000Y-104140000D01*
X147570000Y-104545900D01*
X147558650Y-104548036D01*
X147470158Y-104604979D01*
X147410793Y-104691864D01*
X147389907Y-104795000D01*
X145230000Y-104795000D01*
X145230000Y-100506000D01*
X147087000Y-100506000D01*
X147087000Y-101057982D01*
X147173473Y-101266746D01*
X147333254Y-101426527D01*
X147542018Y-101513000D01*
X147663000Y-101513000D01*
X147805000Y-101371000D01*
X147805000Y-100364000D01*
X147229000Y-100364000D01*
X147087000Y-100506000D01*
X145230000Y-100506000D01*
X145230000Y-99282018D01*
X147087000Y-99282018D01*
X147087000Y-99834000D01*
X147229000Y-99976000D01*
X147805000Y-99976000D01*
X147805000Y-98969000D01*
X148105000Y-98969000D01*
X148105000Y-99976000D01*
X148169000Y-99976000D01*
X148169000Y-100364000D01*
X148105000Y-100364000D01*
X148105000Y-101371000D01*
X148247000Y-101513000D01*
X148367982Y-101513000D01*
X148576746Y-101426527D01*
X148736527Y-101266746D01*
X148780384Y-101160866D01*
X148821864Y-101189207D01*
X148925000Y-101210093D01*
X149525000Y-101210093D01*
X149621350Y-101191964D01*
X149709842Y-101135021D01*
X149769207Y-101048136D01*
X149790093Y-100945000D01*
X149790093Y-99395000D01*
X149771964Y-99298650D01*
X149747834Y-99261151D01*
X149784903Y-99171880D01*
X149785097Y-98949098D01*
X149700022Y-98743200D01*
X149542629Y-98585532D01*
X149336880Y-98500097D01*
X149114098Y-98499903D01*
X148908200Y-98584978D01*
X148750532Y-98742371D01*
X148665097Y-98948120D01*
X148665050Y-99001777D01*
X148576746Y-98913473D01*
X148367982Y-98827000D01*
X148247000Y-98827000D01*
X148105000Y-98969000D01*
X147805000Y-98969000D01*
X147663000Y-98827000D01*
X147542018Y-98827000D01*
X147333254Y-98913473D01*
X147173473Y-99073254D01*
X147087000Y-99282018D01*
X145230000Y-99282018D01*
X145230000Y-95450133D01*
X148849255Y-95450133D01*
X149002781Y-95821694D01*
X149286811Y-96106220D01*
X149658103Y-96260394D01*
X150060133Y-96260745D01*
X150248458Y-96182930D01*
X151371748Y-97306220D01*
X151364907Y-97340000D01*
X151364907Y-98240000D01*
X151383036Y-98336350D01*
X151439979Y-98424842D01*
X151526864Y-98484207D01*
X151630000Y-98505093D01*
X152830000Y-98505093D01*
X152926350Y-98486964D01*
X153014842Y-98430021D01*
X153074207Y-98343136D01*
X153095093Y-98240000D01*
X153095093Y-97340000D01*
X153076964Y-97243650D01*
X153020021Y-97155158D01*
X152933136Y-97095793D01*
X152830000Y-97074907D01*
X152229379Y-97074907D01*
X151380738Y-96226266D01*
X155508092Y-96226266D01*
X155585000Y-96440291D01*
X156088080Y-96588862D01*
X156609721Y-96533605D01*
X156835000Y-96440291D01*
X156911908Y-96226266D01*
X156210000Y-95524357D01*
X155508092Y-96226266D01*
X151380738Y-96226266D01*
X150792928Y-95638456D01*
X150870394Y-95451897D01*
X150870676Y-95128080D01*
X154871138Y-95128080D01*
X154926395Y-95649721D01*
X155019709Y-95875000D01*
X155233734Y-95951908D01*
X155935643Y-95250000D01*
X156484357Y-95250000D01*
X157186266Y-95951908D01*
X157400291Y-95875000D01*
X157535844Y-95416000D01*
X159002000Y-95416000D01*
X159002000Y-95792982D01*
X159088473Y-96001746D01*
X159248254Y-96161527D01*
X159457018Y-96248000D01*
X159684000Y-96248000D01*
X159826000Y-96106000D01*
X159826000Y-95274000D01*
X160214000Y-95274000D01*
X160214000Y-96106000D01*
X160356000Y-96248000D01*
X160582982Y-96248000D01*
X160791746Y-96161527D01*
X160951527Y-96001746D01*
X161038000Y-95792982D01*
X161038000Y-95416000D01*
X160896000Y-95274000D01*
X160214000Y-95274000D01*
X159826000Y-95274000D01*
X159144000Y-95274000D01*
X159002000Y-95416000D01*
X157535844Y-95416000D01*
X157548862Y-95371920D01*
X157493605Y-94850279D01*
X157400291Y-94625000D01*
X157186266Y-94548092D01*
X156484357Y-95250000D01*
X155935643Y-95250000D01*
X155233734Y-94548092D01*
X155019709Y-94625000D01*
X154871138Y-95128080D01*
X150870676Y-95128080D01*
X150870745Y-95049867D01*
X150717219Y-94678306D01*
X150433189Y-94393780D01*
X150144087Y-94273734D01*
X155508092Y-94273734D01*
X156210000Y-94975643D01*
X156818624Y-94367018D01*
X159002000Y-94367018D01*
X159002000Y-94744000D01*
X159144000Y-94886000D01*
X159826000Y-94886000D01*
X159826000Y-94054000D01*
X160214000Y-94054000D01*
X160214000Y-94886000D01*
X160896000Y-94886000D01*
X161038000Y-94744000D01*
X161038000Y-94367018D01*
X160951527Y-94158254D01*
X160791746Y-93998473D01*
X160582982Y-93912000D01*
X160356000Y-93912000D01*
X160214000Y-94054000D01*
X159826000Y-94054000D01*
X159684000Y-93912000D01*
X159457018Y-93912000D01*
X159248254Y-93998473D01*
X159088473Y-94158254D01*
X159002000Y-94367018D01*
X156818624Y-94367018D01*
X156911908Y-94273734D01*
X156835000Y-94059709D01*
X156331920Y-93911138D01*
X155810279Y-93966395D01*
X155585000Y-94059709D01*
X155508092Y-94273734D01*
X150144087Y-94273734D01*
X150061897Y-94239606D01*
X149659867Y-94239255D01*
X149288306Y-94392781D01*
X149003780Y-94676811D01*
X148849606Y-95048103D01*
X148849255Y-95450133D01*
X145230000Y-95450133D01*
X145230000Y-92910133D01*
X148849255Y-92910133D01*
X149002781Y-93281694D01*
X149286811Y-93566220D01*
X149658103Y-93720394D01*
X150060133Y-93720745D01*
X150431694Y-93567219D01*
X150716220Y-93283189D01*
X150870394Y-92911897D01*
X150870395Y-92910133D01*
X155199255Y-92910133D01*
X155352781Y-93281694D01*
X155636811Y-93566220D01*
X156008103Y-93720394D01*
X156410133Y-93720745D01*
X156781694Y-93567219D01*
X157066220Y-93283189D01*
X157144363Y-93095000D01*
X159304907Y-93095000D01*
X159304907Y-93480000D01*
X159323036Y-93576350D01*
X159379979Y-93664842D01*
X159466864Y-93724207D01*
X159570000Y-93745093D01*
X160470000Y-93745093D01*
X160566350Y-93726964D01*
X160654842Y-93670021D01*
X160714207Y-93583136D01*
X160735093Y-93480000D01*
X160735093Y-92910133D01*
X162819255Y-92910133D01*
X162972781Y-93281694D01*
X163256811Y-93566220D01*
X163628103Y-93720394D01*
X164030133Y-93720745D01*
X164401694Y-93567219D01*
X164686220Y-93283189D01*
X164840394Y-92911897D01*
X164840395Y-92910133D01*
X168534255Y-92910133D01*
X168687781Y-93281694D01*
X168971811Y-93566220D01*
X169343103Y-93720394D01*
X169745133Y-93720745D01*
X170116694Y-93567219D01*
X170401220Y-93283189D01*
X170555394Y-92911897D01*
X170555395Y-92910133D01*
X174249255Y-92910133D01*
X174402781Y-93281694D01*
X174686811Y-93566220D01*
X175058103Y-93720394D01*
X175460133Y-93720745D01*
X175831694Y-93567219D01*
X176116220Y-93283189D01*
X176270394Y-92911897D01*
X176270395Y-92910133D01*
X179964255Y-92910133D01*
X180117781Y-93281694D01*
X180401811Y-93566220D01*
X180773103Y-93720394D01*
X181175133Y-93720745D01*
X181546694Y-93567219D01*
X181831220Y-93283189D01*
X181985394Y-92911897D01*
X181985395Y-92910133D01*
X186314255Y-92910133D01*
X186467781Y-93281694D01*
X186751811Y-93566220D01*
X187123103Y-93720394D01*
X187525133Y-93720745D01*
X187896694Y-93567219D01*
X188181220Y-93283189D01*
X188335394Y-92911897D01*
X188335395Y-92910133D01*
X202824255Y-92910133D01*
X202977781Y-93281694D01*
X203261811Y-93566220D01*
X203633103Y-93720394D01*
X204035133Y-93720745D01*
X204406694Y-93567219D01*
X204691220Y-93283189D01*
X204845394Y-92911897D01*
X204845395Y-92910133D01*
X208539255Y-92910133D01*
X208692781Y-93281694D01*
X208976811Y-93566220D01*
X209348103Y-93720394D01*
X209750133Y-93720745D01*
X210121694Y-93567219D01*
X210406220Y-93283189D01*
X210560394Y-92911897D01*
X210560745Y-92509867D01*
X210407219Y-92138306D01*
X210123189Y-91853780D01*
X209751897Y-91699606D01*
X209349867Y-91699255D01*
X208978306Y-91852781D01*
X208693780Y-92136811D01*
X208539606Y-92508103D01*
X208539255Y-92910133D01*
X204845395Y-92910133D01*
X204845745Y-92509867D01*
X204692219Y-92138306D01*
X204408189Y-91853780D01*
X204036897Y-91699606D01*
X203634867Y-91699255D01*
X203263306Y-91852781D01*
X202978780Y-92136811D01*
X202824606Y-92508103D01*
X202824255Y-92910133D01*
X188335395Y-92910133D01*
X188335745Y-92509867D01*
X188182219Y-92138306D01*
X187898189Y-91853780D01*
X187526897Y-91699606D01*
X187124867Y-91699255D01*
X186753306Y-91852781D01*
X186468780Y-92136811D01*
X186314606Y-92508103D01*
X186314255Y-92910133D01*
X181985395Y-92910133D01*
X181985745Y-92509867D01*
X181832219Y-92138306D01*
X181548189Y-91853780D01*
X181176897Y-91699606D01*
X180774867Y-91699255D01*
X180403306Y-91852781D01*
X180118780Y-92136811D01*
X179964606Y-92508103D01*
X179964255Y-92910133D01*
X176270395Y-92910133D01*
X176270745Y-92509867D01*
X176117219Y-92138306D01*
X175833189Y-91853780D01*
X175461897Y-91699606D01*
X175059867Y-91699255D01*
X174688306Y-91852781D01*
X174403780Y-92136811D01*
X174249606Y-92508103D01*
X174249255Y-92910133D01*
X170555395Y-92910133D01*
X170555745Y-92509867D01*
X170402219Y-92138306D01*
X170118189Y-91853780D01*
X169746897Y-91699606D01*
X169344867Y-91699255D01*
X168973306Y-91852781D01*
X168688780Y-92136811D01*
X168534606Y-92508103D01*
X168534255Y-92910133D01*
X164840395Y-92910133D01*
X164840745Y-92509867D01*
X164687219Y-92138306D01*
X164403189Y-91853780D01*
X164031897Y-91699606D01*
X163629867Y-91699255D01*
X163258306Y-91852781D01*
X162973780Y-92136811D01*
X162819606Y-92508103D01*
X162819255Y-92910133D01*
X160735093Y-92910133D01*
X160735093Y-92280000D01*
X160716964Y-92183650D01*
X160660021Y-92095158D01*
X160573136Y-92035793D01*
X160470000Y-92014907D01*
X159570000Y-92014907D01*
X159473650Y-92033036D01*
X159385158Y-92089979D01*
X159325793Y-92176864D01*
X159304907Y-92280000D01*
X159304907Y-92325000D01*
X157144359Y-92325000D01*
X157067219Y-92138306D01*
X156783189Y-91853780D01*
X156411897Y-91699606D01*
X156009867Y-91699255D01*
X155638306Y-91852781D01*
X155353780Y-92136811D01*
X155199606Y-92508103D01*
X155199255Y-92910133D01*
X150870395Y-92910133D01*
X150870745Y-92509867D01*
X150717219Y-92138306D01*
X150433189Y-91853780D01*
X150061897Y-91699606D01*
X149659867Y-91699255D01*
X149288306Y-91852781D01*
X149003780Y-92136811D01*
X148849606Y-92508103D01*
X148849255Y-92910133D01*
X145230000Y-92910133D01*
X145230000Y-87639432D01*
X147629774Y-87639432D01*
X147828789Y-88121086D01*
X148196976Y-88489916D01*
X148678282Y-88689772D01*
X149199432Y-88690226D01*
X149681086Y-88491211D01*
X150049916Y-88123024D01*
X150249772Y-87641718D01*
X150249773Y-87639432D01*
X159629774Y-87639432D01*
X159828789Y-88121086D01*
X160196976Y-88489916D01*
X160678282Y-88689772D01*
X161199432Y-88690226D01*
X161681086Y-88491211D01*
X162049916Y-88123024D01*
X162249772Y-87641718D01*
X162250226Y-87120568D01*
X162102187Y-86762285D01*
X162474473Y-86389999D01*
X164587492Y-86389999D01*
X164340084Y-86636976D01*
X164140228Y-87118282D01*
X164139774Y-87639432D01*
X164338789Y-88121086D01*
X164706976Y-88489916D01*
X165188282Y-88689772D01*
X165709432Y-88690226D01*
X166191086Y-88491211D01*
X166559916Y-88123024D01*
X166759772Y-87641718D01*
X166760226Y-87120568D01*
X166561211Y-86638914D01*
X166312730Y-86389999D01*
X176587492Y-86389999D01*
X176340084Y-86636976D01*
X176140228Y-87118282D01*
X176139774Y-87639432D01*
X176338789Y-88121086D01*
X176706976Y-88489916D01*
X177188282Y-88689772D01*
X177709432Y-88690226D01*
X178067715Y-88542187D01*
X178802765Y-89277237D01*
X178927668Y-89360695D01*
X179075001Y-89390001D01*
X208844999Y-89390001D01*
X208992332Y-89360695D01*
X209117235Y-89277237D01*
X209852453Y-88542019D01*
X210208282Y-88689772D01*
X210729432Y-88690226D01*
X211211086Y-88491211D01*
X211579916Y-88123024D01*
X211779772Y-87641718D01*
X211780226Y-87120568D01*
X211581211Y-86638914D01*
X211213024Y-86270084D01*
X210731718Y-86070228D01*
X210210568Y-86069774D01*
X209728914Y-86268789D01*
X209360084Y-86636976D01*
X209160228Y-87118282D01*
X209159774Y-87639432D01*
X209307813Y-87997715D01*
X208685527Y-88620001D01*
X198899390Y-88620001D01*
X199211086Y-88491211D01*
X199579916Y-88123024D01*
X199779772Y-87641718D01*
X199780226Y-87120568D01*
X199581211Y-86638914D01*
X199213024Y-86270084D01*
X198731718Y-86070228D01*
X198210568Y-86069774D01*
X197728914Y-86268789D01*
X197360084Y-86636976D01*
X197160228Y-87118282D01*
X197159774Y-87639432D01*
X197358789Y-88121086D01*
X197726976Y-88489916D01*
X198040255Y-88620001D01*
X194822508Y-88620001D01*
X195069916Y-88373024D01*
X195269772Y-87891718D01*
X195270226Y-87370568D01*
X195071211Y-86888914D01*
X194703024Y-86520084D01*
X194221718Y-86320228D01*
X193700568Y-86319774D01*
X193342285Y-86467813D01*
X192607235Y-85732763D01*
X192482332Y-85649305D01*
X192334999Y-85619999D01*
X162315001Y-85619999D01*
X162167667Y-85649305D01*
X162042765Y-85732763D01*
X161557547Y-86217981D01*
X161201718Y-86070228D01*
X160680568Y-86069774D01*
X160198914Y-86268789D01*
X159830084Y-86636976D01*
X159630228Y-87118282D01*
X159629774Y-87639432D01*
X150249773Y-87639432D01*
X150250226Y-87120568D01*
X150051211Y-86638914D01*
X149683024Y-86270084D01*
X149201718Y-86070228D01*
X148680568Y-86069774D01*
X148198914Y-86268789D01*
X147830084Y-86636976D01*
X147630228Y-87118282D01*
X147629774Y-87639432D01*
X145230000Y-87639432D01*
X145230000Y-75439432D01*
X147629774Y-75439432D01*
X147828789Y-75921086D01*
X148196976Y-76289916D01*
X148678282Y-76489772D01*
X149199432Y-76490226D01*
X149557715Y-76342187D01*
X150042765Y-76827237D01*
X150167667Y-76910695D01*
X150315001Y-76940001D01*
X162590075Y-76940001D01*
X162737408Y-76910695D01*
X162862311Y-76827237D01*
X164124548Y-75565000D01*
X164191658Y-75565000D01*
X164338789Y-75921086D01*
X164706976Y-76289916D01*
X165188282Y-76489772D01*
X165709432Y-76490226D01*
X166067715Y-76342187D01*
X166552765Y-76827237D01*
X166677667Y-76910695D01*
X166825001Y-76940001D01*
X180834999Y-76940001D01*
X180982332Y-76910695D01*
X181107235Y-76827237D01*
X181342453Y-76592019D01*
X181698282Y-76739772D01*
X182219432Y-76740226D01*
X182577715Y-76592187D01*
X183727764Y-77742236D01*
X183852667Y-77825694D01*
X184000000Y-77855000D01*
X196180000Y-77855000D01*
X196327333Y-77825694D01*
X196452236Y-77742236D01*
X197852453Y-76342019D01*
X198208282Y-76489772D01*
X198729432Y-76490226D01*
X199211086Y-76291211D01*
X199579916Y-75923024D01*
X199779772Y-75441718D01*
X199780157Y-74999627D01*
X200232766Y-75452236D01*
X200357668Y-75535694D01*
X200505002Y-75565000D01*
X209211658Y-75565000D01*
X209358789Y-75921086D01*
X209726976Y-76289916D01*
X210208282Y-76489772D01*
X210729432Y-76490226D01*
X211211086Y-76291211D01*
X211579916Y-75923024D01*
X211779772Y-75441718D01*
X211780226Y-74920568D01*
X211581211Y-74438914D01*
X211213024Y-74070084D01*
X210731718Y-73870228D01*
X210210568Y-73869774D01*
X209728914Y-74068789D01*
X209360084Y-74436976D01*
X209211419Y-74795000D01*
X200664474Y-74795000D01*
X199402237Y-73532763D01*
X199277334Y-73449305D01*
X199227699Y-73439432D01*
X203159774Y-73439432D01*
X203358789Y-73921086D01*
X203726976Y-74289916D01*
X204208282Y-74489772D01*
X204729432Y-74490226D01*
X205211086Y-74291211D01*
X205579916Y-73923024D01*
X205779772Y-73441718D01*
X205780226Y-72920568D01*
X205581211Y-72438914D01*
X205349786Y-72207085D01*
X209066896Y-68489975D01*
X209120016Y-68525469D01*
X209549999Y-68610998D01*
X209979982Y-68525469D01*
X210344504Y-68281903D01*
X210588070Y-67917381D01*
X210673599Y-67487398D01*
X210673599Y-67132602D01*
X210588070Y-66702619D01*
X210344504Y-66338097D01*
X209979982Y-66094531D01*
X209549999Y-66009002D01*
X209120016Y-66094531D01*
X208755494Y-66338097D01*
X208511928Y-66702619D01*
X208429702Y-67115998D01*
X208296782Y-67115998D01*
X208414683Y-66893001D01*
X208206500Y-66375593D01*
X207816161Y-65977239D01*
X207423496Y-65787017D01*
X207203999Y-65882676D01*
X207203999Y-67116000D01*
X207223999Y-67116000D01*
X207223999Y-67504000D01*
X207203999Y-67504000D01*
X207203999Y-68737324D01*
X207423496Y-68832983D01*
X207816161Y-68642761D01*
X208206500Y-68244407D01*
X208414683Y-67726999D01*
X208296782Y-67504002D01*
X208429702Y-67504002D01*
X208511928Y-67917381D01*
X208527396Y-67940531D01*
X204597816Y-71870111D01*
X204210568Y-71869774D01*
X203728914Y-72068789D01*
X203360084Y-72436976D01*
X203160228Y-72918282D01*
X203159774Y-73439432D01*
X199227699Y-73439432D01*
X199130001Y-73419999D01*
X195585001Y-73419999D01*
X195437668Y-73449305D01*
X195312765Y-73532763D01*
X194577547Y-74267981D01*
X194221718Y-74120228D01*
X193700568Y-74119774D01*
X193218914Y-74318789D01*
X192850084Y-74686976D01*
X192701419Y-75045000D01*
X184154474Y-75045000D01*
X182892237Y-73782763D01*
X182767334Y-73699305D01*
X182717699Y-73689432D01*
X186649774Y-73689432D01*
X186848789Y-74171086D01*
X187216976Y-74539916D01*
X187698282Y-74739772D01*
X188219432Y-74740226D01*
X188701086Y-74541211D01*
X189069916Y-74173024D01*
X189269772Y-73691718D01*
X189270226Y-73170568D01*
X189122187Y-72812285D01*
X192898471Y-69036001D01*
X203281398Y-69036001D01*
X203428731Y-69006695D01*
X203553634Y-68923237D01*
X203986896Y-68489975D01*
X204040016Y-68525469D01*
X204469999Y-68610998D01*
X204899982Y-68525469D01*
X205264504Y-68281903D01*
X205508070Y-67917381D01*
X205590296Y-67504002D01*
X205723216Y-67504002D01*
X205605315Y-67726999D01*
X205813498Y-68244407D01*
X206203837Y-68642761D01*
X206596502Y-68832983D01*
X206815999Y-68737324D01*
X206815999Y-67504000D01*
X206795999Y-67504000D01*
X206795999Y-67116000D01*
X206815999Y-67116000D01*
X206815999Y-65882676D01*
X206596502Y-65787017D01*
X206203837Y-65977239D01*
X205813498Y-66375593D01*
X205605315Y-66893001D01*
X205723216Y-67115998D01*
X205590296Y-67115998D01*
X205508070Y-66702619D01*
X205264504Y-66338097D01*
X204899982Y-66094531D01*
X204469999Y-66009002D01*
X204040016Y-66094531D01*
X203675494Y-66338097D01*
X203431928Y-66702619D01*
X203349702Y-67115998D01*
X203219601Y-67115998D01*
X203361599Y-66974000D01*
X203361599Y-66181018D01*
X203275126Y-65972254D01*
X203115345Y-65812473D01*
X202906581Y-65726000D01*
X202265999Y-65726000D01*
X202123999Y-65868000D01*
X202123999Y-67116000D01*
X202143999Y-67116000D01*
X202143999Y-67504000D01*
X202123999Y-67504000D01*
X202123999Y-67524000D01*
X201735999Y-67524000D01*
X201735999Y-67504000D01*
X200640399Y-67504000D01*
X200498399Y-67646000D01*
X200498399Y-68266001D01*
X193421796Y-68266001D01*
X193654737Y-67917381D01*
X193740266Y-67487398D01*
X193740266Y-67132602D01*
X193654737Y-66702619D01*
X193411171Y-66338097D01*
X193176086Y-66181018D01*
X200498399Y-66181018D01*
X200498399Y-66974000D01*
X200640399Y-67116000D01*
X201735999Y-67116000D01*
X201735999Y-65868000D01*
X201593999Y-65726000D01*
X200953417Y-65726000D01*
X200744653Y-65812473D01*
X200584872Y-65972254D01*
X200498399Y-66181018D01*
X193176086Y-66181018D01*
X193046649Y-66094531D01*
X192616666Y-66009002D01*
X192186683Y-66094531D01*
X191822161Y-66338097D01*
X191578595Y-66702619D01*
X191496369Y-67115998D01*
X191363449Y-67115998D01*
X191481350Y-66893001D01*
X191273167Y-66375593D01*
X190882828Y-65977239D01*
X190490163Y-65787017D01*
X190270666Y-65882676D01*
X190270666Y-67116000D01*
X190290666Y-67116000D01*
X190290666Y-67504000D01*
X190270666Y-67504000D01*
X190270666Y-68737324D01*
X190490163Y-68832983D01*
X190882828Y-68642761D01*
X191273167Y-68244407D01*
X191481350Y-67726999D01*
X191363449Y-67504002D01*
X191496369Y-67504002D01*
X191578595Y-67917381D01*
X191822161Y-68281903D01*
X192186683Y-68525469D01*
X192297930Y-68547598D01*
X188577547Y-72267981D01*
X188221718Y-72120228D01*
X187700568Y-72119774D01*
X187218914Y-72318789D01*
X186850084Y-72686976D01*
X186650228Y-73168282D01*
X186649774Y-73689432D01*
X182717699Y-73689432D01*
X182620001Y-73669999D01*
X178575001Y-73669999D01*
X178427668Y-73699305D01*
X178302765Y-73782763D01*
X178067547Y-74017981D01*
X177711718Y-73870228D01*
X177190568Y-73869774D01*
X176708914Y-74068789D01*
X176340084Y-74436976D01*
X176191419Y-74795000D01*
X167644474Y-74795000D01*
X166382237Y-73532763D01*
X166257334Y-73449305D01*
X166110001Y-73419999D01*
X162315001Y-73419999D01*
X162167667Y-73449305D01*
X162042765Y-73532763D01*
X161557547Y-74017981D01*
X161201718Y-73870228D01*
X160680568Y-73869774D01*
X160198914Y-74068789D01*
X159830084Y-74436976D01*
X159630228Y-74918282D01*
X159629774Y-75439432D01*
X159828789Y-75921086D01*
X160077270Y-76170001D01*
X150474473Y-76170001D01*
X150102019Y-75797547D01*
X150249772Y-75441718D01*
X150250226Y-74920568D01*
X150051211Y-74438914D01*
X149683024Y-74070084D01*
X149201718Y-73870228D01*
X148680568Y-73869774D01*
X148198914Y-74068789D01*
X147830084Y-74436976D01*
X147630228Y-74918282D01*
X147629774Y-75439432D01*
X145230000Y-75439432D01*
X145230000Y-67646000D01*
X149698400Y-67646000D01*
X149698400Y-68438982D01*
X149784873Y-68647746D01*
X149944654Y-68807527D01*
X150153418Y-68894000D01*
X150794000Y-68894000D01*
X150936000Y-68752000D01*
X150936000Y-67504000D01*
X149840400Y-67504000D01*
X149698400Y-67646000D01*
X145230000Y-67646000D01*
X145230000Y-66181018D01*
X149698400Y-66181018D01*
X149698400Y-66974000D01*
X149840400Y-67116000D01*
X150936000Y-67116000D01*
X150936000Y-65868000D01*
X151324000Y-65868000D01*
X151324000Y-67116000D01*
X151344000Y-67116000D01*
X151344000Y-67504000D01*
X151324000Y-67504000D01*
X151324000Y-68752000D01*
X151466000Y-68894000D01*
X152106582Y-68894000D01*
X152315346Y-68807527D01*
X152475127Y-68647746D01*
X152561600Y-68438982D01*
X152561600Y-67646000D01*
X152419602Y-67504002D01*
X152549703Y-67504002D01*
X152631929Y-67917381D01*
X152875495Y-68281903D01*
X153240017Y-68525469D01*
X153285000Y-68534417D01*
X153285000Y-71910000D01*
X153314306Y-72057333D01*
X153397764Y-72182236D01*
X153777981Y-72562453D01*
X153630228Y-72918282D01*
X153629774Y-73439432D01*
X153828789Y-73921086D01*
X154196976Y-74289916D01*
X154678282Y-74489772D01*
X155199432Y-74490226D01*
X155681086Y-74291211D01*
X156049916Y-73923024D01*
X156249772Y-73441718D01*
X156250226Y-72920568D01*
X156051211Y-72438914D01*
X155683024Y-72070084D01*
X155201718Y-71870228D01*
X154680568Y-71869774D01*
X154322285Y-72017813D01*
X154055000Y-71750528D01*
X154055000Y-68534417D01*
X154099983Y-68525469D01*
X154464505Y-68281903D01*
X154708071Y-67917381D01*
X154790297Y-67504002D01*
X154923217Y-67504002D01*
X154805316Y-67726999D01*
X155013499Y-68244407D01*
X155403838Y-68642761D01*
X155796503Y-68832983D01*
X156016000Y-68737324D01*
X156016000Y-67504000D01*
X155996000Y-67504000D01*
X155996000Y-67116000D01*
X156016000Y-67116000D01*
X156016000Y-65882676D01*
X156404000Y-65882676D01*
X156404000Y-67116000D01*
X156424000Y-67116000D01*
X156424000Y-67504000D01*
X156404000Y-67504000D01*
X156404000Y-68737324D01*
X156623497Y-68832983D01*
X157016162Y-68642761D01*
X157406501Y-68244407D01*
X157614684Y-67726999D01*
X157496783Y-67504002D01*
X157629703Y-67504002D01*
X157711929Y-67917381D01*
X157955495Y-68281903D01*
X158320017Y-68525469D01*
X158750000Y-68610998D01*
X159179983Y-68525469D01*
X159544505Y-68281903D01*
X159788071Y-67917381D01*
X159832305Y-67695000D01*
X165420528Y-67695000D01*
X170287981Y-72562453D01*
X170140228Y-72918282D01*
X170139774Y-73439432D01*
X170338789Y-73921086D01*
X170706976Y-74289916D01*
X171188282Y-74489772D01*
X171709432Y-74490226D01*
X172191086Y-74291211D01*
X172559916Y-73923024D01*
X172759772Y-73441718D01*
X172760226Y-72920568D01*
X172561211Y-72438914D01*
X172193024Y-72070084D01*
X171711718Y-71870228D01*
X171190568Y-71869774D01*
X170832285Y-72017813D01*
X167708472Y-68894000D01*
X167727333Y-68894000D01*
X167869333Y-68752000D01*
X167869333Y-67504000D01*
X166773733Y-67504000D01*
X166631733Y-67646000D01*
X166631733Y-67817261D01*
X165852236Y-67037764D01*
X165727333Y-66954306D01*
X165580000Y-66925000D01*
X159832305Y-66925000D01*
X159788071Y-66702619D01*
X159544505Y-66338097D01*
X159309420Y-66181018D01*
X166631733Y-66181018D01*
X166631733Y-66974000D01*
X166773733Y-67116000D01*
X167869333Y-67116000D01*
X167869333Y-65868000D01*
X168257333Y-65868000D01*
X168257333Y-67116000D01*
X168277333Y-67116000D01*
X168277333Y-67504000D01*
X168257333Y-67504000D01*
X168257333Y-68752000D01*
X168399333Y-68894000D01*
X169039915Y-68894000D01*
X169248679Y-68807527D01*
X169408460Y-68647746D01*
X169494933Y-68438982D01*
X169494933Y-67646000D01*
X169352935Y-67504002D01*
X169483036Y-67504002D01*
X169565262Y-67917381D01*
X169808828Y-68281903D01*
X170173350Y-68525469D01*
X170603333Y-68610998D01*
X171033316Y-68525469D01*
X171397838Y-68281903D01*
X171641404Y-67917381D01*
X171723630Y-67504002D01*
X171856550Y-67504002D01*
X171738649Y-67726999D01*
X171946832Y-68244407D01*
X172337171Y-68642761D01*
X172729836Y-68832983D01*
X172949333Y-68737324D01*
X172949333Y-67504000D01*
X172929333Y-67504000D01*
X172929333Y-67116000D01*
X172949333Y-67116000D01*
X172949333Y-65882676D01*
X173337333Y-65882676D01*
X173337333Y-67116000D01*
X173357333Y-67116000D01*
X173357333Y-67504000D01*
X173337333Y-67504000D01*
X173337333Y-68737324D01*
X173556830Y-68832983D01*
X173949495Y-68642761D01*
X174339834Y-68244407D01*
X174548017Y-67726999D01*
X174430116Y-67504002D01*
X174563036Y-67504002D01*
X174645262Y-67917381D01*
X174888828Y-68281903D01*
X175253350Y-68525469D01*
X175683333Y-68610998D01*
X176113316Y-68525469D01*
X176477838Y-68281903D01*
X176721404Y-67917381D01*
X176775385Y-67646000D01*
X183565066Y-67646000D01*
X183565066Y-68438982D01*
X183651539Y-68647746D01*
X183811320Y-68807527D01*
X184020084Y-68894000D01*
X184660666Y-68894000D01*
X184802666Y-68752000D01*
X184802666Y-67504000D01*
X183707066Y-67504000D01*
X183565066Y-67646000D01*
X176775385Y-67646000D01*
X176806933Y-67487398D01*
X176806933Y-67132602D01*
X176721404Y-66702619D01*
X176477838Y-66338097D01*
X176242753Y-66181018D01*
X183565066Y-66181018D01*
X183565066Y-66974000D01*
X183707066Y-67116000D01*
X184802666Y-67116000D01*
X184802666Y-65868000D01*
X185190666Y-65868000D01*
X185190666Y-67116000D01*
X185210666Y-67116000D01*
X185210666Y-67504000D01*
X185190666Y-67504000D01*
X185190666Y-68752000D01*
X185332666Y-68894000D01*
X185973248Y-68894000D01*
X186182012Y-68807527D01*
X186341793Y-68647746D01*
X186428266Y-68438982D01*
X186428266Y-67646000D01*
X186286268Y-67504002D01*
X186416369Y-67504002D01*
X186498595Y-67917381D01*
X186742161Y-68281903D01*
X187106683Y-68525469D01*
X187536666Y-68610998D01*
X187966649Y-68525469D01*
X188331171Y-68281903D01*
X188574737Y-67917381D01*
X188656963Y-67504002D01*
X188789883Y-67504002D01*
X188671982Y-67726999D01*
X188880165Y-68244407D01*
X189270504Y-68642761D01*
X189663169Y-68832983D01*
X189882666Y-68737324D01*
X189882666Y-67504000D01*
X189862666Y-67504000D01*
X189862666Y-67116000D01*
X189882666Y-67116000D01*
X189882666Y-65882676D01*
X189663169Y-65787017D01*
X189270504Y-65977239D01*
X188880165Y-66375593D01*
X188671982Y-66893001D01*
X188789883Y-67115998D01*
X188656963Y-67115998D01*
X188574737Y-66702619D01*
X188331171Y-66338097D01*
X187966649Y-66094531D01*
X187536666Y-66009002D01*
X187106683Y-66094531D01*
X186742161Y-66338097D01*
X186498595Y-66702619D01*
X186416369Y-67115998D01*
X186286268Y-67115998D01*
X186428266Y-66974000D01*
X186428266Y-66181018D01*
X186341793Y-65972254D01*
X186182012Y-65812473D01*
X185973248Y-65726000D01*
X185332666Y-65726000D01*
X185190666Y-65868000D01*
X184802666Y-65868000D01*
X184660666Y-65726000D01*
X184020084Y-65726000D01*
X183811320Y-65812473D01*
X183651539Y-65972254D01*
X183565066Y-66181018D01*
X176242753Y-66181018D01*
X176113316Y-66094531D01*
X175683333Y-66009002D01*
X175253350Y-66094531D01*
X174888828Y-66338097D01*
X174645262Y-66702619D01*
X174563036Y-67115998D01*
X174430116Y-67115998D01*
X174548017Y-66893001D01*
X174339834Y-66375593D01*
X173949495Y-65977239D01*
X173556830Y-65787017D01*
X173337333Y-65882676D01*
X172949333Y-65882676D01*
X172729836Y-65787017D01*
X172337171Y-65977239D01*
X171946832Y-66375593D01*
X171738649Y-66893001D01*
X171856550Y-67115998D01*
X171723630Y-67115998D01*
X171641404Y-66702619D01*
X171397838Y-66338097D01*
X171033316Y-66094531D01*
X170603333Y-66009002D01*
X170173350Y-66094531D01*
X169808828Y-66338097D01*
X169565262Y-66702619D01*
X169483036Y-67115998D01*
X169352935Y-67115998D01*
X169494933Y-66974000D01*
X169494933Y-66181018D01*
X169408460Y-65972254D01*
X169248679Y-65812473D01*
X169039915Y-65726000D01*
X168399333Y-65726000D01*
X168257333Y-65868000D01*
X167869333Y-65868000D01*
X167727333Y-65726000D01*
X167086751Y-65726000D01*
X166877987Y-65812473D01*
X166718206Y-65972254D01*
X166631733Y-66181018D01*
X159309420Y-66181018D01*
X159179983Y-66094531D01*
X158750000Y-66009002D01*
X158320017Y-66094531D01*
X157955495Y-66338097D01*
X157711929Y-66702619D01*
X157629703Y-67115998D01*
X157496783Y-67115998D01*
X157614684Y-66893001D01*
X157406501Y-66375593D01*
X157016162Y-65977239D01*
X156623497Y-65787017D01*
X156404000Y-65882676D01*
X156016000Y-65882676D01*
X155796503Y-65787017D01*
X155403838Y-65977239D01*
X155013499Y-66375593D01*
X154805316Y-66893001D01*
X154923217Y-67115998D01*
X154790297Y-67115998D01*
X154708071Y-66702619D01*
X154464505Y-66338097D01*
X154099983Y-66094531D01*
X153670000Y-66009002D01*
X153240017Y-66094531D01*
X152875495Y-66338097D01*
X152631929Y-66702619D01*
X152549703Y-67115998D01*
X152419602Y-67115998D01*
X152561600Y-66974000D01*
X152561600Y-66181018D01*
X152475127Y-65972254D01*
X152315346Y-65812473D01*
X152106582Y-65726000D01*
X151466000Y-65726000D01*
X151324000Y-65868000D01*
X150936000Y-65868000D01*
X150794000Y-65726000D01*
X150153418Y-65726000D01*
X149944654Y-65812473D01*
X149784873Y-65972254D01*
X149698400Y-66181018D01*
X145230000Y-66181018D01*
X145230000Y-65230000D01*
X214770000Y-65230000D01*
X214770000Y-114770000D01*
X214770000Y-114770000D01*
G37*
X214770000Y-114770000D02*
X145230000Y-114770000D01*
X145230000Y-112096000D01*
X147006000Y-112096000D01*
X147006000Y-112888982D01*
X147092473Y-113097746D01*
X147252254Y-113257527D01*
X147461018Y-113344000D01*
X148254000Y-113344000D01*
X148396000Y-113202000D01*
X148396000Y-111954000D01*
X147148000Y-111954000D01*
X147006000Y-112096000D01*
X145230000Y-112096000D01*
X145230000Y-110631018D01*
X147006000Y-110631018D01*
X147006000Y-111424000D01*
X147148000Y-111566000D01*
X148396000Y-111566000D01*
X148396000Y-110318000D01*
X148254000Y-110176000D01*
X147461018Y-110176000D01*
X147252254Y-110262473D01*
X147092473Y-110422254D01*
X147006000Y-110631018D01*
X145230000Y-110631018D01*
X145230000Y-104795000D01*
X147389907Y-104795000D01*
X147389907Y-106345000D01*
X147408036Y-106441350D01*
X147464979Y-106529842D01*
X147551864Y-106589207D01*
X147655000Y-106610093D01*
X148255000Y-106610093D01*
X148351350Y-106591964D01*
X148439842Y-106535021D01*
X148499207Y-106448136D01*
X148520093Y-106345000D01*
X148520093Y-104795000D01*
X148659907Y-104795000D01*
X148659907Y-106345000D01*
X148678036Y-106441350D01*
X148734979Y-106529842D01*
X148821864Y-106589207D01*
X148925000Y-106610093D01*
X149525000Y-106610093D01*
X149621350Y-106591964D01*
X149709842Y-106535021D01*
X149769207Y-106448136D01*
X149790093Y-106345000D01*
X149790093Y-105955000D01*
X149929907Y-105955000D01*
X149929907Y-106345000D01*
X149948036Y-106441350D01*
X150004979Y-106529842D01*
X150091864Y-106589207D01*
X150195000Y-106610093D01*
X150795000Y-106610093D01*
X150891350Y-106591964D01*
X150979842Y-106535021D01*
X151039207Y-106448136D01*
X151060093Y-106345000D01*
X151060093Y-104795000D01*
X151041964Y-104698650D01*
X150985021Y-104610158D01*
X150898136Y-104550793D01*
X150795000Y-104529907D01*
X150195000Y-104529907D01*
X150098650Y-104548036D01*
X150010158Y-104604979D01*
X149950793Y-104691864D01*
X149929907Y-104795000D01*
X149929907Y-105185000D01*
X149790093Y-105185000D01*
X149790093Y-104795000D01*
X149771964Y-104698650D01*
X149715021Y-104610158D01*
X149628136Y-104550793D01*
X149525000Y-104529907D01*
X148925000Y-104529907D01*
X148828650Y-104548036D01*
X148740158Y-104604979D01*
X148680793Y-104691864D01*
X148659907Y-104795000D01*
X148520093Y-104795000D01*
X148501964Y-104698650D01*
X148445021Y-104610158D01*
X148358136Y-104550793D01*
X148340000Y-104547120D01*
X148340000Y-104299472D01*
X150767236Y-101872236D01*
X150837107Y-101767667D01*
X150850694Y-101747333D01*
X150880000Y-101600000D01*
X150880000Y-101194100D01*
X150891350Y-101191964D01*
X150979842Y-101135021D01*
X151039207Y-101048136D01*
X151060093Y-100945000D01*
X151060093Y-100555000D01*
X151199907Y-100555000D01*
X151199907Y-100945000D01*
X151218036Y-101041350D01*
X151274979Y-101129842D01*
X151361864Y-101189207D01*
X151465000Y-101210093D01*
X152065000Y-101210093D01*
X152161350Y-101191964D01*
X152249842Y-101135021D01*
X152309207Y-101048136D01*
X152330093Y-100945000D01*
X152330093Y-100729565D01*
X152832765Y-101232237D01*
X152957667Y-101315695D01*
X153105001Y-101345001D01*
X156839907Y-101345001D01*
X156839907Y-101850000D01*
X156290093Y-101850000D01*
X156290093Y-101635000D01*
X156271964Y-101538650D01*
X156215021Y-101450158D01*
X156128136Y-101390793D01*
X156025000Y-101369907D01*
X155125000Y-101369907D01*
X155028650Y-101388036D01*
X154940158Y-101444979D01*
X154880793Y-101531864D01*
X154859907Y-101635000D01*
X154859907Y-101850000D01*
X154711941Y-101850000D01*
X154622629Y-101760532D01*
X154416880Y-101675097D01*
X154194098Y-101674903D01*
X153988200Y-101759978D01*
X153830532Y-101917371D01*
X153745097Y-102123120D01*
X153744903Y-102345902D01*
X153829978Y-102551800D01*
X153987371Y-102709468D01*
X154193120Y-102794903D01*
X154415902Y-102795097D01*
X154621800Y-102710022D01*
X154711979Y-102620000D01*
X154859907Y-102620000D01*
X154859907Y-102835000D01*
X154878036Y-102931350D01*
X154934979Y-103019842D01*
X155021864Y-103079207D01*
X155125000Y-103100093D01*
X155190000Y-103100093D01*
X155190000Y-103909907D01*
X155125000Y-103909907D01*
X155028650Y-103928036D01*
X154940158Y-103984979D01*
X154880793Y-104071864D01*
X154859907Y-104175000D01*
X154859907Y-105375000D01*
X154878036Y-105471350D01*
X154934979Y-105559842D01*
X155021864Y-105619207D01*
X155125000Y-105640093D01*
X156025000Y-105640093D01*
X156121350Y-105621964D01*
X156209842Y-105565021D01*
X156269207Y-105478136D01*
X156290093Y-105375000D01*
X156290093Y-104175000D01*
X156271964Y-104078650D01*
X156215021Y-103990158D01*
X156128136Y-103930793D01*
X156025000Y-103909907D01*
X155960000Y-103909907D01*
X155960000Y-103100093D01*
X156025000Y-103100093D01*
X156121350Y-103081964D01*
X156209842Y-103025021D01*
X156269207Y-102938136D01*
X156290093Y-102835000D01*
X156290093Y-102620000D01*
X156863602Y-102620000D01*
X156914979Y-102699842D01*
X157001864Y-102759207D01*
X157105000Y-102780093D01*
X157855000Y-102780093D01*
X157951350Y-102761964D01*
X158039842Y-102705021D01*
X158099207Y-102618136D01*
X158120093Y-102515000D01*
X158120093Y-101315000D01*
X158119901Y-101313979D01*
X158242235Y-101232237D01*
X160969379Y-98505093D01*
X161610621Y-98505093D01*
X164202763Y-101097235D01*
X164327666Y-101180693D01*
X164474999Y-101209999D01*
X186164907Y-101209999D01*
X186164907Y-102050000D01*
X186183036Y-102146350D01*
X186239979Y-102234842D01*
X186326864Y-102294207D01*
X186430000Y-102315093D01*
X186645000Y-102315093D01*
X186645000Y-102917956D01*
X186627933Y-102935023D01*
X186501516Y-102934913D01*
X186295618Y-103019988D01*
X186137950Y-103177381D01*
X186052515Y-103383130D01*
X186052321Y-103605912D01*
X186113923Y-103755000D01*
X177520884Y-103755000D01*
X176998648Y-103232764D01*
X176873745Y-103149306D01*
X176726412Y-103120000D01*
X157251941Y-103120000D01*
X157162629Y-103030532D01*
X156956880Y-102945097D01*
X156734098Y-102944903D01*
X156528200Y-103029978D01*
X156370532Y-103187371D01*
X156285097Y-103393120D01*
X156284903Y-103615902D01*
X156369978Y-103821800D01*
X156527371Y-103979468D01*
X156689102Y-104046625D01*
X156623473Y-104112254D01*
X156537000Y-104321018D01*
X156537000Y-104698000D01*
X156679000Y-104840000D01*
X157292500Y-104840000D01*
X157292500Y-104820000D01*
X157667500Y-104820000D01*
X157667500Y-104840000D01*
X158281000Y-104840000D01*
X158423000Y-104698000D01*
X158423000Y-104321018D01*
X158336527Y-104112254D01*
X158176746Y-103952473D01*
X158025923Y-103890000D01*
X160604528Y-103890000D01*
X158120093Y-106374435D01*
X158120093Y-106334000D01*
X158101964Y-106237650D01*
X158055655Y-106165684D01*
X158176746Y-106115527D01*
X158336527Y-105955746D01*
X158423000Y-105746982D01*
X158423000Y-105370000D01*
X158281000Y-105228000D01*
X157667500Y-105228000D01*
X157667500Y-105248000D01*
X157292500Y-105248000D01*
X157292500Y-105228000D01*
X156679000Y-105228000D01*
X156537000Y-105370000D01*
X156537000Y-105746982D01*
X156623473Y-105955746D01*
X156783254Y-106115527D01*
X156905111Y-106166002D01*
X156860793Y-106230864D01*
X156839907Y-106334000D01*
X156839907Y-106590000D01*
X156290093Y-106590000D01*
X156290093Y-106375000D01*
X156271964Y-106278650D01*
X156215021Y-106190158D01*
X156128136Y-106130793D01*
X156025000Y-106109907D01*
X155125000Y-106109907D01*
X155028650Y-106128036D01*
X154940158Y-106184979D01*
X154880793Y-106271864D01*
X154859907Y-106375000D01*
X154859907Y-106590000D01*
X152854472Y-106590000D01*
X152330093Y-106065621D01*
X152330093Y-104795000D01*
X152311964Y-104698650D01*
X152255021Y-104610158D01*
X152168136Y-104550793D01*
X152065000Y-104529907D01*
X151465000Y-104529907D01*
X151368650Y-104548036D01*
X151280158Y-104604979D01*
X151220793Y-104691864D01*
X151199907Y-104795000D01*
X151199907Y-106345000D01*
X151218036Y-106441350D01*
X151274979Y-106529842D01*
X151361864Y-106589207D01*
X151380000Y-106592880D01*
X151380000Y-110508730D01*
X151130000Y-110459002D01*
X150641696Y-110556132D01*
X150227732Y-110832734D01*
X150174000Y-110913150D01*
X150174000Y-110631018D01*
X150087527Y-110422254D01*
X149927746Y-110262473D01*
X149718982Y-110176000D01*
X148926000Y-110176000D01*
X148784000Y-110318000D01*
X148784000Y-111566000D01*
X148804000Y-111566000D01*
X148804000Y-111954000D01*
X148784000Y-111954000D01*
X148784000Y-113202000D01*
X148926000Y-113344000D01*
X149718982Y-113344000D01*
X149927746Y-113257527D01*
X150087527Y-113097746D01*
X150174000Y-112888982D01*
X150174000Y-112606850D01*
X150227732Y-112687266D01*
X150641696Y-112963868D01*
X151130000Y-113060998D01*
X151618304Y-112963868D01*
X152032268Y-112687266D01*
X152308870Y-112273302D01*
X152406000Y-111784998D01*
X152406000Y-111735002D01*
X152308870Y-111246698D01*
X152150000Y-111008932D01*
X152150000Y-106974472D01*
X152422764Y-107247236D01*
X152547667Y-107330694D01*
X152695000Y-107360000D01*
X154859907Y-107360000D01*
X154859907Y-107575000D01*
X154878036Y-107671350D01*
X154934979Y-107759842D01*
X155021864Y-107819207D01*
X155125000Y-107840093D01*
X156025000Y-107840093D01*
X156121350Y-107821964D01*
X156209842Y-107765021D01*
X156269207Y-107678136D01*
X156290093Y-107575000D01*
X156290093Y-107360000D01*
X156839907Y-107360000D01*
X156839907Y-107534000D01*
X156858036Y-107630350D01*
X156914979Y-107718842D01*
X157001864Y-107778207D01*
X157105000Y-107799093D01*
X157855000Y-107799093D01*
X157951350Y-107780964D01*
X158039842Y-107724021D01*
X158099207Y-107637136D01*
X158120093Y-107534000D01*
X158120093Y-107315998D01*
X158252333Y-107289694D01*
X158377236Y-107206236D01*
X161178473Y-104404999D01*
X169464907Y-104404999D01*
X169464907Y-104560000D01*
X165412600Y-104560000D01*
X165265266Y-104589306D01*
X165140364Y-104672764D01*
X159334221Y-110478907D01*
X157886400Y-110478907D01*
X157790050Y-110497036D01*
X157701558Y-110553979D01*
X157642193Y-110640864D01*
X157621307Y-110744000D01*
X157621307Y-112776000D01*
X157639436Y-112872350D01*
X157696379Y-112960842D01*
X157783264Y-113020207D01*
X157886400Y-113041093D01*
X159613600Y-113041093D01*
X159709950Y-113022964D01*
X159798442Y-112966021D01*
X159857807Y-112879136D01*
X159878693Y-112776000D01*
X159878693Y-111582602D01*
X160166400Y-111582602D01*
X160166400Y-111937398D01*
X160251929Y-112367381D01*
X160495495Y-112731903D01*
X160860017Y-112975469D01*
X161290000Y-113060998D01*
X161719983Y-112975469D01*
X162084505Y-112731903D01*
X162328071Y-112367381D01*
X162413600Y-111937398D01*
X162413600Y-111582602D01*
X162706400Y-111582602D01*
X162706400Y-111937398D01*
X162791929Y-112367381D01*
X163035495Y-112731903D01*
X163400017Y-112975469D01*
X163830000Y-113060998D01*
X164259983Y-112975469D01*
X164624505Y-112731903D01*
X164868071Y-112367381D01*
X164953600Y-111937398D01*
X164953600Y-111582602D01*
X164868071Y-111152619D01*
X164624505Y-110788097D01*
X164259983Y-110544531D01*
X163830000Y-110459002D01*
X163400017Y-110544531D01*
X163035495Y-110788097D01*
X162791929Y-111152619D01*
X162706400Y-111582602D01*
X162413600Y-111582602D01*
X162328071Y-111152619D01*
X162084505Y-110788097D01*
X161719983Y-110544531D01*
X161290000Y-110459002D01*
X160860017Y-110544531D01*
X160495495Y-110788097D01*
X160251929Y-111152619D01*
X160166400Y-111582602D01*
X159878693Y-111582602D01*
X159878693Y-111023379D01*
X165572072Y-105330000D01*
X169464907Y-105330000D01*
X169464907Y-105545000D01*
X169483036Y-105641350D01*
X169495037Y-105660000D01*
X166141941Y-105660000D01*
X166052629Y-105570532D01*
X165846880Y-105485097D01*
X165624098Y-105484903D01*
X165418200Y-105569978D01*
X165260532Y-105727371D01*
X165175097Y-105933120D01*
X165174903Y-106155902D01*
X165259978Y-106361800D01*
X165417371Y-106519468D01*
X165623120Y-106604903D01*
X165845902Y-106605097D01*
X166051800Y-106520022D01*
X166141979Y-106430000D01*
X169493899Y-106430000D01*
X169485793Y-106441864D01*
X169464907Y-106545000D01*
X169464907Y-107745000D01*
X169483036Y-107841350D01*
X169539979Y-107929842D01*
X169626864Y-107989207D01*
X169730000Y-108010093D01*
X169795000Y-108010093D01*
X169795000Y-110478907D01*
X169316400Y-110478907D01*
X169220050Y-110497036D01*
X169131558Y-110553979D01*
X169072193Y-110640864D01*
X169051307Y-110744000D01*
X169051307Y-112776000D01*
X169069436Y-112872350D01*
X169126379Y-112960842D01*
X169213264Y-113020207D01*
X169316400Y-113041093D01*
X171043600Y-113041093D01*
X171139950Y-113022964D01*
X171228442Y-112966021D01*
X171287807Y-112879136D01*
X171308693Y-112776000D01*
X171308693Y-111954002D01*
X171433217Y-111954002D01*
X171315316Y-112176999D01*
X171523499Y-112694407D01*
X171913838Y-113092761D01*
X172306503Y-113282983D01*
X172526000Y-113187324D01*
X172526000Y-111954000D01*
X172506000Y-111954000D01*
X172506000Y-111566000D01*
X172526000Y-111566000D01*
X172526000Y-110332676D01*
X172306503Y-110237017D01*
X171913838Y-110427239D01*
X171523499Y-110825593D01*
X171315316Y-111343001D01*
X171433217Y-111565998D01*
X171308693Y-111565998D01*
X171308693Y-110744000D01*
X171290564Y-110647650D01*
X171233621Y-110559158D01*
X171146736Y-110499793D01*
X171043600Y-110478907D01*
X170565000Y-110478907D01*
X170565000Y-108010093D01*
X170630000Y-108010093D01*
X170726350Y-107991964D01*
X170814842Y-107935021D01*
X170874207Y-107848136D01*
X170895093Y-107745000D01*
X170895093Y-106545000D01*
X170876964Y-106448650D01*
X170864963Y-106430000D01*
X175208899Y-106430000D01*
X175200793Y-106441864D01*
X175179907Y-106545000D01*
X175179907Y-107745000D01*
X175198036Y-107841350D01*
X175254979Y-107929842D01*
X175341864Y-107989207D01*
X175445000Y-108010093D01*
X175510000Y-108010093D01*
X175510000Y-110508730D01*
X175260000Y-110459002D01*
X174830017Y-110544531D01*
X174465495Y-110788097D01*
X174221929Y-111152619D01*
X174139703Y-111565998D01*
X174006783Y-111565998D01*
X174124684Y-111343001D01*
X173916501Y-110825593D01*
X173526162Y-110427239D01*
X173133497Y-110237017D01*
X172914000Y-110332676D01*
X172914000Y-111566000D01*
X172934000Y-111566000D01*
X172934000Y-111954000D01*
X172914000Y-111954000D01*
X172914000Y-113187324D01*
X173133497Y-113282983D01*
X173526162Y-113092761D01*
X173916501Y-112694407D01*
X174124684Y-112176999D01*
X174006783Y-111954002D01*
X174139703Y-111954002D01*
X174221929Y-112367381D01*
X174465495Y-112731903D01*
X174830017Y-112975469D01*
X175260000Y-113060998D01*
X175689983Y-112975469D01*
X176054505Y-112731903D01*
X176298071Y-112367381D01*
X176352052Y-112096000D01*
X180026000Y-112096000D01*
X180026000Y-112888982D01*
X180112473Y-113097746D01*
X180272254Y-113257527D01*
X180481018Y-113344000D01*
X181274000Y-113344000D01*
X181416000Y-113202000D01*
X181416000Y-111954000D01*
X180168000Y-111954000D01*
X180026000Y-112096000D01*
X176352052Y-112096000D01*
X176383600Y-111937398D01*
X176383600Y-111582602D01*
X176298071Y-111152619D01*
X176279912Y-111125442D01*
X176280000Y-111125000D01*
X176280000Y-110631018D01*
X180026000Y-110631018D01*
X180026000Y-111424000D01*
X180168000Y-111566000D01*
X181416000Y-111566000D01*
X181416000Y-110318000D01*
X181804000Y-110318000D01*
X181804000Y-111566000D01*
X181824000Y-111566000D01*
X181824000Y-111954000D01*
X181804000Y-111954000D01*
X181804000Y-113202000D01*
X181946000Y-113344000D01*
X182738982Y-113344000D01*
X182947746Y-113257527D01*
X183107527Y-113097746D01*
X183194000Y-112888982D01*
X183194000Y-112606850D01*
X183247732Y-112687266D01*
X183661696Y-112963868D01*
X184150000Y-113060998D01*
X184638304Y-112963868D01*
X185052268Y-112687266D01*
X185328870Y-112273302D01*
X185426000Y-111784998D01*
X185426000Y-111735002D01*
X185328870Y-111246698D01*
X185052268Y-110832734D01*
X184638304Y-110556132D01*
X184150000Y-110459002D01*
X183661696Y-110556132D01*
X183247732Y-110832734D01*
X183194000Y-110913150D01*
X183194000Y-110631018D01*
X183107527Y-110422254D01*
X182947746Y-110262473D01*
X182738982Y-110176000D01*
X181946000Y-110176000D01*
X181804000Y-110318000D01*
X181416000Y-110318000D01*
X181274000Y-110176000D01*
X180481018Y-110176000D01*
X180272254Y-110262473D01*
X180112473Y-110422254D01*
X180026000Y-110631018D01*
X176280000Y-110631018D01*
X176280000Y-109330902D01*
X185494903Y-109330902D01*
X185579978Y-109536800D01*
X185737371Y-109694468D01*
X185943120Y-109779903D01*
X186021801Y-109779972D01*
X186069979Y-109854842D01*
X186156864Y-109914207D01*
X186260000Y-109935093D01*
X187460000Y-109935093D01*
X187556350Y-109916964D01*
X187644842Y-109860021D01*
X187704207Y-109773136D01*
X187725093Y-109670000D01*
X187725093Y-108770000D01*
X187706964Y-108673650D01*
X187650021Y-108585158D01*
X187563136Y-108525793D01*
X187460000Y-108504907D01*
X186260000Y-108504907D01*
X186163650Y-108523036D01*
X186075158Y-108579979D01*
X186020504Y-108659970D01*
X185944098Y-108659903D01*
X185738200Y-108744978D01*
X185580532Y-108902371D01*
X185495097Y-109108120D01*
X185494903Y-109330902D01*
X176280000Y-109330902D01*
X176280000Y-108060902D01*
X188034903Y-108060902D01*
X188119978Y-108266800D01*
X188277371Y-108424468D01*
X188471088Y-108504907D01*
X188460000Y-108504907D01*
X188363650Y-108523036D01*
X188275158Y-108579979D01*
X188215793Y-108666864D01*
X188194907Y-108770000D01*
X188194907Y-109670000D01*
X188213036Y-109766350D01*
X188269979Y-109854842D01*
X188356864Y-109914207D01*
X188460000Y-109935093D01*
X189660000Y-109935093D01*
X189756350Y-109916964D01*
X189844842Y-109860021D01*
X189904207Y-109773136D01*
X189925093Y-109670000D01*
X189925093Y-109605000D01*
X190610900Y-109605000D01*
X190613036Y-109616350D01*
X190669979Y-109704842D01*
X190756864Y-109764207D01*
X190860000Y-109785093D01*
X192360000Y-109785093D01*
X192456350Y-109766964D01*
X192544842Y-109710021D01*
X192604207Y-109623136D01*
X192625093Y-109520000D01*
X192625093Y-108920000D01*
X192606964Y-108823650D01*
X192550021Y-108735158D01*
X192463136Y-108675793D01*
X192360000Y-108654907D01*
X191995000Y-108654907D01*
X191995000Y-108515093D01*
X192360000Y-108515093D01*
X192456350Y-108496964D01*
X192544842Y-108440021D01*
X192604207Y-108353136D01*
X192625093Y-108250000D01*
X192625093Y-107650000D01*
X192606964Y-107553650D01*
X192550021Y-107465158D01*
X192463136Y-107405793D01*
X192360000Y-107384907D01*
X190860000Y-107384907D01*
X190763650Y-107403036D01*
X190675158Y-107459979D01*
X190615793Y-107546864D01*
X190594907Y-107650000D01*
X190594907Y-108250000D01*
X190613036Y-108346350D01*
X190669979Y-108434842D01*
X190756864Y-108494207D01*
X190860000Y-108515093D01*
X191225000Y-108515093D01*
X191225000Y-108654907D01*
X190860000Y-108654907D01*
X190763650Y-108673036D01*
X190675158Y-108729979D01*
X190615793Y-108816864D01*
X190612120Y-108835000D01*
X189925093Y-108835000D01*
X189925093Y-108770000D01*
X189906964Y-108673650D01*
X189850021Y-108585158D01*
X189763136Y-108525793D01*
X189660000Y-108504907D01*
X189445000Y-108504907D01*
X189445000Y-108415000D01*
X189415694Y-108267667D01*
X189415694Y-108267666D01*
X189332236Y-108142764D01*
X189154987Y-107965515D01*
X189155097Y-107839098D01*
X189070022Y-107633200D01*
X188912629Y-107475532D01*
X188706880Y-107390097D01*
X188484098Y-107389903D01*
X188278200Y-107474978D01*
X188120532Y-107632371D01*
X188035097Y-107838120D01*
X188034903Y-108060902D01*
X176280000Y-108060902D01*
X176280000Y-108010093D01*
X176345000Y-108010093D01*
X176441350Y-107991964D01*
X176529842Y-107935021D01*
X176589207Y-107848136D01*
X176610093Y-107745000D01*
X176610093Y-106545000D01*
X176591964Y-106448650D01*
X176579963Y-106430000D01*
X189815528Y-106430000D01*
X190337764Y-106952236D01*
X190462667Y-107035694D01*
X190610000Y-107065000D01*
X190610900Y-107065000D01*
X190613036Y-107076350D01*
X190669979Y-107164842D01*
X190756864Y-107224207D01*
X190860000Y-107245093D01*
X192360000Y-107245093D01*
X192456350Y-107226964D01*
X192544842Y-107170021D01*
X192604207Y-107083136D01*
X192625093Y-106980000D01*
X192625093Y-106380000D01*
X192606964Y-106283650D01*
X192550021Y-106195158D01*
X192463136Y-106135793D01*
X192360000Y-106114907D01*
X190860000Y-106114907D01*
X190763650Y-106133036D01*
X190675158Y-106189979D01*
X190670812Y-106196340D01*
X190269472Y-105795000D01*
X190610900Y-105795000D01*
X190613036Y-105806350D01*
X190669979Y-105894842D01*
X190756864Y-105954207D01*
X190860000Y-105975093D01*
X192360000Y-105975093D01*
X192456350Y-105956964D01*
X192544842Y-105900021D01*
X192604207Y-105813136D01*
X192625093Y-105710000D01*
X192625093Y-105110000D01*
X192606964Y-105013650D01*
X192550021Y-104925158D01*
X192463136Y-104865793D01*
X192360000Y-104844907D01*
X190860000Y-104844907D01*
X190763650Y-104863036D01*
X190675158Y-104919979D01*
X190615793Y-105006864D01*
X190612120Y-105025000D01*
X178154474Y-105025000D01*
X177654474Y-104525000D01*
X190610900Y-104525000D01*
X190613036Y-104536350D01*
X190669979Y-104624842D01*
X190756864Y-104684207D01*
X190860000Y-104705093D01*
X192360000Y-104705093D01*
X192456350Y-104686964D01*
X192544842Y-104630021D01*
X192604207Y-104543136D01*
X192625093Y-104440000D01*
X192625093Y-103840000D01*
X192606964Y-103743650D01*
X192550021Y-103655158D01*
X192463136Y-103595793D01*
X192360000Y-103574907D01*
X190860000Y-103574907D01*
X190763650Y-103593036D01*
X190675158Y-103649979D01*
X190615793Y-103736864D01*
X190612120Y-103755000D01*
X187110820Y-103755000D01*
X187172321Y-103606890D01*
X187172432Y-103479468D01*
X187302236Y-103349664D01*
X187385694Y-103224762D01*
X187415000Y-103077428D01*
X187415000Y-102315093D01*
X187630000Y-102315093D01*
X187726350Y-102296964D01*
X187814842Y-102240021D01*
X187874207Y-102153136D01*
X187895093Y-102050000D01*
X187895093Y-101209999D01*
X188364907Y-101209999D01*
X188364907Y-102050000D01*
X188383036Y-102146350D01*
X188439979Y-102234842D01*
X188526864Y-102294207D01*
X188630000Y-102315093D01*
X188845000Y-102315093D01*
X188845000Y-102463059D01*
X188755532Y-102552371D01*
X188670097Y-102758120D01*
X188669903Y-102980902D01*
X188754978Y-103186800D01*
X188912371Y-103344468D01*
X189118120Y-103429903D01*
X189340902Y-103430097D01*
X189546800Y-103345022D01*
X189704468Y-103187629D01*
X189789903Y-102981880D01*
X189790097Y-102759098D01*
X189705022Y-102553200D01*
X189615000Y-102463021D01*
X189615000Y-102315093D01*
X189830000Y-102315093D01*
X189926350Y-102296964D01*
X190014842Y-102240021D01*
X190074207Y-102153136D01*
X190095093Y-102050000D01*
X190095093Y-101985000D01*
X190610900Y-101985000D01*
X190613036Y-101996350D01*
X190669979Y-102084842D01*
X190756864Y-102144207D01*
X190860000Y-102165093D01*
X191225000Y-102165093D01*
X191225000Y-102304907D01*
X190860000Y-102304907D01*
X190763650Y-102323036D01*
X190675158Y-102379979D01*
X190615793Y-102466864D01*
X190594907Y-102570000D01*
X190594907Y-103170000D01*
X190613036Y-103266350D01*
X190669979Y-103354842D01*
X190756864Y-103414207D01*
X190860000Y-103435093D01*
X192360000Y-103435093D01*
X192456350Y-103416964D01*
X192544842Y-103360021D01*
X192604207Y-103273136D01*
X192625093Y-103170000D01*
X192625093Y-102570000D01*
X192606964Y-102473650D01*
X192550021Y-102385158D01*
X192463136Y-102325793D01*
X192360000Y-102304907D01*
X191995000Y-102304907D01*
X191995000Y-102165093D01*
X192360000Y-102165093D01*
X192456350Y-102146964D01*
X192544842Y-102090021D01*
X192604207Y-102003136D01*
X192625093Y-101900000D01*
X192625093Y-101300000D01*
X192608159Y-101209999D01*
X193085527Y-101209999D01*
X195994907Y-104119379D01*
X195994907Y-104440000D01*
X196013036Y-104536350D01*
X196044103Y-104584629D01*
X195938254Y-104628473D01*
X195778473Y-104788254D01*
X195692000Y-104997018D01*
X195692000Y-105118000D01*
X195834000Y-105260000D01*
X196816000Y-105260000D01*
X196816000Y-105196000D01*
X197204000Y-105196000D01*
X197204000Y-105260000D01*
X197224000Y-105260000D01*
X197224000Y-105560000D01*
X197204000Y-105560000D01*
X197204000Y-105624000D01*
X196816000Y-105624000D01*
X196816000Y-105560000D01*
X195834000Y-105560000D01*
X195692000Y-105702000D01*
X195692000Y-105822982D01*
X195778473Y-106031746D01*
X195938254Y-106191527D01*
X196044134Y-106235384D01*
X196015793Y-106276864D01*
X195994907Y-106380000D01*
X195994907Y-106980000D01*
X196013036Y-107076350D01*
X196069979Y-107164842D01*
X196156864Y-107224207D01*
X196260000Y-107245093D01*
X197760000Y-107245093D01*
X197856350Y-107226964D01*
X197903654Y-107196525D01*
X198008120Y-107239903D01*
X198230902Y-107240097D01*
X198436800Y-107155022D01*
X198594468Y-106997629D01*
X198679903Y-106791880D01*
X198680097Y-106569098D01*
X198595022Y-106363200D01*
X198438185Y-106206089D01*
X198440695Y-106202332D01*
X198470001Y-106054999D01*
X198470001Y-104765001D01*
X198440695Y-104617668D01*
X198357237Y-104492765D01*
X198025093Y-104160621D01*
X198025093Y-103840000D01*
X198006964Y-103743650D01*
X197950021Y-103655158D01*
X197863136Y-103595793D01*
X197760000Y-103574907D01*
X196539379Y-103574907D01*
X196399565Y-103435093D01*
X197760000Y-103435093D01*
X197856350Y-103416964D01*
X197944842Y-103360021D01*
X198004207Y-103273136D01*
X198007880Y-103255000D01*
X206150528Y-103255000D01*
X207307764Y-104412236D01*
X207432666Y-104495694D01*
X207564907Y-104521998D01*
X207564907Y-104740000D01*
X207583036Y-104836350D01*
X207639979Y-104924842D01*
X207669482Y-104945000D01*
X207449472Y-104945000D01*
X206712236Y-104207764D01*
X206587333Y-104124306D01*
X206455093Y-104098002D01*
X206455093Y-103880000D01*
X206436964Y-103783650D01*
X206380021Y-103695158D01*
X206293136Y-103635793D01*
X206190000Y-103614907D01*
X205290000Y-103614907D01*
X205193650Y-103633036D01*
X205105158Y-103689979D01*
X205045793Y-103776864D01*
X205024907Y-103880000D01*
X205024907Y-104098002D01*
X204892666Y-104124306D01*
X204767764Y-104207764D01*
X201410528Y-107565000D01*
X198009100Y-107565000D01*
X198006964Y-107553650D01*
X197950021Y-107465158D01*
X197863136Y-107405793D01*
X197760000Y-107384907D01*
X196260000Y-107384907D01*
X196163650Y-107403036D01*
X196075158Y-107459979D01*
X196015793Y-107546864D01*
X195994907Y-107650000D01*
X195994907Y-107970621D01*
X195307764Y-108657764D01*
X195224306Y-108782667D01*
X195195000Y-108930000D01*
X195195000Y-111119907D01*
X194980000Y-111119907D01*
X194883650Y-111138036D01*
X194795158Y-111194979D01*
X194735793Y-111281864D01*
X194714907Y-111385000D01*
X194714907Y-112135000D01*
X194733036Y-112231350D01*
X194789979Y-112319842D01*
X194876864Y-112379207D01*
X194900000Y-112383892D01*
X194900000Y-112949907D01*
X194685000Y-112949907D01*
X194588650Y-112968036D01*
X194500158Y-113024979D01*
X194440793Y-113111864D01*
X194419907Y-113215000D01*
X194419907Y-114115000D01*
X194438036Y-114211350D01*
X194494979Y-114299842D01*
X194581864Y-114359207D01*
X194685000Y-114380093D01*
X195885000Y-114380093D01*
X195981350Y-114361964D01*
X196069842Y-114305021D01*
X196129207Y-114218136D01*
X196150093Y-114115000D01*
X196150093Y-113215000D01*
X196131964Y-113118650D01*
X196075021Y-113030158D01*
X195988136Y-112970793D01*
X195885000Y-112949907D01*
X195670000Y-112949907D01*
X195670000Y-112400093D01*
X196180000Y-112400093D01*
X196276350Y-112381964D01*
X196364842Y-112325021D01*
X196424207Y-112238136D01*
X196445093Y-112135000D01*
X196445093Y-111385000D01*
X196426964Y-111288650D01*
X196370021Y-111200158D01*
X196283136Y-111140793D01*
X196180000Y-111119907D01*
X195965000Y-111119907D01*
X195965000Y-109089472D01*
X195994907Y-109059565D01*
X195994907Y-109520000D01*
X196013036Y-109616350D01*
X196069979Y-109704842D01*
X196156864Y-109764207D01*
X196260000Y-109785093D01*
X197030621Y-109785093D01*
X197095000Y-109849472D01*
X197095000Y-111119907D01*
X196880000Y-111119907D01*
X196783650Y-111138036D01*
X196695158Y-111194979D01*
X196635793Y-111281864D01*
X196614907Y-111385000D01*
X196614907Y-112135000D01*
X196633036Y-112231350D01*
X196689979Y-112319842D01*
X196776864Y-112379207D01*
X196880000Y-112400093D01*
X197100000Y-112400093D01*
X197100000Y-112949907D01*
X196885000Y-112949907D01*
X196788650Y-112968036D01*
X196700158Y-113024979D01*
X196640793Y-113111864D01*
X196619907Y-113215000D01*
X196619907Y-114115000D01*
X196638036Y-114211350D01*
X196694979Y-114299842D01*
X196781864Y-114359207D01*
X196885000Y-114380093D01*
X198085000Y-114380093D01*
X198181350Y-114361964D01*
X198269842Y-114305021D01*
X198329207Y-114218136D01*
X198350093Y-114115000D01*
X198350093Y-113215000D01*
X198331964Y-113118650D01*
X198275021Y-113030158D01*
X198188136Y-112970793D01*
X198085000Y-112949907D01*
X197870000Y-112949907D01*
X197870000Y-112400093D01*
X198080000Y-112400093D01*
X198176350Y-112381964D01*
X198264842Y-112325021D01*
X198324207Y-112238136D01*
X198345093Y-112135000D01*
X198345093Y-111385000D01*
X198326964Y-111288650D01*
X198270021Y-111200158D01*
X198183136Y-111140793D01*
X198080000Y-111119907D01*
X197865000Y-111119907D01*
X197865000Y-110097018D01*
X198701000Y-110097018D01*
X198701000Y-110474000D01*
X198843000Y-110616000D01*
X199456500Y-110616000D01*
X199456500Y-109784000D01*
X199314500Y-109642000D01*
X199156018Y-109642000D01*
X198947254Y-109728473D01*
X198787473Y-109888254D01*
X198701000Y-110097018D01*
X197865000Y-110097018D01*
X197865000Y-109761398D01*
X197903654Y-109736525D01*
X198008120Y-109779903D01*
X198230902Y-109780097D01*
X198436800Y-109695022D01*
X198594468Y-109537629D01*
X198679903Y-109331880D01*
X198680097Y-109109098D01*
X198595022Y-108903200D01*
X198437629Y-108745532D01*
X198231880Y-108660097D01*
X198009098Y-108659903D01*
X197903649Y-108703474D01*
X197863136Y-108675793D01*
X197760000Y-108654907D01*
X196399565Y-108654907D01*
X196539379Y-108515093D01*
X197760000Y-108515093D01*
X197856350Y-108496964D01*
X197944842Y-108440021D01*
X198004207Y-108353136D01*
X198007880Y-108335000D01*
X201570000Y-108335000D01*
X201717333Y-108305694D01*
X201842236Y-108222236D01*
X205024907Y-105039565D01*
X205024907Y-105080000D01*
X205043036Y-105176350D01*
X205099979Y-105264842D01*
X205186864Y-105324207D01*
X205290000Y-105345093D01*
X206190000Y-105345093D01*
X206286350Y-105326964D01*
X206374842Y-105270021D01*
X206434207Y-105183136D01*
X206455093Y-105080000D01*
X206455093Y-105039565D01*
X207017764Y-105602236D01*
X207142667Y-105685694D01*
X207290000Y-105715000D01*
X207569970Y-105715000D01*
X207564907Y-105740000D01*
X207564907Y-105958002D01*
X207432667Y-105984306D01*
X207307764Y-106067764D01*
X206737764Y-106637764D01*
X206654306Y-106762667D01*
X206625000Y-106910000D01*
X206625000Y-109420968D01*
X206580017Y-109429916D01*
X206215495Y-109673482D01*
X206125000Y-109808917D01*
X206125000Y-107545093D01*
X206190000Y-107545093D01*
X206286350Y-107526964D01*
X206374842Y-107470021D01*
X206434207Y-107383136D01*
X206455093Y-107280000D01*
X206455093Y-106080000D01*
X206436964Y-105983650D01*
X206380021Y-105895158D01*
X206293136Y-105835793D01*
X206190000Y-105814907D01*
X205290000Y-105814907D01*
X205193650Y-105833036D01*
X205105158Y-105889979D01*
X205045793Y-105976864D01*
X205024907Y-106080000D01*
X205024907Y-106295000D01*
X204876941Y-106295000D01*
X204787629Y-106205532D01*
X204581880Y-106120097D01*
X204359098Y-106119903D01*
X204153200Y-106204978D01*
X203995532Y-106362371D01*
X203910097Y-106568120D01*
X203909903Y-106790902D01*
X203994978Y-106996800D01*
X204152371Y-107154468D01*
X204358120Y-107239903D01*
X204580902Y-107240097D01*
X204786800Y-107155022D01*
X204876979Y-107065000D01*
X205024907Y-107065000D01*
X205024907Y-107280000D01*
X205043036Y-107376350D01*
X205099979Y-107464842D01*
X205186864Y-107524207D01*
X205290000Y-107545093D01*
X205355000Y-107545093D01*
X205355000Y-112391000D01*
X204693211Y-112391000D01*
X204676964Y-112304650D01*
X204620021Y-112216158D01*
X204533136Y-112156793D01*
X204430000Y-112135907D01*
X203230000Y-112135907D01*
X203133650Y-112154036D01*
X203045158Y-112210979D01*
X202985793Y-112297864D01*
X202964907Y-112401000D01*
X202964907Y-113041435D01*
X202795093Y-112871621D01*
X202795093Y-112401000D01*
X202776964Y-112304650D01*
X202720021Y-112216158D01*
X202633136Y-112156793D01*
X202530000Y-112135907D01*
X202315000Y-112135907D01*
X202315000Y-110876093D01*
X202596000Y-110876093D01*
X202692350Y-110857964D01*
X202780842Y-110801021D01*
X202840207Y-110714136D01*
X202861093Y-110611000D01*
X202861093Y-109861000D01*
X203030907Y-109861000D01*
X203030907Y-110611000D01*
X203049036Y-110707350D01*
X203105979Y-110795842D01*
X203192864Y-110855207D01*
X203296000Y-110876093D01*
X204496000Y-110876093D01*
X204592350Y-110857964D01*
X204680842Y-110801021D01*
X204740207Y-110714136D01*
X204761093Y-110611000D01*
X204761093Y-109861000D01*
X204742964Y-109764650D01*
X204686021Y-109676158D01*
X204599136Y-109616793D01*
X204496000Y-109595907D01*
X204378088Y-109595907D01*
X204436468Y-109537629D01*
X204521903Y-109331880D01*
X204522097Y-109109098D01*
X204437022Y-108903200D01*
X204279629Y-108745532D01*
X204073880Y-108660097D01*
X203851098Y-108659903D01*
X203645200Y-108744978D01*
X203487532Y-108902371D01*
X203402097Y-109108120D01*
X203401903Y-109330902D01*
X203486978Y-109536800D01*
X203545982Y-109595907D01*
X203296000Y-109595907D01*
X203199650Y-109614036D01*
X203111158Y-109670979D01*
X203051793Y-109757864D01*
X203030907Y-109861000D01*
X202861093Y-109861000D01*
X202842964Y-109764650D01*
X202786021Y-109676158D01*
X202699136Y-109616793D01*
X202596000Y-109595907D01*
X201396000Y-109595907D01*
X201299650Y-109614036D01*
X201211158Y-109670979D01*
X201167485Y-109734897D01*
X201025880Y-109676097D01*
X200803098Y-109675903D01*
X200597200Y-109760978D01*
X200485128Y-109872855D01*
X200340746Y-109728473D01*
X200131982Y-109642000D01*
X199973500Y-109642000D01*
X199831500Y-109784000D01*
X199831500Y-110616000D01*
X199858000Y-110616000D01*
X199858000Y-111004000D01*
X199831500Y-111004000D01*
X199831500Y-111024000D01*
X199456500Y-111024000D01*
X199456500Y-111004000D01*
X198843000Y-111004000D01*
X198701000Y-111146000D01*
X198701000Y-111522982D01*
X198787473Y-111731746D01*
X198947254Y-111891527D01*
X199069111Y-111942002D01*
X199024793Y-112006864D01*
X199003907Y-112110000D01*
X199003907Y-113310000D01*
X199022036Y-113406350D01*
X199078979Y-113494842D01*
X199165864Y-113554207D01*
X199269000Y-113575093D01*
X200019000Y-113575093D01*
X200115350Y-113556964D01*
X200203842Y-113500021D01*
X200263207Y-113413136D01*
X200284093Y-113310000D01*
X200284093Y-113095000D01*
X200441174Y-113095000D01*
X200596371Y-113250468D01*
X200802120Y-113335903D01*
X201024902Y-113336097D01*
X201115938Y-113298482D01*
X201139979Y-113335842D01*
X201226864Y-113395207D01*
X201330000Y-113416093D01*
X202250621Y-113416093D01*
X203406764Y-114572236D01*
X203531667Y-114655694D01*
X203679000Y-114685000D01*
X208280000Y-114685000D01*
X208427333Y-114655694D01*
X208552236Y-114572236D01*
X209068686Y-114055786D01*
X209120017Y-114090084D01*
X209550000Y-114175613D01*
X209979983Y-114090084D01*
X210344505Y-113846518D01*
X210588071Y-113481996D01*
X210673600Y-113052013D01*
X210673600Y-113007987D01*
X210588071Y-112578004D01*
X210344505Y-112213482D01*
X209979983Y-111969916D01*
X209935000Y-111960968D01*
X209935000Y-111559032D01*
X209979983Y-111550084D01*
X210344505Y-111306518D01*
X210588071Y-110941996D01*
X210673600Y-110512013D01*
X210673600Y-110467987D01*
X210588071Y-110038004D01*
X210344505Y-109673482D01*
X209979983Y-109429916D01*
X209550000Y-109344387D01*
X209120017Y-109429916D01*
X208755495Y-109673482D01*
X208511929Y-110038004D01*
X208426400Y-110467987D01*
X208426400Y-110512013D01*
X208511929Y-110941996D01*
X208755495Y-111306518D01*
X209120017Y-111550084D01*
X209165000Y-111559032D01*
X209165000Y-111960968D01*
X209120017Y-111969916D01*
X208755495Y-112213482D01*
X208511929Y-112578004D01*
X208426400Y-113007987D01*
X208426400Y-113052013D01*
X208511929Y-113481996D01*
X208528593Y-113506935D01*
X208137872Y-113897656D01*
X208138693Y-113893600D01*
X208138693Y-112166400D01*
X208120564Y-112070050D01*
X208063621Y-111981558D01*
X207976736Y-111922193D01*
X207873600Y-111901307D01*
X206146400Y-111901307D01*
X206125000Y-111905334D01*
X206125000Y-111171083D01*
X206215495Y-111306518D01*
X206580017Y-111550084D01*
X207010000Y-111635613D01*
X207439983Y-111550084D01*
X207804505Y-111306518D01*
X208048071Y-110941996D01*
X208133600Y-110512013D01*
X208133600Y-110467987D01*
X208048071Y-110038004D01*
X207804505Y-109673482D01*
X207439983Y-109429916D01*
X207395000Y-109420968D01*
X207395000Y-107069472D01*
X207564907Y-106899565D01*
X207564907Y-106940000D01*
X207583036Y-107036350D01*
X207639979Y-107124842D01*
X207726864Y-107184207D01*
X207830000Y-107205093D01*
X208730000Y-107205093D01*
X208826350Y-107186964D01*
X208914842Y-107130021D01*
X208974207Y-107043136D01*
X208995093Y-106940000D01*
X208995093Y-105740000D01*
X208990389Y-105715000D01*
X210109970Y-105715000D01*
X210104907Y-105740000D01*
X210104907Y-106940000D01*
X210123036Y-107036350D01*
X210179979Y-107124842D01*
X210266864Y-107184207D01*
X210370000Y-107205093D01*
X211270000Y-107205093D01*
X211366350Y-107186964D01*
X211454842Y-107130021D01*
X211514207Y-107043136D01*
X211535093Y-106940000D01*
X211535093Y-106899565D01*
X211705000Y-107069472D01*
X211705000Y-109420968D01*
X211660017Y-109429916D01*
X211295495Y-109673482D01*
X211051929Y-110038004D01*
X210966400Y-110467987D01*
X210966400Y-110512013D01*
X211051929Y-110941996D01*
X211295495Y-111306518D01*
X211660017Y-111550084D01*
X212090000Y-111635613D01*
X212519983Y-111550084D01*
X212884505Y-111306518D01*
X212975000Y-111171083D01*
X212975000Y-111600528D01*
X212571314Y-112004214D01*
X212519983Y-111969916D01*
X212090000Y-111884387D01*
X211660017Y-111969916D01*
X211295495Y-112213482D01*
X211051929Y-112578004D01*
X210966400Y-113007987D01*
X210966400Y-113052013D01*
X211051929Y-113481996D01*
X211295495Y-113846518D01*
X211660017Y-114090084D01*
X212090000Y-114175613D01*
X212519983Y-114090084D01*
X212884505Y-113846518D01*
X213128071Y-113481996D01*
X213213600Y-113052013D01*
X213213600Y-113007987D01*
X213128071Y-112578004D01*
X213111407Y-112553065D01*
X213632236Y-112032236D01*
X213715694Y-111907334D01*
X213745000Y-111760000D01*
X213745000Y-107545093D01*
X213810000Y-107545093D01*
X213906350Y-107526964D01*
X213994842Y-107470021D01*
X214054207Y-107383136D01*
X214075093Y-107280000D01*
X214075093Y-106080000D01*
X214056964Y-105983650D01*
X214000021Y-105895158D01*
X213913136Y-105835793D01*
X213810000Y-105814907D01*
X212910000Y-105814907D01*
X212813650Y-105833036D01*
X212725158Y-105889979D01*
X212665793Y-105976864D01*
X212644907Y-106080000D01*
X212644907Y-107280000D01*
X212663036Y-107376350D01*
X212719979Y-107464842D01*
X212806864Y-107524207D01*
X212910000Y-107545093D01*
X212975000Y-107545093D01*
X212975000Y-109808917D01*
X212884505Y-109673482D01*
X212519983Y-109429916D01*
X212475000Y-109420968D01*
X212475000Y-106910000D01*
X212445694Y-106762667D01*
X212362236Y-106637764D01*
X211792236Y-106067764D01*
X211667333Y-105984306D01*
X211535093Y-105958002D01*
X211535093Y-105740000D01*
X211530389Y-105715000D01*
X211810000Y-105715000D01*
X211957333Y-105685694D01*
X212082236Y-105602236D01*
X212644907Y-105039565D01*
X212644907Y-105080000D01*
X212663036Y-105176350D01*
X212719979Y-105264842D01*
X212806864Y-105324207D01*
X212910000Y-105345093D01*
X213810000Y-105345093D01*
X213906350Y-105326964D01*
X213994842Y-105270021D01*
X214054207Y-105183136D01*
X214075093Y-105080000D01*
X214075093Y-103880000D01*
X214056964Y-103783650D01*
X214000021Y-103695158D01*
X213913136Y-103635793D01*
X213810000Y-103614907D01*
X212910000Y-103614907D01*
X212813650Y-103633036D01*
X212725158Y-103689979D01*
X212665793Y-103776864D01*
X212644907Y-103880000D01*
X212644907Y-104098002D01*
X212512667Y-104124306D01*
X212387764Y-104207764D01*
X211650528Y-104945000D01*
X211431564Y-104945000D01*
X211454842Y-104930021D01*
X211514207Y-104843136D01*
X211535093Y-104740000D01*
X211535093Y-103540000D01*
X211516964Y-103443650D01*
X211460021Y-103355158D01*
X211373136Y-103295793D01*
X211270000Y-103274907D01*
X210370000Y-103274907D01*
X210273650Y-103293036D01*
X210185158Y-103349979D01*
X210125793Y-103436864D01*
X210104907Y-103540000D01*
X210104907Y-103755000D01*
X208995093Y-103755000D01*
X208995093Y-103540000D01*
X208976964Y-103443650D01*
X208920021Y-103355158D01*
X208833136Y-103295793D01*
X208730000Y-103274907D01*
X207830000Y-103274907D01*
X207733650Y-103293036D01*
X207645158Y-103349979D01*
X207585793Y-103436864D01*
X207564907Y-103540000D01*
X207564907Y-103580435D01*
X206582236Y-102597764D01*
X206457333Y-102514306D01*
X206310000Y-102485000D01*
X198009100Y-102485000D01*
X198006964Y-102473650D01*
X197950021Y-102385158D01*
X197863136Y-102325793D01*
X197760000Y-102304907D01*
X196539379Y-102304907D01*
X196399565Y-102165093D01*
X197760000Y-102165093D01*
X197856350Y-102146964D01*
X197944842Y-102090021D01*
X198004207Y-102003136D01*
X198025093Y-101900000D01*
X198025093Y-101300000D01*
X198006964Y-101203650D01*
X197950021Y-101115158D01*
X197863136Y-101055793D01*
X197760000Y-101034907D01*
X197395000Y-101034907D01*
X197395000Y-100175000D01*
X197384510Y-100122261D01*
X197395093Y-100070000D01*
X197395093Y-100025000D01*
X203119907Y-100025000D01*
X203119907Y-101225000D01*
X203138036Y-101321350D01*
X203194979Y-101409842D01*
X203281864Y-101469207D01*
X203282866Y-101469410D01*
X203275097Y-101488120D01*
X203274903Y-101710902D01*
X203359978Y-101916800D01*
X203517371Y-102074468D01*
X203723120Y-102159903D01*
X203945902Y-102160097D01*
X204151800Y-102075022D01*
X204309468Y-101917629D01*
X204394903Y-101711880D01*
X204395097Y-101489098D01*
X204386617Y-101468575D01*
X204469842Y-101415021D01*
X204529207Y-101328136D01*
X204550093Y-101225000D01*
X204550093Y-100025000D01*
X204531964Y-99928650D01*
X204475021Y-99840158D01*
X204388136Y-99780793D01*
X204285000Y-99759907D01*
X203385000Y-99759907D01*
X203288650Y-99778036D01*
X203200158Y-99834979D01*
X203140793Y-99921864D01*
X203119907Y-100025000D01*
X197395093Y-100025000D01*
X197395093Y-99320000D01*
X197376964Y-99223650D01*
X197320021Y-99135158D01*
X197233136Y-99075793D01*
X197130000Y-99054907D01*
X196915000Y-99054907D01*
X196915000Y-98505093D01*
X197450000Y-98505093D01*
X197546350Y-98486964D01*
X197634842Y-98430021D01*
X197694207Y-98343136D01*
X197715093Y-98240000D01*
X197715093Y-97340000D01*
X197696964Y-97243650D01*
X197640021Y-97155158D01*
X197553136Y-97095793D01*
X197450000Y-97074907D01*
X197409565Y-97074907D01*
X199925043Y-94559429D01*
X203096367Y-94559429D01*
X202978780Y-94676811D01*
X202824606Y-95048103D01*
X202824255Y-95450133D01*
X202977781Y-95821694D01*
X203261811Y-96106220D01*
X203450000Y-96184363D01*
X203450000Y-97559907D01*
X203385000Y-97559907D01*
X203288650Y-97578036D01*
X203200158Y-97634979D01*
X203140793Y-97721864D01*
X203119907Y-97825000D01*
X203119907Y-99025000D01*
X203138036Y-99121350D01*
X203194979Y-99209842D01*
X203281864Y-99269207D01*
X203385000Y-99290093D01*
X204285000Y-99290093D01*
X204381350Y-99271964D01*
X204469842Y-99215021D01*
X204529207Y-99128136D01*
X204550093Y-99025000D01*
X204550093Y-97825000D01*
X204531964Y-97728650D01*
X204475021Y-97640158D01*
X204388136Y-97580793D01*
X204285000Y-97559907D01*
X204220000Y-97559907D01*
X204220000Y-96184359D01*
X204406694Y-96107219D01*
X204691220Y-95823189D01*
X204845394Y-95451897D01*
X204845745Y-95049867D01*
X204692219Y-94678306D01*
X204573549Y-94559429D01*
X208314957Y-94559429D01*
X208617072Y-94861544D01*
X208539606Y-95048103D01*
X208539255Y-95450133D01*
X208692781Y-95821694D01*
X208976811Y-96106220D01*
X209348103Y-96260394D01*
X209750133Y-96260745D01*
X210121694Y-96107219D01*
X210406220Y-95823189D01*
X210560394Y-95451897D01*
X210560745Y-95049867D01*
X210407219Y-94678306D01*
X210123189Y-94393780D01*
X209751897Y-94239606D01*
X209349867Y-94239255D01*
X209161542Y-94317070D01*
X208746665Y-93902193D01*
X208621762Y-93818735D01*
X208474429Y-93789429D01*
X199765571Y-93789429D01*
X199618237Y-93818735D01*
X199493335Y-93902193D01*
X196577764Y-96817764D01*
X196494306Y-96942667D01*
X196468002Y-97074907D01*
X196250000Y-97074907D01*
X196153650Y-97093036D01*
X196065158Y-97149979D01*
X196005793Y-97236864D01*
X195984907Y-97340000D01*
X195984907Y-98240000D01*
X196003036Y-98336350D01*
X196059979Y-98424842D01*
X196145000Y-98482933D01*
X196145000Y-99054907D01*
X195930000Y-99054907D01*
X195833650Y-99073036D01*
X195745158Y-99129979D01*
X195685793Y-99216864D01*
X195664907Y-99320000D01*
X195664907Y-100070000D01*
X195683036Y-100166350D01*
X195739979Y-100254842D01*
X195826864Y-100314207D01*
X195930000Y-100335093D01*
X196625000Y-100335093D01*
X196625000Y-101034907D01*
X196260000Y-101034907D01*
X196163650Y-101053036D01*
X196075158Y-101109979D01*
X196015793Y-101196864D01*
X195994907Y-101300000D01*
X195994907Y-101760435D01*
X195015000Y-100780528D01*
X195015000Y-100335093D01*
X195230000Y-100335093D01*
X195326350Y-100316964D01*
X195414842Y-100260021D01*
X195474207Y-100173136D01*
X195495093Y-100070000D01*
X195495093Y-99320000D01*
X195476964Y-99223650D01*
X195420021Y-99135158D01*
X195333136Y-99075793D01*
X195230000Y-99054907D01*
X195035000Y-99054907D01*
X195035000Y-98505093D01*
X195250000Y-98505093D01*
X195346350Y-98486964D01*
X195434842Y-98430021D01*
X195494207Y-98343136D01*
X195515093Y-98240000D01*
X195515093Y-97340000D01*
X195496964Y-97243650D01*
X195440021Y-97155158D01*
X195353136Y-97095793D01*
X195250000Y-97074907D01*
X194050000Y-97074907D01*
X193953650Y-97093036D01*
X193865158Y-97149979D01*
X193805793Y-97236864D01*
X193784907Y-97340000D01*
X193784907Y-98240000D01*
X193803036Y-98336350D01*
X193859979Y-98424842D01*
X193946864Y-98484207D01*
X194050000Y-98505093D01*
X194265000Y-98505093D01*
X194265000Y-99054907D01*
X194030000Y-99054907D01*
X193933650Y-99073036D01*
X193845158Y-99129979D01*
X193785793Y-99216864D01*
X193764907Y-99320000D01*
X193764907Y-100070000D01*
X193783036Y-100166350D01*
X193839979Y-100254842D01*
X193926864Y-100314207D01*
X194030000Y-100335093D01*
X194245000Y-100335093D01*
X194245000Y-100940000D01*
X194274306Y-101087333D01*
X194357764Y-101212236D01*
X195994907Y-102849379D01*
X195994907Y-103030435D01*
X193517235Y-100552763D01*
X193392332Y-100469305D01*
X193244999Y-100439999D01*
X164634471Y-100439999D01*
X163119472Y-98925000D01*
X186609907Y-98925000D01*
X186609907Y-100125000D01*
X186628036Y-100221350D01*
X186684979Y-100309842D01*
X186771864Y-100369207D01*
X186875000Y-100390093D01*
X187775000Y-100390093D01*
X187871350Y-100371964D01*
X187959842Y-100315021D01*
X188019207Y-100228136D01*
X188040093Y-100125000D01*
X188040093Y-99910000D01*
X188712915Y-99910000D01*
X188754978Y-100011800D01*
X188912371Y-100169468D01*
X189118120Y-100254903D01*
X189340902Y-100255097D01*
X189546800Y-100170022D01*
X189704468Y-100012629D01*
X189789903Y-99806880D01*
X189790097Y-99584098D01*
X189705022Y-99378200D01*
X189547629Y-99220532D01*
X189341880Y-99135097D01*
X189119098Y-99134903D01*
X189091566Y-99146279D01*
X189060000Y-99140000D01*
X188040093Y-99140000D01*
X188040093Y-98925000D01*
X188021964Y-98828650D01*
X187965021Y-98740158D01*
X187878136Y-98680793D01*
X187775000Y-98659907D01*
X186875000Y-98659907D01*
X186778650Y-98678036D01*
X186690158Y-98734979D01*
X186630793Y-98821864D01*
X186609907Y-98925000D01*
X163119472Y-98925000D01*
X162155093Y-97960621D01*
X162155093Y-97340000D01*
X162624907Y-97340000D01*
X162624907Y-98240000D01*
X162643036Y-98336350D01*
X162699979Y-98424842D01*
X162786864Y-98484207D01*
X162890000Y-98505093D01*
X164090000Y-98505093D01*
X164186350Y-98486964D01*
X164274842Y-98430021D01*
X164334207Y-98343136D01*
X164355093Y-98240000D01*
X164355093Y-97340000D01*
X164336964Y-97243650D01*
X164280021Y-97155158D01*
X164215000Y-97110732D01*
X164215000Y-96184359D01*
X164401694Y-96107219D01*
X164686220Y-95823189D01*
X164840394Y-95451897D01*
X164840395Y-95450133D01*
X168534255Y-95450133D01*
X168687781Y-95821694D01*
X168971811Y-96106220D01*
X169343103Y-96260394D01*
X169745133Y-96260745D01*
X170116694Y-96107219D01*
X170401220Y-95823189D01*
X170555394Y-95451897D01*
X170555745Y-95049867D01*
X170477930Y-94861542D01*
X170780043Y-94559429D01*
X174521367Y-94559429D01*
X174403780Y-94676811D01*
X174249606Y-95048103D01*
X174249255Y-95450133D01*
X174402781Y-95821694D01*
X174686811Y-96106220D01*
X175058103Y-96260394D01*
X175460133Y-96260745D01*
X175648458Y-96182930D01*
X176892764Y-97427236D01*
X177017667Y-97510694D01*
X177165000Y-97540000D01*
X180568059Y-97540000D01*
X180657371Y-97629468D01*
X180863120Y-97714903D01*
X181085902Y-97715097D01*
X181291800Y-97630022D01*
X181449468Y-97472629D01*
X181534903Y-97266880D01*
X181535097Y-97044098D01*
X181450022Y-96838200D01*
X181322616Y-96710571D01*
X181643630Y-96710571D01*
X181732942Y-96800039D01*
X181938691Y-96885474D01*
X182161473Y-96885668D01*
X182367371Y-96800593D01*
X182525039Y-96643200D01*
X182610474Y-96437451D01*
X182610668Y-96214669D01*
X182525593Y-96008771D01*
X182368200Y-95851103D01*
X182162451Y-95765668D01*
X181939669Y-95765474D01*
X181837688Y-95807611D01*
X181985394Y-95451897D01*
X181985395Y-95450133D01*
X186314255Y-95450133D01*
X186467781Y-95821694D01*
X186751811Y-96106220D01*
X186940000Y-96184363D01*
X186940000Y-96459907D01*
X186875000Y-96459907D01*
X186778650Y-96478036D01*
X186690158Y-96534979D01*
X186630793Y-96621864D01*
X186609907Y-96725000D01*
X186609907Y-97925000D01*
X186628036Y-98021350D01*
X186684979Y-98109842D01*
X186771864Y-98169207D01*
X186875000Y-98190093D01*
X187775000Y-98190093D01*
X187871350Y-98171964D01*
X187959842Y-98115021D01*
X188019207Y-98028136D01*
X188040093Y-97925000D01*
X188040093Y-96725000D01*
X188021964Y-96628650D01*
X187965021Y-96540158D01*
X187878136Y-96480793D01*
X187775000Y-96459907D01*
X187710000Y-96459907D01*
X187710000Y-96184359D01*
X187896694Y-96107219D01*
X188181220Y-95823189D01*
X188335394Y-95451897D01*
X188335745Y-95049867D01*
X188182219Y-94678306D01*
X187898189Y-94393780D01*
X187526897Y-94239606D01*
X187124867Y-94239255D01*
X186753306Y-94392781D01*
X186468780Y-94676811D01*
X186314606Y-95048103D01*
X186314255Y-95450133D01*
X181985395Y-95450133D01*
X181985745Y-95049867D01*
X181832219Y-94678306D01*
X181548189Y-94393780D01*
X181176897Y-94239606D01*
X180774867Y-94239255D01*
X180403306Y-94392781D01*
X180118780Y-94676811D01*
X179964606Y-95048103D01*
X179964398Y-95286772D01*
X178579819Y-93902193D01*
X178454916Y-93818735D01*
X178307583Y-93789429D01*
X170620571Y-93789429D01*
X170473237Y-93818735D01*
X170348335Y-93902193D01*
X169933456Y-94317072D01*
X169746897Y-94239606D01*
X169344867Y-94239255D01*
X168973306Y-94392781D01*
X168688780Y-94676811D01*
X168534606Y-95048103D01*
X168534255Y-95450133D01*
X164840395Y-95450133D01*
X164840745Y-95049867D01*
X164687219Y-94678306D01*
X164403189Y-94393780D01*
X164031897Y-94239606D01*
X163629867Y-94239255D01*
X163258306Y-94392781D01*
X162973780Y-94676811D01*
X162819606Y-95048103D01*
X162819255Y-95450133D01*
X162972781Y-95821694D01*
X163256811Y-96106220D01*
X163445000Y-96184363D01*
X163445000Y-97074907D01*
X162890000Y-97074907D01*
X162793650Y-97093036D01*
X162705158Y-97149979D01*
X162645793Y-97236864D01*
X162624907Y-97340000D01*
X162155093Y-97340000D01*
X162136964Y-97243650D01*
X162080021Y-97155158D01*
X161993136Y-97095793D01*
X161890000Y-97074907D01*
X160690000Y-97074907D01*
X160593650Y-97093036D01*
X160505158Y-97149979D01*
X160445793Y-97236864D01*
X160424907Y-97340000D01*
X160424907Y-97960621D01*
X158423000Y-99962528D01*
X158423000Y-99820998D01*
X158281002Y-99820998D01*
X158423000Y-99679000D01*
X158423000Y-99302018D01*
X158336527Y-99093254D01*
X158176746Y-98933473D01*
X157967982Y-98847000D01*
X157809500Y-98847000D01*
X157667500Y-98989000D01*
X157667500Y-99821000D01*
X157694000Y-99821000D01*
X157694000Y-100209000D01*
X157667500Y-100209000D01*
X157667500Y-100229000D01*
X157292500Y-100229000D01*
X157292500Y-100209000D01*
X156679000Y-100209000D01*
X156555000Y-100333000D01*
X156451000Y-100229000D01*
X155769000Y-100229000D01*
X155769000Y-100249000D01*
X155381000Y-100249000D01*
X155381000Y-100229000D01*
X154699000Y-100229000D01*
X154557000Y-100371000D01*
X154557000Y-100575001D01*
X153264473Y-100575001D01*
X152587236Y-99897764D01*
X152462333Y-99814306D01*
X152330093Y-99788002D01*
X152330093Y-99395000D01*
X152316361Y-99322018D01*
X154557000Y-99322018D01*
X154557000Y-99699000D01*
X154699000Y-99841000D01*
X155381000Y-99841000D01*
X155381000Y-99009000D01*
X155769000Y-99009000D01*
X155769000Y-99841000D01*
X156451000Y-99841000D01*
X156575000Y-99717000D01*
X156679000Y-99821000D01*
X157292500Y-99821000D01*
X157292500Y-98989000D01*
X157150500Y-98847000D01*
X156992018Y-98847000D01*
X156783254Y-98933473D01*
X156623473Y-99093254D01*
X156560858Y-99244420D01*
X156506527Y-99113254D01*
X156346746Y-98953473D01*
X156137982Y-98867000D01*
X155911000Y-98867000D01*
X155769000Y-99009000D01*
X155381000Y-99009000D01*
X155239000Y-98867000D01*
X155012018Y-98867000D01*
X154803254Y-98953473D01*
X154643473Y-99113254D01*
X154557000Y-99322018D01*
X152316361Y-99322018D01*
X152311964Y-99298650D01*
X152255021Y-99210158D01*
X152168136Y-99150793D01*
X152065000Y-99129907D01*
X151465000Y-99129907D01*
X151368650Y-99148036D01*
X151280158Y-99204979D01*
X151220793Y-99291864D01*
X151199907Y-99395000D01*
X151199907Y-99785000D01*
X151060093Y-99785000D01*
X151060093Y-99395000D01*
X151041964Y-99298650D01*
X150985021Y-99210158D01*
X150898136Y-99150793D01*
X150880000Y-99147120D01*
X150880000Y-98314530D01*
X150895093Y-98240000D01*
X150895093Y-97340000D01*
X150876964Y-97243650D01*
X150820021Y-97155158D01*
X150733136Y-97095793D01*
X150630000Y-97074907D01*
X149430000Y-97074907D01*
X149333650Y-97093036D01*
X149245158Y-97149979D01*
X149185793Y-97236864D01*
X149164907Y-97340000D01*
X149164907Y-98240000D01*
X149183036Y-98336350D01*
X149239979Y-98424842D01*
X149326864Y-98484207D01*
X149430000Y-98505093D01*
X150110000Y-98505093D01*
X150110000Y-99145900D01*
X150098650Y-99148036D01*
X150010158Y-99204979D01*
X149950793Y-99291864D01*
X149929907Y-99395000D01*
X149929907Y-100945000D01*
X149948036Y-101041350D01*
X150004979Y-101129842D01*
X150091864Y-101189207D01*
X150110000Y-101192880D01*
X150110000Y-101440528D01*
X147682764Y-103867764D01*
X147599306Y-103992667D01*
X147570000Y-104140000D01*
X147570000Y-104545900D01*
X147558650Y-104548036D01*
X147470158Y-104604979D01*
X147410793Y-104691864D01*
X147389907Y-104795000D01*
X145230000Y-104795000D01*
X145230000Y-100506000D01*
X147087000Y-100506000D01*
X147087000Y-101057982D01*
X147173473Y-101266746D01*
X147333254Y-101426527D01*
X147542018Y-101513000D01*
X147663000Y-101513000D01*
X147805000Y-101371000D01*
X147805000Y-100364000D01*
X147229000Y-100364000D01*
X147087000Y-100506000D01*
X145230000Y-100506000D01*
X145230000Y-99282018D01*
X147087000Y-99282018D01*
X147087000Y-99834000D01*
X147229000Y-99976000D01*
X147805000Y-99976000D01*
X147805000Y-98969000D01*
X148105000Y-98969000D01*
X148105000Y-99976000D01*
X148169000Y-99976000D01*
X148169000Y-100364000D01*
X148105000Y-100364000D01*
X148105000Y-101371000D01*
X148247000Y-101513000D01*
X148367982Y-101513000D01*
X148576746Y-101426527D01*
X148736527Y-101266746D01*
X148780384Y-101160866D01*
X148821864Y-101189207D01*
X148925000Y-101210093D01*
X149525000Y-101210093D01*
X149621350Y-101191964D01*
X149709842Y-101135021D01*
X149769207Y-101048136D01*
X149790093Y-100945000D01*
X149790093Y-99395000D01*
X149771964Y-99298650D01*
X149747834Y-99261151D01*
X149784903Y-99171880D01*
X149785097Y-98949098D01*
X149700022Y-98743200D01*
X149542629Y-98585532D01*
X149336880Y-98500097D01*
X149114098Y-98499903D01*
X148908200Y-98584978D01*
X148750532Y-98742371D01*
X148665097Y-98948120D01*
X148665050Y-99001777D01*
X148576746Y-98913473D01*
X148367982Y-98827000D01*
X148247000Y-98827000D01*
X148105000Y-98969000D01*
X147805000Y-98969000D01*
X147663000Y-98827000D01*
X147542018Y-98827000D01*
X147333254Y-98913473D01*
X147173473Y-99073254D01*
X147087000Y-99282018D01*
X145230000Y-99282018D01*
X145230000Y-95450133D01*
X148849255Y-95450133D01*
X149002781Y-95821694D01*
X149286811Y-96106220D01*
X149658103Y-96260394D01*
X150060133Y-96260745D01*
X150248458Y-96182930D01*
X151371748Y-97306220D01*
X151364907Y-97340000D01*
X151364907Y-98240000D01*
X151383036Y-98336350D01*
X151439979Y-98424842D01*
X151526864Y-98484207D01*
X151630000Y-98505093D01*
X152830000Y-98505093D01*
X152926350Y-98486964D01*
X153014842Y-98430021D01*
X153074207Y-98343136D01*
X153095093Y-98240000D01*
X153095093Y-97340000D01*
X153076964Y-97243650D01*
X153020021Y-97155158D01*
X152933136Y-97095793D01*
X152830000Y-97074907D01*
X152229379Y-97074907D01*
X151380738Y-96226266D01*
X155508092Y-96226266D01*
X155585000Y-96440291D01*
X156088080Y-96588862D01*
X156609721Y-96533605D01*
X156835000Y-96440291D01*
X156911908Y-96226266D01*
X156210000Y-95524357D01*
X155508092Y-96226266D01*
X151380738Y-96226266D01*
X150792928Y-95638456D01*
X150870394Y-95451897D01*
X150870676Y-95128080D01*
X154871138Y-95128080D01*
X154926395Y-95649721D01*
X155019709Y-95875000D01*
X155233734Y-95951908D01*
X155935643Y-95250000D01*
X156484357Y-95250000D01*
X157186266Y-95951908D01*
X157400291Y-95875000D01*
X157535844Y-95416000D01*
X159002000Y-95416000D01*
X159002000Y-95792982D01*
X159088473Y-96001746D01*
X159248254Y-96161527D01*
X159457018Y-96248000D01*
X159684000Y-96248000D01*
X159826000Y-96106000D01*
X159826000Y-95274000D01*
X160214000Y-95274000D01*
X160214000Y-96106000D01*
X160356000Y-96248000D01*
X160582982Y-96248000D01*
X160791746Y-96161527D01*
X160951527Y-96001746D01*
X161038000Y-95792982D01*
X161038000Y-95416000D01*
X160896000Y-95274000D01*
X160214000Y-95274000D01*
X159826000Y-95274000D01*
X159144000Y-95274000D01*
X159002000Y-95416000D01*
X157535844Y-95416000D01*
X157548862Y-95371920D01*
X157493605Y-94850279D01*
X157400291Y-94625000D01*
X157186266Y-94548092D01*
X156484357Y-95250000D01*
X155935643Y-95250000D01*
X155233734Y-94548092D01*
X155019709Y-94625000D01*
X154871138Y-95128080D01*
X150870676Y-95128080D01*
X150870745Y-95049867D01*
X150717219Y-94678306D01*
X150433189Y-94393780D01*
X150144087Y-94273734D01*
X155508092Y-94273734D01*
X156210000Y-94975643D01*
X156818624Y-94367018D01*
X159002000Y-94367018D01*
X159002000Y-94744000D01*
X159144000Y-94886000D01*
X159826000Y-94886000D01*
X159826000Y-94054000D01*
X160214000Y-94054000D01*
X160214000Y-94886000D01*
X160896000Y-94886000D01*
X161038000Y-94744000D01*
X161038000Y-94367018D01*
X160951527Y-94158254D01*
X160791746Y-93998473D01*
X160582982Y-93912000D01*
X160356000Y-93912000D01*
X160214000Y-94054000D01*
X159826000Y-94054000D01*
X159684000Y-93912000D01*
X159457018Y-93912000D01*
X159248254Y-93998473D01*
X159088473Y-94158254D01*
X159002000Y-94367018D01*
X156818624Y-94367018D01*
X156911908Y-94273734D01*
X156835000Y-94059709D01*
X156331920Y-93911138D01*
X155810279Y-93966395D01*
X155585000Y-94059709D01*
X155508092Y-94273734D01*
X150144087Y-94273734D01*
X150061897Y-94239606D01*
X149659867Y-94239255D01*
X149288306Y-94392781D01*
X149003780Y-94676811D01*
X148849606Y-95048103D01*
X148849255Y-95450133D01*
X145230000Y-95450133D01*
X145230000Y-92910133D01*
X148849255Y-92910133D01*
X149002781Y-93281694D01*
X149286811Y-93566220D01*
X149658103Y-93720394D01*
X150060133Y-93720745D01*
X150431694Y-93567219D01*
X150716220Y-93283189D01*
X150870394Y-92911897D01*
X150870395Y-92910133D01*
X155199255Y-92910133D01*
X155352781Y-93281694D01*
X155636811Y-93566220D01*
X156008103Y-93720394D01*
X156410133Y-93720745D01*
X156781694Y-93567219D01*
X157066220Y-93283189D01*
X157144363Y-93095000D01*
X159304907Y-93095000D01*
X159304907Y-93480000D01*
X159323036Y-93576350D01*
X159379979Y-93664842D01*
X159466864Y-93724207D01*
X159570000Y-93745093D01*
X160470000Y-93745093D01*
X160566350Y-93726964D01*
X160654842Y-93670021D01*
X160714207Y-93583136D01*
X160735093Y-93480000D01*
X160735093Y-92910133D01*
X162819255Y-92910133D01*
X162972781Y-93281694D01*
X163256811Y-93566220D01*
X163628103Y-93720394D01*
X164030133Y-93720745D01*
X164401694Y-93567219D01*
X164686220Y-93283189D01*
X164840394Y-92911897D01*
X164840395Y-92910133D01*
X168534255Y-92910133D01*
X168687781Y-93281694D01*
X168971811Y-93566220D01*
X169343103Y-93720394D01*
X169745133Y-93720745D01*
X170116694Y-93567219D01*
X170401220Y-93283189D01*
X170555394Y-92911897D01*
X170555395Y-92910133D01*
X174249255Y-92910133D01*
X174402781Y-93281694D01*
X174686811Y-93566220D01*
X175058103Y-93720394D01*
X175460133Y-93720745D01*
X175831694Y-93567219D01*
X176116220Y-93283189D01*
X176270394Y-92911897D01*
X176270395Y-92910133D01*
X179964255Y-92910133D01*
X180117781Y-93281694D01*
X180401811Y-93566220D01*
X180773103Y-93720394D01*
X181175133Y-93720745D01*
X181546694Y-93567219D01*
X181831220Y-93283189D01*
X181985394Y-92911897D01*
X181985395Y-92910133D01*
X186314255Y-92910133D01*
X186467781Y-93281694D01*
X186751811Y-93566220D01*
X187123103Y-93720394D01*
X187525133Y-93720745D01*
X187896694Y-93567219D01*
X188181220Y-93283189D01*
X188335394Y-92911897D01*
X188335395Y-92910133D01*
X202824255Y-92910133D01*
X202977781Y-93281694D01*
X203261811Y-93566220D01*
X203633103Y-93720394D01*
X204035133Y-93720745D01*
X204406694Y-93567219D01*
X204691220Y-93283189D01*
X204845394Y-92911897D01*
X204845395Y-92910133D01*
X208539255Y-92910133D01*
X208692781Y-93281694D01*
X208976811Y-93566220D01*
X209348103Y-93720394D01*
X209750133Y-93720745D01*
X210121694Y-93567219D01*
X210406220Y-93283189D01*
X210560394Y-92911897D01*
X210560745Y-92509867D01*
X210407219Y-92138306D01*
X210123189Y-91853780D01*
X209751897Y-91699606D01*
X209349867Y-91699255D01*
X208978306Y-91852781D01*
X208693780Y-92136811D01*
X208539606Y-92508103D01*
X208539255Y-92910133D01*
X204845395Y-92910133D01*
X204845745Y-92509867D01*
X204692219Y-92138306D01*
X204408189Y-91853780D01*
X204036897Y-91699606D01*
X203634867Y-91699255D01*
X203263306Y-91852781D01*
X202978780Y-92136811D01*
X202824606Y-92508103D01*
X202824255Y-92910133D01*
X188335395Y-92910133D01*
X188335745Y-92509867D01*
X188182219Y-92138306D01*
X187898189Y-91853780D01*
X187526897Y-91699606D01*
X187124867Y-91699255D01*
X186753306Y-91852781D01*
X186468780Y-92136811D01*
X186314606Y-92508103D01*
X186314255Y-92910133D01*
X181985395Y-92910133D01*
X181985745Y-92509867D01*
X181832219Y-92138306D01*
X181548189Y-91853780D01*
X181176897Y-91699606D01*
X180774867Y-91699255D01*
X180403306Y-91852781D01*
X180118780Y-92136811D01*
X179964606Y-92508103D01*
X179964255Y-92910133D01*
X176270395Y-92910133D01*
X176270745Y-92509867D01*
X176117219Y-92138306D01*
X175833189Y-91853780D01*
X175461897Y-91699606D01*
X175059867Y-91699255D01*
X174688306Y-91852781D01*
X174403780Y-92136811D01*
X174249606Y-92508103D01*
X174249255Y-92910133D01*
X170555395Y-92910133D01*
X170555745Y-92509867D01*
X170402219Y-92138306D01*
X170118189Y-91853780D01*
X169746897Y-91699606D01*
X169344867Y-91699255D01*
X168973306Y-91852781D01*
X168688780Y-92136811D01*
X168534606Y-92508103D01*
X168534255Y-92910133D01*
X164840395Y-92910133D01*
X164840745Y-92509867D01*
X164687219Y-92138306D01*
X164403189Y-91853780D01*
X164031897Y-91699606D01*
X163629867Y-91699255D01*
X163258306Y-91852781D01*
X162973780Y-92136811D01*
X162819606Y-92508103D01*
X162819255Y-92910133D01*
X160735093Y-92910133D01*
X160735093Y-92280000D01*
X160716964Y-92183650D01*
X160660021Y-92095158D01*
X160573136Y-92035793D01*
X160470000Y-92014907D01*
X159570000Y-92014907D01*
X159473650Y-92033036D01*
X159385158Y-92089979D01*
X159325793Y-92176864D01*
X159304907Y-92280000D01*
X159304907Y-92325000D01*
X157144359Y-92325000D01*
X157067219Y-92138306D01*
X156783189Y-91853780D01*
X156411897Y-91699606D01*
X156009867Y-91699255D01*
X155638306Y-91852781D01*
X155353780Y-92136811D01*
X155199606Y-92508103D01*
X155199255Y-92910133D01*
X150870395Y-92910133D01*
X150870745Y-92509867D01*
X150717219Y-92138306D01*
X150433189Y-91853780D01*
X150061897Y-91699606D01*
X149659867Y-91699255D01*
X149288306Y-91852781D01*
X149003780Y-92136811D01*
X148849606Y-92508103D01*
X148849255Y-92910133D01*
X145230000Y-92910133D01*
X145230000Y-87639432D01*
X147629774Y-87639432D01*
X147828789Y-88121086D01*
X148196976Y-88489916D01*
X148678282Y-88689772D01*
X149199432Y-88690226D01*
X149681086Y-88491211D01*
X150049916Y-88123024D01*
X150249772Y-87641718D01*
X150249773Y-87639432D01*
X159629774Y-87639432D01*
X159828789Y-88121086D01*
X160196976Y-88489916D01*
X160678282Y-88689772D01*
X161199432Y-88690226D01*
X161681086Y-88491211D01*
X162049916Y-88123024D01*
X162249772Y-87641718D01*
X162250226Y-87120568D01*
X162102187Y-86762285D01*
X162474473Y-86389999D01*
X164587492Y-86389999D01*
X164340084Y-86636976D01*
X164140228Y-87118282D01*
X164139774Y-87639432D01*
X164338789Y-88121086D01*
X164706976Y-88489916D01*
X165188282Y-88689772D01*
X165709432Y-88690226D01*
X166191086Y-88491211D01*
X166559916Y-88123024D01*
X166759772Y-87641718D01*
X166760226Y-87120568D01*
X166561211Y-86638914D01*
X166312730Y-86389999D01*
X176587492Y-86389999D01*
X176340084Y-86636976D01*
X176140228Y-87118282D01*
X176139774Y-87639432D01*
X176338789Y-88121086D01*
X176706976Y-88489916D01*
X177188282Y-88689772D01*
X177709432Y-88690226D01*
X178067715Y-88542187D01*
X178802765Y-89277237D01*
X178927668Y-89360695D01*
X179075001Y-89390001D01*
X208844999Y-89390001D01*
X208992332Y-89360695D01*
X209117235Y-89277237D01*
X209852453Y-88542019D01*
X210208282Y-88689772D01*
X210729432Y-88690226D01*
X211211086Y-88491211D01*
X211579916Y-88123024D01*
X211779772Y-87641718D01*
X211780226Y-87120568D01*
X211581211Y-86638914D01*
X211213024Y-86270084D01*
X210731718Y-86070228D01*
X210210568Y-86069774D01*
X209728914Y-86268789D01*
X209360084Y-86636976D01*
X209160228Y-87118282D01*
X209159774Y-87639432D01*
X209307813Y-87997715D01*
X208685527Y-88620001D01*
X198899390Y-88620001D01*
X199211086Y-88491211D01*
X199579916Y-88123024D01*
X199779772Y-87641718D01*
X199780226Y-87120568D01*
X199581211Y-86638914D01*
X199213024Y-86270084D01*
X198731718Y-86070228D01*
X198210568Y-86069774D01*
X197728914Y-86268789D01*
X197360084Y-86636976D01*
X197160228Y-87118282D01*
X197159774Y-87639432D01*
X197358789Y-88121086D01*
X197726976Y-88489916D01*
X198040255Y-88620001D01*
X194822508Y-88620001D01*
X195069916Y-88373024D01*
X195269772Y-87891718D01*
X195270226Y-87370568D01*
X195071211Y-86888914D01*
X194703024Y-86520084D01*
X194221718Y-86320228D01*
X193700568Y-86319774D01*
X193342285Y-86467813D01*
X192607235Y-85732763D01*
X192482332Y-85649305D01*
X192334999Y-85619999D01*
X162315001Y-85619999D01*
X162167667Y-85649305D01*
X162042765Y-85732763D01*
X161557547Y-86217981D01*
X161201718Y-86070228D01*
X160680568Y-86069774D01*
X160198914Y-86268789D01*
X159830084Y-86636976D01*
X159630228Y-87118282D01*
X159629774Y-87639432D01*
X150249773Y-87639432D01*
X150250226Y-87120568D01*
X150051211Y-86638914D01*
X149683024Y-86270084D01*
X149201718Y-86070228D01*
X148680568Y-86069774D01*
X148198914Y-86268789D01*
X147830084Y-86636976D01*
X147630228Y-87118282D01*
X147629774Y-87639432D01*
X145230000Y-87639432D01*
X145230000Y-75439432D01*
X147629774Y-75439432D01*
X147828789Y-75921086D01*
X148196976Y-76289916D01*
X148678282Y-76489772D01*
X149199432Y-76490226D01*
X149557715Y-76342187D01*
X150042765Y-76827237D01*
X150167667Y-76910695D01*
X150315001Y-76940001D01*
X162590075Y-76940001D01*
X162737408Y-76910695D01*
X162862311Y-76827237D01*
X164124548Y-75565000D01*
X164191658Y-75565000D01*
X164338789Y-75921086D01*
X164706976Y-76289916D01*
X165188282Y-76489772D01*
X165709432Y-76490226D01*
X166067715Y-76342187D01*
X166552765Y-76827237D01*
X166677667Y-76910695D01*
X166825001Y-76940001D01*
X180834999Y-76940001D01*
X180982332Y-76910695D01*
X181107235Y-76827237D01*
X181342453Y-76592019D01*
X181698282Y-76739772D01*
X182219432Y-76740226D01*
X182577715Y-76592187D01*
X183727764Y-77742236D01*
X183852667Y-77825694D01*
X184000000Y-77855000D01*
X196180000Y-77855000D01*
X196327333Y-77825694D01*
X196452236Y-77742236D01*
X197852453Y-76342019D01*
X198208282Y-76489772D01*
X198729432Y-76490226D01*
X199211086Y-76291211D01*
X199579916Y-75923024D01*
X199779772Y-75441718D01*
X199780157Y-74999627D01*
X200232766Y-75452236D01*
X200357668Y-75535694D01*
X200505002Y-75565000D01*
X209211658Y-75565000D01*
X209358789Y-75921086D01*
X209726976Y-76289916D01*
X210208282Y-76489772D01*
X210729432Y-76490226D01*
X211211086Y-76291211D01*
X211579916Y-75923024D01*
X211779772Y-75441718D01*
X211780226Y-74920568D01*
X211581211Y-74438914D01*
X211213024Y-74070084D01*
X210731718Y-73870228D01*
X210210568Y-73869774D01*
X209728914Y-74068789D01*
X209360084Y-74436976D01*
X209211419Y-74795000D01*
X200664474Y-74795000D01*
X199402237Y-73532763D01*
X199277334Y-73449305D01*
X199227699Y-73439432D01*
X203159774Y-73439432D01*
X203358789Y-73921086D01*
X203726976Y-74289916D01*
X204208282Y-74489772D01*
X204729432Y-74490226D01*
X205211086Y-74291211D01*
X205579916Y-73923024D01*
X205779772Y-73441718D01*
X205780226Y-72920568D01*
X205581211Y-72438914D01*
X205349786Y-72207085D01*
X209066896Y-68489975D01*
X209120016Y-68525469D01*
X209549999Y-68610998D01*
X209979982Y-68525469D01*
X210344504Y-68281903D01*
X210588070Y-67917381D01*
X210673599Y-67487398D01*
X210673599Y-67132602D01*
X210588070Y-66702619D01*
X210344504Y-66338097D01*
X209979982Y-66094531D01*
X209549999Y-66009002D01*
X209120016Y-66094531D01*
X208755494Y-66338097D01*
X208511928Y-66702619D01*
X208429702Y-67115998D01*
X208296782Y-67115998D01*
X208414683Y-66893001D01*
X208206500Y-66375593D01*
X207816161Y-65977239D01*
X207423496Y-65787017D01*
X207203999Y-65882676D01*
X207203999Y-67116000D01*
X207223999Y-67116000D01*
X207223999Y-67504000D01*
X207203999Y-67504000D01*
X207203999Y-68737324D01*
X207423496Y-68832983D01*
X207816161Y-68642761D01*
X208206500Y-68244407D01*
X208414683Y-67726999D01*
X208296782Y-67504002D01*
X208429702Y-67504002D01*
X208511928Y-67917381D01*
X208527396Y-67940531D01*
X204597816Y-71870111D01*
X204210568Y-71869774D01*
X203728914Y-72068789D01*
X203360084Y-72436976D01*
X203160228Y-72918282D01*
X203159774Y-73439432D01*
X199227699Y-73439432D01*
X199130001Y-73419999D01*
X195585001Y-73419999D01*
X195437668Y-73449305D01*
X195312765Y-73532763D01*
X194577547Y-74267981D01*
X194221718Y-74120228D01*
X193700568Y-74119774D01*
X193218914Y-74318789D01*
X192850084Y-74686976D01*
X192701419Y-75045000D01*
X184154474Y-75045000D01*
X182892237Y-73782763D01*
X182767334Y-73699305D01*
X182717699Y-73689432D01*
X186649774Y-73689432D01*
X186848789Y-74171086D01*
X187216976Y-74539916D01*
X187698282Y-74739772D01*
X188219432Y-74740226D01*
X188701086Y-74541211D01*
X189069916Y-74173024D01*
X189269772Y-73691718D01*
X189270226Y-73170568D01*
X189122187Y-72812285D01*
X192898471Y-69036001D01*
X203281398Y-69036001D01*
X203428731Y-69006695D01*
X203553634Y-68923237D01*
X203986896Y-68489975D01*
X204040016Y-68525469D01*
X204469999Y-68610998D01*
X204899982Y-68525469D01*
X205264504Y-68281903D01*
X205508070Y-67917381D01*
X205590296Y-67504002D01*
X205723216Y-67504002D01*
X205605315Y-67726999D01*
X205813498Y-68244407D01*
X206203837Y-68642761D01*
X206596502Y-68832983D01*
X206815999Y-68737324D01*
X206815999Y-67504000D01*
X206795999Y-67504000D01*
X206795999Y-67116000D01*
X206815999Y-67116000D01*
X206815999Y-65882676D01*
X206596502Y-65787017D01*
X206203837Y-65977239D01*
X205813498Y-66375593D01*
X205605315Y-66893001D01*
X205723216Y-67115998D01*
X205590296Y-67115998D01*
X205508070Y-66702619D01*
X205264504Y-66338097D01*
X204899982Y-66094531D01*
X204469999Y-66009002D01*
X204040016Y-66094531D01*
X203675494Y-66338097D01*
X203431928Y-66702619D01*
X203349702Y-67115998D01*
X203219601Y-67115998D01*
X203361599Y-66974000D01*
X203361599Y-66181018D01*
X203275126Y-65972254D01*
X203115345Y-65812473D01*
X202906581Y-65726000D01*
X202265999Y-65726000D01*
X202123999Y-65868000D01*
X202123999Y-67116000D01*
X202143999Y-67116000D01*
X202143999Y-67504000D01*
X202123999Y-67504000D01*
X202123999Y-67524000D01*
X201735999Y-67524000D01*
X201735999Y-67504000D01*
X200640399Y-67504000D01*
X200498399Y-67646000D01*
X200498399Y-68266001D01*
X193421796Y-68266001D01*
X193654737Y-67917381D01*
X193740266Y-67487398D01*
X193740266Y-67132602D01*
X193654737Y-66702619D01*
X193411171Y-66338097D01*
X193176086Y-66181018D01*
X200498399Y-66181018D01*
X200498399Y-66974000D01*
X200640399Y-67116000D01*
X201735999Y-67116000D01*
X201735999Y-65868000D01*
X201593999Y-65726000D01*
X200953417Y-65726000D01*
X200744653Y-65812473D01*
X200584872Y-65972254D01*
X200498399Y-66181018D01*
X193176086Y-66181018D01*
X193046649Y-66094531D01*
X192616666Y-66009002D01*
X192186683Y-66094531D01*
X191822161Y-66338097D01*
X191578595Y-66702619D01*
X191496369Y-67115998D01*
X191363449Y-67115998D01*
X191481350Y-66893001D01*
X191273167Y-66375593D01*
X190882828Y-65977239D01*
X190490163Y-65787017D01*
X190270666Y-65882676D01*
X190270666Y-67116000D01*
X190290666Y-67116000D01*
X190290666Y-67504000D01*
X190270666Y-67504000D01*
X190270666Y-68737324D01*
X190490163Y-68832983D01*
X190882828Y-68642761D01*
X191273167Y-68244407D01*
X191481350Y-67726999D01*
X191363449Y-67504002D01*
X191496369Y-67504002D01*
X191578595Y-67917381D01*
X191822161Y-68281903D01*
X192186683Y-68525469D01*
X192297930Y-68547598D01*
X188577547Y-72267981D01*
X188221718Y-72120228D01*
X187700568Y-72119774D01*
X187218914Y-72318789D01*
X186850084Y-72686976D01*
X186650228Y-73168282D01*
X186649774Y-73689432D01*
X182717699Y-73689432D01*
X182620001Y-73669999D01*
X178575001Y-73669999D01*
X178427668Y-73699305D01*
X178302765Y-73782763D01*
X178067547Y-74017981D01*
X177711718Y-73870228D01*
X177190568Y-73869774D01*
X176708914Y-74068789D01*
X176340084Y-74436976D01*
X176191419Y-74795000D01*
X167644474Y-74795000D01*
X166382237Y-73532763D01*
X166257334Y-73449305D01*
X166110001Y-73419999D01*
X162315001Y-73419999D01*
X162167667Y-73449305D01*
X162042765Y-73532763D01*
X161557547Y-74017981D01*
X161201718Y-73870228D01*
X160680568Y-73869774D01*
X160198914Y-74068789D01*
X159830084Y-74436976D01*
X159630228Y-74918282D01*
X159629774Y-75439432D01*
X159828789Y-75921086D01*
X160077270Y-76170001D01*
X150474473Y-76170001D01*
X150102019Y-75797547D01*
X150249772Y-75441718D01*
X150250226Y-74920568D01*
X150051211Y-74438914D01*
X149683024Y-74070084D01*
X149201718Y-73870228D01*
X148680568Y-73869774D01*
X148198914Y-74068789D01*
X147830084Y-74436976D01*
X147630228Y-74918282D01*
X147629774Y-75439432D01*
X145230000Y-75439432D01*
X145230000Y-67646000D01*
X149698400Y-67646000D01*
X149698400Y-68438982D01*
X149784873Y-68647746D01*
X149944654Y-68807527D01*
X150153418Y-68894000D01*
X150794000Y-68894000D01*
X150936000Y-68752000D01*
X150936000Y-67504000D01*
X149840400Y-67504000D01*
X149698400Y-67646000D01*
X145230000Y-67646000D01*
X145230000Y-66181018D01*
X149698400Y-66181018D01*
X149698400Y-66974000D01*
X149840400Y-67116000D01*
X150936000Y-67116000D01*
X150936000Y-65868000D01*
X151324000Y-65868000D01*
X151324000Y-67116000D01*
X151344000Y-67116000D01*
X151344000Y-67504000D01*
X151324000Y-67504000D01*
X151324000Y-68752000D01*
X151466000Y-68894000D01*
X152106582Y-68894000D01*
X152315346Y-68807527D01*
X152475127Y-68647746D01*
X152561600Y-68438982D01*
X152561600Y-67646000D01*
X152419602Y-67504002D01*
X152549703Y-67504002D01*
X152631929Y-67917381D01*
X152875495Y-68281903D01*
X153240017Y-68525469D01*
X153285000Y-68534417D01*
X153285000Y-71910000D01*
X153314306Y-72057333D01*
X153397764Y-72182236D01*
X153777981Y-72562453D01*
X153630228Y-72918282D01*
X153629774Y-73439432D01*
X153828789Y-73921086D01*
X154196976Y-74289916D01*
X154678282Y-74489772D01*
X155199432Y-74490226D01*
X155681086Y-74291211D01*
X156049916Y-73923024D01*
X156249772Y-73441718D01*
X156250226Y-72920568D01*
X156051211Y-72438914D01*
X155683024Y-72070084D01*
X155201718Y-71870228D01*
X154680568Y-71869774D01*
X154322285Y-72017813D01*
X154055000Y-71750528D01*
X154055000Y-68534417D01*
X154099983Y-68525469D01*
X154464505Y-68281903D01*
X154708071Y-67917381D01*
X154790297Y-67504002D01*
X154923217Y-67504002D01*
X154805316Y-67726999D01*
X155013499Y-68244407D01*
X155403838Y-68642761D01*
X155796503Y-68832983D01*
X156016000Y-68737324D01*
X156016000Y-67504000D01*
X155996000Y-67504000D01*
X155996000Y-67116000D01*
X156016000Y-67116000D01*
X156016000Y-65882676D01*
X156404000Y-65882676D01*
X156404000Y-67116000D01*
X156424000Y-67116000D01*
X156424000Y-67504000D01*
X156404000Y-67504000D01*
X156404000Y-68737324D01*
X156623497Y-68832983D01*
X157016162Y-68642761D01*
X157406501Y-68244407D01*
X157614684Y-67726999D01*
X157496783Y-67504002D01*
X157629703Y-67504002D01*
X157711929Y-67917381D01*
X157955495Y-68281903D01*
X158320017Y-68525469D01*
X158750000Y-68610998D01*
X159179983Y-68525469D01*
X159544505Y-68281903D01*
X159788071Y-67917381D01*
X159832305Y-67695000D01*
X165420528Y-67695000D01*
X170287981Y-72562453D01*
X170140228Y-72918282D01*
X170139774Y-73439432D01*
X170338789Y-73921086D01*
X170706976Y-74289916D01*
X171188282Y-74489772D01*
X171709432Y-74490226D01*
X172191086Y-74291211D01*
X172559916Y-73923024D01*
X172759772Y-73441718D01*
X172760226Y-72920568D01*
X172561211Y-72438914D01*
X172193024Y-72070084D01*
X171711718Y-71870228D01*
X171190568Y-71869774D01*
X170832285Y-72017813D01*
X167708472Y-68894000D01*
X167727333Y-68894000D01*
X167869333Y-68752000D01*
X167869333Y-67504000D01*
X166773733Y-67504000D01*
X166631733Y-67646000D01*
X166631733Y-67817261D01*
X165852236Y-67037764D01*
X165727333Y-66954306D01*
X165580000Y-66925000D01*
X159832305Y-66925000D01*
X159788071Y-66702619D01*
X159544505Y-66338097D01*
X159309420Y-66181018D01*
X166631733Y-66181018D01*
X166631733Y-66974000D01*
X166773733Y-67116000D01*
X167869333Y-67116000D01*
X167869333Y-65868000D01*
X168257333Y-65868000D01*
X168257333Y-67116000D01*
X168277333Y-67116000D01*
X168277333Y-67504000D01*
X168257333Y-67504000D01*
X168257333Y-68752000D01*
X168399333Y-68894000D01*
X169039915Y-68894000D01*
X169248679Y-68807527D01*
X169408460Y-68647746D01*
X169494933Y-68438982D01*
X169494933Y-67646000D01*
X169352935Y-67504002D01*
X169483036Y-67504002D01*
X169565262Y-67917381D01*
X169808828Y-68281903D01*
X170173350Y-68525469D01*
X170603333Y-68610998D01*
X171033316Y-68525469D01*
X171397838Y-68281903D01*
X171641404Y-67917381D01*
X171723630Y-67504002D01*
X171856550Y-67504002D01*
X171738649Y-67726999D01*
X171946832Y-68244407D01*
X172337171Y-68642761D01*
X172729836Y-68832983D01*
X172949333Y-68737324D01*
X172949333Y-67504000D01*
X172929333Y-67504000D01*
X172929333Y-67116000D01*
X172949333Y-67116000D01*
X172949333Y-65882676D01*
X173337333Y-65882676D01*
X173337333Y-67116000D01*
X173357333Y-67116000D01*
X173357333Y-67504000D01*
X173337333Y-67504000D01*
X173337333Y-68737324D01*
X173556830Y-68832983D01*
X173949495Y-68642761D01*
X174339834Y-68244407D01*
X174548017Y-67726999D01*
X174430116Y-67504002D01*
X174563036Y-67504002D01*
X174645262Y-67917381D01*
X174888828Y-68281903D01*
X175253350Y-68525469D01*
X175683333Y-68610998D01*
X176113316Y-68525469D01*
X176477838Y-68281903D01*
X176721404Y-67917381D01*
X176775385Y-67646000D01*
X183565066Y-67646000D01*
X183565066Y-68438982D01*
X183651539Y-68647746D01*
X183811320Y-68807527D01*
X184020084Y-68894000D01*
X184660666Y-68894000D01*
X184802666Y-68752000D01*
X184802666Y-67504000D01*
X183707066Y-67504000D01*
X183565066Y-67646000D01*
X176775385Y-67646000D01*
X176806933Y-67487398D01*
X176806933Y-67132602D01*
X176721404Y-66702619D01*
X176477838Y-66338097D01*
X176242753Y-66181018D01*
X183565066Y-66181018D01*
X183565066Y-66974000D01*
X183707066Y-67116000D01*
X184802666Y-67116000D01*
X184802666Y-65868000D01*
X185190666Y-65868000D01*
X185190666Y-67116000D01*
X185210666Y-67116000D01*
X185210666Y-67504000D01*
X185190666Y-67504000D01*
X185190666Y-68752000D01*
X185332666Y-68894000D01*
X185973248Y-68894000D01*
X186182012Y-68807527D01*
X186341793Y-68647746D01*
X186428266Y-68438982D01*
X186428266Y-67646000D01*
X186286268Y-67504002D01*
X186416369Y-67504002D01*
X186498595Y-67917381D01*
X186742161Y-68281903D01*
X187106683Y-68525469D01*
X187536666Y-68610998D01*
X187966649Y-68525469D01*
X188331171Y-68281903D01*
X188574737Y-67917381D01*
X188656963Y-67504002D01*
X188789883Y-67504002D01*
X188671982Y-67726999D01*
X188880165Y-68244407D01*
X189270504Y-68642761D01*
X189663169Y-68832983D01*
X189882666Y-68737324D01*
X189882666Y-67504000D01*
X189862666Y-67504000D01*
X189862666Y-67116000D01*
X189882666Y-67116000D01*
X189882666Y-65882676D01*
X189663169Y-65787017D01*
X189270504Y-65977239D01*
X188880165Y-66375593D01*
X188671982Y-66893001D01*
X188789883Y-67115998D01*
X188656963Y-67115998D01*
X188574737Y-66702619D01*
X188331171Y-66338097D01*
X187966649Y-66094531D01*
X187536666Y-66009002D01*
X187106683Y-66094531D01*
X186742161Y-66338097D01*
X186498595Y-66702619D01*
X186416369Y-67115998D01*
X186286268Y-67115998D01*
X186428266Y-66974000D01*
X186428266Y-66181018D01*
X186341793Y-65972254D01*
X186182012Y-65812473D01*
X185973248Y-65726000D01*
X185332666Y-65726000D01*
X185190666Y-65868000D01*
X184802666Y-65868000D01*
X184660666Y-65726000D01*
X184020084Y-65726000D01*
X183811320Y-65812473D01*
X183651539Y-65972254D01*
X183565066Y-66181018D01*
X176242753Y-66181018D01*
X176113316Y-66094531D01*
X175683333Y-66009002D01*
X175253350Y-66094531D01*
X174888828Y-66338097D01*
X174645262Y-66702619D01*
X174563036Y-67115998D01*
X174430116Y-67115998D01*
X174548017Y-66893001D01*
X174339834Y-66375593D01*
X173949495Y-65977239D01*
X173556830Y-65787017D01*
X173337333Y-65882676D01*
X172949333Y-65882676D01*
X172729836Y-65787017D01*
X172337171Y-65977239D01*
X171946832Y-66375593D01*
X171738649Y-66893001D01*
X171856550Y-67115998D01*
X171723630Y-67115998D01*
X171641404Y-66702619D01*
X171397838Y-66338097D01*
X171033316Y-66094531D01*
X170603333Y-66009002D01*
X170173350Y-66094531D01*
X169808828Y-66338097D01*
X169565262Y-66702619D01*
X169483036Y-67115998D01*
X169352935Y-67115998D01*
X169494933Y-66974000D01*
X169494933Y-66181018D01*
X169408460Y-65972254D01*
X169248679Y-65812473D01*
X169039915Y-65726000D01*
X168399333Y-65726000D01*
X168257333Y-65868000D01*
X167869333Y-65868000D01*
X167727333Y-65726000D01*
X167086751Y-65726000D01*
X166877987Y-65812473D01*
X166718206Y-65972254D01*
X166631733Y-66181018D01*
X159309420Y-66181018D01*
X159179983Y-66094531D01*
X158750000Y-66009002D01*
X158320017Y-66094531D01*
X157955495Y-66338097D01*
X157711929Y-66702619D01*
X157629703Y-67115998D01*
X157496783Y-67115998D01*
X157614684Y-66893001D01*
X157406501Y-66375593D01*
X157016162Y-65977239D01*
X156623497Y-65787017D01*
X156404000Y-65882676D01*
X156016000Y-65882676D01*
X155796503Y-65787017D01*
X155403838Y-65977239D01*
X155013499Y-66375593D01*
X154805316Y-66893001D01*
X154923217Y-67115998D01*
X154790297Y-67115998D01*
X154708071Y-66702619D01*
X154464505Y-66338097D01*
X154099983Y-66094531D01*
X153670000Y-66009002D01*
X153240017Y-66094531D01*
X152875495Y-66338097D01*
X152631929Y-66702619D01*
X152549703Y-67115998D01*
X152419602Y-67115998D01*
X152561600Y-66974000D01*
X152561600Y-66181018D01*
X152475127Y-65972254D01*
X152315346Y-65812473D01*
X152106582Y-65726000D01*
X151466000Y-65726000D01*
X151324000Y-65868000D01*
X150936000Y-65868000D01*
X150794000Y-65726000D01*
X150153418Y-65726000D01*
X149944654Y-65812473D01*
X149784873Y-65972254D01*
X149698400Y-66181018D01*
X145230000Y-66181018D01*
X145230000Y-65230000D01*
X214770000Y-65230000D01*
X214770000Y-114770000D01*
G36*
X175179907Y-105025000D02*
X175031941Y-105025000D01*
X174942629Y-104935532D01*
X174736880Y-104850097D01*
X174514098Y-104849903D01*
X174308200Y-104934978D01*
X174150532Y-105092371D01*
X174065097Y-105298120D01*
X174064903Y-105520902D01*
X174122377Y-105660000D01*
X170866101Y-105660000D01*
X170874207Y-105648136D01*
X170895093Y-105545000D01*
X170895093Y-104404999D01*
X175179907Y-104404999D01*
X175179907Y-105025000D01*
X175179907Y-105025000D01*
G37*
X175179907Y-105025000D02*
X175031941Y-105025000D01*
X174942629Y-104935532D01*
X174736880Y-104850097D01*
X174514098Y-104849903D01*
X174308200Y-104934978D01*
X174150532Y-105092371D01*
X174065097Y-105298120D01*
X174064903Y-105520902D01*
X174122377Y-105660000D01*
X170866101Y-105660000D01*
X170874207Y-105648136D01*
X170895093Y-105545000D01*
X170895093Y-104404999D01*
X175179907Y-104404999D01*
X175179907Y-105025000D01*
G36*
X180186489Y-96597807D02*
X180311391Y-96681265D01*
X180458725Y-96710571D01*
X180627554Y-96710571D01*
X180568021Y-96770000D01*
X177324472Y-96770000D01*
X176192928Y-95638456D01*
X176270394Y-95451897D01*
X176270745Y-95049867D01*
X176117219Y-94678306D01*
X175998549Y-94559429D01*
X178148111Y-94559429D01*
X180186489Y-96597807D01*
X180186489Y-96597807D01*
G37*
X180186489Y-96597807D02*
X180311391Y-96681265D01*
X180458725Y-96710571D01*
X180627554Y-96710571D01*
X180568021Y-96770000D01*
X177324472Y-96770000D01*
X176192928Y-95638456D01*
X176270394Y-95451897D01*
X176270745Y-95049867D01*
X176117219Y-94678306D01*
X175998549Y-94559429D01*
X178148111Y-94559429D01*
X180186489Y-96597807D01*
G36*
X192797981Y-87012453D02*
X192650228Y-87368282D01*
X192649774Y-87889432D01*
X192848789Y-88371086D01*
X193097270Y-88620001D01*
X182822508Y-88620001D01*
X183069916Y-88373024D01*
X183269772Y-87891718D01*
X183270226Y-87370568D01*
X183071211Y-86888914D01*
X182703024Y-86520084D01*
X182389745Y-86389999D01*
X192175527Y-86389999D01*
X192797981Y-87012453D01*
X192797981Y-87012453D01*
G37*
X192797981Y-87012453D02*
X192650228Y-87368282D01*
X192649774Y-87889432D01*
X192848789Y-88371086D01*
X193097270Y-88620001D01*
X182822508Y-88620001D01*
X183069916Y-88373024D01*
X183269772Y-87891718D01*
X183270226Y-87370568D01*
X183071211Y-86888914D01*
X182703024Y-86520084D01*
X182389745Y-86389999D01*
X192175527Y-86389999D01*
X192797981Y-87012453D01*
G36*
X181218914Y-86518789D02*
X180850084Y-86886976D01*
X180650228Y-87368282D01*
X180649774Y-87889432D01*
X180848789Y-88371086D01*
X181097270Y-88620001D01*
X179234473Y-88620001D01*
X178612019Y-87997547D01*
X178759772Y-87641718D01*
X178760226Y-87120568D01*
X178561211Y-86638914D01*
X178312730Y-86389999D01*
X181530610Y-86389999D01*
X181218914Y-86518789D01*
X181218914Y-86518789D01*
G37*
X181218914Y-86518789D02*
X180850084Y-86886976D01*
X180650228Y-87368282D01*
X180649774Y-87889432D01*
X180848789Y-88371086D01*
X181097270Y-88620001D01*
X179234473Y-88620001D01*
X178612019Y-87997547D01*
X178759772Y-87641718D01*
X178760226Y-87120568D01*
X178561211Y-86638914D01*
X178312730Y-86389999D01*
X181530610Y-86389999D01*
X181218914Y-86518789D01*
G36*
X197360084Y-74436976D02*
X197160228Y-74918282D01*
X197159774Y-75439432D01*
X197307813Y-75797715D01*
X196020528Y-77085000D01*
X184159472Y-77085000D01*
X183122019Y-76047547D01*
X183269772Y-75691718D01*
X183270157Y-75249627D01*
X183722766Y-75702236D01*
X183847668Y-75785694D01*
X183995002Y-75815000D01*
X192701658Y-75815000D01*
X192848789Y-76171086D01*
X193216976Y-76539916D01*
X193698282Y-76739772D01*
X194219432Y-76740226D01*
X194701086Y-76541211D01*
X195069916Y-76173024D01*
X195269772Y-75691718D01*
X195270226Y-75170568D01*
X195122187Y-74812285D01*
X195744473Y-74189999D01*
X197607492Y-74189999D01*
X197360084Y-74436976D01*
X197360084Y-74436976D01*
G37*
X197360084Y-74436976D02*
X197160228Y-74918282D01*
X197159774Y-75439432D01*
X197307813Y-75797715D01*
X196020528Y-77085000D01*
X184159472Y-77085000D01*
X183122019Y-76047547D01*
X183269772Y-75691718D01*
X183270157Y-75249627D01*
X183722766Y-75702236D01*
X183847668Y-75785694D01*
X183995002Y-75815000D01*
X192701658Y-75815000D01*
X192848789Y-76171086D01*
X193216976Y-76539916D01*
X193698282Y-76739772D01*
X194219432Y-76740226D01*
X194701086Y-76541211D01*
X195069916Y-76173024D01*
X195269772Y-75691718D01*
X195270226Y-75170568D01*
X195122187Y-74812285D01*
X195744473Y-74189999D01*
X197607492Y-74189999D01*
X197360084Y-74436976D01*
G36*
X167212766Y-75452236D02*
X167337668Y-75535694D01*
X167485002Y-75565000D01*
X176191658Y-75565000D01*
X176338789Y-75921086D01*
X176587270Y-76170001D01*
X166984473Y-76170001D01*
X166612019Y-75797547D01*
X166759772Y-75441718D01*
X166760157Y-74999627D01*
X167212766Y-75452236D01*
X167212766Y-75452236D01*
G37*
X167212766Y-75452236D02*
X167337668Y-75535694D01*
X167485002Y-75565000D01*
X176191658Y-75565000D01*
X176338789Y-75921086D01*
X176587270Y-76170001D01*
X166984473Y-76170001D01*
X166612019Y-75797547D01*
X166759772Y-75441718D01*
X166760157Y-74999627D01*
X167212766Y-75452236D01*
G36*
X180850084Y-74686976D02*
X180650228Y-75168282D01*
X180649774Y-75689432D01*
X180797813Y-76047715D01*
X180675527Y-76170001D01*
X178312508Y-76170001D01*
X178559916Y-75923024D01*
X178759772Y-75441718D01*
X178760226Y-74920568D01*
X178612187Y-74562285D01*
X178734473Y-74439999D01*
X181097492Y-74439999D01*
X180850084Y-74686976D01*
X180850084Y-74686976D01*
G37*
X180850084Y-74686976D02*
X180650228Y-75168282D01*
X180649774Y-75689432D01*
X180797813Y-76047715D01*
X180675527Y-76170001D01*
X178312508Y-76170001D01*
X178559916Y-75923024D01*
X178759772Y-75441718D01*
X178760226Y-74920568D01*
X178612187Y-74562285D01*
X178734473Y-74439999D01*
X181097492Y-74439999D01*
X180850084Y-74686976D01*
G36*
X164340084Y-74436976D02*
X164191419Y-74795000D01*
X163965076Y-74795000D01*
X163817742Y-74824306D01*
X163692840Y-74907764D01*
X162430603Y-76170001D01*
X161802508Y-76170001D01*
X162049916Y-75923024D01*
X162249772Y-75441718D01*
X162250226Y-74920568D01*
X162102187Y-74562285D01*
X162474473Y-74189999D01*
X164587492Y-74189999D01*
X164340084Y-74436976D01*
X164340084Y-74436976D01*
G37*
X164340084Y-74436976D02*
X164191419Y-74795000D01*
X163965076Y-74795000D01*
X163817742Y-74824306D01*
X163692840Y-74907764D01*
X162430603Y-76170001D01*
X161802508Y-76170001D01*
X162049916Y-75923024D01*
X162249772Y-75441718D01*
X162250226Y-74920568D01*
X162102187Y-74562285D01*
X162474473Y-74189999D01*
X164587492Y-74189999D01*
X164340084Y-74436976D01*
M02*
